G75*
%MOIN*%
%OFA0B0*%
%FSLAX25Y25*%
%IPPOS*%
%LPD*%
%AMOC8*
5,1,8,0,0,1.08239X$1,22.5*
%
%ADD10C,0.00000*%
%ADD11C,0.00600*%
%ADD12C,0.01600*%
%ADD13C,0.00500*%
%ADD14C,0.00400*%
%ADD15C,0.00300*%
%ADD16R,0.00591X0.01181*%
%ADD17R,0.01181X0.01181*%
%ADD18R,0.01181X0.00591*%
%ADD19C,0.00800*%
%ADD20C,0.00200*%
%ADD21C,0.01000*%
%ADD22C,0.04000*%
%ADD23C,0.03000*%
%ADD24C,0.02000*%
%ADD25C,0.02600*%
%ADD26C,0.00700*%
%ADD27R,0.02500X0.02000*%
%ADD28R,0.02000X0.02000*%
%ADD29R,0.01500X0.02000*%
%ADD30R,0.01500X0.01000*%
%ADD31R,0.02000X0.01000*%
D10*
X0001800Y0001800D02*
X0001800Y0316761D01*
X0395501Y0316761D01*
X0395501Y0001800D01*
X0001800Y0001800D01*
D11*
X0096800Y0086200D02*
X0126800Y0086200D01*
X0126800Y0127400D02*
X0110600Y0127400D01*
X0096800Y0127400D01*
X0110600Y0127400D02*
X0110605Y0127332D01*
X0110614Y0127264D01*
X0110626Y0127196D01*
X0110643Y0127130D01*
X0110663Y0127064D01*
X0110687Y0127000D01*
X0110714Y0126937D01*
X0110745Y0126876D01*
X0110780Y0126816D01*
X0110818Y0126759D01*
X0110859Y0126704D01*
X0110903Y0126652D01*
X0110950Y0126602D01*
X0111000Y0126555D01*
X0111052Y0126510D01*
X0111107Y0126469D01*
X0111164Y0126431D01*
X0111223Y0126397D01*
X0111284Y0126365D01*
X0111347Y0126338D01*
X0111411Y0126314D01*
X0111477Y0126293D01*
X0111543Y0126277D01*
X0111611Y0126264D01*
X0111679Y0126255D01*
X0111747Y0126250D01*
X0111816Y0126249D01*
X0111884Y0126252D01*
X0111953Y0126259D01*
X0112020Y0126269D01*
X0112087Y0126284D01*
X0112153Y0126302D01*
X0112218Y0126324D01*
X0112282Y0126350D01*
X0112344Y0126379D01*
X0112404Y0126412D01*
X0112462Y0126448D01*
X0112519Y0126488D01*
X0112572Y0126530D01*
X0112624Y0126576D01*
X0112672Y0126624D01*
X0112718Y0126675D01*
X0112761Y0126729D01*
X0112800Y0126785D01*
X0112837Y0126843D01*
X0112869Y0126903D01*
X0112899Y0126965D01*
X0112925Y0127029D01*
X0112947Y0127094D01*
X0112965Y0127160D01*
X0112980Y0127227D01*
X0112991Y0127295D01*
X0112998Y0127363D01*
X0113001Y0127431D01*
X0113000Y0127500D01*
X0191800Y0127400D02*
X0205600Y0127400D01*
X0221800Y0127400D01*
X0208000Y0127500D02*
X0208001Y0127431D01*
X0207998Y0127363D01*
X0207991Y0127295D01*
X0207980Y0127227D01*
X0207965Y0127160D01*
X0207947Y0127094D01*
X0207925Y0127029D01*
X0207899Y0126965D01*
X0207869Y0126903D01*
X0207837Y0126843D01*
X0207800Y0126785D01*
X0207761Y0126729D01*
X0207718Y0126675D01*
X0207672Y0126624D01*
X0207624Y0126576D01*
X0207572Y0126530D01*
X0207519Y0126488D01*
X0207462Y0126448D01*
X0207404Y0126412D01*
X0207344Y0126379D01*
X0207282Y0126350D01*
X0207218Y0126324D01*
X0207153Y0126302D01*
X0207087Y0126284D01*
X0207020Y0126269D01*
X0206953Y0126259D01*
X0206884Y0126252D01*
X0206816Y0126249D01*
X0206747Y0126250D01*
X0206679Y0126255D01*
X0206611Y0126264D01*
X0206543Y0126277D01*
X0206477Y0126293D01*
X0206411Y0126314D01*
X0206347Y0126338D01*
X0206284Y0126365D01*
X0206223Y0126397D01*
X0206164Y0126431D01*
X0206107Y0126469D01*
X0206052Y0126510D01*
X0206000Y0126555D01*
X0205950Y0126602D01*
X0205903Y0126652D01*
X0205859Y0126704D01*
X0205818Y0126759D01*
X0205780Y0126816D01*
X0205745Y0126876D01*
X0205714Y0126937D01*
X0205687Y0127000D01*
X0205663Y0127064D01*
X0205643Y0127130D01*
X0205626Y0127196D01*
X0205614Y0127264D01*
X0205605Y0127332D01*
X0205600Y0127400D01*
X0191800Y0086200D02*
X0221800Y0086200D01*
X0257800Y0067800D02*
X0305800Y0067800D01*
X0305800Y0135800D01*
X0257800Y0135800D01*
X0257800Y0067800D01*
X0361800Y0114300D02*
X0364300Y0111800D01*
X0379300Y0111800D01*
X0381800Y0114300D01*
X0381800Y0119300D01*
X0379300Y0121800D01*
X0381800Y0124300D01*
X0381800Y0129300D01*
X0379300Y0131800D01*
X0381800Y0134300D01*
X0381800Y0139300D01*
X0379300Y0141800D01*
X0381800Y0144300D01*
X0381800Y0149300D01*
X0379300Y0151800D01*
X0381800Y0154300D01*
X0381800Y0159300D01*
X0379300Y0161800D01*
X0381800Y0164300D01*
X0381800Y0169300D01*
X0379300Y0171800D01*
X0381800Y0174300D01*
X0381800Y0179300D01*
X0379300Y0181800D01*
X0364300Y0181800D01*
X0361800Y0179300D01*
X0361800Y0174300D01*
X0364300Y0171800D01*
X0361800Y0169300D01*
X0361800Y0164300D01*
X0364300Y0161800D01*
X0361800Y0159300D01*
X0361800Y0154300D01*
X0364300Y0151800D01*
X0361800Y0149300D01*
X0361800Y0144300D01*
X0364300Y0141800D01*
X0361800Y0139300D01*
X0361800Y0134300D01*
X0364300Y0131800D01*
X0361800Y0129300D01*
X0361800Y0124300D01*
X0364300Y0121800D01*
X0361800Y0119300D01*
X0361800Y0114300D01*
X0347400Y0156800D02*
X0347400Y0186800D01*
X0306200Y0186800D02*
X0306200Y0170600D01*
X0306200Y0156800D01*
X0306200Y0170600D02*
X0306268Y0170605D01*
X0306336Y0170614D01*
X0306404Y0170626D01*
X0306470Y0170643D01*
X0306536Y0170663D01*
X0306600Y0170687D01*
X0306663Y0170714D01*
X0306724Y0170745D01*
X0306784Y0170780D01*
X0306841Y0170818D01*
X0306896Y0170859D01*
X0306948Y0170903D01*
X0306998Y0170950D01*
X0307045Y0171000D01*
X0307090Y0171052D01*
X0307131Y0171107D01*
X0307169Y0171164D01*
X0307203Y0171223D01*
X0307235Y0171284D01*
X0307262Y0171347D01*
X0307286Y0171411D01*
X0307307Y0171477D01*
X0307323Y0171543D01*
X0307336Y0171611D01*
X0307345Y0171679D01*
X0307350Y0171747D01*
X0307351Y0171816D01*
X0307348Y0171884D01*
X0307341Y0171953D01*
X0307331Y0172020D01*
X0307316Y0172087D01*
X0307298Y0172153D01*
X0307276Y0172218D01*
X0307250Y0172282D01*
X0307221Y0172344D01*
X0307188Y0172404D01*
X0307152Y0172462D01*
X0307112Y0172519D01*
X0307070Y0172572D01*
X0307024Y0172624D01*
X0306976Y0172672D01*
X0306925Y0172718D01*
X0306871Y0172761D01*
X0306815Y0172800D01*
X0306757Y0172837D01*
X0306697Y0172869D01*
X0306635Y0172899D01*
X0306571Y0172925D01*
X0306506Y0172947D01*
X0306440Y0172965D01*
X0306373Y0172980D01*
X0306305Y0172991D01*
X0306237Y0172998D01*
X0306169Y0173001D01*
X0306100Y0173000D01*
X0275453Y0267100D02*
X0270516Y0267100D01*
X0268067Y0267100D02*
X0266833Y0267100D01*
X0266833Y0268334D01*
X0268067Y0268334D01*
X0268067Y0267100D01*
X0264404Y0268334D02*
X0263169Y0267100D01*
X0260701Y0267100D01*
X0259466Y0268334D01*
X0264404Y0273272D01*
X0264404Y0268334D01*
X0259466Y0268334D02*
X0259466Y0273272D01*
X0260701Y0274506D01*
X0263169Y0274506D01*
X0264404Y0273272D01*
X0270516Y0272038D02*
X0272984Y0274506D01*
X0272984Y0267100D01*
X0271770Y0279100D02*
X0271770Y0282803D01*
X0270536Y0284038D01*
X0269301Y0282803D01*
X0269301Y0279100D01*
X0266833Y0279100D02*
X0266833Y0284038D01*
X0268067Y0284038D01*
X0269301Y0282803D01*
X0264404Y0282803D02*
X0264404Y0279100D01*
X0260701Y0279100D01*
X0259466Y0280334D01*
X0260701Y0281569D01*
X0264404Y0281569D01*
X0264404Y0282803D02*
X0263169Y0284038D01*
X0260701Y0284038D01*
X0257038Y0285272D02*
X0255803Y0286506D01*
X0253334Y0286506D01*
X0252100Y0285272D01*
X0252100Y0284038D01*
X0253334Y0282803D01*
X0255803Y0282803D01*
X0257038Y0281569D01*
X0257038Y0280334D01*
X0255803Y0279100D01*
X0253334Y0279100D01*
X0252100Y0280334D01*
X0252100Y0274506D02*
X0252100Y0269569D01*
X0254569Y0267100D01*
X0257038Y0269569D01*
X0257038Y0274506D01*
X0257038Y0291100D02*
X0257038Y0294803D01*
X0255803Y0296038D01*
X0253334Y0296038D01*
X0252100Y0294803D01*
X0252100Y0298506D02*
X0252100Y0291100D01*
X0259466Y0292334D02*
X0260701Y0291100D01*
X0263169Y0291100D01*
X0264404Y0292334D01*
X0264404Y0294803D01*
X0263169Y0296038D01*
X0260701Y0296038D01*
X0259466Y0294803D01*
X0259466Y0292334D01*
X0266833Y0291100D02*
X0270536Y0291100D01*
X0271770Y0292334D01*
X0271770Y0294803D01*
X0270536Y0296038D01*
X0266833Y0296038D01*
X0266833Y0298506D02*
X0266833Y0291100D01*
X0274199Y0291100D02*
X0274199Y0298506D01*
X0274199Y0300631D02*
X0274199Y0308038D01*
X0277902Y0308038D01*
X0279136Y0306803D01*
X0279136Y0304334D01*
X0277902Y0303100D01*
X0274199Y0303100D01*
X0271770Y0304334D02*
X0270536Y0305569D01*
X0268067Y0305569D01*
X0266833Y0306803D01*
X0268067Y0308038D01*
X0271770Y0308038D01*
X0271770Y0304334D02*
X0270536Y0303100D01*
X0266833Y0303100D01*
X0264404Y0303100D02*
X0260701Y0303100D01*
X0259466Y0304334D01*
X0260701Y0305569D01*
X0264404Y0305569D01*
X0264404Y0306803D02*
X0264404Y0303100D01*
X0264404Y0306803D02*
X0263169Y0308038D01*
X0260701Y0308038D01*
X0257038Y0309272D02*
X0257038Y0306803D01*
X0255803Y0305569D01*
X0252100Y0305569D01*
X0254569Y0305569D02*
X0257038Y0303100D01*
X0252100Y0303100D02*
X0252100Y0310506D01*
X0255803Y0310506D01*
X0257038Y0309272D01*
X0274199Y0296038D02*
X0277902Y0296038D01*
X0279136Y0294803D01*
X0279136Y0292334D01*
X0277902Y0291100D01*
X0274199Y0291100D01*
X0281565Y0292334D02*
X0282800Y0291100D01*
X0286503Y0291100D01*
X0286503Y0289866D02*
X0285268Y0288631D01*
X0284034Y0288631D01*
X0285268Y0286506D02*
X0281565Y0286506D01*
X0281565Y0279100D01*
X0285268Y0279100D01*
X0286503Y0280334D01*
X0286503Y0285272D01*
X0285268Y0286506D01*
X0286503Y0289866D02*
X0286503Y0296038D01*
X0288931Y0294803D02*
X0293869Y0294803D01*
X0296298Y0294803D02*
X0296298Y0292334D01*
X0297532Y0291100D01*
X0300001Y0291100D01*
X0301235Y0293569D02*
X0296298Y0293569D01*
X0296298Y0294803D02*
X0297532Y0296038D01*
X0300001Y0296038D01*
X0301235Y0294803D01*
X0301235Y0293569D01*
X0303664Y0291100D02*
X0306133Y0291100D01*
X0304898Y0291100D02*
X0304898Y0298506D01*
X0303664Y0298506D01*
X0308575Y0294803D02*
X0309809Y0296038D01*
X0312278Y0296038D01*
X0313512Y0294803D01*
X0313512Y0293569D01*
X0308575Y0293569D01*
X0308575Y0294803D02*
X0308575Y0292334D01*
X0309809Y0291100D01*
X0312278Y0291100D01*
X0315941Y0291100D02*
X0315941Y0298506D01*
X0313512Y0301866D02*
X0312278Y0300631D01*
X0311044Y0300631D01*
X0313512Y0301866D02*
X0313512Y0308038D01*
X0308575Y0308038D02*
X0308575Y0304334D01*
X0309809Y0303100D01*
X0313512Y0303100D01*
X0306139Y0308038D02*
X0304905Y0308038D01*
X0302436Y0305569D01*
X0302436Y0303100D02*
X0302436Y0308038D01*
X0300001Y0308038D02*
X0298767Y0308038D01*
X0296298Y0305569D01*
X0293869Y0305569D02*
X0293869Y0306803D01*
X0292635Y0308038D01*
X0290166Y0308038D01*
X0288931Y0306803D01*
X0288931Y0304334D01*
X0290166Y0303100D01*
X0292635Y0303100D01*
X0293869Y0305569D02*
X0288931Y0305569D01*
X0286503Y0306803D02*
X0285268Y0308038D01*
X0281565Y0308038D01*
X0281565Y0310506D02*
X0281565Y0303100D01*
X0285268Y0303100D01*
X0286503Y0304334D01*
X0286503Y0306803D01*
X0296298Y0308038D02*
X0296298Y0303100D01*
X0281565Y0296038D02*
X0281565Y0292334D01*
X0290166Y0284038D02*
X0292635Y0284038D01*
X0293869Y0282803D01*
X0293869Y0281569D01*
X0288931Y0281569D01*
X0288931Y0282803D02*
X0290166Y0284038D01*
X0288931Y0282803D02*
X0288931Y0280334D01*
X0290166Y0279100D01*
X0292635Y0279100D01*
X0296298Y0280334D02*
X0296298Y0282803D01*
X0297532Y0284038D01*
X0301235Y0284038D01*
X0303664Y0282803D02*
X0303664Y0280334D01*
X0304898Y0279100D01*
X0307367Y0279100D01*
X0308602Y0280334D01*
X0308602Y0282803D01*
X0307367Y0284038D01*
X0304898Y0284038D01*
X0303664Y0282803D01*
X0301235Y0279100D02*
X0297532Y0279100D01*
X0296298Y0280334D01*
X0311030Y0279100D02*
X0314733Y0279100D01*
X0315968Y0280334D01*
X0314733Y0281569D01*
X0312265Y0281569D01*
X0311030Y0282803D01*
X0312265Y0284038D01*
X0315968Y0284038D01*
X0318397Y0284038D02*
X0320865Y0284038D01*
X0319631Y0285272D02*
X0319631Y0280334D01*
X0320865Y0279100D01*
X0323307Y0280334D02*
X0323307Y0282803D01*
X0324542Y0284038D01*
X0327011Y0284038D01*
X0328245Y0282803D01*
X0328245Y0281569D01*
X0323307Y0281569D01*
X0323307Y0280334D02*
X0324542Y0279100D01*
X0327011Y0279100D01*
X0330674Y0279100D02*
X0330674Y0284038D01*
X0330674Y0281569D02*
X0333143Y0284038D01*
X0334377Y0284038D01*
X0334364Y0291100D02*
X0333129Y0292334D01*
X0333129Y0294803D01*
X0334364Y0296038D01*
X0336832Y0296038D01*
X0338067Y0294803D01*
X0338067Y0292334D01*
X0336832Y0291100D01*
X0334364Y0291100D01*
X0330694Y0296038D02*
X0329459Y0296038D01*
X0326991Y0293569D01*
X0326991Y0291100D02*
X0326991Y0296038D01*
X0324549Y0296038D02*
X0322080Y0296038D01*
X0323314Y0297272D02*
X0323314Y0292334D01*
X0324549Y0291100D01*
X0319644Y0291100D02*
X0315941Y0293569D01*
X0319644Y0296038D01*
X0323307Y0303100D02*
X0323307Y0310506D01*
X0327011Y0310506D01*
X0328245Y0309272D01*
X0328245Y0306803D01*
X0327011Y0305569D01*
X0323307Y0305569D01*
X0330674Y0303100D02*
X0333143Y0303100D01*
X0331908Y0303100D02*
X0331908Y0310506D01*
X0330674Y0310506D02*
X0333143Y0310506D01*
X0342951Y0310506D02*
X0345420Y0310506D01*
X0344185Y0310506D02*
X0344185Y0303100D01*
X0342951Y0303100D02*
X0345420Y0303100D01*
X0347862Y0303100D02*
X0352799Y0310506D01*
X0355228Y0309272D02*
X0355228Y0304334D01*
X0356462Y0303100D01*
X0358931Y0303100D01*
X0360166Y0304334D01*
X0360166Y0309272D01*
X0358931Y0310506D01*
X0356462Y0310506D01*
X0355228Y0309272D01*
X0369961Y0310506D02*
X0369961Y0303100D01*
X0374898Y0303100D01*
X0377327Y0303100D02*
X0382264Y0308038D01*
X0384693Y0308038D02*
X0388396Y0308038D01*
X0389631Y0306803D01*
X0389631Y0304334D01*
X0388396Y0303100D01*
X0384693Y0303100D01*
X0382264Y0303100D02*
X0377327Y0308038D01*
X0374898Y0310506D02*
X0369961Y0310506D01*
X0369961Y0306803D02*
X0372429Y0306803D01*
X0384693Y0308038D02*
X0384693Y0300631D01*
X0392059Y0304334D02*
X0393294Y0305569D01*
X0396997Y0305569D01*
X0396997Y0306803D02*
X0396997Y0303100D01*
X0393294Y0303100D01*
X0392059Y0304334D01*
X0393294Y0308038D02*
X0395763Y0308038D01*
X0396997Y0306803D01*
X0399426Y0308038D02*
X0403129Y0308038D01*
X0404363Y0306803D01*
X0404363Y0303100D01*
X0406792Y0304334D02*
X0406792Y0306803D01*
X0408026Y0308038D01*
X0411730Y0308038D01*
X0411730Y0310506D02*
X0411730Y0303100D01*
X0408026Y0303100D01*
X0406792Y0304334D01*
X0414158Y0304334D02*
X0414158Y0306803D01*
X0415393Y0308038D01*
X0417862Y0308038D01*
X0419096Y0306803D01*
X0419096Y0305569D01*
X0414158Y0305569D01*
X0414158Y0304334D02*
X0415393Y0303100D01*
X0417862Y0303100D01*
X0421525Y0303100D02*
X0421525Y0308038D01*
X0423993Y0308038D02*
X0425228Y0308038D01*
X0423993Y0308038D02*
X0421525Y0305569D01*
X0399426Y0303100D02*
X0399426Y0308038D01*
X0363849Y0294803D02*
X0363849Y0293569D01*
X0358911Y0293569D01*
X0358911Y0294803D02*
X0360146Y0296038D01*
X0362614Y0296038D01*
X0363849Y0294803D01*
X0362614Y0291100D02*
X0360146Y0291100D01*
X0358911Y0292334D01*
X0358911Y0294803D01*
X0356482Y0294803D02*
X0356482Y0292334D01*
X0355248Y0291100D01*
X0351545Y0291100D01*
X0351545Y0298506D01*
X0351545Y0296038D02*
X0355248Y0296038D01*
X0356482Y0294803D01*
X0349096Y0292334D02*
X0349096Y0291100D01*
X0347862Y0291100D01*
X0347862Y0292334D01*
X0349096Y0292334D01*
X0345433Y0291100D02*
X0345433Y0294803D01*
X0344199Y0296038D01*
X0340495Y0296038D01*
X0340495Y0291100D01*
X0191800Y0294300D02*
X0191800Y0279300D01*
X0189300Y0276800D01*
X0184300Y0276800D01*
X0181800Y0279300D01*
X0179300Y0276800D01*
X0174300Y0276800D01*
X0171800Y0279300D01*
X0169300Y0276800D01*
X0164300Y0276800D01*
X0161800Y0279300D01*
X0159300Y0276800D01*
X0154300Y0276800D01*
X0151800Y0279300D01*
X0151800Y0294300D01*
X0154300Y0296800D01*
X0159300Y0296800D01*
X0161800Y0294300D01*
X0164300Y0296800D01*
X0169300Y0296800D01*
X0171800Y0294300D01*
X0174300Y0296800D01*
X0179300Y0296800D01*
X0181800Y0294300D01*
X0184300Y0296800D01*
X0189300Y0296800D01*
X0191800Y0294300D01*
D12*
X0246800Y0301800D02*
X0246800Y0261800D01*
X0351800Y0261800D01*
X0386800Y0296800D01*
X0275300Y0126300D02*
X0273800Y0124800D01*
D13*
X0355546Y0175947D02*
X0357047Y0174446D01*
X0355546Y0175947D02*
X0360050Y0175947D01*
X0360050Y0174446D02*
X0360050Y0177449D01*
X0383546Y0177446D02*
X0383546Y0179698D01*
X0384297Y0180449D01*
X0385798Y0180449D01*
X0386549Y0179698D01*
X0386549Y0177446D01*
X0388050Y0177446D02*
X0383546Y0177446D01*
X0383546Y0175845D02*
X0383546Y0172842D01*
X0388050Y0172842D01*
X0388050Y0175845D01*
X0385798Y0174343D02*
X0385798Y0172842D01*
X0384297Y0171241D02*
X0383546Y0170490D01*
X0383546Y0168238D01*
X0388050Y0168238D01*
X0388050Y0170490D01*
X0387299Y0171241D01*
X0384297Y0171241D01*
X0383546Y0166637D02*
X0388050Y0166637D01*
X0383546Y0163634D01*
X0388050Y0163634D01*
X0388050Y0162033D02*
X0385047Y0162033D01*
X0383546Y0160532D01*
X0385047Y0159030D01*
X0388050Y0159030D01*
X0385798Y0159030D02*
X0385798Y0162033D01*
X0385798Y0157429D02*
X0386549Y0156678D01*
X0386549Y0154426D01*
X0388050Y0154426D02*
X0383546Y0154426D01*
X0383546Y0156678D01*
X0384297Y0157429D01*
X0385798Y0157429D01*
X0383546Y0152825D02*
X0388050Y0149822D01*
X0388050Y0148221D02*
X0388050Y0145219D01*
X0383546Y0145219D01*
X0383546Y0148221D01*
X0383546Y0149822D02*
X0388050Y0152825D01*
X0385798Y0146720D02*
X0385798Y0145219D01*
X0385798Y0119949D02*
X0385798Y0116946D01*
X0383546Y0119198D01*
X0388050Y0119198D01*
X0388050Y0115345D02*
X0388050Y0112342D01*
X0388050Y0113843D02*
X0383546Y0113843D01*
X0385047Y0112342D01*
X0386549Y0178947D02*
X0388050Y0180449D01*
X0217973Y0308550D02*
X0216472Y0310051D01*
X0217222Y0310051D02*
X0214970Y0310051D01*
X0214970Y0308550D02*
X0214970Y0313054D01*
X0217222Y0313054D01*
X0217973Y0312303D01*
X0217973Y0310802D01*
X0217222Y0310051D01*
X0213369Y0308550D02*
X0210366Y0308550D01*
X0210366Y0313054D01*
X0213369Y0313054D01*
X0211868Y0310802D02*
X0210366Y0310802D01*
X0208765Y0309301D02*
X0208765Y0312303D01*
X0208014Y0313054D01*
X0205762Y0313054D01*
X0205762Y0308550D01*
X0208014Y0308550D01*
X0208765Y0309301D01*
X0204161Y0308550D02*
X0204161Y0313054D01*
X0201159Y0313054D02*
X0204161Y0308550D01*
X0201159Y0308550D02*
X0201159Y0313054D01*
X0199557Y0311553D02*
X0199557Y0308550D01*
X0199557Y0310802D02*
X0196555Y0310802D01*
X0196555Y0311553D02*
X0198056Y0313054D01*
X0199557Y0311553D01*
X0196555Y0311553D02*
X0196555Y0308550D01*
X0194953Y0310802D02*
X0194203Y0310051D01*
X0191951Y0310051D01*
X0191951Y0308550D02*
X0191951Y0313054D01*
X0194203Y0313054D01*
X0194953Y0312303D01*
X0194953Y0310802D01*
X0190349Y0313054D02*
X0187347Y0308550D01*
X0185745Y0308550D02*
X0182743Y0308550D01*
X0182743Y0313054D01*
X0185745Y0313054D01*
X0187347Y0313054D02*
X0190349Y0308550D01*
X0189302Y0303054D02*
X0190053Y0302303D01*
X0190053Y0301553D01*
X0189302Y0300802D01*
X0187801Y0300802D01*
X0187050Y0301553D01*
X0187050Y0302303D01*
X0187801Y0303054D01*
X0189302Y0303054D01*
X0189302Y0300802D02*
X0190053Y0300051D01*
X0190053Y0299301D01*
X0189302Y0298550D01*
X0187801Y0298550D01*
X0187050Y0299301D01*
X0187050Y0300051D01*
X0187801Y0300802D01*
X0181141Y0307799D02*
X0178139Y0307799D01*
X0176538Y0308550D02*
X0173535Y0308550D01*
X0173535Y0313054D01*
X0171934Y0311553D02*
X0171934Y0308550D01*
X0171934Y0310802D02*
X0168931Y0310802D01*
X0168931Y0311553D02*
X0170432Y0313054D01*
X0171934Y0311553D01*
X0168931Y0311553D02*
X0168931Y0308550D01*
X0167363Y0308550D02*
X0165862Y0308550D01*
X0166612Y0308550D02*
X0166612Y0313054D01*
X0165862Y0313054D02*
X0167363Y0313054D01*
X0164260Y0312303D02*
X0164260Y0310802D01*
X0163510Y0310051D01*
X0161258Y0310051D01*
X0161258Y0308550D02*
X0161258Y0313054D01*
X0163510Y0313054D01*
X0164260Y0312303D01*
X0162759Y0310051D02*
X0164260Y0308550D01*
X0159656Y0308550D02*
X0156654Y0308550D01*
X0156654Y0313054D01*
X0159656Y0313054D01*
X0158155Y0310802D02*
X0156654Y0310802D01*
X0155053Y0310051D02*
X0155053Y0309301D01*
X0154302Y0308550D01*
X0152801Y0308550D01*
X0152050Y0309301D01*
X0152801Y0310802D02*
X0154302Y0310802D01*
X0155053Y0310051D01*
X0155053Y0312303D02*
X0154302Y0313054D01*
X0152801Y0313054D01*
X0152050Y0312303D01*
X0152050Y0311553D01*
X0152801Y0310802D01*
X0128237Y0296957D02*
X0128237Y0284950D01*
X0128099Y0296800D02*
X0116800Y0296800D01*
X0116800Y0306800D01*
X0076800Y0306800D01*
X0076800Y0296800D01*
X0065501Y0296800D01*
X0065363Y0296564D02*
X0065363Y0284950D01*
X0155050Y0273553D02*
X0156551Y0275054D01*
X0156551Y0270550D01*
X0155050Y0270550D02*
X0158053Y0270550D01*
X0182743Y0310802D02*
X0184244Y0310802D01*
X0196800Y0219300D02*
X0196800Y0204300D01*
X0200800Y0204300D02*
X0200800Y0211800D01*
X0207800Y0211800D01*
X0207800Y0204300D01*
X0200800Y0204300D01*
X0196957Y0211800D02*
X0196960Y0212042D01*
X0196969Y0212283D01*
X0196984Y0212524D01*
X0197004Y0212765D01*
X0197031Y0213005D01*
X0197064Y0213244D01*
X0197102Y0213483D01*
X0197146Y0213720D01*
X0197196Y0213957D01*
X0197252Y0214192D01*
X0197314Y0214425D01*
X0197381Y0214657D01*
X0197454Y0214888D01*
X0197532Y0215116D01*
X0197617Y0215342D01*
X0197706Y0215567D01*
X0197801Y0215789D01*
X0197902Y0216008D01*
X0198008Y0216226D01*
X0198119Y0216440D01*
X0198236Y0216652D01*
X0198357Y0216860D01*
X0198484Y0217066D01*
X0198616Y0217268D01*
X0198753Y0217468D01*
X0198894Y0217663D01*
X0199040Y0217856D01*
X0199191Y0218044D01*
X0199347Y0218229D01*
X0199507Y0218410D01*
X0199671Y0218587D01*
X0199840Y0218760D01*
X0200013Y0218929D01*
X0200190Y0219093D01*
X0200371Y0219253D01*
X0200556Y0219409D01*
X0200744Y0219560D01*
X0200937Y0219706D01*
X0201132Y0219847D01*
X0201332Y0219984D01*
X0201534Y0220116D01*
X0201740Y0220243D01*
X0201948Y0220364D01*
X0202160Y0220481D01*
X0202374Y0220592D01*
X0202592Y0220698D01*
X0202811Y0220799D01*
X0203033Y0220894D01*
X0203258Y0220983D01*
X0203484Y0221068D01*
X0203712Y0221146D01*
X0203943Y0221219D01*
X0204175Y0221286D01*
X0204408Y0221348D01*
X0204643Y0221404D01*
X0204880Y0221454D01*
X0205117Y0221498D01*
X0205356Y0221536D01*
X0205595Y0221569D01*
X0205835Y0221596D01*
X0206076Y0221616D01*
X0206317Y0221631D01*
X0206558Y0221640D01*
X0206800Y0221643D01*
X0207042Y0221640D01*
X0207283Y0221631D01*
X0207524Y0221616D01*
X0207765Y0221596D01*
X0208005Y0221569D01*
X0208244Y0221536D01*
X0208483Y0221498D01*
X0208720Y0221454D01*
X0208957Y0221404D01*
X0209192Y0221348D01*
X0209425Y0221286D01*
X0209657Y0221219D01*
X0209888Y0221146D01*
X0210116Y0221068D01*
X0210342Y0220983D01*
X0210567Y0220894D01*
X0210789Y0220799D01*
X0211008Y0220698D01*
X0211226Y0220592D01*
X0211440Y0220481D01*
X0211652Y0220364D01*
X0211860Y0220243D01*
X0212066Y0220116D01*
X0212268Y0219984D01*
X0212468Y0219847D01*
X0212663Y0219706D01*
X0212856Y0219560D01*
X0213044Y0219409D01*
X0213229Y0219253D01*
X0213410Y0219093D01*
X0213587Y0218929D01*
X0213760Y0218760D01*
X0213929Y0218587D01*
X0214093Y0218410D01*
X0214253Y0218229D01*
X0214409Y0218044D01*
X0214560Y0217856D01*
X0214706Y0217663D01*
X0214847Y0217468D01*
X0214984Y0217268D01*
X0215116Y0217066D01*
X0215243Y0216860D01*
X0215364Y0216652D01*
X0215481Y0216440D01*
X0215592Y0216226D01*
X0215698Y0216008D01*
X0215799Y0215789D01*
X0215894Y0215567D01*
X0215983Y0215342D01*
X0216068Y0215116D01*
X0216146Y0214888D01*
X0216219Y0214657D01*
X0216286Y0214425D01*
X0216348Y0214192D01*
X0216404Y0213957D01*
X0216454Y0213720D01*
X0216498Y0213483D01*
X0216536Y0213244D01*
X0216569Y0213005D01*
X0216596Y0212765D01*
X0216616Y0212524D01*
X0216631Y0212283D01*
X0216640Y0212042D01*
X0216643Y0211800D01*
X0216640Y0211558D01*
X0216631Y0211317D01*
X0216616Y0211076D01*
X0216596Y0210835D01*
X0216569Y0210595D01*
X0216536Y0210356D01*
X0216498Y0210117D01*
X0216454Y0209880D01*
X0216404Y0209643D01*
X0216348Y0209408D01*
X0216286Y0209175D01*
X0216219Y0208943D01*
X0216146Y0208712D01*
X0216068Y0208484D01*
X0215983Y0208258D01*
X0215894Y0208033D01*
X0215799Y0207811D01*
X0215698Y0207592D01*
X0215592Y0207374D01*
X0215481Y0207160D01*
X0215364Y0206948D01*
X0215243Y0206740D01*
X0215116Y0206534D01*
X0214984Y0206332D01*
X0214847Y0206132D01*
X0214706Y0205937D01*
X0214560Y0205744D01*
X0214409Y0205556D01*
X0214253Y0205371D01*
X0214093Y0205190D01*
X0213929Y0205013D01*
X0213760Y0204840D01*
X0213587Y0204671D01*
X0213410Y0204507D01*
X0213229Y0204347D01*
X0213044Y0204191D01*
X0212856Y0204040D01*
X0212663Y0203894D01*
X0212468Y0203753D01*
X0212268Y0203616D01*
X0212066Y0203484D01*
X0211860Y0203357D01*
X0211652Y0203236D01*
X0211440Y0203119D01*
X0211226Y0203008D01*
X0211008Y0202902D01*
X0210789Y0202801D01*
X0210567Y0202706D01*
X0210342Y0202617D01*
X0210116Y0202532D01*
X0209888Y0202454D01*
X0209657Y0202381D01*
X0209425Y0202314D01*
X0209192Y0202252D01*
X0208957Y0202196D01*
X0208720Y0202146D01*
X0208483Y0202102D01*
X0208244Y0202064D01*
X0208005Y0202031D01*
X0207765Y0202004D01*
X0207524Y0201984D01*
X0207283Y0201969D01*
X0207042Y0201960D01*
X0206800Y0201957D01*
X0206558Y0201960D01*
X0206317Y0201969D01*
X0206076Y0201984D01*
X0205835Y0202004D01*
X0205595Y0202031D01*
X0205356Y0202064D01*
X0205117Y0202102D01*
X0204880Y0202146D01*
X0204643Y0202196D01*
X0204408Y0202252D01*
X0204175Y0202314D01*
X0203943Y0202381D01*
X0203712Y0202454D01*
X0203484Y0202532D01*
X0203258Y0202617D01*
X0203033Y0202706D01*
X0202811Y0202801D01*
X0202592Y0202902D01*
X0202374Y0203008D01*
X0202160Y0203119D01*
X0201948Y0203236D01*
X0201740Y0203357D01*
X0201534Y0203484D01*
X0201332Y0203616D01*
X0201132Y0203753D01*
X0200937Y0203894D01*
X0200744Y0204040D01*
X0200556Y0204191D01*
X0200371Y0204347D01*
X0200190Y0204507D01*
X0200013Y0204671D01*
X0199840Y0204840D01*
X0199671Y0205013D01*
X0199507Y0205190D01*
X0199347Y0205371D01*
X0199191Y0205556D01*
X0199040Y0205744D01*
X0198894Y0205937D01*
X0198753Y0206132D01*
X0198616Y0206332D01*
X0198484Y0206534D01*
X0198357Y0206740D01*
X0198236Y0206948D01*
X0198119Y0207160D01*
X0198008Y0207374D01*
X0197902Y0207592D01*
X0197801Y0207811D01*
X0197706Y0208033D01*
X0197617Y0208258D01*
X0197532Y0208484D01*
X0197454Y0208712D01*
X0197381Y0208943D01*
X0197314Y0209175D01*
X0197252Y0209408D01*
X0197196Y0209643D01*
X0197146Y0209880D01*
X0197102Y0210117D01*
X0197064Y0210356D01*
X0197031Y0210595D01*
X0197004Y0210835D01*
X0196984Y0211076D01*
X0196969Y0211317D01*
X0196960Y0211558D01*
X0196957Y0211800D01*
X0196800Y0204300D02*
X0196987Y0204057D01*
X0197179Y0203819D01*
X0197378Y0203586D01*
X0197582Y0203358D01*
X0197791Y0203135D01*
X0198006Y0202917D01*
X0198226Y0202704D01*
X0198451Y0202497D01*
X0198682Y0202295D01*
X0198917Y0202099D01*
X0199157Y0201909D01*
X0199401Y0201725D01*
X0199650Y0201547D01*
X0199904Y0201375D01*
X0200161Y0201209D01*
X0200422Y0201049D01*
X0200687Y0200896D01*
X0200956Y0200750D01*
X0201229Y0200610D01*
X0201504Y0200477D01*
X0201783Y0200351D01*
X0202065Y0200231D01*
X0202350Y0200119D01*
X0202637Y0200014D01*
X0202927Y0199915D01*
X0203219Y0199824D01*
X0203514Y0199740D01*
X0203810Y0199663D01*
X0204108Y0199593D01*
X0204408Y0199531D01*
X0204709Y0199476D01*
X0205011Y0199429D01*
X0205315Y0199389D01*
X0205619Y0199356D01*
X0205924Y0199331D01*
X0206230Y0199313D01*
X0206536Y0199303D01*
X0206842Y0199300D01*
X0207148Y0199305D01*
X0207454Y0199317D01*
X0207760Y0199337D01*
X0208064Y0199364D01*
X0208369Y0199399D01*
X0208672Y0199441D01*
X0208974Y0199490D01*
X0209275Y0199547D01*
X0209574Y0199612D01*
X0209872Y0199683D01*
X0210167Y0199762D01*
X0210461Y0199848D01*
X0210753Y0199941D01*
X0211042Y0200042D01*
X0211329Y0200149D01*
X0211613Y0200264D01*
X0211894Y0200385D01*
X0212172Y0200513D01*
X0212447Y0200648D01*
X0212718Y0200790D01*
X0212986Y0200938D01*
X0213250Y0201093D01*
X0213510Y0201254D01*
X0213766Y0201421D01*
X0214019Y0201595D01*
X0214266Y0201775D01*
X0214510Y0201961D01*
X0214748Y0202152D01*
X0214982Y0202350D01*
X0215211Y0202553D01*
X0215435Y0202762D01*
X0215654Y0202976D01*
X0215867Y0203196D01*
X0216075Y0203420D01*
X0216278Y0203650D01*
X0216474Y0203884D01*
X0216665Y0204124D01*
X0216850Y0204367D01*
X0217029Y0204616D01*
X0217202Y0204868D01*
X0217369Y0205125D01*
X0217529Y0205386D01*
X0217683Y0205651D01*
X0217830Y0205919D01*
X0217971Y0206191D01*
X0218105Y0206466D01*
X0218232Y0206745D01*
X0218353Y0207026D01*
X0218466Y0207311D01*
X0218572Y0207598D01*
X0218672Y0207887D01*
X0218764Y0208179D01*
X0218849Y0208473D01*
X0218927Y0208769D01*
X0218998Y0209067D01*
X0219061Y0209367D01*
X0219117Y0209668D01*
X0219165Y0209970D01*
X0219206Y0210273D01*
X0219240Y0210577D01*
X0219266Y0210882D01*
X0219285Y0211188D01*
X0219296Y0211494D01*
X0219300Y0211800D01*
X0219296Y0212106D01*
X0219285Y0212412D01*
X0219266Y0212718D01*
X0219240Y0213023D01*
X0219206Y0213327D01*
X0219165Y0213630D01*
X0219117Y0213932D01*
X0219061Y0214233D01*
X0218998Y0214533D01*
X0218927Y0214831D01*
X0218849Y0215127D01*
X0218764Y0215421D01*
X0218672Y0215713D01*
X0218572Y0216002D01*
X0218466Y0216289D01*
X0218353Y0216574D01*
X0218232Y0216855D01*
X0218105Y0217134D01*
X0217971Y0217409D01*
X0217830Y0217681D01*
X0217683Y0217949D01*
X0217529Y0218214D01*
X0217369Y0218475D01*
X0217202Y0218732D01*
X0217029Y0218984D01*
X0216850Y0219233D01*
X0216665Y0219476D01*
X0216474Y0219716D01*
X0216278Y0219950D01*
X0216075Y0220180D01*
X0215867Y0220404D01*
X0215654Y0220624D01*
X0215435Y0220838D01*
X0215211Y0221047D01*
X0214982Y0221250D01*
X0214748Y0221448D01*
X0214510Y0221639D01*
X0214266Y0221825D01*
X0214019Y0222005D01*
X0213766Y0222179D01*
X0213510Y0222346D01*
X0213250Y0222507D01*
X0212986Y0222662D01*
X0212718Y0222810D01*
X0212447Y0222952D01*
X0212172Y0223087D01*
X0211894Y0223215D01*
X0211613Y0223336D01*
X0211329Y0223451D01*
X0211042Y0223558D01*
X0210753Y0223659D01*
X0210461Y0223752D01*
X0210167Y0223838D01*
X0209872Y0223917D01*
X0209574Y0223988D01*
X0209275Y0224053D01*
X0208974Y0224110D01*
X0208672Y0224159D01*
X0208369Y0224201D01*
X0208064Y0224236D01*
X0207760Y0224263D01*
X0207454Y0224283D01*
X0207148Y0224295D01*
X0206842Y0224300D01*
X0206536Y0224297D01*
X0206230Y0224287D01*
X0205924Y0224269D01*
X0205619Y0224244D01*
X0205315Y0224211D01*
X0205011Y0224171D01*
X0204709Y0224124D01*
X0204408Y0224069D01*
X0204108Y0224007D01*
X0203810Y0223937D01*
X0203514Y0223860D01*
X0203219Y0223776D01*
X0202927Y0223685D01*
X0202637Y0223586D01*
X0202350Y0223481D01*
X0202065Y0223369D01*
X0201783Y0223249D01*
X0201504Y0223123D01*
X0201229Y0222990D01*
X0200956Y0222850D01*
X0200687Y0222704D01*
X0200422Y0222551D01*
X0200161Y0222391D01*
X0199904Y0222225D01*
X0199650Y0222053D01*
X0199401Y0221875D01*
X0199157Y0221691D01*
X0198917Y0221501D01*
X0198682Y0221305D01*
X0198451Y0221103D01*
X0198226Y0220896D01*
X0198006Y0220683D01*
X0197791Y0220465D01*
X0197582Y0220242D01*
X0197378Y0220014D01*
X0197179Y0219781D01*
X0196987Y0219543D01*
X0196800Y0219300D01*
X0120449Y0146554D02*
X0117446Y0146554D01*
X0120449Y0146554D02*
X0120449Y0145803D01*
X0117446Y0142801D01*
X0117446Y0142050D01*
X0115845Y0142050D02*
X0112842Y0142050D01*
X0114343Y0142050D02*
X0114343Y0146554D01*
X0112842Y0145053D01*
X0111241Y0145803D02*
X0110490Y0146554D01*
X0108989Y0146554D01*
X0108238Y0145803D01*
X0108238Y0145053D01*
X0108989Y0144302D01*
X0110490Y0144302D01*
X0111241Y0143551D01*
X0111241Y0142801D01*
X0110490Y0142050D01*
X0108989Y0142050D01*
X0108238Y0142801D01*
X0094698Y0016554D02*
X0093197Y0016554D01*
X0092446Y0015803D01*
X0090845Y0015803D02*
X0090094Y0016554D01*
X0088593Y0016554D01*
X0087842Y0015803D01*
X0087842Y0015053D01*
X0088593Y0014302D01*
X0090094Y0014302D01*
X0090845Y0013551D01*
X0090845Y0012801D01*
X0090094Y0012050D01*
X0088593Y0012050D01*
X0087842Y0012801D01*
X0092446Y0012050D02*
X0095449Y0015053D01*
X0095449Y0015803D01*
X0094698Y0016554D01*
X0095449Y0012050D02*
X0092446Y0012050D01*
X0132842Y0012801D02*
X0133593Y0012050D01*
X0135094Y0012050D01*
X0135845Y0012801D01*
X0135845Y0013551D01*
X0135094Y0014302D01*
X0133593Y0014302D01*
X0132842Y0015053D01*
X0132842Y0015803D01*
X0133593Y0016554D01*
X0135094Y0016554D01*
X0135845Y0015803D01*
X0137446Y0015803D02*
X0138197Y0016554D01*
X0139698Y0016554D01*
X0140449Y0015803D01*
X0140449Y0015053D01*
X0139698Y0014302D01*
X0140449Y0013551D01*
X0140449Y0012801D01*
X0139698Y0012050D01*
X0138197Y0012050D01*
X0137446Y0012801D01*
X0138947Y0014302D02*
X0139698Y0014302D01*
X0177842Y0015053D02*
X0178593Y0014302D01*
X0180094Y0014302D01*
X0180845Y0013551D01*
X0180845Y0012801D01*
X0180094Y0012050D01*
X0178593Y0012050D01*
X0177842Y0012801D01*
X0177842Y0015053D02*
X0177842Y0015803D01*
X0178593Y0016554D01*
X0180094Y0016554D01*
X0180845Y0015803D01*
X0182446Y0014302D02*
X0185449Y0014302D01*
X0184698Y0012050D02*
X0184698Y0016554D01*
X0182446Y0014302D01*
X0222842Y0015053D02*
X0223593Y0014302D01*
X0225094Y0014302D01*
X0225845Y0013551D01*
X0225845Y0012801D01*
X0225094Y0012050D01*
X0223593Y0012050D01*
X0222842Y0012801D01*
X0222842Y0015053D02*
X0222842Y0015803D01*
X0223593Y0016554D01*
X0225094Y0016554D01*
X0225845Y0015803D01*
X0227446Y0016554D02*
X0227446Y0014302D01*
X0228947Y0015053D01*
X0229698Y0015053D01*
X0230449Y0014302D01*
X0230449Y0012801D01*
X0229698Y0012050D01*
X0228197Y0012050D01*
X0227446Y0012801D01*
X0227446Y0016554D02*
X0230449Y0016554D01*
X0267842Y0015803D02*
X0267842Y0015053D01*
X0268593Y0014302D01*
X0270094Y0014302D01*
X0270845Y0013551D01*
X0270845Y0012801D01*
X0270094Y0012050D01*
X0268593Y0012050D01*
X0267842Y0012801D01*
X0267842Y0015803D02*
X0268593Y0016554D01*
X0270094Y0016554D01*
X0270845Y0015803D01*
X0272446Y0014302D02*
X0274698Y0014302D01*
X0275449Y0013551D01*
X0275449Y0012801D01*
X0274698Y0012050D01*
X0273197Y0012050D01*
X0272446Y0012801D01*
X0272446Y0014302D01*
X0273947Y0015803D01*
X0275449Y0016554D01*
X0312842Y0015803D02*
X0312842Y0015053D01*
X0313593Y0014302D01*
X0315094Y0014302D01*
X0315845Y0013551D01*
X0315845Y0012801D01*
X0315094Y0012050D01*
X0313593Y0012050D01*
X0312842Y0012801D01*
X0312842Y0015803D02*
X0313593Y0016554D01*
X0315094Y0016554D01*
X0315845Y0015803D01*
X0317446Y0016554D02*
X0320449Y0016554D01*
X0320449Y0015803D01*
X0317446Y0012801D01*
X0317446Y0012050D01*
X0357842Y0012801D02*
X0358593Y0012050D01*
X0360094Y0012050D01*
X0360845Y0012801D01*
X0360845Y0013551D01*
X0360094Y0014302D01*
X0358593Y0014302D01*
X0357842Y0015053D01*
X0357842Y0015803D01*
X0358593Y0016554D01*
X0360094Y0016554D01*
X0360845Y0015803D01*
X0362446Y0015803D02*
X0362446Y0015053D01*
X0363197Y0014302D01*
X0364698Y0014302D01*
X0365449Y0013551D01*
X0365449Y0012801D01*
X0364698Y0012050D01*
X0363197Y0012050D01*
X0362446Y0012801D01*
X0362446Y0013551D01*
X0363197Y0014302D01*
X0364698Y0014302D02*
X0365449Y0015053D01*
X0365449Y0015803D01*
X0364698Y0016554D01*
X0363197Y0016554D01*
X0362446Y0015803D01*
X0050449Y0012050D02*
X0047446Y0012050D01*
X0048947Y0012050D02*
X0048947Y0016554D01*
X0047446Y0015053D01*
X0045845Y0015803D02*
X0045094Y0016554D01*
X0043593Y0016554D01*
X0042842Y0015803D01*
X0042842Y0015053D01*
X0043593Y0014302D01*
X0045094Y0014302D01*
X0045845Y0013551D01*
X0045845Y0012801D01*
X0045094Y0012050D01*
X0043593Y0012050D01*
X0042842Y0012801D01*
D14*
X0236996Y0094500D02*
X0236996Y0096802D01*
X0237763Y0097569D01*
X0239298Y0097569D01*
X0240065Y0096802D01*
X0240065Y0094500D01*
X0240065Y0096035D02*
X0241600Y0097569D01*
X0240833Y0099104D02*
X0241600Y0099871D01*
X0241600Y0101406D01*
X0240833Y0102173D01*
X0240065Y0102173D01*
X0239298Y0101406D01*
X0239298Y0100639D01*
X0239298Y0101406D02*
X0238531Y0102173D01*
X0237763Y0102173D01*
X0236996Y0101406D01*
X0236996Y0099871D01*
X0237763Y0099104D01*
X0237763Y0103708D02*
X0238531Y0103708D01*
X0239298Y0104475D01*
X0239298Y0106777D01*
X0240833Y0106777D02*
X0237763Y0106777D01*
X0236996Y0106010D01*
X0236996Y0104475D01*
X0237763Y0103708D01*
X0240833Y0103708D02*
X0241600Y0104475D01*
X0241600Y0106010D01*
X0240833Y0106777D01*
X0241600Y0094500D02*
X0236996Y0094500D01*
X0236996Y0134500D02*
X0236996Y0136802D01*
X0237763Y0137569D01*
X0239298Y0137569D01*
X0240065Y0136802D01*
X0240065Y0134500D01*
X0240065Y0136035D02*
X0241600Y0137569D01*
X0239298Y0139104D02*
X0239298Y0142173D01*
X0238531Y0143708D02*
X0236996Y0145242D01*
X0241600Y0145242D01*
X0241600Y0143708D02*
X0241600Y0146777D01*
X0241600Y0141406D02*
X0236996Y0141406D01*
X0239298Y0139104D01*
X0241600Y0134500D02*
X0236996Y0134500D01*
X0306996Y0106010D02*
X0306996Y0104475D01*
X0307763Y0103708D01*
X0309298Y0102173D02*
X0309298Y0099104D01*
X0306996Y0101406D01*
X0311600Y0101406D01*
X0311600Y0103708D02*
X0308531Y0106777D01*
X0307763Y0106777D01*
X0306996Y0106010D01*
X0311600Y0106777D02*
X0311600Y0103708D01*
X0311600Y0097569D02*
X0310065Y0096035D01*
X0310065Y0096802D02*
X0310065Y0094500D01*
X0311600Y0094500D02*
X0306996Y0094500D01*
X0306996Y0096802D01*
X0307763Y0097569D01*
X0309298Y0097569D01*
X0310065Y0096802D01*
X0306600Y0205688D02*
X0301996Y0205688D01*
X0301996Y0207990D01*
X0302763Y0208757D01*
X0304298Y0208757D01*
X0305065Y0207990D01*
X0305065Y0205688D01*
X0305065Y0207223D02*
X0306600Y0208757D01*
X0306600Y0210292D02*
X0306600Y0213361D01*
X0306600Y0211827D02*
X0301996Y0211827D01*
X0303531Y0210292D01*
X0304298Y0214896D02*
X0302763Y0216431D01*
X0301996Y0217965D01*
X0304298Y0217198D02*
X0304298Y0214896D01*
X0305833Y0214896D01*
X0306600Y0215663D01*
X0306600Y0217198D01*
X0305833Y0217965D01*
X0305065Y0217965D01*
X0304298Y0217198D01*
X0321996Y0217965D02*
X0321996Y0214896D01*
X0321996Y0211827D02*
X0326600Y0211827D01*
X0326600Y0213361D02*
X0326600Y0210292D01*
X0326600Y0208757D02*
X0325065Y0207223D01*
X0325065Y0207990D02*
X0325065Y0205688D01*
X0326600Y0205688D02*
X0321996Y0205688D01*
X0321996Y0207990D01*
X0322763Y0208757D01*
X0324298Y0208757D01*
X0325065Y0207990D01*
X0323531Y0210292D02*
X0321996Y0211827D01*
X0325833Y0214896D02*
X0326600Y0214896D01*
X0325833Y0214896D02*
X0322763Y0217965D01*
X0321996Y0217965D01*
X0341996Y0217198D02*
X0341996Y0215663D01*
X0342763Y0214896D01*
X0343531Y0214896D01*
X0344298Y0215663D01*
X0344298Y0217198D01*
X0345065Y0217965D01*
X0345833Y0217965D01*
X0346600Y0217198D01*
X0346600Y0215663D01*
X0345833Y0214896D01*
X0345065Y0214896D01*
X0344298Y0215663D01*
X0344298Y0217198D02*
X0343531Y0217965D01*
X0342763Y0217965D01*
X0341996Y0217198D01*
X0341996Y0211827D02*
X0346600Y0211827D01*
X0346600Y0213361D02*
X0346600Y0210292D01*
X0346600Y0208757D02*
X0345065Y0207223D01*
X0345065Y0207990D02*
X0345065Y0205688D01*
X0346600Y0205688D02*
X0341996Y0205688D01*
X0341996Y0207990D01*
X0342763Y0208757D01*
X0344298Y0208757D01*
X0345065Y0207990D01*
X0343531Y0210292D02*
X0341996Y0211827D01*
X0361996Y0211827D02*
X0366600Y0211827D01*
X0366600Y0213361D02*
X0366600Y0210292D01*
X0366600Y0208757D02*
X0365065Y0207223D01*
X0365065Y0207990D02*
X0365065Y0205688D01*
X0366600Y0205688D02*
X0361996Y0205688D01*
X0361996Y0207990D01*
X0362763Y0208757D01*
X0364298Y0208757D01*
X0365065Y0207990D01*
X0363531Y0210292D02*
X0361996Y0211827D01*
X0362763Y0214896D02*
X0361996Y0215663D01*
X0361996Y0217198D01*
X0362763Y0217965D01*
X0365833Y0217965D01*
X0366600Y0217198D01*
X0366600Y0215663D01*
X0365833Y0214896D01*
X0364298Y0215663D02*
X0364298Y0217965D01*
X0364298Y0215663D02*
X0363531Y0214896D01*
X0362763Y0214896D01*
X0381996Y0215663D02*
X0381996Y0217198D01*
X0382763Y0217965D01*
X0385833Y0214896D01*
X0386600Y0215663D01*
X0386600Y0217198D01*
X0385833Y0217965D01*
X0382763Y0217965D01*
X0381996Y0215663D02*
X0382763Y0214896D01*
X0385833Y0214896D01*
X0386600Y0213361D02*
X0386600Y0210292D01*
X0383531Y0213361D01*
X0382763Y0213361D01*
X0381996Y0212594D01*
X0381996Y0211059D01*
X0382763Y0210292D01*
X0382763Y0208757D02*
X0381996Y0207990D01*
X0381996Y0205688D01*
X0386600Y0205688D01*
X0385065Y0205688D02*
X0385065Y0207990D01*
X0384298Y0208757D01*
X0382763Y0208757D01*
X0385065Y0207223D02*
X0386600Y0208757D01*
X0371600Y0237000D02*
X0366996Y0237000D01*
X0366996Y0241604D02*
X0371600Y0241604D01*
X0371600Y0244673D01*
X0371600Y0246208D02*
X0366996Y0246208D01*
X0366996Y0248510D01*
X0367763Y0249277D01*
X0370833Y0249277D01*
X0371600Y0248510D01*
X0371600Y0246208D01*
X0369298Y0243139D02*
X0369298Y0241604D01*
X0366996Y0241604D02*
X0366996Y0244673D01*
X0371600Y0240069D02*
X0371600Y0237000D01*
X0370833Y0250812D02*
X0370065Y0250812D01*
X0369298Y0251579D01*
X0369298Y0253114D01*
X0370065Y0253881D01*
X0370833Y0253881D01*
X0371600Y0253114D01*
X0371600Y0251579D01*
X0370833Y0250812D01*
X0369298Y0251579D02*
X0368531Y0250812D01*
X0367763Y0250812D01*
X0366996Y0251579D01*
X0366996Y0253114D01*
X0367763Y0253881D01*
X0368531Y0253881D01*
X0369298Y0253114D01*
X0351600Y0250812D02*
X0350833Y0250812D01*
X0347763Y0253881D01*
X0346996Y0253881D01*
X0346996Y0250812D01*
X0347763Y0249277D02*
X0346996Y0248510D01*
X0346996Y0246208D01*
X0351600Y0246208D01*
X0351600Y0248510D01*
X0350833Y0249277D01*
X0347763Y0249277D01*
X0346996Y0244673D02*
X0346996Y0241604D01*
X0351600Y0241604D01*
X0351600Y0244673D01*
X0349298Y0243139D02*
X0349298Y0241604D01*
X0351600Y0240069D02*
X0351600Y0237000D01*
X0346996Y0237000D01*
X0331600Y0237000D02*
X0331600Y0240069D01*
X0331600Y0241604D02*
X0331600Y0244673D01*
X0331600Y0246208D02*
X0326996Y0246208D01*
X0326996Y0248510D01*
X0327763Y0249277D01*
X0330833Y0249277D01*
X0331600Y0248510D01*
X0331600Y0246208D01*
X0329298Y0243139D02*
X0329298Y0241604D01*
X0326996Y0241604D02*
X0331600Y0241604D01*
X0326996Y0241604D02*
X0326996Y0244673D01*
X0329298Y0250812D02*
X0329298Y0253114D01*
X0330065Y0253881D01*
X0330833Y0253881D01*
X0331600Y0253114D01*
X0331600Y0251579D01*
X0330833Y0250812D01*
X0329298Y0250812D01*
X0327763Y0252346D01*
X0326996Y0253881D01*
X0311600Y0253114D02*
X0311600Y0251579D01*
X0310833Y0250812D01*
X0310833Y0249277D02*
X0307763Y0249277D01*
X0306996Y0248510D01*
X0306996Y0246208D01*
X0311600Y0246208D01*
X0311600Y0248510D01*
X0310833Y0249277D01*
X0309298Y0250812D02*
X0308531Y0252346D01*
X0308531Y0253114D01*
X0309298Y0253881D01*
X0310833Y0253881D01*
X0311600Y0253114D01*
X0309298Y0250812D02*
X0306996Y0250812D01*
X0306996Y0253881D01*
X0306996Y0244673D02*
X0306996Y0241604D01*
X0311600Y0241604D01*
X0311600Y0244673D01*
X0309298Y0243139D02*
X0309298Y0241604D01*
X0311600Y0240069D02*
X0311600Y0237000D01*
X0306996Y0237000D01*
X0291600Y0237000D02*
X0291600Y0240069D01*
X0291600Y0241604D02*
X0291600Y0244673D01*
X0291600Y0246208D02*
X0286996Y0246208D01*
X0286996Y0248510D01*
X0287763Y0249277D01*
X0290833Y0249277D01*
X0291600Y0248510D01*
X0291600Y0246208D01*
X0289298Y0243139D02*
X0289298Y0241604D01*
X0286996Y0241604D02*
X0291600Y0241604D01*
X0286996Y0241604D02*
X0286996Y0244673D01*
X0289298Y0250812D02*
X0289298Y0253881D01*
X0286996Y0253114D02*
X0289298Y0250812D01*
X0291600Y0253114D02*
X0286996Y0253114D01*
X0271600Y0253114D02*
X0271600Y0251579D01*
X0270833Y0250812D01*
X0270833Y0249277D02*
X0267763Y0249277D01*
X0266996Y0248510D01*
X0266996Y0246208D01*
X0271600Y0246208D01*
X0271600Y0248510D01*
X0270833Y0249277D01*
X0269298Y0252346D02*
X0269298Y0253114D01*
X0270065Y0253881D01*
X0270833Y0253881D01*
X0271600Y0253114D01*
X0269298Y0253114D02*
X0268531Y0253881D01*
X0267763Y0253881D01*
X0266996Y0253114D01*
X0266996Y0251579D01*
X0267763Y0250812D01*
X0266996Y0244673D02*
X0266996Y0241604D01*
X0271600Y0241604D01*
X0271600Y0244673D01*
X0269298Y0243139D02*
X0269298Y0241604D01*
X0271600Y0240069D02*
X0271600Y0237000D01*
X0266996Y0237000D01*
X0251600Y0237000D02*
X0251600Y0240069D01*
X0251600Y0241604D02*
X0251600Y0244673D01*
X0251600Y0246208D02*
X0251600Y0248510D01*
X0250833Y0249277D01*
X0247763Y0249277D01*
X0246996Y0248510D01*
X0246996Y0246208D01*
X0251600Y0246208D01*
X0249298Y0243139D02*
X0249298Y0241604D01*
X0246996Y0241604D02*
X0246996Y0244673D01*
X0246996Y0241604D02*
X0251600Y0241604D01*
X0251600Y0237000D02*
X0246996Y0237000D01*
X0231600Y0237000D02*
X0231600Y0240069D01*
X0231600Y0241604D02*
X0231600Y0244673D01*
X0231600Y0246208D02*
X0231600Y0248510D01*
X0230833Y0249277D01*
X0227763Y0249277D01*
X0226996Y0248510D01*
X0226996Y0246208D01*
X0231600Y0246208D01*
X0229298Y0243139D02*
X0229298Y0241604D01*
X0226996Y0241604D02*
X0226996Y0244673D01*
X0226996Y0241604D02*
X0231600Y0241604D01*
X0231600Y0237000D02*
X0226996Y0237000D01*
X0211381Y0228337D02*
X0210614Y0229104D01*
X0209079Y0229104D01*
X0208312Y0228337D01*
X0208312Y0227569D01*
X0209079Y0226802D01*
X0211381Y0226802D01*
X0211381Y0225267D02*
X0211381Y0228337D01*
X0211381Y0225267D02*
X0210614Y0224500D01*
X0209079Y0224500D01*
X0208312Y0225267D01*
X0206777Y0225267D02*
X0206777Y0228337D01*
X0206010Y0229104D01*
X0203708Y0229104D01*
X0203708Y0224500D01*
X0206010Y0224500D01*
X0206777Y0225267D01*
X0202173Y0224500D02*
X0199104Y0224500D01*
X0199104Y0229104D01*
X0202173Y0229104D01*
X0200639Y0226802D02*
X0199104Y0226802D01*
X0197569Y0224500D02*
X0194500Y0224500D01*
X0194500Y0229104D01*
X0226996Y0252346D02*
X0231600Y0252346D01*
X0231600Y0250812D02*
X0231600Y0253881D01*
X0228531Y0250812D02*
X0226996Y0252346D01*
X0246996Y0251579D02*
X0247763Y0250812D01*
X0246996Y0251579D02*
X0246996Y0253114D01*
X0247763Y0253881D01*
X0248531Y0253881D01*
X0251600Y0250812D01*
X0251600Y0253881D01*
X0286996Y0237000D02*
X0291600Y0237000D01*
X0285833Y0217965D02*
X0286600Y0217198D01*
X0286600Y0215663D01*
X0285833Y0214896D01*
X0284298Y0214896D02*
X0283531Y0216431D01*
X0283531Y0217198D01*
X0284298Y0217965D01*
X0285833Y0217965D01*
X0284298Y0214896D02*
X0281996Y0214896D01*
X0281996Y0217965D01*
X0281996Y0211827D02*
X0286600Y0211827D01*
X0286600Y0213361D02*
X0286600Y0210292D01*
X0286600Y0208757D02*
X0285065Y0207223D01*
X0285065Y0207990D02*
X0285065Y0205688D01*
X0286600Y0205688D02*
X0281996Y0205688D01*
X0281996Y0207990D01*
X0282763Y0208757D01*
X0284298Y0208757D01*
X0285065Y0207990D01*
X0283531Y0210292D02*
X0281996Y0211827D01*
X0266600Y0211827D02*
X0261996Y0211827D01*
X0263531Y0210292D01*
X0264298Y0208757D02*
X0262763Y0208757D01*
X0261996Y0207990D01*
X0261996Y0205688D01*
X0266600Y0205688D01*
X0265065Y0205688D02*
X0265065Y0207990D01*
X0264298Y0208757D01*
X0265065Y0207223D02*
X0266600Y0208757D01*
X0266600Y0210292D02*
X0266600Y0213361D01*
X0264298Y0214896D02*
X0264298Y0217965D01*
X0266600Y0217198D02*
X0261996Y0217198D01*
X0264298Y0214896D01*
X0246600Y0215663D02*
X0245833Y0214896D01*
X0246600Y0215663D02*
X0246600Y0217198D01*
X0245833Y0217965D01*
X0245065Y0217965D01*
X0244298Y0217198D01*
X0244298Y0216431D01*
X0244298Y0217198D02*
X0243531Y0217965D01*
X0242763Y0217965D01*
X0241996Y0217198D01*
X0241996Y0215663D01*
X0242763Y0214896D01*
X0241996Y0211827D02*
X0246600Y0211827D01*
X0246600Y0213361D02*
X0246600Y0210292D01*
X0246600Y0208757D02*
X0245065Y0207223D01*
X0245065Y0207990D02*
X0245065Y0205688D01*
X0246600Y0205688D02*
X0241996Y0205688D01*
X0241996Y0207990D01*
X0242763Y0208757D01*
X0244298Y0208757D01*
X0245065Y0207990D01*
X0243531Y0210292D02*
X0241996Y0211827D01*
X0326996Y0237000D02*
X0331600Y0237000D01*
X0128485Y0205837D02*
X0128485Y0205069D01*
X0127718Y0204302D01*
X0126183Y0204302D01*
X0125416Y0205069D01*
X0125416Y0205837D01*
X0126183Y0206604D01*
X0127718Y0206604D01*
X0128485Y0205837D01*
X0127718Y0204302D02*
X0128485Y0203535D01*
X0128485Y0202767D01*
X0127718Y0202000D01*
X0126183Y0202000D01*
X0125416Y0202767D01*
X0125416Y0203535D01*
X0126183Y0204302D01*
X0123881Y0202000D02*
X0120812Y0202000D01*
X0122346Y0202000D02*
X0122346Y0206604D01*
X0120812Y0205069D01*
X0119277Y0205837D02*
X0119277Y0202767D01*
X0118510Y0202000D01*
X0116208Y0202000D01*
X0116208Y0206604D01*
X0118510Y0206604D01*
X0119277Y0205837D01*
X0114673Y0206604D02*
X0111604Y0206604D01*
X0111604Y0202000D01*
X0114673Y0202000D01*
X0113139Y0204302D02*
X0111604Y0204302D01*
X0110069Y0202000D02*
X0107000Y0202000D01*
X0107000Y0206604D01*
X0092173Y0205837D02*
X0092173Y0202767D01*
X0091406Y0202000D01*
X0089871Y0202000D01*
X0089104Y0202767D01*
X0087569Y0202000D02*
X0086035Y0203535D01*
X0086802Y0203535D02*
X0084500Y0203535D01*
X0084500Y0202000D02*
X0084500Y0206604D01*
X0086802Y0206604D01*
X0087569Y0205837D01*
X0087569Y0204302D01*
X0086802Y0203535D01*
X0089104Y0205069D02*
X0089871Y0204302D01*
X0092173Y0204302D01*
X0092173Y0205837D02*
X0091406Y0206604D01*
X0089871Y0206604D01*
X0089104Y0205837D01*
X0089104Y0205069D01*
X0117836Y0272576D02*
X0117836Y0273510D01*
X0117836Y0273043D02*
X0120172Y0273043D01*
X0120639Y0272576D01*
X0120639Y0272109D01*
X0120172Y0271642D01*
X0121106Y0274588D02*
X0121106Y0276457D01*
X0120639Y0277535D02*
X0117836Y0277535D01*
X0117836Y0278936D01*
X0118303Y0279403D01*
X0118770Y0279403D01*
X0119237Y0278936D01*
X0119237Y0277535D01*
X0119237Y0278936D02*
X0119704Y0279403D01*
X0120172Y0279403D01*
X0120639Y0278936D01*
X0120639Y0277535D01*
X0120639Y0281415D02*
X0117836Y0281415D01*
X0117836Y0280481D02*
X0117836Y0282350D01*
X0121106Y0283428D02*
X0121106Y0285296D01*
X0120639Y0286374D02*
X0120639Y0287776D01*
X0120172Y0288243D01*
X0119704Y0288243D01*
X0119237Y0287776D01*
X0119237Y0286374D01*
X0117836Y0286374D02*
X0117836Y0287776D01*
X0118303Y0288243D01*
X0118770Y0288243D01*
X0119237Y0287776D01*
X0118303Y0289321D02*
X0120172Y0289321D01*
X0120639Y0289788D01*
X0120639Y0290722D01*
X0120172Y0291189D01*
X0118303Y0291189D01*
X0117836Y0290722D01*
X0117836Y0289788D01*
X0118303Y0289321D01*
X0118770Y0292267D02*
X0117836Y0293202D01*
X0118770Y0294136D01*
X0120639Y0294136D01*
X0120639Y0295214D02*
X0117836Y0295214D01*
X0117836Y0296615D01*
X0118303Y0297082D01*
X0119237Y0297082D01*
X0119704Y0296615D01*
X0119704Y0295214D01*
X0119704Y0296148D02*
X0120639Y0297082D01*
X0120639Y0298160D02*
X0120639Y0299562D01*
X0120172Y0300029D01*
X0118303Y0300029D01*
X0117836Y0299562D01*
X0117836Y0298160D01*
X0120639Y0298160D01*
X0121106Y0301107D02*
X0121106Y0302975D01*
X0120639Y0304053D02*
X0120639Y0305922D01*
X0120639Y0304988D02*
X0117836Y0304988D01*
X0118770Y0304053D01*
X0119237Y0294136D02*
X0119237Y0292267D01*
X0118770Y0292267D02*
X0120639Y0292267D01*
X0120639Y0286374D02*
X0117836Y0286374D01*
D15*
X0103798Y0200736D02*
X0103798Y0198267D01*
X0102564Y0199501D02*
X0105033Y0199501D01*
X0093986Y0130070D02*
X0090850Y0126934D01*
X0090850Y0128502D02*
X0093986Y0128502D01*
X0093986Y0126934D02*
X0090850Y0130070D01*
X0092418Y0130070D02*
X0092418Y0126934D01*
X0185850Y0126934D02*
X0188986Y0130070D01*
X0187418Y0130070D02*
X0187418Y0126934D01*
X0188986Y0126934D02*
X0185850Y0130070D01*
X0185850Y0128502D02*
X0188986Y0128502D01*
X0303530Y0150850D02*
X0306666Y0153986D01*
X0305098Y0153986D02*
X0305098Y0150850D01*
X0306666Y0150850D02*
X0303530Y0153986D01*
X0303530Y0152418D02*
X0306666Y0152418D01*
X0313184Y0232567D02*
X0313184Y0235036D01*
X0311950Y0233802D02*
X0314419Y0233802D01*
X0331950Y0233802D02*
X0334419Y0233802D01*
X0333184Y0235036D02*
X0333184Y0232567D01*
X0351950Y0233802D02*
X0354419Y0233802D01*
X0353184Y0235036D02*
X0353184Y0232567D01*
X0371950Y0233802D02*
X0374419Y0233802D01*
X0373184Y0235036D02*
X0373184Y0232567D01*
X0294419Y0233802D02*
X0291950Y0233802D01*
X0293184Y0235036D02*
X0293184Y0232567D01*
X0274419Y0233802D02*
X0271950Y0233802D01*
X0273184Y0235036D02*
X0273184Y0232567D01*
X0254419Y0233802D02*
X0251950Y0233802D01*
X0253184Y0235036D02*
X0253184Y0232567D01*
X0234419Y0233802D02*
X0231950Y0233802D01*
X0233184Y0235036D02*
X0233184Y0232567D01*
D16*
X0234438Y0242391D03*
X0239162Y0242391D03*
X0254438Y0242391D03*
X0259162Y0242391D03*
X0274438Y0242391D03*
X0279162Y0242391D03*
X0294438Y0242391D03*
X0299162Y0242391D03*
X0314438Y0242391D03*
X0319162Y0242391D03*
X0334438Y0242391D03*
X0339162Y0242391D03*
X0354438Y0242391D03*
X0359162Y0242391D03*
X0374438Y0242391D03*
X0379162Y0242391D03*
D17*
X0376800Y0242391D03*
X0356800Y0242391D03*
X0336800Y0242391D03*
X0316800Y0242391D03*
X0296800Y0242391D03*
X0276800Y0242391D03*
X0256800Y0242391D03*
X0236800Y0242391D03*
X0112391Y0196800D03*
D18*
X0112391Y0194438D03*
X0112391Y0199162D03*
D19*
X0120300Y0173800D02*
X0103300Y0173800D01*
X0099800Y0165800D02*
X0099800Y0157871D01*
X0103300Y0149800D02*
X0120300Y0149800D01*
X0123800Y0157753D02*
X0123800Y0165800D01*
X0104800Y0161800D02*
X0104802Y0161972D01*
X0104808Y0162143D01*
X0104819Y0162315D01*
X0104834Y0162486D01*
X0104853Y0162657D01*
X0104876Y0162827D01*
X0104903Y0162997D01*
X0104935Y0163166D01*
X0104970Y0163334D01*
X0105010Y0163501D01*
X0105054Y0163667D01*
X0105101Y0163832D01*
X0105153Y0163996D01*
X0105209Y0164158D01*
X0105269Y0164319D01*
X0105333Y0164479D01*
X0105401Y0164637D01*
X0105472Y0164793D01*
X0105547Y0164947D01*
X0105627Y0165100D01*
X0105709Y0165250D01*
X0105796Y0165399D01*
X0105886Y0165545D01*
X0105980Y0165689D01*
X0106077Y0165831D01*
X0106178Y0165970D01*
X0106282Y0166107D01*
X0106389Y0166241D01*
X0106500Y0166372D01*
X0106613Y0166501D01*
X0106730Y0166627D01*
X0106850Y0166750D01*
X0106973Y0166870D01*
X0107099Y0166987D01*
X0107228Y0167100D01*
X0107359Y0167211D01*
X0107493Y0167318D01*
X0107630Y0167422D01*
X0107769Y0167523D01*
X0107911Y0167620D01*
X0108055Y0167714D01*
X0108201Y0167804D01*
X0108350Y0167891D01*
X0108500Y0167973D01*
X0108653Y0168053D01*
X0108807Y0168128D01*
X0108963Y0168199D01*
X0109121Y0168267D01*
X0109281Y0168331D01*
X0109442Y0168391D01*
X0109604Y0168447D01*
X0109768Y0168499D01*
X0109933Y0168546D01*
X0110099Y0168590D01*
X0110266Y0168630D01*
X0110434Y0168665D01*
X0110603Y0168697D01*
X0110773Y0168724D01*
X0110943Y0168747D01*
X0111114Y0168766D01*
X0111285Y0168781D01*
X0111457Y0168792D01*
X0111628Y0168798D01*
X0111800Y0168800D01*
X0111972Y0168798D01*
X0112143Y0168792D01*
X0112315Y0168781D01*
X0112486Y0168766D01*
X0112657Y0168747D01*
X0112827Y0168724D01*
X0112997Y0168697D01*
X0113166Y0168665D01*
X0113334Y0168630D01*
X0113501Y0168590D01*
X0113667Y0168546D01*
X0113832Y0168499D01*
X0113996Y0168447D01*
X0114158Y0168391D01*
X0114319Y0168331D01*
X0114479Y0168267D01*
X0114637Y0168199D01*
X0114793Y0168128D01*
X0114947Y0168053D01*
X0115100Y0167973D01*
X0115250Y0167891D01*
X0115399Y0167804D01*
X0115545Y0167714D01*
X0115689Y0167620D01*
X0115831Y0167523D01*
X0115970Y0167422D01*
X0116107Y0167318D01*
X0116241Y0167211D01*
X0116372Y0167100D01*
X0116501Y0166987D01*
X0116627Y0166870D01*
X0116750Y0166750D01*
X0116870Y0166627D01*
X0116987Y0166501D01*
X0117100Y0166372D01*
X0117211Y0166241D01*
X0117318Y0166107D01*
X0117422Y0165970D01*
X0117523Y0165831D01*
X0117620Y0165689D01*
X0117714Y0165545D01*
X0117804Y0165399D01*
X0117891Y0165250D01*
X0117973Y0165100D01*
X0118053Y0164947D01*
X0118128Y0164793D01*
X0118199Y0164637D01*
X0118267Y0164479D01*
X0118331Y0164319D01*
X0118391Y0164158D01*
X0118447Y0163996D01*
X0118499Y0163832D01*
X0118546Y0163667D01*
X0118590Y0163501D01*
X0118630Y0163334D01*
X0118665Y0163166D01*
X0118697Y0162997D01*
X0118724Y0162827D01*
X0118747Y0162657D01*
X0118766Y0162486D01*
X0118781Y0162315D01*
X0118792Y0162143D01*
X0118798Y0161972D01*
X0118800Y0161800D01*
X0118798Y0161628D01*
X0118792Y0161457D01*
X0118781Y0161285D01*
X0118766Y0161114D01*
X0118747Y0160943D01*
X0118724Y0160773D01*
X0118697Y0160603D01*
X0118665Y0160434D01*
X0118630Y0160266D01*
X0118590Y0160099D01*
X0118546Y0159933D01*
X0118499Y0159768D01*
X0118447Y0159604D01*
X0118391Y0159442D01*
X0118331Y0159281D01*
X0118267Y0159121D01*
X0118199Y0158963D01*
X0118128Y0158807D01*
X0118053Y0158653D01*
X0117973Y0158500D01*
X0117891Y0158350D01*
X0117804Y0158201D01*
X0117714Y0158055D01*
X0117620Y0157911D01*
X0117523Y0157769D01*
X0117422Y0157630D01*
X0117318Y0157493D01*
X0117211Y0157359D01*
X0117100Y0157228D01*
X0116987Y0157099D01*
X0116870Y0156973D01*
X0116750Y0156850D01*
X0116627Y0156730D01*
X0116501Y0156613D01*
X0116372Y0156500D01*
X0116241Y0156389D01*
X0116107Y0156282D01*
X0115970Y0156178D01*
X0115831Y0156077D01*
X0115689Y0155980D01*
X0115545Y0155886D01*
X0115399Y0155796D01*
X0115250Y0155709D01*
X0115100Y0155627D01*
X0114947Y0155547D01*
X0114793Y0155472D01*
X0114637Y0155401D01*
X0114479Y0155333D01*
X0114319Y0155269D01*
X0114158Y0155209D01*
X0113996Y0155153D01*
X0113832Y0155101D01*
X0113667Y0155054D01*
X0113501Y0155010D01*
X0113334Y0154970D01*
X0113166Y0154935D01*
X0112997Y0154903D01*
X0112827Y0154876D01*
X0112657Y0154853D01*
X0112486Y0154834D01*
X0112315Y0154819D01*
X0112143Y0154808D01*
X0111972Y0154802D01*
X0111800Y0154800D01*
X0111628Y0154802D01*
X0111457Y0154808D01*
X0111285Y0154819D01*
X0111114Y0154834D01*
X0110943Y0154853D01*
X0110773Y0154876D01*
X0110603Y0154903D01*
X0110434Y0154935D01*
X0110266Y0154970D01*
X0110099Y0155010D01*
X0109933Y0155054D01*
X0109768Y0155101D01*
X0109604Y0155153D01*
X0109442Y0155209D01*
X0109281Y0155269D01*
X0109121Y0155333D01*
X0108963Y0155401D01*
X0108807Y0155472D01*
X0108653Y0155547D01*
X0108500Y0155627D01*
X0108350Y0155709D01*
X0108201Y0155796D01*
X0108055Y0155886D01*
X0107911Y0155980D01*
X0107769Y0156077D01*
X0107630Y0156178D01*
X0107493Y0156282D01*
X0107359Y0156389D01*
X0107228Y0156500D01*
X0107099Y0156613D01*
X0106973Y0156730D01*
X0106850Y0156850D01*
X0106730Y0156973D01*
X0106613Y0157099D01*
X0106500Y0157228D01*
X0106389Y0157359D01*
X0106282Y0157493D01*
X0106178Y0157630D01*
X0106077Y0157769D01*
X0105980Y0157911D01*
X0105886Y0158055D01*
X0105796Y0158201D01*
X0105709Y0158350D01*
X0105627Y0158500D01*
X0105547Y0158653D01*
X0105472Y0158807D01*
X0105401Y0158963D01*
X0105333Y0159121D01*
X0105269Y0159281D01*
X0105209Y0159442D01*
X0105153Y0159604D01*
X0105101Y0159768D01*
X0105054Y0159933D01*
X0105010Y0160099D01*
X0104970Y0160266D01*
X0104935Y0160434D01*
X0104903Y0160603D01*
X0104876Y0160773D01*
X0104853Y0160943D01*
X0104834Y0161114D01*
X0104819Y0161285D01*
X0104808Y0161457D01*
X0104802Y0161628D01*
X0104800Y0161800D01*
X0103819Y0138406D02*
X0103819Y0131000D01*
X0101350Y0131000D02*
X0106288Y0131000D01*
X0101350Y0135938D02*
X0103819Y0138406D01*
X0098738Y0138406D02*
X0098738Y0132234D01*
X0097503Y0131000D01*
X0095034Y0131000D01*
X0093800Y0132234D01*
X0093800Y0138406D01*
X0044517Y0183139D02*
X0038611Y0183139D01*
X0038611Y0200461D01*
X0044517Y0200461D01*
X0037725Y0099300D02*
X0037725Y0094300D01*
X0044517Y0077036D02*
X0009477Y0077036D01*
X0009083Y0077036D02*
X0009083Y0306564D01*
X0044517Y0306564D01*
X0044517Y0077036D01*
X0050300Y0043800D02*
X0033300Y0043800D01*
X0029800Y0035800D02*
X0029800Y0027871D01*
X0033300Y0019800D02*
X0050300Y0019800D01*
X0053800Y0027753D02*
X0053800Y0035800D01*
X0034800Y0031800D02*
X0034802Y0031972D01*
X0034808Y0032143D01*
X0034819Y0032315D01*
X0034834Y0032486D01*
X0034853Y0032657D01*
X0034876Y0032827D01*
X0034903Y0032997D01*
X0034935Y0033166D01*
X0034970Y0033334D01*
X0035010Y0033501D01*
X0035054Y0033667D01*
X0035101Y0033832D01*
X0035153Y0033996D01*
X0035209Y0034158D01*
X0035269Y0034319D01*
X0035333Y0034479D01*
X0035401Y0034637D01*
X0035472Y0034793D01*
X0035547Y0034947D01*
X0035627Y0035100D01*
X0035709Y0035250D01*
X0035796Y0035399D01*
X0035886Y0035545D01*
X0035980Y0035689D01*
X0036077Y0035831D01*
X0036178Y0035970D01*
X0036282Y0036107D01*
X0036389Y0036241D01*
X0036500Y0036372D01*
X0036613Y0036501D01*
X0036730Y0036627D01*
X0036850Y0036750D01*
X0036973Y0036870D01*
X0037099Y0036987D01*
X0037228Y0037100D01*
X0037359Y0037211D01*
X0037493Y0037318D01*
X0037630Y0037422D01*
X0037769Y0037523D01*
X0037911Y0037620D01*
X0038055Y0037714D01*
X0038201Y0037804D01*
X0038350Y0037891D01*
X0038500Y0037973D01*
X0038653Y0038053D01*
X0038807Y0038128D01*
X0038963Y0038199D01*
X0039121Y0038267D01*
X0039281Y0038331D01*
X0039442Y0038391D01*
X0039604Y0038447D01*
X0039768Y0038499D01*
X0039933Y0038546D01*
X0040099Y0038590D01*
X0040266Y0038630D01*
X0040434Y0038665D01*
X0040603Y0038697D01*
X0040773Y0038724D01*
X0040943Y0038747D01*
X0041114Y0038766D01*
X0041285Y0038781D01*
X0041457Y0038792D01*
X0041628Y0038798D01*
X0041800Y0038800D01*
X0041972Y0038798D01*
X0042143Y0038792D01*
X0042315Y0038781D01*
X0042486Y0038766D01*
X0042657Y0038747D01*
X0042827Y0038724D01*
X0042997Y0038697D01*
X0043166Y0038665D01*
X0043334Y0038630D01*
X0043501Y0038590D01*
X0043667Y0038546D01*
X0043832Y0038499D01*
X0043996Y0038447D01*
X0044158Y0038391D01*
X0044319Y0038331D01*
X0044479Y0038267D01*
X0044637Y0038199D01*
X0044793Y0038128D01*
X0044947Y0038053D01*
X0045100Y0037973D01*
X0045250Y0037891D01*
X0045399Y0037804D01*
X0045545Y0037714D01*
X0045689Y0037620D01*
X0045831Y0037523D01*
X0045970Y0037422D01*
X0046107Y0037318D01*
X0046241Y0037211D01*
X0046372Y0037100D01*
X0046501Y0036987D01*
X0046627Y0036870D01*
X0046750Y0036750D01*
X0046870Y0036627D01*
X0046987Y0036501D01*
X0047100Y0036372D01*
X0047211Y0036241D01*
X0047318Y0036107D01*
X0047422Y0035970D01*
X0047523Y0035831D01*
X0047620Y0035689D01*
X0047714Y0035545D01*
X0047804Y0035399D01*
X0047891Y0035250D01*
X0047973Y0035100D01*
X0048053Y0034947D01*
X0048128Y0034793D01*
X0048199Y0034637D01*
X0048267Y0034479D01*
X0048331Y0034319D01*
X0048391Y0034158D01*
X0048447Y0033996D01*
X0048499Y0033832D01*
X0048546Y0033667D01*
X0048590Y0033501D01*
X0048630Y0033334D01*
X0048665Y0033166D01*
X0048697Y0032997D01*
X0048724Y0032827D01*
X0048747Y0032657D01*
X0048766Y0032486D01*
X0048781Y0032315D01*
X0048792Y0032143D01*
X0048798Y0031972D01*
X0048800Y0031800D01*
X0048798Y0031628D01*
X0048792Y0031457D01*
X0048781Y0031285D01*
X0048766Y0031114D01*
X0048747Y0030943D01*
X0048724Y0030773D01*
X0048697Y0030603D01*
X0048665Y0030434D01*
X0048630Y0030266D01*
X0048590Y0030099D01*
X0048546Y0029933D01*
X0048499Y0029768D01*
X0048447Y0029604D01*
X0048391Y0029442D01*
X0048331Y0029281D01*
X0048267Y0029121D01*
X0048199Y0028963D01*
X0048128Y0028807D01*
X0048053Y0028653D01*
X0047973Y0028500D01*
X0047891Y0028350D01*
X0047804Y0028201D01*
X0047714Y0028055D01*
X0047620Y0027911D01*
X0047523Y0027769D01*
X0047422Y0027630D01*
X0047318Y0027493D01*
X0047211Y0027359D01*
X0047100Y0027228D01*
X0046987Y0027099D01*
X0046870Y0026973D01*
X0046750Y0026850D01*
X0046627Y0026730D01*
X0046501Y0026613D01*
X0046372Y0026500D01*
X0046241Y0026389D01*
X0046107Y0026282D01*
X0045970Y0026178D01*
X0045831Y0026077D01*
X0045689Y0025980D01*
X0045545Y0025886D01*
X0045399Y0025796D01*
X0045250Y0025709D01*
X0045100Y0025627D01*
X0044947Y0025547D01*
X0044793Y0025472D01*
X0044637Y0025401D01*
X0044479Y0025333D01*
X0044319Y0025269D01*
X0044158Y0025209D01*
X0043996Y0025153D01*
X0043832Y0025101D01*
X0043667Y0025054D01*
X0043501Y0025010D01*
X0043334Y0024970D01*
X0043166Y0024935D01*
X0042997Y0024903D01*
X0042827Y0024876D01*
X0042657Y0024853D01*
X0042486Y0024834D01*
X0042315Y0024819D01*
X0042143Y0024808D01*
X0041972Y0024802D01*
X0041800Y0024800D01*
X0041628Y0024802D01*
X0041457Y0024808D01*
X0041285Y0024819D01*
X0041114Y0024834D01*
X0040943Y0024853D01*
X0040773Y0024876D01*
X0040603Y0024903D01*
X0040434Y0024935D01*
X0040266Y0024970D01*
X0040099Y0025010D01*
X0039933Y0025054D01*
X0039768Y0025101D01*
X0039604Y0025153D01*
X0039442Y0025209D01*
X0039281Y0025269D01*
X0039121Y0025333D01*
X0038963Y0025401D01*
X0038807Y0025472D01*
X0038653Y0025547D01*
X0038500Y0025627D01*
X0038350Y0025709D01*
X0038201Y0025796D01*
X0038055Y0025886D01*
X0037911Y0025980D01*
X0037769Y0026077D01*
X0037630Y0026178D01*
X0037493Y0026282D01*
X0037359Y0026389D01*
X0037228Y0026500D01*
X0037099Y0026613D01*
X0036973Y0026730D01*
X0036850Y0026850D01*
X0036730Y0026973D01*
X0036613Y0027099D01*
X0036500Y0027228D01*
X0036389Y0027359D01*
X0036282Y0027493D01*
X0036178Y0027630D01*
X0036077Y0027769D01*
X0035980Y0027911D01*
X0035886Y0028055D01*
X0035796Y0028201D01*
X0035709Y0028350D01*
X0035627Y0028500D01*
X0035547Y0028653D01*
X0035472Y0028807D01*
X0035401Y0028963D01*
X0035333Y0029121D01*
X0035269Y0029281D01*
X0035209Y0029442D01*
X0035153Y0029604D01*
X0035101Y0029768D01*
X0035054Y0029933D01*
X0035010Y0030099D01*
X0034970Y0030266D01*
X0034935Y0030434D01*
X0034903Y0030603D01*
X0034876Y0030773D01*
X0034853Y0030943D01*
X0034834Y0031114D01*
X0034819Y0031285D01*
X0034808Y0031457D01*
X0034802Y0031628D01*
X0034800Y0031800D01*
X0074800Y0027871D02*
X0074800Y0035800D01*
X0078300Y0043800D02*
X0095300Y0043800D01*
X0098800Y0035800D02*
X0098800Y0027753D01*
X0095300Y0019800D02*
X0078300Y0019800D01*
X0079800Y0031800D02*
X0079802Y0031972D01*
X0079808Y0032143D01*
X0079819Y0032315D01*
X0079834Y0032486D01*
X0079853Y0032657D01*
X0079876Y0032827D01*
X0079903Y0032997D01*
X0079935Y0033166D01*
X0079970Y0033334D01*
X0080010Y0033501D01*
X0080054Y0033667D01*
X0080101Y0033832D01*
X0080153Y0033996D01*
X0080209Y0034158D01*
X0080269Y0034319D01*
X0080333Y0034479D01*
X0080401Y0034637D01*
X0080472Y0034793D01*
X0080547Y0034947D01*
X0080627Y0035100D01*
X0080709Y0035250D01*
X0080796Y0035399D01*
X0080886Y0035545D01*
X0080980Y0035689D01*
X0081077Y0035831D01*
X0081178Y0035970D01*
X0081282Y0036107D01*
X0081389Y0036241D01*
X0081500Y0036372D01*
X0081613Y0036501D01*
X0081730Y0036627D01*
X0081850Y0036750D01*
X0081973Y0036870D01*
X0082099Y0036987D01*
X0082228Y0037100D01*
X0082359Y0037211D01*
X0082493Y0037318D01*
X0082630Y0037422D01*
X0082769Y0037523D01*
X0082911Y0037620D01*
X0083055Y0037714D01*
X0083201Y0037804D01*
X0083350Y0037891D01*
X0083500Y0037973D01*
X0083653Y0038053D01*
X0083807Y0038128D01*
X0083963Y0038199D01*
X0084121Y0038267D01*
X0084281Y0038331D01*
X0084442Y0038391D01*
X0084604Y0038447D01*
X0084768Y0038499D01*
X0084933Y0038546D01*
X0085099Y0038590D01*
X0085266Y0038630D01*
X0085434Y0038665D01*
X0085603Y0038697D01*
X0085773Y0038724D01*
X0085943Y0038747D01*
X0086114Y0038766D01*
X0086285Y0038781D01*
X0086457Y0038792D01*
X0086628Y0038798D01*
X0086800Y0038800D01*
X0086972Y0038798D01*
X0087143Y0038792D01*
X0087315Y0038781D01*
X0087486Y0038766D01*
X0087657Y0038747D01*
X0087827Y0038724D01*
X0087997Y0038697D01*
X0088166Y0038665D01*
X0088334Y0038630D01*
X0088501Y0038590D01*
X0088667Y0038546D01*
X0088832Y0038499D01*
X0088996Y0038447D01*
X0089158Y0038391D01*
X0089319Y0038331D01*
X0089479Y0038267D01*
X0089637Y0038199D01*
X0089793Y0038128D01*
X0089947Y0038053D01*
X0090100Y0037973D01*
X0090250Y0037891D01*
X0090399Y0037804D01*
X0090545Y0037714D01*
X0090689Y0037620D01*
X0090831Y0037523D01*
X0090970Y0037422D01*
X0091107Y0037318D01*
X0091241Y0037211D01*
X0091372Y0037100D01*
X0091501Y0036987D01*
X0091627Y0036870D01*
X0091750Y0036750D01*
X0091870Y0036627D01*
X0091987Y0036501D01*
X0092100Y0036372D01*
X0092211Y0036241D01*
X0092318Y0036107D01*
X0092422Y0035970D01*
X0092523Y0035831D01*
X0092620Y0035689D01*
X0092714Y0035545D01*
X0092804Y0035399D01*
X0092891Y0035250D01*
X0092973Y0035100D01*
X0093053Y0034947D01*
X0093128Y0034793D01*
X0093199Y0034637D01*
X0093267Y0034479D01*
X0093331Y0034319D01*
X0093391Y0034158D01*
X0093447Y0033996D01*
X0093499Y0033832D01*
X0093546Y0033667D01*
X0093590Y0033501D01*
X0093630Y0033334D01*
X0093665Y0033166D01*
X0093697Y0032997D01*
X0093724Y0032827D01*
X0093747Y0032657D01*
X0093766Y0032486D01*
X0093781Y0032315D01*
X0093792Y0032143D01*
X0093798Y0031972D01*
X0093800Y0031800D01*
X0093798Y0031628D01*
X0093792Y0031457D01*
X0093781Y0031285D01*
X0093766Y0031114D01*
X0093747Y0030943D01*
X0093724Y0030773D01*
X0093697Y0030603D01*
X0093665Y0030434D01*
X0093630Y0030266D01*
X0093590Y0030099D01*
X0093546Y0029933D01*
X0093499Y0029768D01*
X0093447Y0029604D01*
X0093391Y0029442D01*
X0093331Y0029281D01*
X0093267Y0029121D01*
X0093199Y0028963D01*
X0093128Y0028807D01*
X0093053Y0028653D01*
X0092973Y0028500D01*
X0092891Y0028350D01*
X0092804Y0028201D01*
X0092714Y0028055D01*
X0092620Y0027911D01*
X0092523Y0027769D01*
X0092422Y0027630D01*
X0092318Y0027493D01*
X0092211Y0027359D01*
X0092100Y0027228D01*
X0091987Y0027099D01*
X0091870Y0026973D01*
X0091750Y0026850D01*
X0091627Y0026730D01*
X0091501Y0026613D01*
X0091372Y0026500D01*
X0091241Y0026389D01*
X0091107Y0026282D01*
X0090970Y0026178D01*
X0090831Y0026077D01*
X0090689Y0025980D01*
X0090545Y0025886D01*
X0090399Y0025796D01*
X0090250Y0025709D01*
X0090100Y0025627D01*
X0089947Y0025547D01*
X0089793Y0025472D01*
X0089637Y0025401D01*
X0089479Y0025333D01*
X0089319Y0025269D01*
X0089158Y0025209D01*
X0088996Y0025153D01*
X0088832Y0025101D01*
X0088667Y0025054D01*
X0088501Y0025010D01*
X0088334Y0024970D01*
X0088166Y0024935D01*
X0087997Y0024903D01*
X0087827Y0024876D01*
X0087657Y0024853D01*
X0087486Y0024834D01*
X0087315Y0024819D01*
X0087143Y0024808D01*
X0086972Y0024802D01*
X0086800Y0024800D01*
X0086628Y0024802D01*
X0086457Y0024808D01*
X0086285Y0024819D01*
X0086114Y0024834D01*
X0085943Y0024853D01*
X0085773Y0024876D01*
X0085603Y0024903D01*
X0085434Y0024935D01*
X0085266Y0024970D01*
X0085099Y0025010D01*
X0084933Y0025054D01*
X0084768Y0025101D01*
X0084604Y0025153D01*
X0084442Y0025209D01*
X0084281Y0025269D01*
X0084121Y0025333D01*
X0083963Y0025401D01*
X0083807Y0025472D01*
X0083653Y0025547D01*
X0083500Y0025627D01*
X0083350Y0025709D01*
X0083201Y0025796D01*
X0083055Y0025886D01*
X0082911Y0025980D01*
X0082769Y0026077D01*
X0082630Y0026178D01*
X0082493Y0026282D01*
X0082359Y0026389D01*
X0082228Y0026500D01*
X0082099Y0026613D01*
X0081973Y0026730D01*
X0081850Y0026850D01*
X0081730Y0026973D01*
X0081613Y0027099D01*
X0081500Y0027228D01*
X0081389Y0027359D01*
X0081282Y0027493D01*
X0081178Y0027630D01*
X0081077Y0027769D01*
X0080980Y0027911D01*
X0080886Y0028055D01*
X0080796Y0028201D01*
X0080709Y0028350D01*
X0080627Y0028500D01*
X0080547Y0028653D01*
X0080472Y0028807D01*
X0080401Y0028963D01*
X0080333Y0029121D01*
X0080269Y0029281D01*
X0080209Y0029442D01*
X0080153Y0029604D01*
X0080101Y0029768D01*
X0080054Y0029933D01*
X0080010Y0030099D01*
X0079970Y0030266D01*
X0079935Y0030434D01*
X0079903Y0030603D01*
X0079876Y0030773D01*
X0079853Y0030943D01*
X0079834Y0031114D01*
X0079819Y0031285D01*
X0079808Y0031457D01*
X0079802Y0031628D01*
X0079800Y0031800D01*
X0119800Y0027871D02*
X0119800Y0035800D01*
X0123300Y0043800D02*
X0140300Y0043800D01*
X0143800Y0035800D02*
X0143800Y0027753D01*
X0140300Y0019800D02*
X0123300Y0019800D01*
X0124800Y0031800D02*
X0124802Y0031972D01*
X0124808Y0032143D01*
X0124819Y0032315D01*
X0124834Y0032486D01*
X0124853Y0032657D01*
X0124876Y0032827D01*
X0124903Y0032997D01*
X0124935Y0033166D01*
X0124970Y0033334D01*
X0125010Y0033501D01*
X0125054Y0033667D01*
X0125101Y0033832D01*
X0125153Y0033996D01*
X0125209Y0034158D01*
X0125269Y0034319D01*
X0125333Y0034479D01*
X0125401Y0034637D01*
X0125472Y0034793D01*
X0125547Y0034947D01*
X0125627Y0035100D01*
X0125709Y0035250D01*
X0125796Y0035399D01*
X0125886Y0035545D01*
X0125980Y0035689D01*
X0126077Y0035831D01*
X0126178Y0035970D01*
X0126282Y0036107D01*
X0126389Y0036241D01*
X0126500Y0036372D01*
X0126613Y0036501D01*
X0126730Y0036627D01*
X0126850Y0036750D01*
X0126973Y0036870D01*
X0127099Y0036987D01*
X0127228Y0037100D01*
X0127359Y0037211D01*
X0127493Y0037318D01*
X0127630Y0037422D01*
X0127769Y0037523D01*
X0127911Y0037620D01*
X0128055Y0037714D01*
X0128201Y0037804D01*
X0128350Y0037891D01*
X0128500Y0037973D01*
X0128653Y0038053D01*
X0128807Y0038128D01*
X0128963Y0038199D01*
X0129121Y0038267D01*
X0129281Y0038331D01*
X0129442Y0038391D01*
X0129604Y0038447D01*
X0129768Y0038499D01*
X0129933Y0038546D01*
X0130099Y0038590D01*
X0130266Y0038630D01*
X0130434Y0038665D01*
X0130603Y0038697D01*
X0130773Y0038724D01*
X0130943Y0038747D01*
X0131114Y0038766D01*
X0131285Y0038781D01*
X0131457Y0038792D01*
X0131628Y0038798D01*
X0131800Y0038800D01*
X0131972Y0038798D01*
X0132143Y0038792D01*
X0132315Y0038781D01*
X0132486Y0038766D01*
X0132657Y0038747D01*
X0132827Y0038724D01*
X0132997Y0038697D01*
X0133166Y0038665D01*
X0133334Y0038630D01*
X0133501Y0038590D01*
X0133667Y0038546D01*
X0133832Y0038499D01*
X0133996Y0038447D01*
X0134158Y0038391D01*
X0134319Y0038331D01*
X0134479Y0038267D01*
X0134637Y0038199D01*
X0134793Y0038128D01*
X0134947Y0038053D01*
X0135100Y0037973D01*
X0135250Y0037891D01*
X0135399Y0037804D01*
X0135545Y0037714D01*
X0135689Y0037620D01*
X0135831Y0037523D01*
X0135970Y0037422D01*
X0136107Y0037318D01*
X0136241Y0037211D01*
X0136372Y0037100D01*
X0136501Y0036987D01*
X0136627Y0036870D01*
X0136750Y0036750D01*
X0136870Y0036627D01*
X0136987Y0036501D01*
X0137100Y0036372D01*
X0137211Y0036241D01*
X0137318Y0036107D01*
X0137422Y0035970D01*
X0137523Y0035831D01*
X0137620Y0035689D01*
X0137714Y0035545D01*
X0137804Y0035399D01*
X0137891Y0035250D01*
X0137973Y0035100D01*
X0138053Y0034947D01*
X0138128Y0034793D01*
X0138199Y0034637D01*
X0138267Y0034479D01*
X0138331Y0034319D01*
X0138391Y0034158D01*
X0138447Y0033996D01*
X0138499Y0033832D01*
X0138546Y0033667D01*
X0138590Y0033501D01*
X0138630Y0033334D01*
X0138665Y0033166D01*
X0138697Y0032997D01*
X0138724Y0032827D01*
X0138747Y0032657D01*
X0138766Y0032486D01*
X0138781Y0032315D01*
X0138792Y0032143D01*
X0138798Y0031972D01*
X0138800Y0031800D01*
X0138798Y0031628D01*
X0138792Y0031457D01*
X0138781Y0031285D01*
X0138766Y0031114D01*
X0138747Y0030943D01*
X0138724Y0030773D01*
X0138697Y0030603D01*
X0138665Y0030434D01*
X0138630Y0030266D01*
X0138590Y0030099D01*
X0138546Y0029933D01*
X0138499Y0029768D01*
X0138447Y0029604D01*
X0138391Y0029442D01*
X0138331Y0029281D01*
X0138267Y0029121D01*
X0138199Y0028963D01*
X0138128Y0028807D01*
X0138053Y0028653D01*
X0137973Y0028500D01*
X0137891Y0028350D01*
X0137804Y0028201D01*
X0137714Y0028055D01*
X0137620Y0027911D01*
X0137523Y0027769D01*
X0137422Y0027630D01*
X0137318Y0027493D01*
X0137211Y0027359D01*
X0137100Y0027228D01*
X0136987Y0027099D01*
X0136870Y0026973D01*
X0136750Y0026850D01*
X0136627Y0026730D01*
X0136501Y0026613D01*
X0136372Y0026500D01*
X0136241Y0026389D01*
X0136107Y0026282D01*
X0135970Y0026178D01*
X0135831Y0026077D01*
X0135689Y0025980D01*
X0135545Y0025886D01*
X0135399Y0025796D01*
X0135250Y0025709D01*
X0135100Y0025627D01*
X0134947Y0025547D01*
X0134793Y0025472D01*
X0134637Y0025401D01*
X0134479Y0025333D01*
X0134319Y0025269D01*
X0134158Y0025209D01*
X0133996Y0025153D01*
X0133832Y0025101D01*
X0133667Y0025054D01*
X0133501Y0025010D01*
X0133334Y0024970D01*
X0133166Y0024935D01*
X0132997Y0024903D01*
X0132827Y0024876D01*
X0132657Y0024853D01*
X0132486Y0024834D01*
X0132315Y0024819D01*
X0132143Y0024808D01*
X0131972Y0024802D01*
X0131800Y0024800D01*
X0131628Y0024802D01*
X0131457Y0024808D01*
X0131285Y0024819D01*
X0131114Y0024834D01*
X0130943Y0024853D01*
X0130773Y0024876D01*
X0130603Y0024903D01*
X0130434Y0024935D01*
X0130266Y0024970D01*
X0130099Y0025010D01*
X0129933Y0025054D01*
X0129768Y0025101D01*
X0129604Y0025153D01*
X0129442Y0025209D01*
X0129281Y0025269D01*
X0129121Y0025333D01*
X0128963Y0025401D01*
X0128807Y0025472D01*
X0128653Y0025547D01*
X0128500Y0025627D01*
X0128350Y0025709D01*
X0128201Y0025796D01*
X0128055Y0025886D01*
X0127911Y0025980D01*
X0127769Y0026077D01*
X0127630Y0026178D01*
X0127493Y0026282D01*
X0127359Y0026389D01*
X0127228Y0026500D01*
X0127099Y0026613D01*
X0126973Y0026730D01*
X0126850Y0026850D01*
X0126730Y0026973D01*
X0126613Y0027099D01*
X0126500Y0027228D01*
X0126389Y0027359D01*
X0126282Y0027493D01*
X0126178Y0027630D01*
X0126077Y0027769D01*
X0125980Y0027911D01*
X0125886Y0028055D01*
X0125796Y0028201D01*
X0125709Y0028350D01*
X0125627Y0028500D01*
X0125547Y0028653D01*
X0125472Y0028807D01*
X0125401Y0028963D01*
X0125333Y0029121D01*
X0125269Y0029281D01*
X0125209Y0029442D01*
X0125153Y0029604D01*
X0125101Y0029768D01*
X0125054Y0029933D01*
X0125010Y0030099D01*
X0124970Y0030266D01*
X0124935Y0030434D01*
X0124903Y0030603D01*
X0124876Y0030773D01*
X0124853Y0030943D01*
X0124834Y0031114D01*
X0124819Y0031285D01*
X0124808Y0031457D01*
X0124802Y0031628D01*
X0124800Y0031800D01*
X0164800Y0027871D02*
X0164800Y0035800D01*
X0168300Y0043800D02*
X0185300Y0043800D01*
X0188800Y0035800D02*
X0188800Y0027753D01*
X0185300Y0019800D02*
X0168300Y0019800D01*
X0169800Y0031800D02*
X0169802Y0031972D01*
X0169808Y0032143D01*
X0169819Y0032315D01*
X0169834Y0032486D01*
X0169853Y0032657D01*
X0169876Y0032827D01*
X0169903Y0032997D01*
X0169935Y0033166D01*
X0169970Y0033334D01*
X0170010Y0033501D01*
X0170054Y0033667D01*
X0170101Y0033832D01*
X0170153Y0033996D01*
X0170209Y0034158D01*
X0170269Y0034319D01*
X0170333Y0034479D01*
X0170401Y0034637D01*
X0170472Y0034793D01*
X0170547Y0034947D01*
X0170627Y0035100D01*
X0170709Y0035250D01*
X0170796Y0035399D01*
X0170886Y0035545D01*
X0170980Y0035689D01*
X0171077Y0035831D01*
X0171178Y0035970D01*
X0171282Y0036107D01*
X0171389Y0036241D01*
X0171500Y0036372D01*
X0171613Y0036501D01*
X0171730Y0036627D01*
X0171850Y0036750D01*
X0171973Y0036870D01*
X0172099Y0036987D01*
X0172228Y0037100D01*
X0172359Y0037211D01*
X0172493Y0037318D01*
X0172630Y0037422D01*
X0172769Y0037523D01*
X0172911Y0037620D01*
X0173055Y0037714D01*
X0173201Y0037804D01*
X0173350Y0037891D01*
X0173500Y0037973D01*
X0173653Y0038053D01*
X0173807Y0038128D01*
X0173963Y0038199D01*
X0174121Y0038267D01*
X0174281Y0038331D01*
X0174442Y0038391D01*
X0174604Y0038447D01*
X0174768Y0038499D01*
X0174933Y0038546D01*
X0175099Y0038590D01*
X0175266Y0038630D01*
X0175434Y0038665D01*
X0175603Y0038697D01*
X0175773Y0038724D01*
X0175943Y0038747D01*
X0176114Y0038766D01*
X0176285Y0038781D01*
X0176457Y0038792D01*
X0176628Y0038798D01*
X0176800Y0038800D01*
X0176972Y0038798D01*
X0177143Y0038792D01*
X0177315Y0038781D01*
X0177486Y0038766D01*
X0177657Y0038747D01*
X0177827Y0038724D01*
X0177997Y0038697D01*
X0178166Y0038665D01*
X0178334Y0038630D01*
X0178501Y0038590D01*
X0178667Y0038546D01*
X0178832Y0038499D01*
X0178996Y0038447D01*
X0179158Y0038391D01*
X0179319Y0038331D01*
X0179479Y0038267D01*
X0179637Y0038199D01*
X0179793Y0038128D01*
X0179947Y0038053D01*
X0180100Y0037973D01*
X0180250Y0037891D01*
X0180399Y0037804D01*
X0180545Y0037714D01*
X0180689Y0037620D01*
X0180831Y0037523D01*
X0180970Y0037422D01*
X0181107Y0037318D01*
X0181241Y0037211D01*
X0181372Y0037100D01*
X0181501Y0036987D01*
X0181627Y0036870D01*
X0181750Y0036750D01*
X0181870Y0036627D01*
X0181987Y0036501D01*
X0182100Y0036372D01*
X0182211Y0036241D01*
X0182318Y0036107D01*
X0182422Y0035970D01*
X0182523Y0035831D01*
X0182620Y0035689D01*
X0182714Y0035545D01*
X0182804Y0035399D01*
X0182891Y0035250D01*
X0182973Y0035100D01*
X0183053Y0034947D01*
X0183128Y0034793D01*
X0183199Y0034637D01*
X0183267Y0034479D01*
X0183331Y0034319D01*
X0183391Y0034158D01*
X0183447Y0033996D01*
X0183499Y0033832D01*
X0183546Y0033667D01*
X0183590Y0033501D01*
X0183630Y0033334D01*
X0183665Y0033166D01*
X0183697Y0032997D01*
X0183724Y0032827D01*
X0183747Y0032657D01*
X0183766Y0032486D01*
X0183781Y0032315D01*
X0183792Y0032143D01*
X0183798Y0031972D01*
X0183800Y0031800D01*
X0183798Y0031628D01*
X0183792Y0031457D01*
X0183781Y0031285D01*
X0183766Y0031114D01*
X0183747Y0030943D01*
X0183724Y0030773D01*
X0183697Y0030603D01*
X0183665Y0030434D01*
X0183630Y0030266D01*
X0183590Y0030099D01*
X0183546Y0029933D01*
X0183499Y0029768D01*
X0183447Y0029604D01*
X0183391Y0029442D01*
X0183331Y0029281D01*
X0183267Y0029121D01*
X0183199Y0028963D01*
X0183128Y0028807D01*
X0183053Y0028653D01*
X0182973Y0028500D01*
X0182891Y0028350D01*
X0182804Y0028201D01*
X0182714Y0028055D01*
X0182620Y0027911D01*
X0182523Y0027769D01*
X0182422Y0027630D01*
X0182318Y0027493D01*
X0182211Y0027359D01*
X0182100Y0027228D01*
X0181987Y0027099D01*
X0181870Y0026973D01*
X0181750Y0026850D01*
X0181627Y0026730D01*
X0181501Y0026613D01*
X0181372Y0026500D01*
X0181241Y0026389D01*
X0181107Y0026282D01*
X0180970Y0026178D01*
X0180831Y0026077D01*
X0180689Y0025980D01*
X0180545Y0025886D01*
X0180399Y0025796D01*
X0180250Y0025709D01*
X0180100Y0025627D01*
X0179947Y0025547D01*
X0179793Y0025472D01*
X0179637Y0025401D01*
X0179479Y0025333D01*
X0179319Y0025269D01*
X0179158Y0025209D01*
X0178996Y0025153D01*
X0178832Y0025101D01*
X0178667Y0025054D01*
X0178501Y0025010D01*
X0178334Y0024970D01*
X0178166Y0024935D01*
X0177997Y0024903D01*
X0177827Y0024876D01*
X0177657Y0024853D01*
X0177486Y0024834D01*
X0177315Y0024819D01*
X0177143Y0024808D01*
X0176972Y0024802D01*
X0176800Y0024800D01*
X0176628Y0024802D01*
X0176457Y0024808D01*
X0176285Y0024819D01*
X0176114Y0024834D01*
X0175943Y0024853D01*
X0175773Y0024876D01*
X0175603Y0024903D01*
X0175434Y0024935D01*
X0175266Y0024970D01*
X0175099Y0025010D01*
X0174933Y0025054D01*
X0174768Y0025101D01*
X0174604Y0025153D01*
X0174442Y0025209D01*
X0174281Y0025269D01*
X0174121Y0025333D01*
X0173963Y0025401D01*
X0173807Y0025472D01*
X0173653Y0025547D01*
X0173500Y0025627D01*
X0173350Y0025709D01*
X0173201Y0025796D01*
X0173055Y0025886D01*
X0172911Y0025980D01*
X0172769Y0026077D01*
X0172630Y0026178D01*
X0172493Y0026282D01*
X0172359Y0026389D01*
X0172228Y0026500D01*
X0172099Y0026613D01*
X0171973Y0026730D01*
X0171850Y0026850D01*
X0171730Y0026973D01*
X0171613Y0027099D01*
X0171500Y0027228D01*
X0171389Y0027359D01*
X0171282Y0027493D01*
X0171178Y0027630D01*
X0171077Y0027769D01*
X0170980Y0027911D01*
X0170886Y0028055D01*
X0170796Y0028201D01*
X0170709Y0028350D01*
X0170627Y0028500D01*
X0170547Y0028653D01*
X0170472Y0028807D01*
X0170401Y0028963D01*
X0170333Y0029121D01*
X0170269Y0029281D01*
X0170209Y0029442D01*
X0170153Y0029604D01*
X0170101Y0029768D01*
X0170054Y0029933D01*
X0170010Y0030099D01*
X0169970Y0030266D01*
X0169935Y0030434D01*
X0169903Y0030603D01*
X0169876Y0030773D01*
X0169853Y0030943D01*
X0169834Y0031114D01*
X0169819Y0031285D01*
X0169808Y0031457D01*
X0169802Y0031628D01*
X0169800Y0031800D01*
X0209800Y0027871D02*
X0209800Y0035800D01*
X0213300Y0043800D02*
X0230300Y0043800D01*
X0233800Y0035800D02*
X0233800Y0027753D01*
X0230300Y0019800D02*
X0213300Y0019800D01*
X0214800Y0031800D02*
X0214802Y0031972D01*
X0214808Y0032143D01*
X0214819Y0032315D01*
X0214834Y0032486D01*
X0214853Y0032657D01*
X0214876Y0032827D01*
X0214903Y0032997D01*
X0214935Y0033166D01*
X0214970Y0033334D01*
X0215010Y0033501D01*
X0215054Y0033667D01*
X0215101Y0033832D01*
X0215153Y0033996D01*
X0215209Y0034158D01*
X0215269Y0034319D01*
X0215333Y0034479D01*
X0215401Y0034637D01*
X0215472Y0034793D01*
X0215547Y0034947D01*
X0215627Y0035100D01*
X0215709Y0035250D01*
X0215796Y0035399D01*
X0215886Y0035545D01*
X0215980Y0035689D01*
X0216077Y0035831D01*
X0216178Y0035970D01*
X0216282Y0036107D01*
X0216389Y0036241D01*
X0216500Y0036372D01*
X0216613Y0036501D01*
X0216730Y0036627D01*
X0216850Y0036750D01*
X0216973Y0036870D01*
X0217099Y0036987D01*
X0217228Y0037100D01*
X0217359Y0037211D01*
X0217493Y0037318D01*
X0217630Y0037422D01*
X0217769Y0037523D01*
X0217911Y0037620D01*
X0218055Y0037714D01*
X0218201Y0037804D01*
X0218350Y0037891D01*
X0218500Y0037973D01*
X0218653Y0038053D01*
X0218807Y0038128D01*
X0218963Y0038199D01*
X0219121Y0038267D01*
X0219281Y0038331D01*
X0219442Y0038391D01*
X0219604Y0038447D01*
X0219768Y0038499D01*
X0219933Y0038546D01*
X0220099Y0038590D01*
X0220266Y0038630D01*
X0220434Y0038665D01*
X0220603Y0038697D01*
X0220773Y0038724D01*
X0220943Y0038747D01*
X0221114Y0038766D01*
X0221285Y0038781D01*
X0221457Y0038792D01*
X0221628Y0038798D01*
X0221800Y0038800D01*
X0221972Y0038798D01*
X0222143Y0038792D01*
X0222315Y0038781D01*
X0222486Y0038766D01*
X0222657Y0038747D01*
X0222827Y0038724D01*
X0222997Y0038697D01*
X0223166Y0038665D01*
X0223334Y0038630D01*
X0223501Y0038590D01*
X0223667Y0038546D01*
X0223832Y0038499D01*
X0223996Y0038447D01*
X0224158Y0038391D01*
X0224319Y0038331D01*
X0224479Y0038267D01*
X0224637Y0038199D01*
X0224793Y0038128D01*
X0224947Y0038053D01*
X0225100Y0037973D01*
X0225250Y0037891D01*
X0225399Y0037804D01*
X0225545Y0037714D01*
X0225689Y0037620D01*
X0225831Y0037523D01*
X0225970Y0037422D01*
X0226107Y0037318D01*
X0226241Y0037211D01*
X0226372Y0037100D01*
X0226501Y0036987D01*
X0226627Y0036870D01*
X0226750Y0036750D01*
X0226870Y0036627D01*
X0226987Y0036501D01*
X0227100Y0036372D01*
X0227211Y0036241D01*
X0227318Y0036107D01*
X0227422Y0035970D01*
X0227523Y0035831D01*
X0227620Y0035689D01*
X0227714Y0035545D01*
X0227804Y0035399D01*
X0227891Y0035250D01*
X0227973Y0035100D01*
X0228053Y0034947D01*
X0228128Y0034793D01*
X0228199Y0034637D01*
X0228267Y0034479D01*
X0228331Y0034319D01*
X0228391Y0034158D01*
X0228447Y0033996D01*
X0228499Y0033832D01*
X0228546Y0033667D01*
X0228590Y0033501D01*
X0228630Y0033334D01*
X0228665Y0033166D01*
X0228697Y0032997D01*
X0228724Y0032827D01*
X0228747Y0032657D01*
X0228766Y0032486D01*
X0228781Y0032315D01*
X0228792Y0032143D01*
X0228798Y0031972D01*
X0228800Y0031800D01*
X0228798Y0031628D01*
X0228792Y0031457D01*
X0228781Y0031285D01*
X0228766Y0031114D01*
X0228747Y0030943D01*
X0228724Y0030773D01*
X0228697Y0030603D01*
X0228665Y0030434D01*
X0228630Y0030266D01*
X0228590Y0030099D01*
X0228546Y0029933D01*
X0228499Y0029768D01*
X0228447Y0029604D01*
X0228391Y0029442D01*
X0228331Y0029281D01*
X0228267Y0029121D01*
X0228199Y0028963D01*
X0228128Y0028807D01*
X0228053Y0028653D01*
X0227973Y0028500D01*
X0227891Y0028350D01*
X0227804Y0028201D01*
X0227714Y0028055D01*
X0227620Y0027911D01*
X0227523Y0027769D01*
X0227422Y0027630D01*
X0227318Y0027493D01*
X0227211Y0027359D01*
X0227100Y0027228D01*
X0226987Y0027099D01*
X0226870Y0026973D01*
X0226750Y0026850D01*
X0226627Y0026730D01*
X0226501Y0026613D01*
X0226372Y0026500D01*
X0226241Y0026389D01*
X0226107Y0026282D01*
X0225970Y0026178D01*
X0225831Y0026077D01*
X0225689Y0025980D01*
X0225545Y0025886D01*
X0225399Y0025796D01*
X0225250Y0025709D01*
X0225100Y0025627D01*
X0224947Y0025547D01*
X0224793Y0025472D01*
X0224637Y0025401D01*
X0224479Y0025333D01*
X0224319Y0025269D01*
X0224158Y0025209D01*
X0223996Y0025153D01*
X0223832Y0025101D01*
X0223667Y0025054D01*
X0223501Y0025010D01*
X0223334Y0024970D01*
X0223166Y0024935D01*
X0222997Y0024903D01*
X0222827Y0024876D01*
X0222657Y0024853D01*
X0222486Y0024834D01*
X0222315Y0024819D01*
X0222143Y0024808D01*
X0221972Y0024802D01*
X0221800Y0024800D01*
X0221628Y0024802D01*
X0221457Y0024808D01*
X0221285Y0024819D01*
X0221114Y0024834D01*
X0220943Y0024853D01*
X0220773Y0024876D01*
X0220603Y0024903D01*
X0220434Y0024935D01*
X0220266Y0024970D01*
X0220099Y0025010D01*
X0219933Y0025054D01*
X0219768Y0025101D01*
X0219604Y0025153D01*
X0219442Y0025209D01*
X0219281Y0025269D01*
X0219121Y0025333D01*
X0218963Y0025401D01*
X0218807Y0025472D01*
X0218653Y0025547D01*
X0218500Y0025627D01*
X0218350Y0025709D01*
X0218201Y0025796D01*
X0218055Y0025886D01*
X0217911Y0025980D01*
X0217769Y0026077D01*
X0217630Y0026178D01*
X0217493Y0026282D01*
X0217359Y0026389D01*
X0217228Y0026500D01*
X0217099Y0026613D01*
X0216973Y0026730D01*
X0216850Y0026850D01*
X0216730Y0026973D01*
X0216613Y0027099D01*
X0216500Y0027228D01*
X0216389Y0027359D01*
X0216282Y0027493D01*
X0216178Y0027630D01*
X0216077Y0027769D01*
X0215980Y0027911D01*
X0215886Y0028055D01*
X0215796Y0028201D01*
X0215709Y0028350D01*
X0215627Y0028500D01*
X0215547Y0028653D01*
X0215472Y0028807D01*
X0215401Y0028963D01*
X0215333Y0029121D01*
X0215269Y0029281D01*
X0215209Y0029442D01*
X0215153Y0029604D01*
X0215101Y0029768D01*
X0215054Y0029933D01*
X0215010Y0030099D01*
X0214970Y0030266D01*
X0214935Y0030434D01*
X0214903Y0030603D01*
X0214876Y0030773D01*
X0214853Y0030943D01*
X0214834Y0031114D01*
X0214819Y0031285D01*
X0214808Y0031457D01*
X0214802Y0031628D01*
X0214800Y0031800D01*
X0254800Y0027871D02*
X0254800Y0035800D01*
X0258300Y0043800D02*
X0275300Y0043800D01*
X0278800Y0035800D02*
X0278800Y0027753D01*
X0275300Y0019800D02*
X0258300Y0019800D01*
X0259800Y0031800D02*
X0259802Y0031972D01*
X0259808Y0032143D01*
X0259819Y0032315D01*
X0259834Y0032486D01*
X0259853Y0032657D01*
X0259876Y0032827D01*
X0259903Y0032997D01*
X0259935Y0033166D01*
X0259970Y0033334D01*
X0260010Y0033501D01*
X0260054Y0033667D01*
X0260101Y0033832D01*
X0260153Y0033996D01*
X0260209Y0034158D01*
X0260269Y0034319D01*
X0260333Y0034479D01*
X0260401Y0034637D01*
X0260472Y0034793D01*
X0260547Y0034947D01*
X0260627Y0035100D01*
X0260709Y0035250D01*
X0260796Y0035399D01*
X0260886Y0035545D01*
X0260980Y0035689D01*
X0261077Y0035831D01*
X0261178Y0035970D01*
X0261282Y0036107D01*
X0261389Y0036241D01*
X0261500Y0036372D01*
X0261613Y0036501D01*
X0261730Y0036627D01*
X0261850Y0036750D01*
X0261973Y0036870D01*
X0262099Y0036987D01*
X0262228Y0037100D01*
X0262359Y0037211D01*
X0262493Y0037318D01*
X0262630Y0037422D01*
X0262769Y0037523D01*
X0262911Y0037620D01*
X0263055Y0037714D01*
X0263201Y0037804D01*
X0263350Y0037891D01*
X0263500Y0037973D01*
X0263653Y0038053D01*
X0263807Y0038128D01*
X0263963Y0038199D01*
X0264121Y0038267D01*
X0264281Y0038331D01*
X0264442Y0038391D01*
X0264604Y0038447D01*
X0264768Y0038499D01*
X0264933Y0038546D01*
X0265099Y0038590D01*
X0265266Y0038630D01*
X0265434Y0038665D01*
X0265603Y0038697D01*
X0265773Y0038724D01*
X0265943Y0038747D01*
X0266114Y0038766D01*
X0266285Y0038781D01*
X0266457Y0038792D01*
X0266628Y0038798D01*
X0266800Y0038800D01*
X0266972Y0038798D01*
X0267143Y0038792D01*
X0267315Y0038781D01*
X0267486Y0038766D01*
X0267657Y0038747D01*
X0267827Y0038724D01*
X0267997Y0038697D01*
X0268166Y0038665D01*
X0268334Y0038630D01*
X0268501Y0038590D01*
X0268667Y0038546D01*
X0268832Y0038499D01*
X0268996Y0038447D01*
X0269158Y0038391D01*
X0269319Y0038331D01*
X0269479Y0038267D01*
X0269637Y0038199D01*
X0269793Y0038128D01*
X0269947Y0038053D01*
X0270100Y0037973D01*
X0270250Y0037891D01*
X0270399Y0037804D01*
X0270545Y0037714D01*
X0270689Y0037620D01*
X0270831Y0037523D01*
X0270970Y0037422D01*
X0271107Y0037318D01*
X0271241Y0037211D01*
X0271372Y0037100D01*
X0271501Y0036987D01*
X0271627Y0036870D01*
X0271750Y0036750D01*
X0271870Y0036627D01*
X0271987Y0036501D01*
X0272100Y0036372D01*
X0272211Y0036241D01*
X0272318Y0036107D01*
X0272422Y0035970D01*
X0272523Y0035831D01*
X0272620Y0035689D01*
X0272714Y0035545D01*
X0272804Y0035399D01*
X0272891Y0035250D01*
X0272973Y0035100D01*
X0273053Y0034947D01*
X0273128Y0034793D01*
X0273199Y0034637D01*
X0273267Y0034479D01*
X0273331Y0034319D01*
X0273391Y0034158D01*
X0273447Y0033996D01*
X0273499Y0033832D01*
X0273546Y0033667D01*
X0273590Y0033501D01*
X0273630Y0033334D01*
X0273665Y0033166D01*
X0273697Y0032997D01*
X0273724Y0032827D01*
X0273747Y0032657D01*
X0273766Y0032486D01*
X0273781Y0032315D01*
X0273792Y0032143D01*
X0273798Y0031972D01*
X0273800Y0031800D01*
X0273798Y0031628D01*
X0273792Y0031457D01*
X0273781Y0031285D01*
X0273766Y0031114D01*
X0273747Y0030943D01*
X0273724Y0030773D01*
X0273697Y0030603D01*
X0273665Y0030434D01*
X0273630Y0030266D01*
X0273590Y0030099D01*
X0273546Y0029933D01*
X0273499Y0029768D01*
X0273447Y0029604D01*
X0273391Y0029442D01*
X0273331Y0029281D01*
X0273267Y0029121D01*
X0273199Y0028963D01*
X0273128Y0028807D01*
X0273053Y0028653D01*
X0272973Y0028500D01*
X0272891Y0028350D01*
X0272804Y0028201D01*
X0272714Y0028055D01*
X0272620Y0027911D01*
X0272523Y0027769D01*
X0272422Y0027630D01*
X0272318Y0027493D01*
X0272211Y0027359D01*
X0272100Y0027228D01*
X0271987Y0027099D01*
X0271870Y0026973D01*
X0271750Y0026850D01*
X0271627Y0026730D01*
X0271501Y0026613D01*
X0271372Y0026500D01*
X0271241Y0026389D01*
X0271107Y0026282D01*
X0270970Y0026178D01*
X0270831Y0026077D01*
X0270689Y0025980D01*
X0270545Y0025886D01*
X0270399Y0025796D01*
X0270250Y0025709D01*
X0270100Y0025627D01*
X0269947Y0025547D01*
X0269793Y0025472D01*
X0269637Y0025401D01*
X0269479Y0025333D01*
X0269319Y0025269D01*
X0269158Y0025209D01*
X0268996Y0025153D01*
X0268832Y0025101D01*
X0268667Y0025054D01*
X0268501Y0025010D01*
X0268334Y0024970D01*
X0268166Y0024935D01*
X0267997Y0024903D01*
X0267827Y0024876D01*
X0267657Y0024853D01*
X0267486Y0024834D01*
X0267315Y0024819D01*
X0267143Y0024808D01*
X0266972Y0024802D01*
X0266800Y0024800D01*
X0266628Y0024802D01*
X0266457Y0024808D01*
X0266285Y0024819D01*
X0266114Y0024834D01*
X0265943Y0024853D01*
X0265773Y0024876D01*
X0265603Y0024903D01*
X0265434Y0024935D01*
X0265266Y0024970D01*
X0265099Y0025010D01*
X0264933Y0025054D01*
X0264768Y0025101D01*
X0264604Y0025153D01*
X0264442Y0025209D01*
X0264281Y0025269D01*
X0264121Y0025333D01*
X0263963Y0025401D01*
X0263807Y0025472D01*
X0263653Y0025547D01*
X0263500Y0025627D01*
X0263350Y0025709D01*
X0263201Y0025796D01*
X0263055Y0025886D01*
X0262911Y0025980D01*
X0262769Y0026077D01*
X0262630Y0026178D01*
X0262493Y0026282D01*
X0262359Y0026389D01*
X0262228Y0026500D01*
X0262099Y0026613D01*
X0261973Y0026730D01*
X0261850Y0026850D01*
X0261730Y0026973D01*
X0261613Y0027099D01*
X0261500Y0027228D01*
X0261389Y0027359D01*
X0261282Y0027493D01*
X0261178Y0027630D01*
X0261077Y0027769D01*
X0260980Y0027911D01*
X0260886Y0028055D01*
X0260796Y0028201D01*
X0260709Y0028350D01*
X0260627Y0028500D01*
X0260547Y0028653D01*
X0260472Y0028807D01*
X0260401Y0028963D01*
X0260333Y0029121D01*
X0260269Y0029281D01*
X0260209Y0029442D01*
X0260153Y0029604D01*
X0260101Y0029768D01*
X0260054Y0029933D01*
X0260010Y0030099D01*
X0259970Y0030266D01*
X0259935Y0030434D01*
X0259903Y0030603D01*
X0259876Y0030773D01*
X0259853Y0030943D01*
X0259834Y0031114D01*
X0259819Y0031285D01*
X0259808Y0031457D01*
X0259802Y0031628D01*
X0259800Y0031800D01*
X0299800Y0027871D02*
X0299800Y0035800D01*
X0303300Y0043800D02*
X0320300Y0043800D01*
X0323800Y0035800D02*
X0323800Y0027753D01*
X0320300Y0019800D02*
X0303300Y0019800D01*
X0304800Y0031800D02*
X0304802Y0031972D01*
X0304808Y0032143D01*
X0304819Y0032315D01*
X0304834Y0032486D01*
X0304853Y0032657D01*
X0304876Y0032827D01*
X0304903Y0032997D01*
X0304935Y0033166D01*
X0304970Y0033334D01*
X0305010Y0033501D01*
X0305054Y0033667D01*
X0305101Y0033832D01*
X0305153Y0033996D01*
X0305209Y0034158D01*
X0305269Y0034319D01*
X0305333Y0034479D01*
X0305401Y0034637D01*
X0305472Y0034793D01*
X0305547Y0034947D01*
X0305627Y0035100D01*
X0305709Y0035250D01*
X0305796Y0035399D01*
X0305886Y0035545D01*
X0305980Y0035689D01*
X0306077Y0035831D01*
X0306178Y0035970D01*
X0306282Y0036107D01*
X0306389Y0036241D01*
X0306500Y0036372D01*
X0306613Y0036501D01*
X0306730Y0036627D01*
X0306850Y0036750D01*
X0306973Y0036870D01*
X0307099Y0036987D01*
X0307228Y0037100D01*
X0307359Y0037211D01*
X0307493Y0037318D01*
X0307630Y0037422D01*
X0307769Y0037523D01*
X0307911Y0037620D01*
X0308055Y0037714D01*
X0308201Y0037804D01*
X0308350Y0037891D01*
X0308500Y0037973D01*
X0308653Y0038053D01*
X0308807Y0038128D01*
X0308963Y0038199D01*
X0309121Y0038267D01*
X0309281Y0038331D01*
X0309442Y0038391D01*
X0309604Y0038447D01*
X0309768Y0038499D01*
X0309933Y0038546D01*
X0310099Y0038590D01*
X0310266Y0038630D01*
X0310434Y0038665D01*
X0310603Y0038697D01*
X0310773Y0038724D01*
X0310943Y0038747D01*
X0311114Y0038766D01*
X0311285Y0038781D01*
X0311457Y0038792D01*
X0311628Y0038798D01*
X0311800Y0038800D01*
X0311972Y0038798D01*
X0312143Y0038792D01*
X0312315Y0038781D01*
X0312486Y0038766D01*
X0312657Y0038747D01*
X0312827Y0038724D01*
X0312997Y0038697D01*
X0313166Y0038665D01*
X0313334Y0038630D01*
X0313501Y0038590D01*
X0313667Y0038546D01*
X0313832Y0038499D01*
X0313996Y0038447D01*
X0314158Y0038391D01*
X0314319Y0038331D01*
X0314479Y0038267D01*
X0314637Y0038199D01*
X0314793Y0038128D01*
X0314947Y0038053D01*
X0315100Y0037973D01*
X0315250Y0037891D01*
X0315399Y0037804D01*
X0315545Y0037714D01*
X0315689Y0037620D01*
X0315831Y0037523D01*
X0315970Y0037422D01*
X0316107Y0037318D01*
X0316241Y0037211D01*
X0316372Y0037100D01*
X0316501Y0036987D01*
X0316627Y0036870D01*
X0316750Y0036750D01*
X0316870Y0036627D01*
X0316987Y0036501D01*
X0317100Y0036372D01*
X0317211Y0036241D01*
X0317318Y0036107D01*
X0317422Y0035970D01*
X0317523Y0035831D01*
X0317620Y0035689D01*
X0317714Y0035545D01*
X0317804Y0035399D01*
X0317891Y0035250D01*
X0317973Y0035100D01*
X0318053Y0034947D01*
X0318128Y0034793D01*
X0318199Y0034637D01*
X0318267Y0034479D01*
X0318331Y0034319D01*
X0318391Y0034158D01*
X0318447Y0033996D01*
X0318499Y0033832D01*
X0318546Y0033667D01*
X0318590Y0033501D01*
X0318630Y0033334D01*
X0318665Y0033166D01*
X0318697Y0032997D01*
X0318724Y0032827D01*
X0318747Y0032657D01*
X0318766Y0032486D01*
X0318781Y0032315D01*
X0318792Y0032143D01*
X0318798Y0031972D01*
X0318800Y0031800D01*
X0318798Y0031628D01*
X0318792Y0031457D01*
X0318781Y0031285D01*
X0318766Y0031114D01*
X0318747Y0030943D01*
X0318724Y0030773D01*
X0318697Y0030603D01*
X0318665Y0030434D01*
X0318630Y0030266D01*
X0318590Y0030099D01*
X0318546Y0029933D01*
X0318499Y0029768D01*
X0318447Y0029604D01*
X0318391Y0029442D01*
X0318331Y0029281D01*
X0318267Y0029121D01*
X0318199Y0028963D01*
X0318128Y0028807D01*
X0318053Y0028653D01*
X0317973Y0028500D01*
X0317891Y0028350D01*
X0317804Y0028201D01*
X0317714Y0028055D01*
X0317620Y0027911D01*
X0317523Y0027769D01*
X0317422Y0027630D01*
X0317318Y0027493D01*
X0317211Y0027359D01*
X0317100Y0027228D01*
X0316987Y0027099D01*
X0316870Y0026973D01*
X0316750Y0026850D01*
X0316627Y0026730D01*
X0316501Y0026613D01*
X0316372Y0026500D01*
X0316241Y0026389D01*
X0316107Y0026282D01*
X0315970Y0026178D01*
X0315831Y0026077D01*
X0315689Y0025980D01*
X0315545Y0025886D01*
X0315399Y0025796D01*
X0315250Y0025709D01*
X0315100Y0025627D01*
X0314947Y0025547D01*
X0314793Y0025472D01*
X0314637Y0025401D01*
X0314479Y0025333D01*
X0314319Y0025269D01*
X0314158Y0025209D01*
X0313996Y0025153D01*
X0313832Y0025101D01*
X0313667Y0025054D01*
X0313501Y0025010D01*
X0313334Y0024970D01*
X0313166Y0024935D01*
X0312997Y0024903D01*
X0312827Y0024876D01*
X0312657Y0024853D01*
X0312486Y0024834D01*
X0312315Y0024819D01*
X0312143Y0024808D01*
X0311972Y0024802D01*
X0311800Y0024800D01*
X0311628Y0024802D01*
X0311457Y0024808D01*
X0311285Y0024819D01*
X0311114Y0024834D01*
X0310943Y0024853D01*
X0310773Y0024876D01*
X0310603Y0024903D01*
X0310434Y0024935D01*
X0310266Y0024970D01*
X0310099Y0025010D01*
X0309933Y0025054D01*
X0309768Y0025101D01*
X0309604Y0025153D01*
X0309442Y0025209D01*
X0309281Y0025269D01*
X0309121Y0025333D01*
X0308963Y0025401D01*
X0308807Y0025472D01*
X0308653Y0025547D01*
X0308500Y0025627D01*
X0308350Y0025709D01*
X0308201Y0025796D01*
X0308055Y0025886D01*
X0307911Y0025980D01*
X0307769Y0026077D01*
X0307630Y0026178D01*
X0307493Y0026282D01*
X0307359Y0026389D01*
X0307228Y0026500D01*
X0307099Y0026613D01*
X0306973Y0026730D01*
X0306850Y0026850D01*
X0306730Y0026973D01*
X0306613Y0027099D01*
X0306500Y0027228D01*
X0306389Y0027359D01*
X0306282Y0027493D01*
X0306178Y0027630D01*
X0306077Y0027769D01*
X0305980Y0027911D01*
X0305886Y0028055D01*
X0305796Y0028201D01*
X0305709Y0028350D01*
X0305627Y0028500D01*
X0305547Y0028653D01*
X0305472Y0028807D01*
X0305401Y0028963D01*
X0305333Y0029121D01*
X0305269Y0029281D01*
X0305209Y0029442D01*
X0305153Y0029604D01*
X0305101Y0029768D01*
X0305054Y0029933D01*
X0305010Y0030099D01*
X0304970Y0030266D01*
X0304935Y0030434D01*
X0304903Y0030603D01*
X0304876Y0030773D01*
X0304853Y0030943D01*
X0304834Y0031114D01*
X0304819Y0031285D01*
X0304808Y0031457D01*
X0304802Y0031628D01*
X0304800Y0031800D01*
X0344800Y0027871D02*
X0344800Y0035800D01*
X0348300Y0043800D02*
X0365300Y0043800D01*
X0368800Y0035800D02*
X0368800Y0027753D01*
X0365300Y0019800D02*
X0348300Y0019800D01*
X0349800Y0031800D02*
X0349802Y0031972D01*
X0349808Y0032143D01*
X0349819Y0032315D01*
X0349834Y0032486D01*
X0349853Y0032657D01*
X0349876Y0032827D01*
X0349903Y0032997D01*
X0349935Y0033166D01*
X0349970Y0033334D01*
X0350010Y0033501D01*
X0350054Y0033667D01*
X0350101Y0033832D01*
X0350153Y0033996D01*
X0350209Y0034158D01*
X0350269Y0034319D01*
X0350333Y0034479D01*
X0350401Y0034637D01*
X0350472Y0034793D01*
X0350547Y0034947D01*
X0350627Y0035100D01*
X0350709Y0035250D01*
X0350796Y0035399D01*
X0350886Y0035545D01*
X0350980Y0035689D01*
X0351077Y0035831D01*
X0351178Y0035970D01*
X0351282Y0036107D01*
X0351389Y0036241D01*
X0351500Y0036372D01*
X0351613Y0036501D01*
X0351730Y0036627D01*
X0351850Y0036750D01*
X0351973Y0036870D01*
X0352099Y0036987D01*
X0352228Y0037100D01*
X0352359Y0037211D01*
X0352493Y0037318D01*
X0352630Y0037422D01*
X0352769Y0037523D01*
X0352911Y0037620D01*
X0353055Y0037714D01*
X0353201Y0037804D01*
X0353350Y0037891D01*
X0353500Y0037973D01*
X0353653Y0038053D01*
X0353807Y0038128D01*
X0353963Y0038199D01*
X0354121Y0038267D01*
X0354281Y0038331D01*
X0354442Y0038391D01*
X0354604Y0038447D01*
X0354768Y0038499D01*
X0354933Y0038546D01*
X0355099Y0038590D01*
X0355266Y0038630D01*
X0355434Y0038665D01*
X0355603Y0038697D01*
X0355773Y0038724D01*
X0355943Y0038747D01*
X0356114Y0038766D01*
X0356285Y0038781D01*
X0356457Y0038792D01*
X0356628Y0038798D01*
X0356800Y0038800D01*
X0356972Y0038798D01*
X0357143Y0038792D01*
X0357315Y0038781D01*
X0357486Y0038766D01*
X0357657Y0038747D01*
X0357827Y0038724D01*
X0357997Y0038697D01*
X0358166Y0038665D01*
X0358334Y0038630D01*
X0358501Y0038590D01*
X0358667Y0038546D01*
X0358832Y0038499D01*
X0358996Y0038447D01*
X0359158Y0038391D01*
X0359319Y0038331D01*
X0359479Y0038267D01*
X0359637Y0038199D01*
X0359793Y0038128D01*
X0359947Y0038053D01*
X0360100Y0037973D01*
X0360250Y0037891D01*
X0360399Y0037804D01*
X0360545Y0037714D01*
X0360689Y0037620D01*
X0360831Y0037523D01*
X0360970Y0037422D01*
X0361107Y0037318D01*
X0361241Y0037211D01*
X0361372Y0037100D01*
X0361501Y0036987D01*
X0361627Y0036870D01*
X0361750Y0036750D01*
X0361870Y0036627D01*
X0361987Y0036501D01*
X0362100Y0036372D01*
X0362211Y0036241D01*
X0362318Y0036107D01*
X0362422Y0035970D01*
X0362523Y0035831D01*
X0362620Y0035689D01*
X0362714Y0035545D01*
X0362804Y0035399D01*
X0362891Y0035250D01*
X0362973Y0035100D01*
X0363053Y0034947D01*
X0363128Y0034793D01*
X0363199Y0034637D01*
X0363267Y0034479D01*
X0363331Y0034319D01*
X0363391Y0034158D01*
X0363447Y0033996D01*
X0363499Y0033832D01*
X0363546Y0033667D01*
X0363590Y0033501D01*
X0363630Y0033334D01*
X0363665Y0033166D01*
X0363697Y0032997D01*
X0363724Y0032827D01*
X0363747Y0032657D01*
X0363766Y0032486D01*
X0363781Y0032315D01*
X0363792Y0032143D01*
X0363798Y0031972D01*
X0363800Y0031800D01*
X0363798Y0031628D01*
X0363792Y0031457D01*
X0363781Y0031285D01*
X0363766Y0031114D01*
X0363747Y0030943D01*
X0363724Y0030773D01*
X0363697Y0030603D01*
X0363665Y0030434D01*
X0363630Y0030266D01*
X0363590Y0030099D01*
X0363546Y0029933D01*
X0363499Y0029768D01*
X0363447Y0029604D01*
X0363391Y0029442D01*
X0363331Y0029281D01*
X0363267Y0029121D01*
X0363199Y0028963D01*
X0363128Y0028807D01*
X0363053Y0028653D01*
X0362973Y0028500D01*
X0362891Y0028350D01*
X0362804Y0028201D01*
X0362714Y0028055D01*
X0362620Y0027911D01*
X0362523Y0027769D01*
X0362422Y0027630D01*
X0362318Y0027493D01*
X0362211Y0027359D01*
X0362100Y0027228D01*
X0361987Y0027099D01*
X0361870Y0026973D01*
X0361750Y0026850D01*
X0361627Y0026730D01*
X0361501Y0026613D01*
X0361372Y0026500D01*
X0361241Y0026389D01*
X0361107Y0026282D01*
X0360970Y0026178D01*
X0360831Y0026077D01*
X0360689Y0025980D01*
X0360545Y0025886D01*
X0360399Y0025796D01*
X0360250Y0025709D01*
X0360100Y0025627D01*
X0359947Y0025547D01*
X0359793Y0025472D01*
X0359637Y0025401D01*
X0359479Y0025333D01*
X0359319Y0025269D01*
X0359158Y0025209D01*
X0358996Y0025153D01*
X0358832Y0025101D01*
X0358667Y0025054D01*
X0358501Y0025010D01*
X0358334Y0024970D01*
X0358166Y0024935D01*
X0357997Y0024903D01*
X0357827Y0024876D01*
X0357657Y0024853D01*
X0357486Y0024834D01*
X0357315Y0024819D01*
X0357143Y0024808D01*
X0356972Y0024802D01*
X0356800Y0024800D01*
X0356628Y0024802D01*
X0356457Y0024808D01*
X0356285Y0024819D01*
X0356114Y0024834D01*
X0355943Y0024853D01*
X0355773Y0024876D01*
X0355603Y0024903D01*
X0355434Y0024935D01*
X0355266Y0024970D01*
X0355099Y0025010D01*
X0354933Y0025054D01*
X0354768Y0025101D01*
X0354604Y0025153D01*
X0354442Y0025209D01*
X0354281Y0025269D01*
X0354121Y0025333D01*
X0353963Y0025401D01*
X0353807Y0025472D01*
X0353653Y0025547D01*
X0353500Y0025627D01*
X0353350Y0025709D01*
X0353201Y0025796D01*
X0353055Y0025886D01*
X0352911Y0025980D01*
X0352769Y0026077D01*
X0352630Y0026178D01*
X0352493Y0026282D01*
X0352359Y0026389D01*
X0352228Y0026500D01*
X0352099Y0026613D01*
X0351973Y0026730D01*
X0351850Y0026850D01*
X0351730Y0026973D01*
X0351613Y0027099D01*
X0351500Y0027228D01*
X0351389Y0027359D01*
X0351282Y0027493D01*
X0351178Y0027630D01*
X0351077Y0027769D01*
X0350980Y0027911D01*
X0350886Y0028055D01*
X0350796Y0028201D01*
X0350709Y0028350D01*
X0350627Y0028500D01*
X0350547Y0028653D01*
X0350472Y0028807D01*
X0350401Y0028963D01*
X0350333Y0029121D01*
X0350269Y0029281D01*
X0350209Y0029442D01*
X0350153Y0029604D01*
X0350101Y0029768D01*
X0350054Y0029933D01*
X0350010Y0030099D01*
X0349970Y0030266D01*
X0349935Y0030434D01*
X0349903Y0030603D01*
X0349876Y0030773D01*
X0349853Y0030943D01*
X0349834Y0031114D01*
X0349819Y0031285D01*
X0349808Y0031457D01*
X0349802Y0031628D01*
X0349800Y0031800D01*
X0201288Y0131000D02*
X0196350Y0131000D01*
X0201288Y0135938D01*
X0201288Y0137172D01*
X0200054Y0138406D01*
X0197585Y0138406D01*
X0196350Y0137172D01*
X0193738Y0138406D02*
X0193738Y0132234D01*
X0192503Y0131000D01*
X0190034Y0131000D01*
X0188800Y0132234D01*
X0188800Y0138406D01*
X0295194Y0153800D02*
X0301366Y0153800D01*
X0302600Y0155034D01*
X0302600Y0157503D01*
X0301366Y0158738D01*
X0295194Y0158738D01*
X0296428Y0161350D02*
X0295194Y0162585D01*
X0295194Y0165054D01*
X0296428Y0166288D01*
X0297662Y0166288D01*
X0298897Y0165054D01*
X0300131Y0166288D01*
X0301366Y0166288D01*
X0302600Y0165054D01*
X0302600Y0162585D01*
X0301366Y0161350D01*
X0298897Y0163819D02*
X0298897Y0165054D01*
D20*
X0113100Y0291480D02*
X0110898Y0291480D01*
X0110898Y0292581D01*
X0111265Y0292948D01*
X0111999Y0292948D01*
X0112366Y0292581D01*
X0112366Y0291480D01*
X0112366Y0292214D02*
X0113100Y0292948D01*
X0113100Y0293690D02*
X0110898Y0295158D01*
X0110898Y0293690D02*
X0113100Y0295158D01*
X0103100Y0295158D02*
X0100898Y0293690D01*
X0100898Y0292948D02*
X0100898Y0291480D01*
X0100898Y0292214D02*
X0103100Y0292214D01*
X0103100Y0293690D02*
X0100898Y0295158D01*
X0093100Y0294791D02*
X0092733Y0295158D01*
X0091265Y0295158D01*
X0090898Y0294791D01*
X0090898Y0293690D01*
X0093100Y0293690D01*
X0093100Y0294791D01*
X0093100Y0292948D02*
X0090898Y0292948D01*
X0090898Y0291480D02*
X0093100Y0292948D01*
X0093100Y0291480D02*
X0090898Y0291480D01*
X0091265Y0290738D02*
X0090898Y0290371D01*
X0090898Y0289637D01*
X0091265Y0289270D01*
X0092733Y0289270D01*
X0093100Y0289637D01*
X0093100Y0290371D01*
X0092733Y0290738D01*
X0091999Y0290738D01*
X0091999Y0290004D01*
X0083100Y0290004D02*
X0082366Y0289270D01*
X0080898Y0289270D01*
X0080898Y0290738D02*
X0082366Y0290738D01*
X0083100Y0290004D01*
X0082733Y0291480D02*
X0083100Y0291847D01*
X0083100Y0292581D01*
X0082733Y0292948D01*
X0082733Y0293690D02*
X0083100Y0294057D01*
X0083100Y0294791D01*
X0082733Y0295158D01*
X0081265Y0295158D02*
X0080898Y0294791D01*
X0080898Y0294057D01*
X0081265Y0293690D01*
X0082733Y0293690D01*
X0081265Y0292948D02*
X0080898Y0292581D01*
X0080898Y0291847D01*
X0081265Y0291480D01*
X0082733Y0291480D01*
D21*
X0273000Y0125400D02*
X0274600Y0126800D01*
X0294700Y0126800D01*
X0297700Y0124500D01*
X0294300Y0121800D01*
X0276000Y0121800D01*
X0273000Y0125400D01*
X0271600Y0124200D02*
X0270300Y0123100D01*
X0266800Y0103800D01*
X0272100Y0106500D01*
X0274700Y0120500D01*
X0271600Y0124200D01*
X0295700Y0120500D02*
X0293000Y0105900D01*
X0297500Y0103400D01*
X0301000Y0122000D01*
X0299200Y0123300D01*
X0295700Y0120500D01*
X0291800Y0104300D02*
X0272300Y0104300D01*
X0267300Y0101800D01*
X0271800Y0099300D01*
X0291300Y0099300D01*
X0296300Y0101800D01*
X0291800Y0104300D01*
X0296800Y0099800D02*
X0293300Y0080500D01*
X0292000Y0079400D01*
X0288900Y0083100D01*
X0291500Y0097100D01*
X0296800Y0099800D01*
X0287600Y0081800D02*
X0269300Y0081800D01*
X0265900Y0079100D01*
X0268900Y0076800D01*
X0289000Y0076800D01*
X0290600Y0078200D01*
X0287600Y0081800D01*
X0267900Y0083100D02*
X0270600Y0097700D01*
X0266100Y0100200D01*
X0262600Y0081600D01*
X0264400Y0080300D01*
X0267900Y0083100D01*
D22*
X0265300Y0083300D02*
X0267800Y0096300D01*
X0271300Y0101800D02*
X0292300Y0101800D01*
X0293800Y0095800D02*
X0291300Y0083300D01*
X0287300Y0079300D02*
X0268800Y0079300D01*
X0269800Y0107800D02*
X0272300Y0120300D01*
X0276300Y0124300D02*
X0294800Y0124300D01*
X0298300Y0120300D02*
X0295800Y0107300D01*
D23*
X0271800Y0122300D02*
X0271300Y0121800D01*
X0292300Y0081800D02*
X0291800Y0081300D01*
X0298300Y0079300D02*
X0298302Y0079377D01*
X0298308Y0079454D01*
X0298318Y0079531D01*
X0298332Y0079607D01*
X0298349Y0079682D01*
X0298371Y0079756D01*
X0298396Y0079829D01*
X0298426Y0079901D01*
X0298458Y0079971D01*
X0298495Y0080039D01*
X0298534Y0080105D01*
X0298577Y0080169D01*
X0298624Y0080231D01*
X0298673Y0080290D01*
X0298726Y0080347D01*
X0298781Y0080401D01*
X0298839Y0080452D01*
X0298900Y0080500D01*
X0298963Y0080545D01*
X0299028Y0080586D01*
X0299095Y0080624D01*
X0299164Y0080659D01*
X0299235Y0080689D01*
X0299307Y0080717D01*
X0299381Y0080740D01*
X0299455Y0080760D01*
X0299531Y0080776D01*
X0299607Y0080788D01*
X0299684Y0080796D01*
X0299761Y0080800D01*
X0299839Y0080800D01*
X0299916Y0080796D01*
X0299993Y0080788D01*
X0300069Y0080776D01*
X0300145Y0080760D01*
X0300219Y0080740D01*
X0300293Y0080717D01*
X0300365Y0080689D01*
X0300436Y0080659D01*
X0300505Y0080624D01*
X0300572Y0080586D01*
X0300637Y0080545D01*
X0300700Y0080500D01*
X0300761Y0080452D01*
X0300819Y0080401D01*
X0300874Y0080347D01*
X0300927Y0080290D01*
X0300976Y0080231D01*
X0301023Y0080169D01*
X0301066Y0080105D01*
X0301105Y0080039D01*
X0301142Y0079971D01*
X0301174Y0079901D01*
X0301204Y0079829D01*
X0301229Y0079756D01*
X0301251Y0079682D01*
X0301268Y0079607D01*
X0301282Y0079531D01*
X0301292Y0079454D01*
X0301298Y0079377D01*
X0301300Y0079300D01*
X0301298Y0079223D01*
X0301292Y0079146D01*
X0301282Y0079069D01*
X0301268Y0078993D01*
X0301251Y0078918D01*
X0301229Y0078844D01*
X0301204Y0078771D01*
X0301174Y0078699D01*
X0301142Y0078629D01*
X0301105Y0078561D01*
X0301066Y0078495D01*
X0301023Y0078431D01*
X0300976Y0078369D01*
X0300927Y0078310D01*
X0300874Y0078253D01*
X0300819Y0078199D01*
X0300761Y0078148D01*
X0300700Y0078100D01*
X0300637Y0078055D01*
X0300572Y0078014D01*
X0300505Y0077976D01*
X0300436Y0077941D01*
X0300365Y0077911D01*
X0300293Y0077883D01*
X0300219Y0077860D01*
X0300145Y0077840D01*
X0300069Y0077824D01*
X0299993Y0077812D01*
X0299916Y0077804D01*
X0299839Y0077800D01*
X0299761Y0077800D01*
X0299684Y0077804D01*
X0299607Y0077812D01*
X0299531Y0077824D01*
X0299455Y0077840D01*
X0299381Y0077860D01*
X0299307Y0077883D01*
X0299235Y0077911D01*
X0299164Y0077941D01*
X0299095Y0077976D01*
X0299028Y0078014D01*
X0298963Y0078055D01*
X0298900Y0078100D01*
X0298839Y0078148D01*
X0298781Y0078199D01*
X0298726Y0078253D01*
X0298673Y0078310D01*
X0298624Y0078369D01*
X0298577Y0078431D01*
X0298534Y0078495D01*
X0298495Y0078561D01*
X0298458Y0078629D01*
X0298426Y0078699D01*
X0298396Y0078771D01*
X0298371Y0078844D01*
X0298349Y0078918D01*
X0298332Y0078993D01*
X0298318Y0079069D01*
X0298308Y0079146D01*
X0298302Y0079223D01*
X0298300Y0079300D01*
D24*
X0264300Y0081800D02*
X0263800Y0082300D01*
X0299800Y0121300D02*
X0299300Y0121800D01*
D25*
X0294300Y0106800D02*
X0296800Y0105300D01*
X0269300Y0096800D02*
X0266800Y0098300D01*
D26*
X0266697Y0138150D02*
X0266697Y0144455D01*
X0264595Y0142354D01*
X0262354Y0143404D02*
X0262354Y0139201D01*
X0261303Y0138150D01*
X0258150Y0138150D01*
X0258150Y0144455D01*
X0261303Y0144455D01*
X0262354Y0143404D01*
X0264595Y0138150D02*
X0268799Y0138150D01*
D27*
X0289050Y0078300D03*
D28*
X0295300Y0097800D03*
X0268300Y0105800D03*
D29*
X0294550Y0101800D03*
D30*
X0269050Y0101800D03*
D31*
X0299800Y0079300D03*
M02*
