G75*
%MOIN*%
%OFA0B0*%
%FSLAX25Y25*%
%IPPOS*%
%LPD*%
%AMOC8*
5,1,8,0,0,1.08239X$1,22.5*
%
%ADD10C,0.00000*%
%ADD11R,0.05918X0.06706*%
%ADD12R,0.06706X0.05918*%
%ADD13OC8,0.07800*%
%ADD14OC8,0.08200*%
%ADD15C,0.06800*%
%ADD16OC8,0.06800*%
%ADD17C,0.07400*%
%ADD18R,0.07400X0.07400*%
%ADD19OC8,0.07400*%
%ADD20C,0.06000*%
%ADD21C,0.04800*%
D10*
X0001800Y0001800D02*
X0001800Y0316761D01*
X0395501Y0316761D01*
X0395501Y0001800D01*
X0001800Y0001800D01*
D11*
X0108060Y0111800D03*
X0115540Y0111800D03*
X0075540Y0141800D03*
X0068060Y0141800D03*
X0068060Y0161800D03*
X0075540Y0161800D03*
X0075540Y0186800D03*
X0068060Y0186800D03*
X0143060Y0171800D03*
X0150540Y0171800D03*
X0173060Y0161800D03*
X0180540Y0161800D03*
X0180540Y0141800D03*
X0173060Y0141800D03*
X0203060Y0111800D03*
X0210540Y0111800D03*
X0263060Y0096800D03*
X0270540Y0096800D03*
X0283060Y0096800D03*
X0290540Y0096800D03*
X0293060Y0116800D03*
X0300540Y0116800D03*
X0290540Y0151800D03*
X0283060Y0151800D03*
X0270540Y0151800D03*
X0263060Y0151800D03*
X0263060Y0166800D03*
X0270540Y0166800D03*
X0270540Y0181800D03*
X0263060Y0181800D03*
X0263060Y0196800D03*
X0270540Y0196800D03*
X0180540Y0181800D03*
X0173060Y0181800D03*
X0160540Y0216800D03*
X0153060Y0216800D03*
X0090540Y0281800D03*
X0083060Y0281800D03*
D12*
X0101800Y0270540D03*
X0101800Y0263060D03*
X0116800Y0263060D03*
X0116800Y0270540D03*
X0156800Y0245540D03*
X0156800Y0238060D03*
X0176800Y0238060D03*
X0176800Y0245540D03*
X0196800Y0245540D03*
X0196800Y0238060D03*
X0216800Y0238060D03*
X0216800Y0245540D03*
X0326800Y0175540D03*
X0326800Y0168060D03*
X0321800Y0075540D03*
X0321800Y0068060D03*
X0351800Y0068060D03*
X0351800Y0075540D03*
X0281800Y0060540D03*
X0281800Y0053060D03*
X0241800Y0053060D03*
X0241800Y0060540D03*
X0171800Y0068060D03*
X0171800Y0075540D03*
X0151800Y0075540D03*
X0151800Y0068060D03*
X0071800Y0068060D03*
X0071800Y0075540D03*
X0056800Y0075540D03*
X0056800Y0068060D03*
D13*
X0366800Y0116800D03*
X0376800Y0116800D03*
X0376800Y0126800D03*
X0366800Y0126800D03*
X0366800Y0136800D03*
X0376800Y0136800D03*
X0376800Y0146800D03*
X0366800Y0146800D03*
X0366800Y0156800D03*
X0376800Y0156800D03*
X0376800Y0166800D03*
X0366800Y0166800D03*
X0366800Y0176800D03*
X0376800Y0176800D03*
D14*
X0031800Y0176800D03*
X0021800Y0176800D03*
X0021800Y0166800D03*
X0031800Y0166800D03*
X0031800Y0156800D03*
X0021800Y0156800D03*
X0021800Y0146800D03*
X0031800Y0146800D03*
X0031800Y0136800D03*
X0021800Y0136800D03*
X0021800Y0126800D03*
X0031800Y0126800D03*
X0031800Y0116800D03*
X0021800Y0116800D03*
X0021800Y0106800D03*
X0031800Y0106800D03*
X0031800Y0096800D03*
X0021800Y0096800D03*
X0021800Y0186800D03*
X0031800Y0186800D03*
X0031800Y0196800D03*
X0021800Y0196800D03*
X0021800Y0206800D03*
X0031800Y0206800D03*
X0031800Y0216800D03*
X0021800Y0216800D03*
X0021800Y0226800D03*
X0031800Y0226800D03*
X0031800Y0236800D03*
X0021800Y0236800D03*
X0021800Y0246800D03*
X0031800Y0246800D03*
X0031800Y0256800D03*
X0021800Y0256800D03*
X0021800Y0266800D03*
X0031800Y0266800D03*
X0031800Y0276800D03*
X0021800Y0276800D03*
X0021800Y0286800D03*
X0031800Y0286800D03*
D15*
X0096000Y0170700D02*
X0102000Y0170700D01*
X0121600Y0170700D02*
X0127600Y0170700D01*
X0127600Y0152900D02*
X0121600Y0152900D01*
X0102000Y0152900D02*
X0096000Y0152900D01*
X0096600Y0040700D02*
X0102600Y0040700D01*
X0116000Y0040700D02*
X0122000Y0040700D01*
X0122000Y0022900D02*
X0116000Y0022900D01*
X0102600Y0022900D02*
X0096600Y0022900D01*
X0077000Y0022900D02*
X0071000Y0022900D01*
X0057600Y0022900D02*
X0051600Y0022900D01*
X0032000Y0022900D02*
X0026000Y0022900D01*
X0026000Y0040700D02*
X0032000Y0040700D01*
X0051600Y0040700D02*
X0057600Y0040700D01*
X0071000Y0040700D02*
X0077000Y0040700D01*
X0141600Y0040700D02*
X0147600Y0040700D01*
X0161000Y0040700D02*
X0167000Y0040700D01*
X0167000Y0022900D02*
X0161000Y0022900D01*
X0147600Y0022900D02*
X0141600Y0022900D01*
X0186600Y0022900D02*
X0192600Y0022900D01*
X0206000Y0022900D02*
X0212000Y0022900D01*
X0212000Y0040700D02*
X0206000Y0040700D01*
X0192600Y0040700D02*
X0186600Y0040700D01*
X0231600Y0040700D02*
X0237600Y0040700D01*
X0251000Y0040700D02*
X0257000Y0040700D01*
X0257000Y0022900D02*
X0251000Y0022900D01*
X0237600Y0022900D02*
X0231600Y0022900D01*
X0276600Y0022900D02*
X0282600Y0022900D01*
X0296000Y0022900D02*
X0302000Y0022900D01*
X0302000Y0040700D02*
X0296000Y0040700D01*
X0282600Y0040700D02*
X0276600Y0040700D01*
X0321600Y0040700D02*
X0327600Y0040700D01*
X0341000Y0040700D02*
X0347000Y0040700D01*
X0366600Y0040700D02*
X0372600Y0040700D01*
X0372600Y0022900D02*
X0366600Y0022900D01*
X0347000Y0022900D02*
X0341000Y0022900D01*
X0327600Y0022900D02*
X0321600Y0022900D01*
D16*
X0186800Y0281800D03*
X0176800Y0281800D03*
X0176800Y0291800D03*
X0186800Y0291800D03*
X0166800Y0291800D03*
X0156800Y0291800D03*
X0156800Y0281800D03*
X0166800Y0281800D03*
D17*
X0111800Y0301800D03*
X0101800Y0301800D03*
X0081800Y0301800D03*
X0198300Y0215613D03*
X0210300Y0215613D03*
X0215300Y0207987D03*
D18*
X0091800Y0301800D03*
D19*
X0204300Y0207987D03*
D20*
X0261800Y0134400D02*
X0261800Y0129200D01*
X0271800Y0129200D02*
X0271800Y0134400D01*
X0281800Y0134400D02*
X0281800Y0129200D01*
X0291800Y0129200D02*
X0291800Y0134400D01*
X0301800Y0134400D02*
X0301800Y0129200D01*
X0301800Y0074400D02*
X0301800Y0069200D01*
X0291800Y0069200D02*
X0291800Y0074400D01*
X0281800Y0074400D02*
X0281800Y0069200D01*
X0271800Y0069200D02*
X0271800Y0074400D01*
X0261800Y0074400D02*
X0261800Y0069200D01*
D21*
X0229300Y0054300D03*
X0224300Y0054300D03*
X0179300Y0089300D03*
X0179300Y0099300D03*
X0179300Y0104300D03*
X0179300Y0109300D03*
X0179300Y0114300D03*
X0161800Y0124300D03*
X0149300Y0126800D03*
X0166800Y0151800D03*
X0204300Y0119300D03*
X0196800Y0104300D03*
X0196800Y0099300D03*
X0201800Y0099300D03*
X0206800Y0101800D03*
X0239300Y0096800D03*
X0244300Y0106800D03*
X0251800Y0124300D03*
X0231800Y0151800D03*
X0241800Y0174300D03*
X0241800Y0179300D03*
X0254300Y0196800D03*
X0264300Y0189300D03*
X0281800Y0189300D03*
X0284300Y0211800D03*
X0289300Y0221800D03*
X0291800Y0231800D03*
X0271800Y0231800D03*
X0261800Y0231800D03*
X0264300Y0221800D03*
X0269300Y0221800D03*
X0244300Y0211800D03*
X0234300Y0206800D03*
X0234300Y0201800D03*
X0229300Y0211800D03*
X0211800Y0221800D03*
X0196800Y0226800D03*
X0189300Y0239300D03*
X0176800Y0261800D03*
X0156800Y0251800D03*
X0121800Y0251800D03*
X0171800Y0216800D03*
X0154300Y0199300D03*
X0154300Y0194300D03*
X0124300Y0189300D03*
X0091800Y0141800D03*
X0086800Y0126800D03*
X0081800Y0126800D03*
X0076800Y0126800D03*
X0074300Y0109300D03*
X0084300Y0104300D03*
X0086800Y0091800D03*
X0116800Y0094300D03*
X0121800Y0094300D03*
X0116800Y0099300D03*
X0114300Y0124300D03*
X0114300Y0136800D03*
X0061800Y0161800D03*
X0064300Y0176800D03*
X0064300Y0281800D03*
X0216800Y0191800D03*
X0216800Y0184300D03*
X0216800Y0174300D03*
X0259300Y0159300D03*
X0276800Y0166800D03*
X0281800Y0159300D03*
X0304300Y0156800D03*
X0311800Y0181800D03*
X0316800Y0181800D03*
X0316800Y0204300D03*
X0344300Y0209300D03*
X0356800Y0189300D03*
X0361800Y0181800D03*
X0374300Y0196800D03*
X0376800Y0201800D03*
X0351800Y0166800D03*
X0349300Y0161800D03*
X0339300Y0161800D03*
X0314300Y0111800D03*
X0294300Y0084300D03*
X0239300Y0226800D03*
X0244300Y0256800D03*
X0284300Y0251800D03*
X0299300Y0269300D03*
X0284300Y0279300D03*
M02*
