G75*
%MOIN*%
%OFA0B0*%
%FSLAX25Y25*%
%IPPOS*%
%LPD*%
%AMOC8*
5,1,8,0,0,1.08239X$1,22.5*
%
%ADD10C,0.00000*%
%ADD11OC8,0.07000*%
%ADD12R,0.04724X0.04724*%
%ADD13OC8,0.07400*%
%ADD14R,0.05906X0.05118*%
%ADD15R,0.05118X0.05906*%
%ADD16C,0.06000*%
%ADD17OC8,0.06000*%
%ADD18R,0.09000X0.03300*%
%ADD19R,0.03300X0.09000*%
%ADD20C,0.06600*%
%ADD21R,0.06600X0.06600*%
%ADD22OC8,0.06600*%
%ADD23C,0.05200*%
%ADD24C,0.01000*%
%ADD25C,0.04000*%
%ADD26C,0.01600*%
D10*
X0001800Y0001800D02*
X0001800Y0316761D01*
X0395501Y0316761D01*
X0395501Y0001800D01*
X0001800Y0001800D01*
D11*
X0366800Y0116800D03*
X0376800Y0116800D03*
X0376800Y0126800D03*
X0366800Y0126800D03*
X0366800Y0136800D03*
X0376800Y0136800D03*
X0376800Y0146800D03*
X0366800Y0146800D03*
X0366800Y0156800D03*
X0376800Y0156800D03*
X0376800Y0166800D03*
X0366800Y0166800D03*
X0366800Y0176800D03*
X0376800Y0176800D03*
D12*
X0376800Y0237666D03*
X0376800Y0245934D03*
X0356800Y0245934D03*
X0356800Y0237666D03*
X0336800Y0237666D03*
X0336800Y0245934D03*
X0316800Y0245934D03*
X0316800Y0237666D03*
X0296800Y0237666D03*
X0296800Y0245934D03*
X0276800Y0245934D03*
X0276800Y0237666D03*
X0256800Y0237666D03*
X0256800Y0245934D03*
X0236800Y0245934D03*
X0236800Y0237666D03*
X0115934Y0196800D03*
X0107666Y0196800D03*
D13*
X0031800Y0196800D03*
X0021800Y0196800D03*
X0021800Y0186800D03*
X0031800Y0186800D03*
X0031800Y0176800D03*
X0021800Y0176800D03*
X0021800Y0166800D03*
X0031800Y0166800D03*
X0031800Y0156800D03*
X0021800Y0156800D03*
X0021800Y0146800D03*
X0031800Y0146800D03*
X0031800Y0136800D03*
X0021800Y0136800D03*
X0021800Y0126800D03*
X0031800Y0126800D03*
X0031800Y0116800D03*
X0021800Y0116800D03*
X0021800Y0106800D03*
X0031800Y0106800D03*
X0031800Y0096800D03*
X0021800Y0096800D03*
X0021800Y0206800D03*
X0031800Y0206800D03*
X0031800Y0216800D03*
X0021800Y0216800D03*
X0021800Y0226800D03*
X0031800Y0226800D03*
X0031800Y0236800D03*
X0021800Y0236800D03*
X0021800Y0246800D03*
X0031800Y0246800D03*
X0031800Y0256800D03*
X0021800Y0256800D03*
X0021800Y0266800D03*
X0031800Y0266800D03*
X0031800Y0276800D03*
X0021800Y0276800D03*
X0021800Y0286800D03*
X0031800Y0286800D03*
D14*
X0236800Y0220540D03*
X0236800Y0213060D03*
X0256800Y0213060D03*
X0256800Y0220540D03*
X0276800Y0220540D03*
X0276800Y0213060D03*
X0296800Y0213060D03*
X0296800Y0220540D03*
X0316800Y0220540D03*
X0316800Y0213060D03*
X0336800Y0213060D03*
X0336800Y0220540D03*
X0356800Y0220540D03*
X0356800Y0213060D03*
X0376800Y0213060D03*
X0376800Y0220540D03*
X0246800Y0140540D03*
X0246800Y0133060D03*
X0246800Y0100540D03*
X0246800Y0093060D03*
X0316800Y0093060D03*
X0316800Y0100540D03*
D15*
X0090540Y0196800D03*
X0083060Y0196800D03*
D16*
X0096000Y0170700D02*
X0102000Y0170700D01*
X0121600Y0170700D02*
X0127600Y0170700D01*
X0127600Y0152900D02*
X0121600Y0152900D01*
X0102000Y0152900D02*
X0096000Y0152900D01*
X0096600Y0040700D02*
X0102600Y0040700D01*
X0116000Y0040700D02*
X0122000Y0040700D01*
X0122000Y0022900D02*
X0116000Y0022900D01*
X0102600Y0022900D02*
X0096600Y0022900D01*
X0077000Y0022900D02*
X0071000Y0022900D01*
X0057600Y0022900D02*
X0051600Y0022900D01*
X0032000Y0022900D02*
X0026000Y0022900D01*
X0026000Y0040700D02*
X0032000Y0040700D01*
X0051600Y0040700D02*
X0057600Y0040700D01*
X0071000Y0040700D02*
X0077000Y0040700D01*
X0141600Y0040700D02*
X0147600Y0040700D01*
X0161000Y0040700D02*
X0167000Y0040700D01*
X0167000Y0022900D02*
X0161000Y0022900D01*
X0147600Y0022900D02*
X0141600Y0022900D01*
X0186600Y0022900D02*
X0192600Y0022900D01*
X0206000Y0022900D02*
X0212000Y0022900D01*
X0212000Y0040700D02*
X0206000Y0040700D01*
X0192600Y0040700D02*
X0186600Y0040700D01*
X0231600Y0040700D02*
X0237600Y0040700D01*
X0251000Y0040700D02*
X0257000Y0040700D01*
X0257000Y0022900D02*
X0251000Y0022900D01*
X0237600Y0022900D02*
X0231600Y0022900D01*
X0276600Y0022900D02*
X0282600Y0022900D01*
X0296000Y0022900D02*
X0302000Y0022900D01*
X0302000Y0040700D02*
X0296000Y0040700D01*
X0282600Y0040700D02*
X0276600Y0040700D01*
X0321600Y0040700D02*
X0327600Y0040700D01*
X0341000Y0040700D02*
X0347000Y0040700D01*
X0366600Y0040700D02*
X0372600Y0040700D01*
X0372600Y0022900D02*
X0366600Y0022900D01*
X0347000Y0022900D02*
X0341000Y0022900D01*
X0327600Y0022900D02*
X0321600Y0022900D01*
D17*
X0186800Y0281800D03*
X0176800Y0281800D03*
X0176800Y0291800D03*
X0186800Y0291800D03*
X0166800Y0291800D03*
X0156800Y0291800D03*
X0156800Y0281800D03*
X0166800Y0281800D03*
D18*
X0189000Y0124300D03*
X0189000Y0119300D03*
X0189000Y0114300D03*
X0189000Y0109300D03*
X0189000Y0104300D03*
X0189000Y0099300D03*
X0189000Y0094300D03*
X0189000Y0089300D03*
X0224600Y0089300D03*
X0224600Y0094300D03*
X0224600Y0099300D03*
X0224600Y0104300D03*
X0224600Y0109300D03*
X0224600Y0114300D03*
X0224600Y0119300D03*
X0224600Y0124300D03*
X0129600Y0124300D03*
X0129600Y0119300D03*
X0129600Y0114300D03*
X0129600Y0109300D03*
X0129600Y0104300D03*
X0129600Y0099300D03*
X0129600Y0094300D03*
X0129600Y0089300D03*
X0094000Y0089300D03*
X0094000Y0094300D03*
X0094000Y0099300D03*
X0094000Y0104300D03*
X0094000Y0109300D03*
X0094000Y0114300D03*
X0094000Y0119300D03*
X0094000Y0124300D03*
D19*
X0309300Y0154000D03*
X0314300Y0154000D03*
X0319300Y0154000D03*
X0324300Y0154000D03*
X0329300Y0154000D03*
X0334300Y0154000D03*
X0339300Y0154000D03*
X0344300Y0154000D03*
X0344300Y0189600D03*
X0339300Y0189600D03*
X0334300Y0189600D03*
X0329300Y0189600D03*
X0324300Y0189600D03*
X0319300Y0189600D03*
X0314300Y0189600D03*
X0309300Y0189600D03*
D20*
X0215300Y0207987D03*
X0210300Y0215613D03*
X0198300Y0215613D03*
X0111800Y0301800D03*
X0101800Y0301800D03*
X0081800Y0301800D03*
D21*
X0091800Y0301800D03*
D22*
X0204300Y0207987D03*
D23*
X0261800Y0134400D02*
X0261800Y0129200D01*
X0271800Y0129200D02*
X0271800Y0134400D01*
X0281800Y0134400D02*
X0281800Y0129200D01*
X0291800Y0129200D02*
X0291800Y0134400D01*
X0301800Y0134400D02*
X0301800Y0129200D01*
X0301800Y0074400D02*
X0301800Y0069200D01*
X0291800Y0069200D02*
X0291800Y0074400D01*
X0281800Y0074400D02*
X0281800Y0069200D01*
X0271800Y0069200D02*
X0271800Y0074400D01*
X0261800Y0074400D02*
X0261800Y0069200D01*
D24*
X0261800Y0071800D02*
X0269300Y0064300D01*
X0286800Y0064300D01*
X0286800Y0076800D01*
X0289300Y0079300D01*
X0299300Y0079300D01*
X0299300Y0084300D01*
X0294300Y0089300D01*
X0249300Y0089300D01*
X0246800Y0091800D01*
X0246800Y0093060D01*
X0239300Y0096800D02*
X0236800Y0094300D01*
X0224600Y0094300D01*
X0224600Y0089300D02*
X0226800Y0089300D01*
X0229300Y0086800D01*
X0291800Y0086800D01*
X0294300Y0084300D01*
X0301800Y0071800D02*
X0316800Y0071800D01*
X0316800Y0093060D01*
X0321800Y0096800D02*
X0321800Y0061800D01*
X0044300Y0061800D01*
X0016800Y0089300D01*
X0016800Y0151800D01*
X0024300Y0151800D01*
X0029300Y0156800D01*
X0031800Y0156800D01*
X0036800Y0159300D02*
X0034300Y0161800D01*
X0016800Y0161800D01*
X0016800Y0169300D01*
X0019300Y0171800D01*
X0024300Y0171800D01*
X0026800Y0174300D01*
X0026800Y0179300D01*
X0029300Y0181800D01*
X0034300Y0181800D01*
X0039300Y0186800D01*
X0089300Y0186800D01*
X0089300Y0196800D01*
X0090540Y0196800D01*
X0086800Y0201800D02*
X0081800Y0196800D01*
X0083060Y0196800D01*
X0086800Y0201800D02*
X0101800Y0201800D01*
X0106800Y0196800D01*
X0107666Y0196800D01*
X0115934Y0196800D02*
X0116800Y0196800D01*
X0124300Y0189300D01*
X0114300Y0181800D02*
X0124300Y0171800D01*
X0124600Y0170700D01*
X0114300Y0181800D02*
X0059300Y0181800D01*
X0059300Y0169300D01*
X0039300Y0149300D01*
X0034300Y0149300D01*
X0031800Y0146800D01*
X0029300Y0151800D02*
X0024300Y0146800D01*
X0021800Y0146800D01*
X0026800Y0141800D02*
X0091800Y0141800D01*
X0109300Y0136800D02*
X0031800Y0136800D01*
X0026800Y0141800D02*
X0021800Y0136800D01*
X0021800Y0126800D02*
X0026800Y0121800D01*
X0026800Y0091800D01*
X0086800Y0091800D01*
X0094000Y0089300D02*
X0094300Y0089300D01*
X0099300Y0084300D01*
X0181800Y0084300D01*
X0186800Y0089300D01*
X0189000Y0089300D01*
X0206800Y0089300D01*
X0216800Y0079300D01*
X0274300Y0079300D01*
X0281800Y0071800D01*
X0316800Y0099300D02*
X0316800Y0100540D01*
X0316800Y0099300D02*
X0319300Y0099300D01*
X0321800Y0096800D01*
X0314300Y0106800D02*
X0319300Y0111800D01*
X0319300Y0146800D01*
X0276800Y0146800D01*
X0254300Y0169300D01*
X0179300Y0169300D01*
X0154300Y0194300D01*
X0154300Y0199300D02*
X0139300Y0184300D01*
X0046800Y0184300D01*
X0034300Y0171800D01*
X0029300Y0171800D01*
X0024300Y0166800D01*
X0021800Y0166800D01*
X0021800Y0176800D02*
X0016800Y0176800D01*
X0016800Y0209300D01*
X0019300Y0211800D01*
X0161800Y0211800D01*
X0189300Y0239300D01*
X0196800Y0226800D02*
X0224300Y0226800D01*
X0224300Y0211800D01*
X0234300Y0201800D01*
X0254300Y0201800D01*
X0256800Y0199300D01*
X0319300Y0199300D01*
X0319300Y0189600D01*
X0314300Y0189600D02*
X0314300Y0196800D01*
X0254300Y0196800D01*
X0261800Y0191800D02*
X0216800Y0191800D01*
X0216800Y0184300D02*
X0276800Y0184300D01*
X0281800Y0189300D01*
X0269300Y0194300D02*
X0306800Y0194300D01*
X0309300Y0191800D01*
X0309300Y0189600D01*
X0309300Y0181800D01*
X0311800Y0181800D01*
X0316800Y0181800D02*
X0309300Y0174300D01*
X0241800Y0174300D01*
X0236800Y0174300D02*
X0216800Y0174300D01*
X0226800Y0161800D02*
X0061800Y0161800D01*
X0064300Y0176800D02*
X0076800Y0164300D01*
X0254300Y0164300D01*
X0259300Y0159300D01*
X0276800Y0166800D02*
X0279300Y0164300D01*
X0314300Y0164300D01*
X0319300Y0159300D01*
X0319300Y0154000D01*
X0324300Y0154000D02*
X0324300Y0141800D01*
X0379300Y0141800D01*
X0381800Y0144300D01*
X0381800Y0151800D01*
X0374300Y0151800D01*
X0369300Y0156800D01*
X0366800Y0156800D01*
X0369300Y0161800D02*
X0374300Y0156800D01*
X0376800Y0156800D01*
X0379300Y0161800D02*
X0374300Y0161800D01*
X0371800Y0164300D01*
X0371800Y0169300D01*
X0369300Y0171800D01*
X0329300Y0171800D01*
X0329300Y0189600D01*
X0334300Y0189600D02*
X0334300Y0196800D01*
X0374300Y0196800D01*
X0376800Y0201800D02*
X0376800Y0213060D01*
X0376800Y0220540D02*
X0376800Y0237666D01*
X0376800Y0244300D02*
X0376800Y0245934D01*
X0376800Y0246800D01*
X0356800Y0246800D01*
X0356800Y0245934D01*
X0356800Y0246800D02*
X0336800Y0246800D01*
X0336800Y0245934D01*
X0336800Y0246800D02*
X0316800Y0246800D01*
X0316800Y0245934D01*
X0316800Y0246800D02*
X0296800Y0246800D01*
X0296800Y0245934D01*
X0296800Y0246800D02*
X0276800Y0246800D01*
X0276800Y0245934D01*
X0276800Y0246800D02*
X0256800Y0246800D01*
X0256800Y0245934D01*
X0256800Y0246800D02*
X0236800Y0246800D01*
X0236800Y0245934D01*
X0236800Y0237666D02*
X0236800Y0229300D01*
X0234300Y0226800D01*
X0234300Y0221800D01*
X0236800Y0221800D01*
X0236800Y0220540D01*
X0239300Y0226800D02*
X0319300Y0226800D01*
X0331800Y0214300D01*
X0336800Y0214300D01*
X0336800Y0213060D01*
X0344300Y0209300D02*
X0354300Y0209300D01*
X0356800Y0211800D01*
X0356800Y0213060D01*
X0361800Y0204300D02*
X0334300Y0204300D01*
X0319300Y0219300D01*
X0316800Y0219300D01*
X0316800Y0220540D01*
X0316800Y0213060D02*
X0316800Y0204300D01*
X0296800Y0211800D02*
X0296800Y0213060D01*
X0296800Y0211800D02*
X0291800Y0206800D01*
X0234300Y0206800D01*
X0236800Y0211800D02*
X0229300Y0211800D01*
X0221800Y0211800D02*
X0221800Y0201800D01*
X0156800Y0201800D01*
X0154300Y0204300D01*
X0036800Y0204300D01*
X0034300Y0201800D01*
X0026800Y0201800D01*
X0021800Y0196800D01*
X0014300Y0221800D02*
X0034300Y0221800D01*
X0036800Y0224300D01*
X0036800Y0244300D01*
X0034300Y0244300D01*
X0031800Y0246800D01*
X0034300Y0251800D02*
X0026800Y0251800D01*
X0021800Y0246800D01*
X0029300Y0256800D02*
X0031800Y0256800D01*
X0029300Y0256800D02*
X0024300Y0261800D01*
X0014300Y0261800D01*
X0014300Y0286800D01*
X0036800Y0309300D01*
X0254300Y0309300D01*
X0284300Y0279300D01*
X0294300Y0274300D02*
X0041800Y0274300D01*
X0034300Y0281800D01*
X0019300Y0281800D01*
X0016800Y0279300D01*
X0016800Y0266800D01*
X0021800Y0266800D01*
X0026800Y0264300D02*
X0026800Y0276800D01*
X0021800Y0276800D01*
X0031800Y0266800D02*
X0234300Y0266800D01*
X0244300Y0256800D01*
X0256800Y0237666D02*
X0256800Y0236800D01*
X0261800Y0231800D01*
X0271800Y0231800D02*
X0276800Y0236800D01*
X0276800Y0237666D01*
X0291800Y0231800D02*
X0296800Y0236800D01*
X0296800Y0237666D01*
X0296800Y0221800D02*
X0289300Y0221800D01*
X0296800Y0221800D02*
X0296800Y0220540D01*
X0284300Y0211800D02*
X0276800Y0211800D01*
X0276800Y0213060D01*
X0276800Y0220540D02*
X0276800Y0221800D01*
X0269300Y0221800D01*
X0264300Y0221800D02*
X0256800Y0221800D01*
X0256800Y0220540D01*
X0256800Y0213060D02*
X0256800Y0211800D01*
X0244300Y0211800D01*
X0236800Y0211800D02*
X0236800Y0213060D01*
X0221800Y0211800D02*
X0211800Y0221800D01*
X0198300Y0215613D02*
X0196800Y0216800D01*
X0171800Y0216800D01*
X0156800Y0246800D02*
X0039300Y0246800D01*
X0034300Y0251800D01*
X0029300Y0261800D02*
X0026800Y0264300D01*
X0029300Y0261800D02*
X0111800Y0261800D01*
X0121800Y0251800D01*
X0156800Y0251800D02*
X0166800Y0261800D01*
X0176800Y0261800D01*
X0161800Y0251800D02*
X0156800Y0246800D01*
X0161800Y0251800D02*
X0284300Y0251800D01*
X0299300Y0269300D02*
X0294300Y0274300D01*
X0319300Y0241800D02*
X0316800Y0239300D01*
X0316800Y0237666D01*
X0319300Y0241800D02*
X0359300Y0241800D01*
X0361800Y0239300D01*
X0361800Y0204300D01*
X0356800Y0189300D02*
X0344300Y0189300D01*
X0344300Y0189600D01*
X0339300Y0189600D02*
X0339300Y0181800D01*
X0361800Y0181800D01*
X0366800Y0166800D02*
X0351800Y0166800D01*
X0344300Y0166800D01*
X0344300Y0154000D01*
X0339300Y0154000D02*
X0339300Y0146800D01*
X0359300Y0146800D01*
X0364300Y0151800D01*
X0369300Y0151800D01*
X0374300Y0146800D01*
X0376800Y0146800D01*
X0366800Y0146800D02*
X0364300Y0144300D01*
X0334300Y0144300D01*
X0334300Y0154000D01*
X0329300Y0154000D02*
X0329300Y0161800D01*
X0339300Y0161800D01*
X0349300Y0161800D02*
X0369300Y0161800D01*
X0376800Y0166800D02*
X0379300Y0169300D01*
X0386800Y0161800D01*
X0386800Y0024300D01*
X0371800Y0024300D01*
X0369600Y0022900D01*
X0369300Y0024300D01*
X0364300Y0029300D01*
X0319300Y0029300D01*
X0286800Y0029300D01*
X0241800Y0029300D01*
X0236800Y0024300D01*
X0234600Y0022900D01*
X0234300Y0024300D01*
X0229300Y0029300D01*
X0184300Y0029300D01*
X0139300Y0029300D01*
X0094300Y0029300D01*
X0099300Y0024300D01*
X0099600Y0022900D01*
X0094300Y0029300D02*
X0061800Y0029300D01*
X0056800Y0024300D01*
X0054600Y0022900D01*
X0069300Y0056800D02*
X0039300Y0056800D01*
X0011800Y0084300D01*
X0011800Y0231800D01*
X0026800Y0231800D01*
X0031800Y0236800D01*
X0014300Y0221800D02*
X0014300Y0086800D01*
X0041800Y0059300D01*
X0324300Y0059300D01*
X0324300Y0081800D01*
X0364300Y0121800D01*
X0371800Y0121800D01*
X0376800Y0116800D01*
X0366800Y0116800D02*
X0366800Y0046800D01*
X0374300Y0046800D01*
X0379300Y0041800D01*
X0379300Y0031800D01*
X0094300Y0031800D01*
X0069300Y0056800D01*
X0094000Y0094300D02*
X0116800Y0094300D01*
X0121800Y0094300D02*
X0129600Y0094300D01*
X0129600Y0089300D02*
X0179300Y0089300D01*
X0179300Y0099300D02*
X0129600Y0099300D01*
X0129600Y0104300D02*
X0179300Y0104300D01*
X0179300Y0109300D02*
X0174300Y0114300D01*
X0174300Y0119300D01*
X0189000Y0119300D01*
X0189000Y0114300D02*
X0179300Y0114300D01*
X0189000Y0109300D02*
X0194300Y0109300D01*
X0204300Y0119300D01*
X0189000Y0124300D02*
X0161800Y0124300D01*
X0149300Y0126800D02*
X0149300Y0129300D01*
X0136800Y0129300D01*
X0131800Y0124300D01*
X0129600Y0124300D01*
X0129600Y0119300D02*
X0124300Y0119300D01*
X0111800Y0131800D01*
X0231800Y0131800D01*
X0231800Y0124300D01*
X0251800Y0124300D01*
X0249300Y0126800D02*
X0251800Y0129300D01*
X0256800Y0129300D01*
X0256800Y0124300D01*
X0246800Y0114300D01*
X0224600Y0114300D01*
X0224600Y0119300D02*
X0229300Y0119300D01*
X0231800Y0121800D01*
X0231800Y0124300D01*
X0224600Y0124300D02*
X0224300Y0124300D01*
X0219300Y0129300D01*
X0149300Y0129300D01*
X0129600Y0114300D02*
X0124300Y0114300D01*
X0114300Y0124300D01*
X0111800Y0131800D02*
X0056800Y0131800D01*
X0031800Y0106800D01*
X0021800Y0106800D02*
X0021800Y0096800D01*
X0031800Y0116800D02*
X0049300Y0134300D01*
X0111800Y0134300D01*
X0114300Y0136800D01*
X0231800Y0136800D01*
X0231800Y0151800D01*
X0226800Y0161800D02*
X0246800Y0141800D01*
X0246800Y0140540D01*
X0246800Y0133060D02*
X0246800Y0131800D01*
X0261800Y0131800D01*
X0249300Y0126800D02*
X0241800Y0126800D01*
X0231800Y0136800D01*
X0236800Y0111800D02*
X0229300Y0104300D01*
X0224600Y0104300D01*
X0224600Y0099300D02*
X0236800Y0099300D01*
X0244300Y0106800D01*
X0246800Y0101800D02*
X0246800Y0100540D01*
X0246800Y0101800D02*
X0251800Y0106800D01*
X0314300Y0106800D01*
X0314300Y0111800D02*
X0236800Y0111800D01*
X0206800Y0101800D02*
X0206800Y0089300D01*
X0196800Y0094300D02*
X0189000Y0094300D01*
X0189000Y0099300D02*
X0196800Y0099300D01*
X0196800Y0104300D02*
X0189000Y0104300D01*
X0196800Y0094300D02*
X0201800Y0099300D01*
X0224300Y0054300D02*
X0224300Y0034300D01*
X0319300Y0034300D01*
X0324300Y0039300D01*
X0324600Y0040700D01*
X0319300Y0029300D02*
X0324300Y0024300D01*
X0324600Y0022900D01*
X0361800Y0046800D02*
X0366800Y0041800D01*
X0369300Y0041800D01*
X0369600Y0040700D01*
X0361800Y0046800D02*
X0236800Y0046800D01*
X0229300Y0054300D01*
X0189300Y0024300D02*
X0189600Y0022900D01*
X0189300Y0024300D02*
X0184300Y0029300D01*
X0144600Y0022900D02*
X0144300Y0024300D01*
X0139300Y0029300D01*
X0116800Y0099300D02*
X0094000Y0099300D01*
X0094000Y0104300D02*
X0084300Y0104300D01*
X0094000Y0109300D02*
X0074300Y0109300D01*
X0089300Y0114300D02*
X0094000Y0114300D01*
X0089300Y0114300D02*
X0076800Y0126800D01*
X0081800Y0126800D02*
X0089300Y0119300D01*
X0094000Y0119300D01*
X0094000Y0124300D02*
X0089300Y0124300D01*
X0086800Y0126800D01*
X0109300Y0136800D02*
X0124300Y0151800D01*
X0124600Y0152900D01*
X0126800Y0151800D01*
X0166800Y0151800D01*
X0236800Y0174300D02*
X0241800Y0179300D01*
X0261800Y0191800D02*
X0264300Y0189300D01*
X0269300Y0194300D01*
X0284300Y0161800D02*
X0281800Y0159300D01*
X0284300Y0161800D02*
X0311800Y0161800D01*
X0314300Y0159300D01*
X0314300Y0154000D01*
X0309300Y0154000D02*
X0309300Y0154300D01*
X0306800Y0154300D01*
X0304300Y0156800D01*
X0376800Y0126800D02*
X0384300Y0126800D01*
X0384300Y0156800D01*
X0379300Y0161800D01*
X0379300Y0169300D02*
X0381800Y0171800D01*
X0381800Y0244300D01*
X0376800Y0244300D01*
X0356800Y0237666D02*
X0356800Y0220540D01*
X0336800Y0220540D02*
X0336800Y0237666D01*
X0166800Y0281800D02*
X0161800Y0276800D01*
X0044300Y0276800D01*
X0034300Y0286800D01*
X0031800Y0286800D01*
X0034300Y0286800D02*
X0076800Y0286800D01*
X0091800Y0301800D01*
X0086800Y0306800D02*
X0149300Y0306800D01*
X0161800Y0294300D01*
X0161800Y0281800D01*
X0156800Y0281800D01*
X0166800Y0281800D02*
X0166800Y0291800D01*
X0156800Y0291800D02*
X0146800Y0281800D01*
X0064300Y0281800D01*
X0081800Y0301800D02*
X0086800Y0306800D01*
X0036800Y0159300D02*
X0036800Y0151800D01*
X0029300Y0151800D01*
X0279600Y0022900D02*
X0281800Y0024300D01*
X0286800Y0029300D01*
D25*
X0229300Y0054300D03*
X0224300Y0054300D03*
X0179300Y0089300D03*
X0179300Y0099300D03*
X0179300Y0104300D03*
X0179300Y0109300D03*
X0179300Y0114300D03*
X0161800Y0124300D03*
X0149300Y0126800D03*
X0166800Y0151800D03*
X0204300Y0119300D03*
X0196800Y0104300D03*
X0196800Y0099300D03*
X0201800Y0099300D03*
X0206800Y0101800D03*
X0239300Y0096800D03*
X0244300Y0106800D03*
X0251800Y0124300D03*
X0231800Y0151800D03*
X0241800Y0174300D03*
X0241800Y0179300D03*
X0254300Y0196800D03*
X0264300Y0189300D03*
X0281800Y0189300D03*
X0284300Y0211800D03*
X0289300Y0221800D03*
X0291800Y0231800D03*
X0271800Y0231800D03*
X0261800Y0231800D03*
X0264300Y0221800D03*
X0269300Y0221800D03*
X0244300Y0211800D03*
X0234300Y0206800D03*
X0234300Y0201800D03*
X0229300Y0211800D03*
X0211800Y0221800D03*
X0196800Y0226800D03*
X0189300Y0239300D03*
X0176800Y0261800D03*
X0156800Y0251800D03*
X0121800Y0251800D03*
X0171800Y0216800D03*
X0154300Y0199300D03*
X0154300Y0194300D03*
X0124300Y0189300D03*
X0091800Y0141800D03*
X0086800Y0126800D03*
X0081800Y0126800D03*
X0076800Y0126800D03*
X0074300Y0109300D03*
X0084300Y0104300D03*
X0086800Y0091800D03*
X0116800Y0094300D03*
X0121800Y0094300D03*
X0116800Y0099300D03*
X0114300Y0124300D03*
X0114300Y0136800D03*
X0061800Y0161800D03*
X0064300Y0176800D03*
X0064300Y0281800D03*
X0216800Y0191800D03*
X0216800Y0184300D03*
X0216800Y0174300D03*
X0259300Y0159300D03*
X0276800Y0166800D03*
X0281800Y0159300D03*
X0304300Y0156800D03*
X0311800Y0181800D03*
X0316800Y0181800D03*
X0316800Y0204300D03*
X0344300Y0209300D03*
X0356800Y0189300D03*
X0361800Y0181800D03*
X0374300Y0196800D03*
X0376800Y0201800D03*
X0351800Y0166800D03*
X0349300Y0161800D03*
X0339300Y0161800D03*
X0314300Y0111800D03*
X0294300Y0084300D03*
X0239300Y0226800D03*
X0244300Y0256800D03*
X0284300Y0251800D03*
X0299300Y0269300D03*
X0284300Y0279300D03*
D26*
X0286835Y0276744D02*
X0390701Y0276744D01*
X0390701Y0278342D02*
X0287800Y0278342D01*
X0287900Y0278584D02*
X0287900Y0280016D01*
X0287352Y0281339D01*
X0286339Y0282352D01*
X0285016Y0282900D01*
X0283670Y0282900D01*
X0256400Y0310170D01*
X0255170Y0311400D01*
X0035930Y0311400D01*
X0013430Y0288900D01*
X0012200Y0287670D01*
X0012200Y0260930D01*
X0013430Y0259700D01*
X0017205Y0259700D01*
X0016500Y0258995D01*
X0016500Y0254605D01*
X0019305Y0251800D01*
X0016500Y0248995D01*
X0016500Y0244605D01*
X0019305Y0241800D01*
X0016500Y0238995D01*
X0016500Y0234605D01*
X0017205Y0233900D01*
X0010930Y0233900D01*
X0009700Y0232670D01*
X0009700Y0083430D01*
X0010930Y0082200D01*
X0038430Y0054700D01*
X0068430Y0054700D01*
X0077830Y0045300D01*
X0070085Y0045300D01*
X0068394Y0044600D01*
X0067100Y0043306D01*
X0066400Y0041615D01*
X0066400Y0039785D01*
X0067100Y0038094D01*
X0068394Y0036800D01*
X0070085Y0036100D01*
X0077915Y0036100D01*
X0079606Y0036800D01*
X0080900Y0038094D01*
X0081600Y0039785D01*
X0081600Y0041530D01*
X0091730Y0031400D01*
X0060930Y0031400D01*
X0059700Y0030170D01*
X0057030Y0027500D01*
X0050685Y0027500D01*
X0048994Y0026800D01*
X0047700Y0025506D01*
X0047000Y0023815D01*
X0047000Y0021985D01*
X0047700Y0020294D01*
X0048994Y0019000D01*
X0050685Y0018300D01*
X0058515Y0018300D01*
X0060206Y0019000D01*
X0061500Y0020294D01*
X0062200Y0021985D01*
X0062200Y0023815D01*
X0061500Y0025506D01*
X0061238Y0025768D01*
X0062670Y0027200D01*
X0069361Y0027200D01*
X0068394Y0026800D01*
X0067100Y0025506D01*
X0066400Y0023815D01*
X0066400Y0021985D01*
X0067100Y0020294D01*
X0068394Y0019000D01*
X0070085Y0018300D01*
X0077915Y0018300D01*
X0079606Y0019000D01*
X0080900Y0020294D01*
X0081600Y0021985D01*
X0081600Y0023815D01*
X0080900Y0025506D01*
X0079606Y0026800D01*
X0078639Y0027200D01*
X0093430Y0027200D01*
X0093912Y0026718D01*
X0092700Y0025506D01*
X0092000Y0023815D01*
X0092000Y0021985D01*
X0092700Y0020294D01*
X0093994Y0019000D01*
X0095685Y0018300D01*
X0103515Y0018300D01*
X0105206Y0019000D01*
X0106500Y0020294D01*
X0107200Y0021985D01*
X0107200Y0023815D01*
X0106500Y0025506D01*
X0105206Y0026800D01*
X0104239Y0027200D01*
X0114361Y0027200D01*
X0113394Y0026800D01*
X0112100Y0025506D01*
X0111400Y0023815D01*
X0111400Y0021985D01*
X0112100Y0020294D01*
X0113394Y0019000D01*
X0115085Y0018300D01*
X0122915Y0018300D01*
X0124606Y0019000D01*
X0125900Y0020294D01*
X0126600Y0021985D01*
X0126600Y0023815D01*
X0125900Y0025506D01*
X0124606Y0026800D01*
X0123639Y0027200D01*
X0138430Y0027200D01*
X0138912Y0026718D01*
X0137700Y0025506D01*
X0137000Y0023815D01*
X0137000Y0021985D01*
X0137700Y0020294D01*
X0138994Y0019000D01*
X0140685Y0018300D01*
X0148515Y0018300D01*
X0150206Y0019000D01*
X0151500Y0020294D01*
X0152200Y0021985D01*
X0152200Y0023815D01*
X0151500Y0025506D01*
X0150206Y0026800D01*
X0149239Y0027200D01*
X0159361Y0027200D01*
X0158394Y0026800D01*
X0157100Y0025506D01*
X0156400Y0023815D01*
X0156400Y0021985D01*
X0157100Y0020294D01*
X0158394Y0019000D01*
X0160085Y0018300D01*
X0167915Y0018300D01*
X0169606Y0019000D01*
X0170900Y0020294D01*
X0171600Y0021985D01*
X0171600Y0023815D01*
X0170900Y0025506D01*
X0169606Y0026800D01*
X0168639Y0027200D01*
X0183430Y0027200D01*
X0183912Y0026718D01*
X0182700Y0025506D01*
X0182000Y0023815D01*
X0182000Y0021985D01*
X0182700Y0020294D01*
X0183994Y0019000D01*
X0185685Y0018300D01*
X0193515Y0018300D01*
X0195206Y0019000D01*
X0196500Y0020294D01*
X0197200Y0021985D01*
X0197200Y0023815D01*
X0196500Y0025506D01*
X0195206Y0026800D01*
X0194239Y0027200D01*
X0204361Y0027200D01*
X0203394Y0026800D01*
X0202100Y0025506D01*
X0201400Y0023815D01*
X0201400Y0021985D01*
X0202100Y0020294D01*
X0203394Y0019000D01*
X0205085Y0018300D01*
X0212915Y0018300D01*
X0214606Y0019000D01*
X0215900Y0020294D01*
X0216600Y0021985D01*
X0216600Y0023815D01*
X0215900Y0025506D01*
X0214606Y0026800D01*
X0213639Y0027200D01*
X0228430Y0027200D01*
X0228912Y0026718D01*
X0227700Y0025506D01*
X0227000Y0023815D01*
X0227000Y0021985D01*
X0227700Y0020294D01*
X0228994Y0019000D01*
X0230685Y0018300D01*
X0238515Y0018300D01*
X0240206Y0019000D01*
X0241500Y0020294D01*
X0242200Y0021985D01*
X0242200Y0023815D01*
X0241500Y0025506D01*
X0241238Y0025768D01*
X0242670Y0027200D01*
X0249361Y0027200D01*
X0248394Y0026800D01*
X0247100Y0025506D01*
X0246400Y0023815D01*
X0246400Y0021985D01*
X0247100Y0020294D01*
X0248394Y0019000D01*
X0250085Y0018300D01*
X0257915Y0018300D01*
X0259606Y0019000D01*
X0260900Y0020294D01*
X0261600Y0021985D01*
X0261600Y0023815D01*
X0260900Y0025506D01*
X0259606Y0026800D01*
X0258639Y0027200D01*
X0274961Y0027200D01*
X0273994Y0026800D01*
X0272700Y0025506D01*
X0272000Y0023815D01*
X0272000Y0021985D01*
X0272700Y0020294D01*
X0273994Y0019000D01*
X0275685Y0018300D01*
X0283515Y0018300D01*
X0285206Y0019000D01*
X0286500Y0020294D01*
X0287200Y0021985D01*
X0287200Y0023815D01*
X0286500Y0025506D01*
X0286238Y0025768D01*
X0287670Y0027200D01*
X0294361Y0027200D01*
X0293394Y0026800D01*
X0292100Y0025506D01*
X0291400Y0023815D01*
X0291400Y0021985D01*
X0292100Y0020294D01*
X0293394Y0019000D01*
X0295085Y0018300D01*
X0302915Y0018300D01*
X0304606Y0019000D01*
X0305900Y0020294D01*
X0306600Y0021985D01*
X0306600Y0023815D01*
X0305900Y0025506D01*
X0304606Y0026800D01*
X0303639Y0027200D01*
X0318430Y0027200D01*
X0318912Y0026718D01*
X0317700Y0025506D01*
X0317000Y0023815D01*
X0317000Y0021985D01*
X0317700Y0020294D01*
X0318994Y0019000D01*
X0320685Y0018300D01*
X0328515Y0018300D01*
X0330206Y0019000D01*
X0331500Y0020294D01*
X0332200Y0021985D01*
X0332200Y0023815D01*
X0331500Y0025506D01*
X0330206Y0026800D01*
X0329239Y0027200D01*
X0339361Y0027200D01*
X0338394Y0026800D01*
X0337100Y0025506D01*
X0336400Y0023815D01*
X0336400Y0021985D01*
X0337100Y0020294D01*
X0338394Y0019000D01*
X0340085Y0018300D01*
X0347915Y0018300D01*
X0349606Y0019000D01*
X0350900Y0020294D01*
X0351600Y0021985D01*
X0351600Y0023815D01*
X0350900Y0025506D01*
X0349606Y0026800D01*
X0348639Y0027200D01*
X0363430Y0027200D01*
X0363912Y0026718D01*
X0362700Y0025506D01*
X0362000Y0023815D01*
X0362000Y0021985D01*
X0362700Y0020294D01*
X0363994Y0019000D01*
X0365685Y0018300D01*
X0373515Y0018300D01*
X0375206Y0019000D01*
X0376500Y0020294D01*
X0377200Y0021985D01*
X0377200Y0022200D01*
X0387670Y0022200D01*
X0388900Y0023430D01*
X0388900Y0162670D01*
X0387670Y0163900D01*
X0387670Y0163900D01*
X0382270Y0169300D01*
X0382670Y0169700D01*
X0383900Y0170930D01*
X0383900Y0245170D01*
X0382670Y0246400D01*
X0380762Y0246400D01*
X0380762Y0248959D01*
X0379825Y0249896D01*
X0373775Y0249896D01*
X0372838Y0248959D01*
X0372838Y0248900D01*
X0360762Y0248900D01*
X0360762Y0248959D01*
X0359825Y0249896D01*
X0353775Y0249896D01*
X0352838Y0248959D01*
X0352838Y0248900D01*
X0340762Y0248900D01*
X0340762Y0248959D01*
X0339825Y0249896D01*
X0333775Y0249896D01*
X0332838Y0248959D01*
X0332838Y0248900D01*
X0320762Y0248900D01*
X0320762Y0248959D01*
X0319825Y0249896D01*
X0313775Y0249896D01*
X0312838Y0248959D01*
X0312838Y0248900D01*
X0300762Y0248900D01*
X0300762Y0248959D01*
X0299825Y0249896D01*
X0293775Y0249896D01*
X0292838Y0248959D01*
X0292838Y0248900D01*
X0286491Y0248900D01*
X0287352Y0249761D01*
X0287900Y0251084D01*
X0287900Y0252516D01*
X0287352Y0253839D01*
X0286339Y0254852D01*
X0285016Y0255400D01*
X0283584Y0255400D01*
X0282261Y0254852D01*
X0281309Y0253900D01*
X0246491Y0253900D01*
X0247352Y0254761D01*
X0247900Y0256084D01*
X0247900Y0257516D01*
X0247352Y0258839D01*
X0246339Y0259852D01*
X0245016Y0260400D01*
X0243670Y0260400D01*
X0236400Y0267670D01*
X0235170Y0268900D01*
X0037100Y0268900D01*
X0037100Y0268995D01*
X0034295Y0271800D01*
X0037100Y0274605D01*
X0037100Y0276030D01*
X0040930Y0272200D01*
X0293430Y0272200D01*
X0295700Y0269930D01*
X0295700Y0268584D01*
X0296248Y0267261D01*
X0297261Y0266248D01*
X0298584Y0265700D01*
X0300016Y0265700D01*
X0301339Y0266248D01*
X0302352Y0267261D01*
X0302900Y0268584D01*
X0302900Y0270016D01*
X0302352Y0271339D01*
X0301339Y0272352D01*
X0300016Y0272900D01*
X0298670Y0272900D01*
X0296400Y0275170D01*
X0295170Y0276400D01*
X0286491Y0276400D01*
X0287352Y0277261D01*
X0287900Y0278584D01*
X0287900Y0279941D02*
X0390701Y0279941D01*
X0390701Y0281539D02*
X0287152Y0281539D01*
X0283432Y0283138D02*
X0390701Y0283138D01*
X0390701Y0284737D02*
X0281833Y0284737D01*
X0280235Y0286335D02*
X0390701Y0286335D01*
X0390701Y0287934D02*
X0278636Y0287934D01*
X0277038Y0289532D02*
X0390701Y0289532D01*
X0390701Y0291131D02*
X0275439Y0291131D01*
X0273841Y0292729D02*
X0390701Y0292729D01*
X0390701Y0294328D02*
X0272242Y0294328D01*
X0270644Y0295926D02*
X0390701Y0295926D01*
X0390701Y0297525D02*
X0269045Y0297525D01*
X0267447Y0299123D02*
X0390701Y0299123D01*
X0390701Y0300722D02*
X0265848Y0300722D01*
X0264250Y0302320D02*
X0390701Y0302320D01*
X0390701Y0303919D02*
X0262651Y0303919D01*
X0261053Y0305517D02*
X0390701Y0305517D01*
X0390701Y0307116D02*
X0259454Y0307116D01*
X0257856Y0308714D02*
X0390701Y0308714D01*
X0390701Y0310313D02*
X0256257Y0310313D01*
X0253430Y0307200D02*
X0280700Y0279930D01*
X0280700Y0278584D01*
X0281248Y0277261D01*
X0282109Y0276400D01*
X0164370Y0276400D01*
X0165170Y0277200D01*
X0168705Y0277200D01*
X0171400Y0279895D01*
X0171400Y0283705D01*
X0168900Y0286205D01*
X0168900Y0287395D01*
X0171400Y0289895D01*
X0171400Y0293705D01*
X0168705Y0296400D01*
X0164895Y0296400D01*
X0163782Y0295288D01*
X0162670Y0296400D01*
X0151870Y0307200D01*
X0253430Y0307200D01*
X0253514Y0307116D02*
X0151954Y0307116D01*
X0153553Y0305517D02*
X0255113Y0305517D01*
X0256712Y0303919D02*
X0155151Y0303919D01*
X0156750Y0302320D02*
X0258310Y0302320D01*
X0259909Y0300722D02*
X0158348Y0300722D01*
X0159947Y0299123D02*
X0261507Y0299123D01*
X0263106Y0297525D02*
X0161545Y0297525D01*
X0163144Y0295926D02*
X0164421Y0295926D01*
X0169179Y0295926D02*
X0174421Y0295926D01*
X0174895Y0296400D02*
X0172200Y0293705D01*
X0172200Y0289895D01*
X0174895Y0287200D01*
X0178705Y0287200D01*
X0181400Y0289895D01*
X0181400Y0293705D01*
X0178705Y0296400D01*
X0174895Y0296400D01*
X0172822Y0294328D02*
X0170778Y0294328D01*
X0171400Y0292729D02*
X0172200Y0292729D01*
X0172200Y0291131D02*
X0171400Y0291131D01*
X0171037Y0289532D02*
X0172563Y0289532D01*
X0174161Y0287934D02*
X0169439Y0287934D01*
X0168900Y0286335D02*
X0174830Y0286335D01*
X0174895Y0286400D02*
X0172200Y0283705D01*
X0172200Y0279895D01*
X0174895Y0277200D01*
X0178705Y0277200D01*
X0181400Y0279895D01*
X0181400Y0283705D01*
X0178705Y0286400D01*
X0174895Y0286400D01*
X0173231Y0284737D02*
X0170369Y0284737D01*
X0171400Y0283138D02*
X0172200Y0283138D01*
X0172200Y0281539D02*
X0171400Y0281539D01*
X0171400Y0279941D02*
X0172200Y0279941D01*
X0173752Y0278342D02*
X0169848Y0278342D01*
X0164714Y0276744D02*
X0281765Y0276744D01*
X0280800Y0278342D02*
X0189848Y0278342D01*
X0188705Y0277200D02*
X0191400Y0279895D01*
X0191400Y0283705D01*
X0188705Y0286400D01*
X0184895Y0286400D01*
X0182200Y0283705D01*
X0182200Y0279895D01*
X0184895Y0277200D01*
X0188705Y0277200D01*
X0191400Y0279941D02*
X0280689Y0279941D01*
X0279091Y0281539D02*
X0191400Y0281539D01*
X0191400Y0283138D02*
X0277492Y0283138D01*
X0275894Y0284737D02*
X0190369Y0284737D01*
X0188770Y0286335D02*
X0274295Y0286335D01*
X0272697Y0287934D02*
X0189439Y0287934D01*
X0188705Y0287200D02*
X0191400Y0289895D01*
X0191400Y0293705D01*
X0188705Y0296400D01*
X0184895Y0296400D01*
X0182200Y0293705D01*
X0182200Y0289895D01*
X0184895Y0287200D01*
X0188705Y0287200D01*
X0191037Y0289532D02*
X0271098Y0289532D01*
X0269500Y0291131D02*
X0191400Y0291131D01*
X0191400Y0292729D02*
X0267901Y0292729D01*
X0266303Y0294328D02*
X0190778Y0294328D01*
X0189179Y0295926D02*
X0264704Y0295926D01*
X0293682Y0271948D02*
X0034444Y0271948D01*
X0035745Y0270350D02*
X0295280Y0270350D01*
X0295700Y0268751D02*
X0235318Y0268751D01*
X0236917Y0267153D02*
X0296356Y0267153D01*
X0302244Y0267153D02*
X0390701Y0267153D01*
X0390701Y0268751D02*
X0302900Y0268751D01*
X0302762Y0270350D02*
X0390701Y0270350D01*
X0390701Y0271948D02*
X0301743Y0271948D01*
X0298023Y0273547D02*
X0390701Y0273547D01*
X0390701Y0275145D02*
X0296424Y0275145D01*
X0286826Y0254365D02*
X0390701Y0254365D01*
X0390701Y0255963D02*
X0247850Y0255963D01*
X0247881Y0257562D02*
X0390701Y0257562D01*
X0390701Y0259160D02*
X0247031Y0259160D01*
X0243311Y0260759D02*
X0390701Y0260759D01*
X0390701Y0262357D02*
X0241712Y0262357D01*
X0240114Y0263956D02*
X0390701Y0263956D01*
X0390701Y0265554D02*
X0238515Y0265554D01*
X0235773Y0262357D02*
X0180400Y0262357D01*
X0180400Y0262516D02*
X0179852Y0263839D01*
X0178991Y0264700D01*
X0233430Y0264700D01*
X0240700Y0257430D01*
X0240700Y0256084D01*
X0241248Y0254761D01*
X0242109Y0253900D01*
X0162670Y0253900D01*
X0161870Y0253900D01*
X0167670Y0259700D01*
X0173809Y0259700D01*
X0174761Y0258748D01*
X0176084Y0258200D01*
X0177516Y0258200D01*
X0178839Y0258748D01*
X0179852Y0259761D01*
X0180400Y0261084D01*
X0180400Y0262516D01*
X0179735Y0263956D02*
X0234174Y0263956D01*
X0237371Y0260759D02*
X0180265Y0260759D01*
X0179251Y0259160D02*
X0238970Y0259160D01*
X0240568Y0257562D02*
X0165532Y0257562D01*
X0167130Y0259160D02*
X0174348Y0259160D01*
X0173809Y0263900D02*
X0165930Y0263900D01*
X0164700Y0262670D01*
X0157430Y0255400D01*
X0156084Y0255400D01*
X0154761Y0254852D01*
X0153748Y0253839D01*
X0153200Y0252516D01*
X0153200Y0251084D01*
X0153748Y0249761D01*
X0154609Y0248900D01*
X0123991Y0248900D01*
X0124852Y0249761D01*
X0125400Y0251084D01*
X0125400Y0252516D01*
X0124852Y0253839D01*
X0123839Y0254852D01*
X0122516Y0255400D01*
X0121170Y0255400D01*
X0113900Y0262670D01*
X0112670Y0263900D01*
X0036395Y0263900D01*
X0037100Y0264605D01*
X0037100Y0264700D01*
X0174609Y0264700D01*
X0173809Y0263900D01*
X0173865Y0263956D02*
X0036451Y0263956D01*
X0036395Y0259700D02*
X0110930Y0259700D01*
X0118200Y0252430D01*
X0118200Y0251084D01*
X0118748Y0249761D01*
X0119609Y0248900D01*
X0040170Y0248900D01*
X0036400Y0252670D01*
X0035783Y0253287D01*
X0037100Y0254605D01*
X0037100Y0258995D01*
X0036395Y0259700D01*
X0036935Y0259160D02*
X0111470Y0259160D01*
X0113068Y0257562D02*
X0037100Y0257562D01*
X0037100Y0255963D02*
X0114667Y0255963D01*
X0116265Y0254365D02*
X0036860Y0254365D01*
X0036304Y0252766D02*
X0117864Y0252766D01*
X0118200Y0251168D02*
X0037902Y0251168D01*
X0039501Y0249569D02*
X0118940Y0249569D01*
X0124660Y0249569D02*
X0153940Y0249569D01*
X0153200Y0251168D02*
X0125400Y0251168D01*
X0125296Y0252766D02*
X0153304Y0252766D01*
X0154274Y0254365D02*
X0124326Y0254365D01*
X0120607Y0255963D02*
X0157993Y0255963D01*
X0159592Y0257562D02*
X0119008Y0257562D01*
X0117410Y0259160D02*
X0161190Y0259160D01*
X0162789Y0260759D02*
X0115811Y0260759D01*
X0114212Y0262357D02*
X0164388Y0262357D01*
X0163933Y0255963D02*
X0240750Y0255963D01*
X0241644Y0254365D02*
X0162335Y0254365D01*
X0162670Y0249700D02*
X0233579Y0249700D01*
X0232838Y0248959D01*
X0232838Y0242909D01*
X0233775Y0241972D01*
X0239825Y0241972D01*
X0240762Y0242909D01*
X0240762Y0244700D01*
X0252838Y0244700D01*
X0252838Y0242909D01*
X0253775Y0241972D01*
X0259825Y0241972D01*
X0260762Y0242909D01*
X0260762Y0244700D01*
X0272838Y0244700D01*
X0272838Y0242909D01*
X0273775Y0241972D01*
X0279825Y0241972D01*
X0280762Y0242909D01*
X0280762Y0244700D01*
X0292838Y0244700D01*
X0292838Y0242909D01*
X0293775Y0241972D01*
X0299825Y0241972D01*
X0300762Y0242909D01*
X0300762Y0244700D01*
X0312838Y0244700D01*
X0312838Y0242909D01*
X0313775Y0241972D01*
X0316502Y0241972D01*
X0316159Y0241628D01*
X0313775Y0241628D01*
X0312838Y0240691D01*
X0312838Y0234641D01*
X0313775Y0233704D01*
X0319825Y0233704D01*
X0320762Y0234641D01*
X0320762Y0239700D01*
X0332838Y0239700D01*
X0332838Y0234641D01*
X0333775Y0233704D01*
X0334700Y0233704D01*
X0334700Y0224699D01*
X0333184Y0224699D01*
X0332247Y0223762D01*
X0332247Y0217318D01*
X0332766Y0216800D01*
X0332518Y0216552D01*
X0321400Y0227670D01*
X0320170Y0228900D01*
X0293991Y0228900D01*
X0294852Y0229761D01*
X0295400Y0231084D01*
X0295400Y0232430D01*
X0296674Y0233704D01*
X0299825Y0233704D01*
X0300762Y0234641D01*
X0300762Y0240691D01*
X0299825Y0241628D01*
X0293775Y0241628D01*
X0292838Y0240691D01*
X0292838Y0235808D01*
X0292430Y0235400D01*
X0291084Y0235400D01*
X0289761Y0234852D01*
X0288748Y0233839D01*
X0288200Y0232516D01*
X0288200Y0231084D01*
X0288748Y0229761D01*
X0289609Y0228900D01*
X0273991Y0228900D01*
X0274852Y0229761D01*
X0275400Y0231084D01*
X0275400Y0232430D01*
X0276674Y0233704D01*
X0279825Y0233704D01*
X0280762Y0234641D01*
X0280762Y0240691D01*
X0279825Y0241628D01*
X0273775Y0241628D01*
X0272838Y0240691D01*
X0272838Y0235808D01*
X0272430Y0235400D01*
X0271084Y0235400D01*
X0269761Y0234852D01*
X0268748Y0233839D01*
X0268200Y0232516D01*
X0268200Y0231084D01*
X0268748Y0229761D01*
X0269609Y0228900D01*
X0263991Y0228900D01*
X0264852Y0229761D01*
X0265400Y0231084D01*
X0265400Y0232516D01*
X0264852Y0233839D01*
X0263839Y0234852D01*
X0262516Y0235400D01*
X0261170Y0235400D01*
X0260762Y0235808D01*
X0260762Y0240691D01*
X0259825Y0241628D01*
X0253775Y0241628D01*
X0252838Y0240691D01*
X0252838Y0234641D01*
X0253775Y0233704D01*
X0256926Y0233704D01*
X0258200Y0232430D01*
X0258200Y0231084D01*
X0258748Y0229761D01*
X0259609Y0228900D01*
X0242291Y0228900D01*
X0241339Y0229852D01*
X0240016Y0230400D01*
X0238900Y0230400D01*
X0238900Y0233704D01*
X0239825Y0233704D01*
X0240762Y0234641D01*
X0240762Y0240691D01*
X0239825Y0241628D01*
X0233775Y0241628D01*
X0232838Y0240691D01*
X0232838Y0234641D01*
X0233775Y0233704D01*
X0234700Y0233704D01*
X0234700Y0230170D01*
X0233430Y0228900D01*
X0232200Y0227670D01*
X0232200Y0220930D01*
X0232247Y0220883D01*
X0232247Y0217318D01*
X0232766Y0216800D01*
X0232247Y0216282D01*
X0232247Y0213944D01*
X0231339Y0214852D01*
X0230016Y0215400D01*
X0228584Y0215400D01*
X0227261Y0214852D01*
X0226400Y0213991D01*
X0226400Y0227670D01*
X0225170Y0228900D01*
X0199791Y0228900D01*
X0198839Y0229852D01*
X0197516Y0230400D01*
X0196084Y0230400D01*
X0194761Y0229852D01*
X0193748Y0228839D01*
X0193200Y0227516D01*
X0193200Y0226084D01*
X0193748Y0224761D01*
X0194761Y0223748D01*
X0196084Y0223200D01*
X0197516Y0223200D01*
X0198839Y0223748D01*
X0199791Y0224700D01*
X0209609Y0224700D01*
X0208748Y0223839D01*
X0208200Y0222516D01*
X0208200Y0221084D01*
X0208567Y0220198D01*
X0207524Y0219767D01*
X0206146Y0218388D01*
X0205400Y0216587D01*
X0205400Y0214638D01*
X0206125Y0212887D01*
X0202475Y0212887D01*
X0203200Y0214638D01*
X0203200Y0216587D01*
X0202454Y0218388D01*
X0201076Y0219767D01*
X0199275Y0220513D01*
X0197325Y0220513D01*
X0195524Y0219767D01*
X0194658Y0218900D01*
X0174791Y0218900D01*
X0173839Y0219852D01*
X0173120Y0220150D01*
X0188670Y0235700D01*
X0190016Y0235700D01*
X0191339Y0236248D01*
X0192352Y0237261D01*
X0192900Y0238584D01*
X0192900Y0240016D01*
X0192352Y0241339D01*
X0191339Y0242352D01*
X0190016Y0242900D01*
X0188584Y0242900D01*
X0187261Y0242352D01*
X0186248Y0241339D01*
X0185700Y0240016D01*
X0185700Y0238670D01*
X0160930Y0213900D01*
X0036395Y0213900D01*
X0037100Y0214605D01*
X0037100Y0218995D01*
X0035783Y0220313D01*
X0037670Y0222200D01*
X0038900Y0223430D01*
X0038900Y0244700D01*
X0157670Y0244700D01*
X0158900Y0245930D01*
X0162670Y0249700D01*
X0162539Y0249569D02*
X0233448Y0249569D01*
X0232838Y0247971D02*
X0160941Y0247971D01*
X0159342Y0246372D02*
X0232838Y0246372D01*
X0232838Y0244774D02*
X0157744Y0244774D01*
X0174220Y0227190D02*
X0038900Y0227190D01*
X0038900Y0225592D02*
X0172622Y0225592D01*
X0171023Y0223993D02*
X0038900Y0223993D01*
X0037864Y0222395D02*
X0169425Y0222395D01*
X0167826Y0220796D02*
X0036266Y0220796D01*
X0036898Y0219198D02*
X0166228Y0219198D01*
X0164629Y0217599D02*
X0037100Y0217599D01*
X0037100Y0216001D02*
X0163031Y0216001D01*
X0161432Y0214402D02*
X0036897Y0214402D01*
X0036395Y0209700D02*
X0162670Y0209700D01*
X0163900Y0210930D01*
X0168450Y0215480D01*
X0168748Y0214761D01*
X0169761Y0213748D01*
X0171084Y0213200D01*
X0172516Y0213200D01*
X0173839Y0213748D01*
X0174791Y0214700D01*
X0193400Y0214700D01*
X0193400Y0214638D01*
X0194146Y0212837D01*
X0195524Y0211459D01*
X0197325Y0210713D01*
X0199275Y0210713D01*
X0200676Y0211293D01*
X0199400Y0210017D01*
X0199400Y0205958D01*
X0201458Y0203900D01*
X0157670Y0203900D01*
X0156400Y0205170D01*
X0155170Y0206400D01*
X0037100Y0206400D01*
X0037100Y0208995D01*
X0036395Y0209700D01*
X0036489Y0209606D02*
X0199400Y0209606D01*
X0199400Y0208008D02*
X0037100Y0208008D01*
X0037100Y0206409D02*
X0199400Y0206409D01*
X0200547Y0204811D02*
X0156759Y0204811D01*
X0152109Y0202200D02*
X0151248Y0201339D01*
X0150700Y0200016D01*
X0150700Y0198670D01*
X0138430Y0186400D01*
X0126491Y0186400D01*
X0127352Y0187261D01*
X0127900Y0188584D01*
X0127900Y0190016D01*
X0127352Y0191339D01*
X0126339Y0192352D01*
X0125016Y0192900D01*
X0123670Y0192900D01*
X0119896Y0196674D01*
X0119896Y0199825D01*
X0118959Y0200762D01*
X0112909Y0200762D01*
X0111972Y0199825D01*
X0111972Y0193775D01*
X0112909Y0192838D01*
X0117792Y0192838D01*
X0120700Y0189930D01*
X0120700Y0188584D01*
X0121248Y0187261D01*
X0122109Y0186400D01*
X0091400Y0186400D01*
X0091400Y0192247D01*
X0093762Y0192247D01*
X0094699Y0193184D01*
X0094699Y0199700D01*
X0100930Y0199700D01*
X0103704Y0196926D01*
X0103704Y0193775D01*
X0104641Y0192838D01*
X0110691Y0192838D01*
X0111628Y0193775D01*
X0111628Y0199825D01*
X0110691Y0200762D01*
X0105808Y0200762D01*
X0104370Y0202200D01*
X0152109Y0202200D01*
X0151523Y0201614D02*
X0104956Y0201614D01*
X0102213Y0198417D02*
X0094699Y0198417D01*
X0094699Y0196818D02*
X0103704Y0196818D01*
X0103704Y0195220D02*
X0094699Y0195220D01*
X0094699Y0193621D02*
X0103858Y0193621D01*
X0111475Y0193621D02*
X0112125Y0193621D01*
X0111972Y0195220D02*
X0111628Y0195220D01*
X0111628Y0196818D02*
X0111972Y0196818D01*
X0111972Y0198417D02*
X0111628Y0198417D01*
X0111438Y0200015D02*
X0112162Y0200015D01*
X0119706Y0200015D02*
X0150700Y0200015D01*
X0150447Y0198417D02*
X0119896Y0198417D01*
X0119896Y0196818D02*
X0148849Y0196818D01*
X0147250Y0195220D02*
X0121350Y0195220D01*
X0122948Y0193621D02*
X0145652Y0193621D01*
X0144053Y0192023D02*
X0126668Y0192023D01*
X0127731Y0190424D02*
X0142455Y0190424D01*
X0140856Y0188826D02*
X0127900Y0188826D01*
X0127318Y0187227D02*
X0139257Y0187227D01*
X0142000Y0184030D02*
X0161600Y0184030D01*
X0163198Y0182432D02*
X0140402Y0182432D01*
X0140170Y0182200D02*
X0141400Y0183430D01*
X0150950Y0192980D01*
X0151248Y0192261D01*
X0152261Y0191248D01*
X0153584Y0190700D01*
X0154930Y0190700D01*
X0178430Y0167200D01*
X0180170Y0167200D01*
X0253430Y0167200D01*
X0254230Y0166400D01*
X0129239Y0166400D01*
X0130206Y0166800D01*
X0131500Y0168094D01*
X0132200Y0169785D01*
X0132200Y0171615D01*
X0131500Y0173306D01*
X0130206Y0174600D01*
X0128515Y0175300D01*
X0123770Y0175300D01*
X0116870Y0182200D01*
X0140170Y0182200D01*
X0143599Y0185629D02*
X0160001Y0185629D01*
X0158403Y0187227D02*
X0145197Y0187227D01*
X0146796Y0188826D02*
X0156804Y0188826D01*
X0155206Y0190424D02*
X0148394Y0190424D01*
X0149993Y0192023D02*
X0151486Y0192023D01*
X0157900Y0193670D02*
X0157900Y0195016D01*
X0157352Y0196339D01*
X0156891Y0196800D01*
X0157352Y0197261D01*
X0157900Y0198584D01*
X0157900Y0199700D01*
X0222670Y0199700D01*
X0223900Y0200930D01*
X0223900Y0202670D01*
X0223900Y0209230D01*
X0230700Y0202430D01*
X0230700Y0201084D01*
X0231248Y0199761D01*
X0232261Y0198748D01*
X0233584Y0198200D01*
X0235016Y0198200D01*
X0236339Y0198748D01*
X0237291Y0199700D01*
X0252109Y0199700D01*
X0251248Y0198839D01*
X0250700Y0197516D01*
X0250700Y0196084D01*
X0251248Y0194761D01*
X0252109Y0193900D01*
X0219791Y0193900D01*
X0218839Y0194852D01*
X0217516Y0195400D01*
X0216084Y0195400D01*
X0214761Y0194852D01*
X0213748Y0193839D01*
X0213200Y0192516D01*
X0213200Y0191084D01*
X0213748Y0189761D01*
X0214761Y0188748D01*
X0216084Y0188200D01*
X0217516Y0188200D01*
X0218839Y0188748D01*
X0219791Y0189700D01*
X0260700Y0189700D01*
X0260700Y0188584D01*
X0261248Y0187261D01*
X0262109Y0186400D01*
X0219791Y0186400D01*
X0218839Y0187352D01*
X0217516Y0187900D01*
X0216084Y0187900D01*
X0214761Y0187352D01*
X0213748Y0186339D01*
X0213200Y0185016D01*
X0213200Y0183584D01*
X0213748Y0182261D01*
X0214761Y0181248D01*
X0216084Y0180700D01*
X0217516Y0180700D01*
X0218839Y0181248D01*
X0219791Y0182200D01*
X0239609Y0182200D01*
X0238748Y0181339D01*
X0238200Y0180016D01*
X0238200Y0178670D01*
X0235930Y0176400D01*
X0219791Y0176400D01*
X0218839Y0177352D01*
X0217516Y0177900D01*
X0216084Y0177900D01*
X0214761Y0177352D01*
X0213748Y0176339D01*
X0213200Y0175016D01*
X0213200Y0173584D01*
X0213748Y0172261D01*
X0214609Y0171400D01*
X0180170Y0171400D01*
X0157900Y0193670D01*
X0157948Y0193621D02*
X0213658Y0193621D01*
X0213200Y0192023D02*
X0159547Y0192023D01*
X0161145Y0190424D02*
X0213473Y0190424D01*
X0214683Y0188826D02*
X0162744Y0188826D01*
X0164343Y0187227D02*
X0214636Y0187227D01*
X0213454Y0185629D02*
X0165941Y0185629D01*
X0167540Y0184030D02*
X0213200Y0184030D01*
X0213677Y0182432D02*
X0169138Y0182432D01*
X0170737Y0180833D02*
X0215762Y0180833D01*
X0217838Y0180833D02*
X0238538Y0180833D01*
X0238200Y0179235D02*
X0172335Y0179235D01*
X0173934Y0177636D02*
X0215447Y0177636D01*
X0213623Y0176038D02*
X0175532Y0176038D01*
X0177131Y0174439D02*
X0213200Y0174439D01*
X0213508Y0172841D02*
X0178729Y0172841D01*
X0175986Y0169644D02*
X0132141Y0169644D01*
X0132200Y0171242D02*
X0174388Y0171242D01*
X0172789Y0172841D02*
X0131692Y0172841D01*
X0130366Y0174439D02*
X0171191Y0174439D01*
X0169592Y0176038D02*
X0123032Y0176038D01*
X0121434Y0177636D02*
X0167994Y0177636D01*
X0166395Y0179235D02*
X0119835Y0179235D01*
X0118237Y0180833D02*
X0164797Y0180833D01*
X0177585Y0168045D02*
X0131451Y0168045D01*
X0129352Y0166447D02*
X0254183Y0166447D01*
X0256926Y0169644D02*
X0274553Y0169644D01*
X0274761Y0169852D02*
X0273748Y0168839D01*
X0273200Y0167516D01*
X0273200Y0166084D01*
X0273748Y0164761D01*
X0274761Y0163748D01*
X0276084Y0163200D01*
X0277430Y0163200D01*
X0278430Y0162200D01*
X0279609Y0162200D01*
X0278748Y0161339D01*
X0278200Y0160016D01*
X0278200Y0158584D01*
X0278748Y0157261D01*
X0279761Y0156248D01*
X0281084Y0155700D01*
X0282516Y0155700D01*
X0283839Y0156248D01*
X0284852Y0157261D01*
X0285400Y0158584D01*
X0285400Y0159700D01*
X0302109Y0159700D01*
X0301248Y0158839D01*
X0300700Y0157516D01*
X0300700Y0156084D01*
X0301248Y0154761D01*
X0302261Y0153748D01*
X0303584Y0153200D01*
X0304930Y0153200D01*
X0305930Y0152200D01*
X0306050Y0152200D01*
X0306050Y0148900D01*
X0277670Y0148900D01*
X0255170Y0171400D01*
X0243991Y0171400D01*
X0244791Y0172200D01*
X0310170Y0172200D01*
X0311400Y0173430D01*
X0316170Y0178200D01*
X0317516Y0178200D01*
X0318839Y0178748D01*
X0319852Y0179761D01*
X0320400Y0181084D01*
X0320400Y0182516D01*
X0319992Y0183500D01*
X0321613Y0183500D01*
X0321800Y0183687D01*
X0321987Y0183500D01*
X0326613Y0183500D01*
X0326800Y0183687D01*
X0326987Y0183500D01*
X0327200Y0183500D01*
X0327200Y0170930D01*
X0328430Y0169700D01*
X0349609Y0169700D01*
X0348809Y0168900D01*
X0343430Y0168900D01*
X0342200Y0167670D01*
X0342200Y0163991D01*
X0341339Y0164852D01*
X0340016Y0165400D01*
X0338584Y0165400D01*
X0337261Y0164852D01*
X0336309Y0163900D01*
X0328430Y0163900D01*
X0327200Y0162670D01*
X0327200Y0160100D01*
X0326987Y0160100D01*
X0326800Y0159913D01*
X0326613Y0160100D01*
X0321987Y0160100D01*
X0321800Y0159913D01*
X0321613Y0160100D01*
X0321400Y0160100D01*
X0321400Y0160170D01*
X0320170Y0161400D01*
X0315170Y0166400D01*
X0280400Y0166400D01*
X0280400Y0167516D01*
X0279852Y0168839D01*
X0278839Y0169852D01*
X0277516Y0170400D01*
X0276084Y0170400D01*
X0274761Y0169852D01*
X0273419Y0168045D02*
X0258525Y0168045D01*
X0260123Y0166447D02*
X0273200Y0166447D01*
X0273712Y0164848D02*
X0261722Y0164848D01*
X0263320Y0163250D02*
X0275964Y0163250D01*
X0279060Y0161651D02*
X0264919Y0161651D01*
X0266517Y0160053D02*
X0278215Y0160053D01*
X0278254Y0158454D02*
X0268116Y0158454D01*
X0269714Y0156856D02*
X0279153Y0156856D01*
X0284447Y0156856D02*
X0300700Y0156856D01*
X0301042Y0155257D02*
X0271313Y0155257D01*
X0272911Y0153659D02*
X0302477Y0153659D01*
X0306050Y0152060D02*
X0274510Y0152060D01*
X0276108Y0150462D02*
X0306050Y0150462D01*
X0301089Y0158454D02*
X0285346Y0158454D01*
X0280400Y0166447D02*
X0342200Y0166447D01*
X0342200Y0164848D02*
X0341343Y0164848D01*
X0342575Y0168045D02*
X0280181Y0168045D01*
X0279047Y0169644D02*
X0349553Y0169644D01*
X0353991Y0169700D02*
X0362488Y0169700D01*
X0361700Y0168912D01*
X0361700Y0168900D01*
X0354791Y0168900D01*
X0353991Y0169700D01*
X0354047Y0169644D02*
X0362431Y0169644D01*
X0362488Y0173900D02*
X0331400Y0173900D01*
X0331400Y0183500D01*
X0331613Y0183500D01*
X0331800Y0183687D01*
X0331987Y0183500D01*
X0336613Y0183500D01*
X0336800Y0183687D01*
X0336987Y0183500D01*
X0337200Y0183500D01*
X0337200Y0180930D01*
X0338430Y0179700D01*
X0358809Y0179700D01*
X0359761Y0178748D01*
X0361084Y0178200D01*
X0361700Y0178200D01*
X0361700Y0174688D01*
X0362488Y0173900D01*
X0361948Y0174439D02*
X0331400Y0174439D01*
X0331400Y0176038D02*
X0361700Y0176038D01*
X0361700Y0177636D02*
X0331400Y0177636D01*
X0331400Y0179235D02*
X0359274Y0179235D01*
X0358809Y0183900D02*
X0347013Y0183900D01*
X0347550Y0184437D01*
X0347550Y0187200D01*
X0353809Y0187200D01*
X0354761Y0186248D01*
X0356084Y0185700D01*
X0357516Y0185700D01*
X0358839Y0186248D01*
X0359852Y0187261D01*
X0360400Y0188584D01*
X0360400Y0190016D01*
X0359852Y0191339D01*
X0358839Y0192352D01*
X0357516Y0192900D01*
X0356084Y0192900D01*
X0354761Y0192352D01*
X0353809Y0191400D01*
X0347550Y0191400D01*
X0347550Y0194700D01*
X0371309Y0194700D01*
X0372261Y0193748D01*
X0373584Y0193200D01*
X0375016Y0193200D01*
X0376339Y0193748D01*
X0377352Y0194761D01*
X0377900Y0196084D01*
X0377900Y0197516D01*
X0377602Y0198236D01*
X0378839Y0198748D01*
X0379700Y0199609D01*
X0379700Y0181112D01*
X0378912Y0181900D01*
X0374688Y0181900D01*
X0371800Y0179012D01*
X0368912Y0181900D01*
X0365400Y0181900D01*
X0365400Y0182516D01*
X0364852Y0183839D01*
X0363839Y0184852D01*
X0362516Y0185400D01*
X0361084Y0185400D01*
X0359761Y0184852D01*
X0358809Y0183900D01*
X0358939Y0184030D02*
X0347143Y0184030D01*
X0347550Y0185629D02*
X0379700Y0185629D01*
X0379700Y0187227D02*
X0359818Y0187227D01*
X0360400Y0188826D02*
X0379700Y0188826D01*
X0379700Y0190424D02*
X0360231Y0190424D01*
X0359168Y0192023D02*
X0379700Y0192023D01*
X0379700Y0193621D02*
X0376033Y0193621D01*
X0377542Y0195220D02*
X0379700Y0195220D01*
X0379700Y0196818D02*
X0377900Y0196818D01*
X0378040Y0198417D02*
X0379700Y0198417D01*
X0383900Y0198417D02*
X0390701Y0198417D01*
X0390701Y0200015D02*
X0383900Y0200015D01*
X0383900Y0201614D02*
X0390701Y0201614D01*
X0390701Y0203212D02*
X0383900Y0203212D01*
X0383900Y0204811D02*
X0390701Y0204811D01*
X0390701Y0206409D02*
X0383900Y0206409D01*
X0383900Y0208008D02*
X0390701Y0208008D01*
X0390701Y0209606D02*
X0383900Y0209606D01*
X0383900Y0211205D02*
X0390701Y0211205D01*
X0390701Y0212803D02*
X0383900Y0212803D01*
X0383900Y0214402D02*
X0390701Y0214402D01*
X0390701Y0216001D02*
X0383900Y0216001D01*
X0383900Y0217599D02*
X0390701Y0217599D01*
X0390701Y0219198D02*
X0383900Y0219198D01*
X0383900Y0220796D02*
X0390701Y0220796D01*
X0390701Y0222395D02*
X0383900Y0222395D01*
X0383900Y0223993D02*
X0390701Y0223993D01*
X0390701Y0225592D02*
X0383900Y0225592D01*
X0383900Y0227190D02*
X0390701Y0227190D01*
X0390701Y0228789D02*
X0383900Y0228789D01*
X0383900Y0230387D02*
X0390701Y0230387D01*
X0390701Y0231986D02*
X0383900Y0231986D01*
X0383900Y0233584D02*
X0390701Y0233584D01*
X0390701Y0235183D02*
X0383900Y0235183D01*
X0383900Y0236781D02*
X0390701Y0236781D01*
X0390701Y0238380D02*
X0383900Y0238380D01*
X0383900Y0239978D02*
X0390701Y0239978D01*
X0390701Y0241577D02*
X0383900Y0241577D01*
X0383900Y0243175D02*
X0390701Y0243175D01*
X0390701Y0244774D02*
X0383900Y0244774D01*
X0382698Y0246372D02*
X0390701Y0246372D01*
X0390701Y0247971D02*
X0380762Y0247971D01*
X0380152Y0249569D02*
X0390701Y0249569D01*
X0390701Y0251168D02*
X0287900Y0251168D01*
X0287796Y0252766D02*
X0390701Y0252766D01*
X0379700Y0241972D02*
X0379700Y0241628D01*
X0373775Y0241628D01*
X0372838Y0240691D01*
X0372838Y0234641D01*
X0373775Y0233704D01*
X0374700Y0233704D01*
X0374700Y0224699D01*
X0373184Y0224699D01*
X0372247Y0223762D01*
X0372247Y0217318D01*
X0372766Y0216800D01*
X0372247Y0216282D01*
X0372247Y0209838D01*
X0373184Y0208901D01*
X0374700Y0208901D01*
X0374700Y0204791D01*
X0373748Y0203839D01*
X0373200Y0202516D01*
X0373200Y0201084D01*
X0373498Y0200364D01*
X0372261Y0199852D01*
X0371309Y0198900D01*
X0333430Y0198900D01*
X0332200Y0197670D01*
X0332200Y0195930D01*
X0332200Y0195700D01*
X0331987Y0195700D01*
X0331800Y0195513D01*
X0331613Y0195700D01*
X0326987Y0195700D01*
X0326800Y0195513D01*
X0326613Y0195700D01*
X0321987Y0195700D01*
X0321800Y0195513D01*
X0321613Y0195700D01*
X0321400Y0195700D01*
X0321400Y0200170D01*
X0320170Y0201400D01*
X0318991Y0201400D01*
X0319852Y0202261D01*
X0320400Y0203584D01*
X0320400Y0205016D01*
X0319852Y0206339D01*
X0318900Y0207291D01*
X0318900Y0208901D01*
X0320415Y0208901D01*
X0321353Y0209838D01*
X0321353Y0214277D01*
X0333430Y0202200D01*
X0362670Y0202200D01*
X0363900Y0203430D01*
X0363900Y0240170D01*
X0362670Y0241400D01*
X0360762Y0243308D01*
X0360762Y0244700D01*
X0372838Y0244700D01*
X0372838Y0242909D01*
X0373775Y0241972D01*
X0379700Y0241972D01*
X0373723Y0241577D02*
X0362493Y0241577D01*
X0363900Y0239978D02*
X0372838Y0239978D01*
X0372838Y0238380D02*
X0363900Y0238380D01*
X0363900Y0236781D02*
X0372838Y0236781D01*
X0372838Y0235183D02*
X0363900Y0235183D01*
X0363900Y0233584D02*
X0374700Y0233584D01*
X0374700Y0231986D02*
X0363900Y0231986D01*
X0363900Y0230387D02*
X0374700Y0230387D01*
X0374700Y0228789D02*
X0363900Y0228789D01*
X0363900Y0227190D02*
X0374700Y0227190D01*
X0374700Y0225592D02*
X0363900Y0225592D01*
X0363900Y0223993D02*
X0372478Y0223993D01*
X0372247Y0222395D02*
X0363900Y0222395D01*
X0363900Y0220796D02*
X0372247Y0220796D01*
X0372247Y0219198D02*
X0363900Y0219198D01*
X0363900Y0217599D02*
X0372247Y0217599D01*
X0372247Y0216001D02*
X0363900Y0216001D01*
X0363900Y0214402D02*
X0372247Y0214402D01*
X0372247Y0212803D02*
X0363900Y0212803D01*
X0363900Y0211205D02*
X0372247Y0211205D01*
X0372479Y0209606D02*
X0363900Y0209606D01*
X0363900Y0208008D02*
X0374700Y0208008D01*
X0374700Y0206409D02*
X0363900Y0206409D01*
X0363900Y0204811D02*
X0374700Y0204811D01*
X0373488Y0203212D02*
X0363682Y0203212D01*
X0359700Y0206400D02*
X0346491Y0206400D01*
X0347291Y0207200D01*
X0355170Y0207200D01*
X0356400Y0208430D01*
X0356871Y0208901D01*
X0359700Y0208901D01*
X0359700Y0206400D01*
X0359700Y0206409D02*
X0346501Y0206409D01*
X0342109Y0206400D02*
X0341248Y0207261D01*
X0340700Y0208584D01*
X0340700Y0209185D01*
X0340415Y0208901D01*
X0333184Y0208901D01*
X0332247Y0209838D01*
X0332247Y0212200D01*
X0330930Y0212200D01*
X0321353Y0221777D01*
X0321353Y0220217D01*
X0321400Y0220170D01*
X0335170Y0206400D01*
X0342109Y0206400D01*
X0342099Y0206409D02*
X0335160Y0206409D01*
X0333562Y0208008D02*
X0340939Y0208008D01*
X0341353Y0211444D02*
X0341353Y0216282D01*
X0340834Y0216800D01*
X0341353Y0217318D01*
X0341353Y0223762D01*
X0340415Y0224699D01*
X0338900Y0224699D01*
X0338900Y0233704D01*
X0339825Y0233704D01*
X0340762Y0234641D01*
X0340762Y0239700D01*
X0352838Y0239700D01*
X0352838Y0234641D01*
X0353775Y0233704D01*
X0354700Y0233704D01*
X0354700Y0224699D01*
X0353184Y0224699D01*
X0352247Y0223762D01*
X0352247Y0217318D01*
X0352766Y0216800D01*
X0352247Y0216282D01*
X0352247Y0211400D01*
X0347291Y0211400D01*
X0346339Y0212352D01*
X0345016Y0212900D01*
X0343584Y0212900D01*
X0342261Y0212352D01*
X0341353Y0211444D01*
X0341353Y0212803D02*
X0343351Y0212803D01*
X0345249Y0212803D02*
X0352247Y0212803D01*
X0352247Y0214402D02*
X0341353Y0214402D01*
X0341353Y0216001D02*
X0352247Y0216001D01*
X0352247Y0217599D02*
X0341353Y0217599D01*
X0341353Y0219198D02*
X0352247Y0219198D01*
X0352247Y0220796D02*
X0341353Y0220796D01*
X0341353Y0222395D02*
X0352247Y0222395D01*
X0352478Y0223993D02*
X0341122Y0223993D01*
X0338900Y0225592D02*
X0354700Y0225592D01*
X0354700Y0227190D02*
X0338900Y0227190D01*
X0338900Y0228789D02*
X0354700Y0228789D01*
X0354700Y0230387D02*
X0338900Y0230387D01*
X0338900Y0231986D02*
X0354700Y0231986D01*
X0354700Y0233584D02*
X0338900Y0233584D01*
X0340762Y0235183D02*
X0352838Y0235183D01*
X0352838Y0236781D02*
X0340762Y0236781D01*
X0340762Y0238380D02*
X0352838Y0238380D01*
X0352838Y0243900D02*
X0340762Y0243900D01*
X0340762Y0244700D01*
X0352838Y0244700D01*
X0352838Y0243900D01*
X0353448Y0249569D02*
X0340152Y0249569D01*
X0333448Y0249569D02*
X0320152Y0249569D01*
X0320762Y0244700D02*
X0320762Y0243900D01*
X0332838Y0243900D01*
X0332838Y0244700D01*
X0320762Y0244700D01*
X0320762Y0238380D02*
X0332838Y0238380D01*
X0332838Y0236781D02*
X0320762Y0236781D01*
X0320762Y0235183D02*
X0332838Y0235183D01*
X0334700Y0233584D02*
X0296554Y0233584D01*
X0295400Y0231986D02*
X0334700Y0231986D01*
X0334700Y0230387D02*
X0295111Y0230387D01*
X0300762Y0235183D02*
X0312838Y0235183D01*
X0312838Y0236781D02*
X0300762Y0236781D01*
X0300762Y0238380D02*
X0312838Y0238380D01*
X0312838Y0239978D02*
X0300762Y0239978D01*
X0299877Y0241577D02*
X0313723Y0241577D01*
X0312838Y0243175D02*
X0300762Y0243175D01*
X0300152Y0249569D02*
X0313448Y0249569D01*
X0293448Y0249569D02*
X0287160Y0249569D01*
X0282109Y0248900D02*
X0280762Y0248900D01*
X0280762Y0248959D01*
X0280021Y0249700D01*
X0281309Y0249700D01*
X0282109Y0248900D01*
X0281440Y0249569D02*
X0280152Y0249569D01*
X0281774Y0254365D02*
X0246956Y0254365D01*
X0252838Y0248900D02*
X0240762Y0248900D01*
X0240762Y0248959D01*
X0240021Y0249700D01*
X0253579Y0249700D01*
X0252838Y0248959D01*
X0252838Y0248900D01*
X0253448Y0249569D02*
X0240152Y0249569D01*
X0240762Y0243175D02*
X0252838Y0243175D01*
X0253723Y0241577D02*
X0239877Y0241577D01*
X0240762Y0239978D02*
X0252838Y0239978D01*
X0252838Y0238380D02*
X0240762Y0238380D01*
X0240762Y0236781D02*
X0252838Y0236781D01*
X0252838Y0235183D02*
X0240762Y0235183D01*
X0238900Y0233584D02*
X0257046Y0233584D01*
X0258200Y0231986D02*
X0238900Y0231986D01*
X0240047Y0230387D02*
X0258489Y0230387D01*
X0263041Y0235183D02*
X0270559Y0235183D01*
X0268642Y0233584D02*
X0264958Y0233584D01*
X0265400Y0231986D02*
X0268200Y0231986D01*
X0268489Y0230387D02*
X0265111Y0230387D01*
X0266491Y0224700D02*
X0267109Y0224700D01*
X0266800Y0224391D01*
X0266491Y0224700D01*
X0262109Y0224700D02*
X0261309Y0223900D01*
X0261215Y0223900D01*
X0260415Y0224699D01*
X0253184Y0224699D01*
X0252247Y0223762D01*
X0252247Y0217318D01*
X0252766Y0216800D01*
X0252247Y0216282D01*
X0252247Y0213900D01*
X0247291Y0213900D01*
X0246339Y0214852D01*
X0245016Y0215400D01*
X0243584Y0215400D01*
X0242261Y0214852D01*
X0241353Y0213944D01*
X0241353Y0216282D01*
X0240834Y0216800D01*
X0241353Y0217318D01*
X0241353Y0223762D01*
X0242291Y0224700D01*
X0262109Y0224700D01*
X0261402Y0223993D02*
X0261122Y0223993D01*
X0261353Y0219656D02*
X0262261Y0218748D01*
X0263584Y0218200D01*
X0265016Y0218200D01*
X0266339Y0218748D01*
X0266800Y0219209D01*
X0267261Y0218748D01*
X0268584Y0218200D01*
X0270016Y0218200D01*
X0271339Y0218748D01*
X0272247Y0219656D01*
X0272247Y0217318D01*
X0272766Y0216800D01*
X0272247Y0216282D01*
X0272247Y0209838D01*
X0273184Y0208901D01*
X0280415Y0208901D01*
X0281215Y0209700D01*
X0281309Y0209700D01*
X0282109Y0208900D01*
X0246491Y0208900D01*
X0247291Y0209700D01*
X0252385Y0209700D01*
X0253184Y0208901D01*
X0260415Y0208901D01*
X0261353Y0209838D01*
X0261353Y0216282D01*
X0260834Y0216800D01*
X0261353Y0217318D01*
X0261353Y0219656D01*
X0261353Y0219198D02*
X0261811Y0219198D01*
X0261353Y0217599D02*
X0272247Y0217599D01*
X0272247Y0216001D02*
X0261353Y0216001D01*
X0261353Y0214402D02*
X0272247Y0214402D01*
X0272247Y0212803D02*
X0261353Y0212803D01*
X0261353Y0211205D02*
X0272247Y0211205D01*
X0272479Y0209606D02*
X0261121Y0209606D01*
X0255170Y0203900D02*
X0237291Y0203900D01*
X0236891Y0204300D01*
X0237291Y0204700D01*
X0292670Y0204700D01*
X0293900Y0205930D01*
X0296871Y0208901D01*
X0300415Y0208901D01*
X0301353Y0209838D01*
X0301353Y0216282D01*
X0300834Y0216800D01*
X0301353Y0217318D01*
X0301353Y0223762D01*
X0300415Y0224699D01*
X0293184Y0224699D01*
X0292385Y0223900D01*
X0292291Y0223900D01*
X0291491Y0224700D01*
X0318430Y0224700D01*
X0318431Y0224699D01*
X0313184Y0224699D01*
X0312247Y0223762D01*
X0312247Y0217318D01*
X0312766Y0216800D01*
X0312247Y0216282D01*
X0312247Y0209838D01*
X0313184Y0208901D01*
X0314700Y0208901D01*
X0314700Y0207291D01*
X0313748Y0206339D01*
X0313200Y0205016D01*
X0313200Y0203584D01*
X0313748Y0202261D01*
X0314609Y0201400D01*
X0257670Y0201400D01*
X0256400Y0202670D01*
X0255170Y0203900D01*
X0255857Y0203212D02*
X0313354Y0203212D01*
X0313200Y0204811D02*
X0292781Y0204811D01*
X0294379Y0206409D02*
X0313818Y0206409D01*
X0314700Y0208008D02*
X0295978Y0208008D01*
X0292247Y0210217D02*
X0290930Y0208900D01*
X0286491Y0208900D01*
X0287352Y0209761D01*
X0287900Y0211084D01*
X0287900Y0212516D01*
X0287352Y0213839D01*
X0286339Y0214852D01*
X0285016Y0215400D01*
X0283584Y0215400D01*
X0282261Y0214852D01*
X0281353Y0213944D01*
X0281353Y0216282D01*
X0280834Y0216800D01*
X0281353Y0217318D01*
X0281353Y0223762D01*
X0280415Y0224699D01*
X0273184Y0224699D01*
X0272385Y0223900D01*
X0272291Y0223900D01*
X0271491Y0224700D01*
X0287109Y0224700D01*
X0286248Y0223839D01*
X0285700Y0222516D01*
X0285700Y0221084D01*
X0286248Y0219761D01*
X0287261Y0218748D01*
X0288584Y0218200D01*
X0290016Y0218200D01*
X0291339Y0218748D01*
X0292247Y0219656D01*
X0292247Y0217318D01*
X0292766Y0216800D01*
X0292247Y0216282D01*
X0292247Y0210217D01*
X0291637Y0209606D02*
X0287198Y0209606D01*
X0287900Y0211205D02*
X0292247Y0211205D01*
X0292247Y0212803D02*
X0287781Y0212803D01*
X0286789Y0214402D02*
X0292247Y0214402D01*
X0292247Y0216001D02*
X0281353Y0216001D01*
X0281353Y0217599D02*
X0292247Y0217599D01*
X0292247Y0219198D02*
X0291789Y0219198D01*
X0292198Y0223993D02*
X0292478Y0223993D01*
X0286402Y0223993D02*
X0281122Y0223993D01*
X0281353Y0222395D02*
X0285700Y0222395D01*
X0285819Y0220796D02*
X0281353Y0220796D01*
X0281353Y0219198D02*
X0286811Y0219198D01*
X0281811Y0214402D02*
X0281353Y0214402D01*
X0281402Y0209606D02*
X0281121Y0209606D01*
X0272247Y0219198D02*
X0271789Y0219198D01*
X0272198Y0223993D02*
X0272478Y0223993D01*
X0275111Y0230387D02*
X0288489Y0230387D01*
X0288200Y0231986D02*
X0275400Y0231986D01*
X0276554Y0233584D02*
X0288642Y0233584D01*
X0290559Y0235183D02*
X0280762Y0235183D01*
X0280762Y0236781D02*
X0292838Y0236781D01*
X0292838Y0238380D02*
X0280762Y0238380D01*
X0280762Y0239978D02*
X0292838Y0239978D01*
X0293723Y0241577D02*
X0279877Y0241577D01*
X0280762Y0243175D02*
X0292838Y0243175D01*
X0273723Y0241577D02*
X0259877Y0241577D01*
X0260762Y0243175D02*
X0272838Y0243175D01*
X0272838Y0239978D02*
X0260762Y0239978D01*
X0260762Y0238380D02*
X0272838Y0238380D01*
X0272838Y0236781D02*
X0260762Y0236781D01*
X0260762Y0248900D02*
X0260762Y0248959D01*
X0260021Y0249700D01*
X0273579Y0249700D01*
X0272838Y0248959D01*
X0272838Y0248900D01*
X0260762Y0248900D01*
X0260152Y0249569D02*
X0273448Y0249569D01*
X0252478Y0223993D02*
X0241584Y0223993D01*
X0241353Y0222395D02*
X0252247Y0222395D01*
X0252247Y0220796D02*
X0241353Y0220796D01*
X0241353Y0219198D02*
X0252247Y0219198D01*
X0252247Y0217599D02*
X0241353Y0217599D01*
X0241353Y0216001D02*
X0252247Y0216001D01*
X0252247Y0214402D02*
X0246789Y0214402D01*
X0241811Y0214402D02*
X0241353Y0214402D01*
X0241262Y0209747D02*
X0242109Y0208900D01*
X0237291Y0208900D01*
X0237290Y0208901D01*
X0240415Y0208901D01*
X0241262Y0209747D01*
X0241402Y0209606D02*
X0241121Y0209606D01*
X0247198Y0209606D02*
X0252479Y0209606D01*
X0257456Y0201614D02*
X0314395Y0201614D01*
X0319205Y0201614D02*
X0373200Y0201614D01*
X0372655Y0200015D02*
X0321400Y0200015D01*
X0321400Y0198417D02*
X0332947Y0198417D01*
X0332200Y0196818D02*
X0321400Y0196818D01*
X0317200Y0196818D02*
X0316400Y0196818D01*
X0316400Y0197200D02*
X0317200Y0197200D01*
X0317200Y0195700D01*
X0316987Y0195700D01*
X0316800Y0195513D01*
X0316613Y0195700D01*
X0316400Y0195700D01*
X0316400Y0197200D01*
X0320246Y0203212D02*
X0332418Y0203212D01*
X0330819Y0204811D02*
X0320400Y0204811D01*
X0319782Y0206409D02*
X0329221Y0206409D01*
X0327622Y0208008D02*
X0318900Y0208008D01*
X0321121Y0209606D02*
X0326024Y0209606D01*
X0324425Y0211205D02*
X0321353Y0211205D01*
X0321353Y0212803D02*
X0322827Y0212803D01*
X0325569Y0216001D02*
X0327130Y0216001D01*
X0327168Y0214402D02*
X0328728Y0214402D01*
X0328766Y0212803D02*
X0330327Y0212803D01*
X0330365Y0211205D02*
X0332247Y0211205D01*
X0332479Y0209606D02*
X0331963Y0209606D01*
X0332247Y0217599D02*
X0331471Y0217599D01*
X0332247Y0219198D02*
X0329872Y0219198D01*
X0328274Y0220796D02*
X0332247Y0220796D01*
X0332247Y0222395D02*
X0326675Y0222395D01*
X0325077Y0223993D02*
X0332478Y0223993D01*
X0334700Y0225592D02*
X0323478Y0225592D01*
X0321880Y0227190D02*
X0334700Y0227190D01*
X0334700Y0228789D02*
X0320281Y0228789D01*
X0321353Y0220796D02*
X0322334Y0220796D01*
X0322372Y0219198D02*
X0323933Y0219198D01*
X0323971Y0217599D02*
X0325531Y0217599D01*
X0312247Y0217599D02*
X0301353Y0217599D01*
X0301353Y0216001D02*
X0312247Y0216001D01*
X0312247Y0214402D02*
X0301353Y0214402D01*
X0301353Y0212803D02*
X0312247Y0212803D01*
X0312247Y0211205D02*
X0301353Y0211205D01*
X0301121Y0209606D02*
X0312479Y0209606D01*
X0312247Y0219198D02*
X0301353Y0219198D01*
X0301353Y0220796D02*
X0312247Y0220796D01*
X0312247Y0222395D02*
X0301353Y0222395D01*
X0301122Y0223993D02*
X0312478Y0223993D01*
X0305930Y0192200D02*
X0283991Y0192200D01*
X0284852Y0191339D01*
X0285400Y0190016D01*
X0285400Y0188584D01*
X0284852Y0187261D01*
X0283839Y0186248D01*
X0282516Y0185700D01*
X0281170Y0185700D01*
X0278900Y0183430D01*
X0278900Y0183430D01*
X0277670Y0182200D01*
X0243991Y0182200D01*
X0244852Y0181339D01*
X0245400Y0180016D01*
X0245400Y0178584D01*
X0244852Y0177261D01*
X0244391Y0176800D01*
X0244791Y0176400D01*
X0308430Y0176400D01*
X0310480Y0178450D01*
X0309761Y0178748D01*
X0308809Y0179700D01*
X0308430Y0179700D01*
X0307200Y0180930D01*
X0307200Y0183500D01*
X0306987Y0183500D01*
X0306050Y0184437D01*
X0306050Y0192080D01*
X0305930Y0192200D01*
X0306050Y0192023D02*
X0284168Y0192023D01*
X0285231Y0190424D02*
X0306050Y0190424D01*
X0306050Y0188826D02*
X0285400Y0188826D01*
X0284818Y0187227D02*
X0306050Y0187227D01*
X0306050Y0185629D02*
X0281099Y0185629D01*
X0279500Y0184030D02*
X0306457Y0184030D01*
X0307200Y0182432D02*
X0277902Y0182432D01*
X0275930Y0186400D02*
X0278200Y0188670D01*
X0278200Y0190016D01*
X0278748Y0191339D01*
X0279609Y0192200D01*
X0270170Y0192200D01*
X0267900Y0189930D01*
X0267900Y0188584D01*
X0267352Y0187261D01*
X0266491Y0186400D01*
X0275930Y0186400D01*
X0276757Y0187227D02*
X0267318Y0187227D01*
X0267900Y0188826D02*
X0278200Y0188826D01*
X0278369Y0190424D02*
X0268394Y0190424D01*
X0269993Y0192023D02*
X0279432Y0192023D01*
X0266730Y0194700D02*
X0264930Y0192900D01*
X0263670Y0192900D01*
X0262670Y0193900D01*
X0256491Y0193900D01*
X0257291Y0194700D01*
X0266730Y0194700D01*
X0265652Y0193621D02*
X0262948Y0193621D01*
X0260700Y0188826D02*
X0218917Y0188826D01*
X0218964Y0187227D02*
X0261282Y0187227D01*
X0251058Y0195220D02*
X0217951Y0195220D01*
X0215649Y0195220D02*
X0157816Y0195220D01*
X0156910Y0196818D02*
X0250700Y0196818D01*
X0251073Y0198417D02*
X0235540Y0198417D01*
X0233060Y0198417D02*
X0157831Y0198417D01*
X0164175Y0211205D02*
X0196137Y0211205D01*
X0194179Y0212803D02*
X0165773Y0212803D01*
X0167372Y0214402D02*
X0169107Y0214402D01*
X0174493Y0214402D02*
X0193498Y0214402D01*
X0194955Y0219198D02*
X0174494Y0219198D01*
X0173766Y0220796D02*
X0208319Y0220796D01*
X0208200Y0222395D02*
X0175364Y0222395D01*
X0176963Y0223993D02*
X0194516Y0223993D01*
X0193404Y0225592D02*
X0178561Y0225592D01*
X0180160Y0227190D02*
X0193200Y0227190D01*
X0193727Y0228789D02*
X0181758Y0228789D01*
X0183357Y0230387D02*
X0196053Y0230387D01*
X0197547Y0230387D02*
X0234700Y0230387D01*
X0234700Y0231986D02*
X0184955Y0231986D01*
X0186554Y0233584D02*
X0234700Y0233584D01*
X0232838Y0235183D02*
X0188152Y0235183D01*
X0191872Y0236781D02*
X0232838Y0236781D01*
X0232838Y0238380D02*
X0192815Y0238380D01*
X0192900Y0239978D02*
X0232838Y0239978D01*
X0233723Y0241577D02*
X0192114Y0241577D01*
X0186486Y0241577D02*
X0038900Y0241577D01*
X0038900Y0243175D02*
X0232838Y0243175D01*
X0233319Y0228789D02*
X0225281Y0228789D01*
X0226400Y0227190D02*
X0232200Y0227190D01*
X0232200Y0225592D02*
X0226400Y0225592D01*
X0226400Y0223993D02*
X0232200Y0223993D01*
X0232200Y0222395D02*
X0226400Y0222395D01*
X0226400Y0220796D02*
X0232247Y0220796D01*
X0232247Y0219198D02*
X0226400Y0219198D01*
X0226400Y0217599D02*
X0232247Y0217599D01*
X0232247Y0216001D02*
X0226400Y0216001D01*
X0226400Y0214402D02*
X0226811Y0214402D01*
X0222200Y0214402D02*
X0222168Y0214402D01*
X0222200Y0214370D02*
X0215400Y0221170D01*
X0215400Y0222516D01*
X0214852Y0223839D01*
X0213991Y0224700D01*
X0222200Y0224700D01*
X0222200Y0214370D01*
X0222200Y0216001D02*
X0220569Y0216001D01*
X0218971Y0217599D02*
X0222200Y0217599D01*
X0222200Y0219198D02*
X0217372Y0219198D01*
X0215774Y0220796D02*
X0222200Y0220796D01*
X0222200Y0222395D02*
X0215400Y0222395D01*
X0214698Y0223993D02*
X0222200Y0223993D01*
X0215200Y0215430D02*
X0219700Y0210930D01*
X0219700Y0210169D01*
X0219454Y0210763D01*
X0218076Y0212141D01*
X0216275Y0212887D01*
X0214475Y0212887D01*
X0215200Y0214638D01*
X0215200Y0215430D01*
X0215102Y0214402D02*
X0216228Y0214402D01*
X0216477Y0212803D02*
X0217827Y0212803D01*
X0219012Y0211205D02*
X0219425Y0211205D01*
X0223900Y0208008D02*
X0225122Y0208008D01*
X0223900Y0206409D02*
X0226721Y0206409D01*
X0228319Y0204811D02*
X0223900Y0204811D01*
X0223900Y0203212D02*
X0229918Y0203212D01*
X0230700Y0201614D02*
X0223900Y0201614D01*
X0222985Y0200015D02*
X0231143Y0200015D01*
X0219700Y0203900D02*
X0219700Y0205806D01*
X0219454Y0205212D01*
X0218142Y0203900D01*
X0219700Y0203900D01*
X0219700Y0204811D02*
X0219053Y0204811D01*
X0212458Y0203900D02*
X0207142Y0203900D01*
X0209200Y0205958D01*
X0209200Y0210017D01*
X0207924Y0211293D01*
X0209325Y0210713D01*
X0211125Y0210713D01*
X0210400Y0208962D01*
X0210400Y0207013D01*
X0211146Y0205212D01*
X0212458Y0203900D01*
X0211547Y0204811D02*
X0208053Y0204811D01*
X0209200Y0206409D02*
X0210650Y0206409D01*
X0210400Y0208008D02*
X0209200Y0208008D01*
X0209200Y0209606D02*
X0210667Y0209606D01*
X0208137Y0211205D02*
X0208012Y0211205D01*
X0205498Y0214402D02*
X0203102Y0214402D01*
X0203200Y0216001D02*
X0205400Y0216001D01*
X0205819Y0217599D02*
X0202781Y0217599D01*
X0201645Y0219198D02*
X0206955Y0219198D01*
X0208902Y0223993D02*
X0199084Y0223993D01*
X0200463Y0211205D02*
X0200588Y0211205D01*
X0179016Y0231986D02*
X0038900Y0231986D01*
X0038900Y0233584D02*
X0180614Y0233584D01*
X0182213Y0235183D02*
X0038900Y0235183D01*
X0038900Y0236781D02*
X0183811Y0236781D01*
X0185410Y0238380D02*
X0038900Y0238380D01*
X0038900Y0239978D02*
X0185700Y0239978D01*
X0177417Y0230387D02*
X0038900Y0230387D01*
X0038900Y0228789D02*
X0175819Y0228789D01*
X0230620Y0208450D02*
X0230950Y0208120D01*
X0231184Y0208684D01*
X0230620Y0208450D01*
X0231789Y0214402D02*
X0232247Y0214402D01*
X0266789Y0219198D02*
X0266811Y0219198D01*
X0245062Y0180833D02*
X0307297Y0180833D01*
X0309274Y0179235D02*
X0245400Y0179235D01*
X0245007Y0177636D02*
X0309666Y0177636D01*
X0312409Y0174439D02*
X0327200Y0174439D01*
X0327200Y0172841D02*
X0310811Y0172841D01*
X0314008Y0176038D02*
X0327200Y0176038D01*
X0327200Y0177636D02*
X0315606Y0177636D01*
X0319326Y0179235D02*
X0327200Y0179235D01*
X0327200Y0180833D02*
X0320296Y0180833D01*
X0320400Y0182432D02*
X0327200Y0182432D01*
X0331400Y0182432D02*
X0337200Y0182432D01*
X0337297Y0180833D02*
X0331400Y0180833D01*
X0327200Y0171242D02*
X0255328Y0171242D01*
X0253430Y0162200D02*
X0255700Y0159930D01*
X0255700Y0158584D01*
X0256248Y0157261D01*
X0257261Y0156248D01*
X0258584Y0155700D01*
X0260016Y0155700D01*
X0261339Y0156248D01*
X0262352Y0157261D01*
X0262650Y0157980D01*
X0275930Y0144700D01*
X0317200Y0144700D01*
X0317200Y0113991D01*
X0316339Y0114852D01*
X0315016Y0115400D01*
X0313584Y0115400D01*
X0312261Y0114852D01*
X0311309Y0113900D01*
X0249370Y0113900D01*
X0257670Y0122200D01*
X0258900Y0123430D01*
X0258900Y0126160D01*
X0259421Y0125639D01*
X0260965Y0125000D01*
X0262635Y0125000D01*
X0264179Y0125639D01*
X0265361Y0126821D01*
X0266000Y0128365D01*
X0266000Y0135235D01*
X0265361Y0136779D01*
X0264179Y0137961D01*
X0262635Y0138600D01*
X0260965Y0138600D01*
X0259421Y0137961D01*
X0258239Y0136779D01*
X0257600Y0135235D01*
X0257600Y0133900D01*
X0251353Y0133900D01*
X0251353Y0136282D01*
X0250834Y0136800D01*
X0251353Y0137318D01*
X0251353Y0143762D01*
X0250415Y0144699D01*
X0246871Y0144699D01*
X0229370Y0162200D01*
X0253430Y0162200D01*
X0253979Y0161651D02*
X0229919Y0161651D01*
X0231517Y0160053D02*
X0255578Y0160053D01*
X0255754Y0158454D02*
X0233116Y0158454D01*
X0234714Y0156856D02*
X0256653Y0156856D01*
X0261947Y0156856D02*
X0263775Y0156856D01*
X0265373Y0155257D02*
X0236313Y0155257D01*
X0237911Y0153659D02*
X0266972Y0153659D01*
X0268570Y0152060D02*
X0239510Y0152060D01*
X0241108Y0150462D02*
X0270169Y0150462D01*
X0271767Y0148863D02*
X0242707Y0148863D01*
X0244305Y0147265D02*
X0273366Y0147265D01*
X0274964Y0145666D02*
X0245904Y0145666D01*
X0242247Y0143383D02*
X0242247Y0137318D01*
X0242766Y0136800D01*
X0242247Y0136282D01*
X0242247Y0129838D01*
X0243184Y0128901D01*
X0248431Y0128901D01*
X0248430Y0128900D01*
X0242670Y0128900D01*
X0233900Y0137670D01*
X0233900Y0148809D01*
X0234852Y0149761D01*
X0235150Y0150480D01*
X0242247Y0143383D01*
X0242247Y0142469D02*
X0233900Y0142469D01*
X0233900Y0140870D02*
X0242247Y0140870D01*
X0242247Y0139272D02*
X0233900Y0139272D01*
X0233900Y0137673D02*
X0242247Y0137673D01*
X0242247Y0136075D02*
X0235495Y0136075D01*
X0237093Y0134476D02*
X0242247Y0134476D01*
X0242247Y0132878D02*
X0238692Y0132878D01*
X0240290Y0131279D02*
X0242247Y0131279D01*
X0242404Y0129681D02*
X0241889Y0129681D01*
X0239146Y0126484D02*
X0233900Y0126484D01*
X0233900Y0126400D02*
X0239230Y0126400D01*
X0233900Y0131730D01*
X0233900Y0126400D01*
X0233900Y0128082D02*
X0237548Y0128082D01*
X0235949Y0129681D02*
X0233900Y0129681D01*
X0233900Y0131279D02*
X0234351Y0131279D01*
X0231730Y0133900D02*
X0230930Y0134700D01*
X0117291Y0134700D01*
X0116491Y0133900D01*
X0231730Y0133900D01*
X0231154Y0134476D02*
X0117068Y0134476D01*
X0117291Y0138900D02*
X0116339Y0139852D01*
X0115620Y0140150D01*
X0123770Y0148300D01*
X0128515Y0148300D01*
X0130206Y0149000D01*
X0130905Y0149700D01*
X0163809Y0149700D01*
X0164761Y0148748D01*
X0166084Y0148200D01*
X0167516Y0148200D01*
X0168839Y0148748D01*
X0169852Y0149761D01*
X0170400Y0151084D01*
X0170400Y0152516D01*
X0169852Y0153839D01*
X0168839Y0154852D01*
X0167516Y0155400D01*
X0166084Y0155400D01*
X0164761Y0154852D01*
X0163809Y0153900D01*
X0132165Y0153900D01*
X0131500Y0155506D01*
X0130206Y0156800D01*
X0128515Y0157500D01*
X0120685Y0157500D01*
X0118994Y0156800D01*
X0117700Y0155506D01*
X0117000Y0153815D01*
X0117000Y0151985D01*
X0117700Y0150294D01*
X0118762Y0149232D01*
X0108430Y0138900D01*
X0093991Y0138900D01*
X0094852Y0139761D01*
X0095400Y0141084D01*
X0095400Y0142516D01*
X0094852Y0143839D01*
X0093839Y0144852D01*
X0092516Y0145400D01*
X0091084Y0145400D01*
X0089761Y0144852D01*
X0088809Y0143900D01*
X0036395Y0143900D01*
X0037100Y0144605D01*
X0037100Y0147200D01*
X0040170Y0147200D01*
X0060170Y0167200D01*
X0061400Y0168430D01*
X0061400Y0174609D01*
X0062261Y0173748D01*
X0063584Y0173200D01*
X0064930Y0173200D01*
X0074230Y0163900D01*
X0064791Y0163900D01*
X0063839Y0164852D01*
X0062516Y0165400D01*
X0061084Y0165400D01*
X0059761Y0164852D01*
X0058748Y0163839D01*
X0058200Y0162516D01*
X0058200Y0161084D01*
X0058748Y0159761D01*
X0059761Y0158748D01*
X0061084Y0158200D01*
X0062516Y0158200D01*
X0063839Y0158748D01*
X0064791Y0159700D01*
X0225930Y0159700D01*
X0230480Y0155150D01*
X0229761Y0154852D01*
X0228748Y0153839D01*
X0228200Y0152516D01*
X0228200Y0151084D01*
X0228748Y0149761D01*
X0229700Y0148809D01*
X0229700Y0138900D01*
X0117291Y0138900D01*
X0116919Y0139272D02*
X0229700Y0139272D01*
X0229700Y0140870D02*
X0116340Y0140870D01*
X0117939Y0142469D02*
X0229700Y0142469D01*
X0229700Y0144068D02*
X0119537Y0144068D01*
X0121136Y0145666D02*
X0229700Y0145666D01*
X0229700Y0147265D02*
X0122734Y0147265D01*
X0118393Y0148863D02*
X0104274Y0148863D01*
X0104606Y0149000D02*
X0105900Y0150294D01*
X0106600Y0151985D01*
X0106600Y0153815D01*
X0105900Y0155506D01*
X0104606Y0156800D01*
X0102915Y0157500D01*
X0095085Y0157500D01*
X0093394Y0156800D01*
X0092100Y0155506D01*
X0091400Y0153815D01*
X0091400Y0151985D01*
X0092100Y0150294D01*
X0093394Y0149000D01*
X0095085Y0148300D01*
X0102915Y0148300D01*
X0104606Y0149000D01*
X0105969Y0150462D02*
X0117631Y0150462D01*
X0117000Y0152060D02*
X0106600Y0152060D01*
X0106600Y0153659D02*
X0117000Y0153659D01*
X0117597Y0155257D02*
X0106003Y0155257D01*
X0104471Y0156856D02*
X0119129Y0156856D01*
X0119961Y0166400D02*
X0103639Y0166400D01*
X0104606Y0166800D01*
X0105900Y0168094D01*
X0106600Y0169785D01*
X0106600Y0171615D01*
X0105900Y0173306D01*
X0104606Y0174600D01*
X0102915Y0175300D01*
X0095085Y0175300D01*
X0093394Y0174600D01*
X0092100Y0173306D01*
X0091400Y0171615D01*
X0091400Y0169785D01*
X0092100Y0168094D01*
X0093394Y0166800D01*
X0094361Y0166400D01*
X0077670Y0166400D01*
X0067900Y0176170D01*
X0067900Y0177516D01*
X0067352Y0178839D01*
X0066491Y0179700D01*
X0113430Y0179700D01*
X0118762Y0174368D01*
X0117700Y0173306D01*
X0117000Y0171615D01*
X0117000Y0169785D01*
X0117700Y0168094D01*
X0118994Y0166800D01*
X0119961Y0166400D01*
X0119848Y0166447D02*
X0103752Y0166447D01*
X0105851Y0168045D02*
X0117749Y0168045D01*
X0117059Y0169644D02*
X0106541Y0169644D01*
X0106600Y0171242D02*
X0117000Y0171242D01*
X0117508Y0172841D02*
X0106092Y0172841D01*
X0104766Y0174439D02*
X0118691Y0174439D01*
X0117092Y0176038D02*
X0068032Y0176038D01*
X0067850Y0177636D02*
X0115494Y0177636D01*
X0113895Y0179235D02*
X0066956Y0179235D01*
X0062109Y0179700D02*
X0061400Y0178991D01*
X0061400Y0179700D01*
X0062109Y0179700D01*
X0061644Y0179235D02*
X0061400Y0179235D01*
X0057200Y0179235D02*
X0044705Y0179235D01*
X0046303Y0180833D02*
X0057200Y0180833D01*
X0057200Y0180930D02*
X0057200Y0182200D01*
X0047670Y0182200D01*
X0036400Y0170930D01*
X0035783Y0170313D01*
X0037100Y0168995D01*
X0037100Y0164605D01*
X0035783Y0163287D01*
X0037670Y0161400D01*
X0038900Y0160170D01*
X0038900Y0151870D01*
X0057200Y0170170D01*
X0057200Y0180930D01*
X0057200Y0177636D02*
X0043106Y0177636D01*
X0041508Y0176038D02*
X0057200Y0176038D01*
X0057200Y0174439D02*
X0039909Y0174439D01*
X0038311Y0172841D02*
X0057200Y0172841D01*
X0057200Y0171242D02*
X0036712Y0171242D01*
X0036452Y0169644D02*
X0056674Y0169644D01*
X0055075Y0168045D02*
X0037100Y0168045D01*
X0037100Y0166447D02*
X0053477Y0166447D01*
X0051878Y0164848D02*
X0037100Y0164848D01*
X0035820Y0163250D02*
X0050280Y0163250D01*
X0048681Y0161651D02*
X0037419Y0161651D01*
X0038900Y0160053D02*
X0047083Y0160053D01*
X0045484Y0158454D02*
X0038900Y0158454D01*
X0038900Y0156856D02*
X0043886Y0156856D01*
X0042287Y0155257D02*
X0038900Y0155257D01*
X0038900Y0153659D02*
X0040689Y0153659D01*
X0039090Y0152060D02*
X0038900Y0152060D01*
X0041833Y0148863D02*
X0093726Y0148863D01*
X0092031Y0150462D02*
X0043431Y0150462D01*
X0045030Y0152060D02*
X0091400Y0152060D01*
X0091400Y0153659D02*
X0046628Y0153659D01*
X0048227Y0155257D02*
X0091997Y0155257D01*
X0093529Y0156856D02*
X0049825Y0156856D01*
X0051424Y0158454D02*
X0060470Y0158454D01*
X0058627Y0160053D02*
X0053022Y0160053D01*
X0054621Y0161651D02*
X0058200Y0161651D01*
X0058504Y0163250D02*
X0056219Y0163250D01*
X0057818Y0164848D02*
X0059757Y0164848D01*
X0059417Y0166447D02*
X0071683Y0166447D01*
X0070085Y0168045D02*
X0061015Y0168045D01*
X0061400Y0169644D02*
X0068486Y0169644D01*
X0066888Y0171242D02*
X0061400Y0171242D01*
X0061400Y0172841D02*
X0065289Y0172841D01*
X0061570Y0174439D02*
X0061400Y0174439D01*
X0069631Y0174439D02*
X0093234Y0174439D01*
X0091908Y0172841D02*
X0071229Y0172841D01*
X0072828Y0171242D02*
X0091400Y0171242D01*
X0091459Y0169644D02*
X0074426Y0169644D01*
X0076025Y0168045D02*
X0092149Y0168045D01*
X0094248Y0166447D02*
X0077623Y0166447D01*
X0073282Y0164848D02*
X0063843Y0164848D01*
X0063130Y0158454D02*
X0227176Y0158454D01*
X0228775Y0156856D02*
X0130071Y0156856D01*
X0131603Y0155257D02*
X0165739Y0155257D01*
X0167861Y0155257D02*
X0230373Y0155257D01*
X0228673Y0153659D02*
X0169927Y0153659D01*
X0170400Y0152060D02*
X0228200Y0152060D01*
X0228458Y0150462D02*
X0170142Y0150462D01*
X0168954Y0148863D02*
X0229646Y0148863D01*
X0233954Y0148863D02*
X0236767Y0148863D01*
X0235169Y0150462D02*
X0235142Y0150462D01*
X0233900Y0147265D02*
X0238366Y0147265D01*
X0239964Y0145666D02*
X0233900Y0145666D01*
X0233900Y0144068D02*
X0241563Y0144068D01*
X0251047Y0144068D02*
X0317200Y0144068D01*
X0317200Y0142469D02*
X0251353Y0142469D01*
X0251353Y0140870D02*
X0317200Y0140870D01*
X0317200Y0139272D02*
X0251353Y0139272D01*
X0251353Y0137673D02*
X0259134Y0137673D01*
X0257948Y0136075D02*
X0251353Y0136075D01*
X0251353Y0134476D02*
X0257600Y0134476D01*
X0264466Y0137673D02*
X0269134Y0137673D01*
X0269421Y0137961D02*
X0268239Y0136779D01*
X0267600Y0135235D01*
X0267600Y0128365D01*
X0268239Y0126821D01*
X0269421Y0125639D01*
X0270965Y0125000D01*
X0272635Y0125000D01*
X0274179Y0125639D01*
X0275361Y0126821D01*
X0276000Y0128365D01*
X0276000Y0135235D01*
X0275361Y0136779D01*
X0274179Y0137961D01*
X0272635Y0138600D01*
X0270965Y0138600D01*
X0269421Y0137961D01*
X0267948Y0136075D02*
X0265652Y0136075D01*
X0266000Y0134476D02*
X0267600Y0134476D01*
X0267600Y0132878D02*
X0266000Y0132878D01*
X0266000Y0131279D02*
X0267600Y0131279D01*
X0267600Y0129681D02*
X0266000Y0129681D01*
X0265883Y0128082D02*
X0267717Y0128082D01*
X0268576Y0126484D02*
X0265024Y0126484D01*
X0258900Y0124885D02*
X0317200Y0124885D01*
X0317200Y0123287D02*
X0258757Y0123287D01*
X0257158Y0121688D02*
X0317200Y0121688D01*
X0317200Y0120090D02*
X0255560Y0120090D01*
X0253961Y0118491D02*
X0317200Y0118491D01*
X0317200Y0116893D02*
X0252363Y0116893D01*
X0250764Y0115294D02*
X0313329Y0115294D01*
X0315271Y0115294D02*
X0317200Y0115294D01*
X0321400Y0115294D02*
X0354824Y0115294D01*
X0353226Y0113696D02*
X0321400Y0113696D01*
X0321400Y0112097D02*
X0351627Y0112097D01*
X0350029Y0110499D02*
X0320969Y0110499D01*
X0321400Y0110930D02*
X0321400Y0147670D01*
X0321170Y0147900D01*
X0321613Y0147900D01*
X0321800Y0148087D01*
X0321987Y0147900D01*
X0322200Y0147900D01*
X0322200Y0140930D01*
X0323430Y0139700D01*
X0362488Y0139700D01*
X0361700Y0138912D01*
X0361700Y0134688D01*
X0364588Y0131800D01*
X0361700Y0128912D01*
X0361700Y0124688D01*
X0362959Y0123429D01*
X0323900Y0084370D01*
X0323900Y0097670D01*
X0322670Y0098900D01*
X0321353Y0100217D01*
X0321353Y0103762D01*
X0320415Y0104699D01*
X0313184Y0104699D01*
X0312247Y0103762D01*
X0312247Y0097318D01*
X0312766Y0096800D01*
X0312247Y0096282D01*
X0312247Y0089838D01*
X0313184Y0088901D01*
X0314700Y0088901D01*
X0314700Y0073900D01*
X0306000Y0073900D01*
X0306000Y0075235D01*
X0305361Y0076779D01*
X0304179Y0077961D01*
X0302635Y0078600D01*
X0301400Y0078600D01*
X0301400Y0085170D01*
X0300170Y0086400D01*
X0295170Y0091400D01*
X0251353Y0091400D01*
X0251353Y0096282D01*
X0250834Y0096800D01*
X0251353Y0097318D01*
X0251353Y0103383D01*
X0252670Y0104700D01*
X0315170Y0104700D01*
X0320170Y0109700D01*
X0321400Y0110930D01*
X0319370Y0108900D02*
X0348430Y0108900D01*
X0346832Y0107302D02*
X0317772Y0107302D01*
X0316173Y0105703D02*
X0345233Y0105703D01*
X0343635Y0104105D02*
X0321010Y0104105D01*
X0321353Y0102506D02*
X0342036Y0102506D01*
X0340438Y0100908D02*
X0321353Y0100908D01*
X0322261Y0099309D02*
X0338839Y0099309D01*
X0337241Y0097711D02*
X0323859Y0097711D01*
X0323900Y0096112D02*
X0335642Y0096112D01*
X0334044Y0094514D02*
X0323900Y0094514D01*
X0323900Y0092915D02*
X0332445Y0092915D01*
X0330847Y0091317D02*
X0323900Y0091317D01*
X0323900Y0089718D02*
X0329248Y0089718D01*
X0327650Y0088120D02*
X0323900Y0088120D01*
X0323900Y0086521D02*
X0326051Y0086521D01*
X0324453Y0084923D02*
X0323900Y0084923D01*
X0319700Y0084923D02*
X0318900Y0084923D01*
X0318900Y0086521D02*
X0319700Y0086521D01*
X0319700Y0088120D02*
X0318900Y0088120D01*
X0318900Y0088901D02*
X0319700Y0088901D01*
X0319700Y0063900D01*
X0288900Y0063900D01*
X0288900Y0066160D01*
X0289421Y0065639D01*
X0290965Y0065000D01*
X0292635Y0065000D01*
X0294179Y0065639D01*
X0295361Y0066821D01*
X0296000Y0068365D01*
X0296000Y0075235D01*
X0295361Y0076779D01*
X0294940Y0077200D01*
X0298660Y0077200D01*
X0298239Y0076779D01*
X0297600Y0075235D01*
X0297600Y0068365D01*
X0298239Y0066821D01*
X0299421Y0065639D01*
X0300965Y0065000D01*
X0302635Y0065000D01*
X0304179Y0065639D01*
X0305361Y0066821D01*
X0306000Y0068365D01*
X0306000Y0069700D01*
X0317670Y0069700D01*
X0318900Y0070930D01*
X0318900Y0088901D01*
X0318900Y0083324D02*
X0319700Y0083324D01*
X0319700Y0081726D02*
X0318900Y0081726D01*
X0318900Y0080127D02*
X0319700Y0080127D01*
X0319700Y0078529D02*
X0318900Y0078529D01*
X0318900Y0076930D02*
X0319700Y0076930D01*
X0319700Y0075332D02*
X0318900Y0075332D01*
X0318900Y0073733D02*
X0319700Y0073733D01*
X0319700Y0072134D02*
X0318900Y0072134D01*
X0318506Y0070536D02*
X0319700Y0070536D01*
X0319700Y0068937D02*
X0306000Y0068937D01*
X0305575Y0067339D02*
X0319700Y0067339D01*
X0319700Y0065740D02*
X0304280Y0065740D01*
X0299320Y0065740D02*
X0294280Y0065740D01*
X0295575Y0067339D02*
X0298025Y0067339D01*
X0297600Y0068937D02*
X0296000Y0068937D01*
X0296000Y0070536D02*
X0297600Y0070536D01*
X0297600Y0072134D02*
X0296000Y0072134D01*
X0296000Y0073733D02*
X0297600Y0073733D01*
X0297640Y0075332D02*
X0295960Y0075332D01*
X0295210Y0076930D02*
X0298390Y0076930D01*
X0301400Y0080127D02*
X0314700Y0080127D01*
X0314700Y0078529D02*
X0302808Y0078529D01*
X0305210Y0076930D02*
X0314700Y0076930D01*
X0314700Y0075332D02*
X0305960Y0075332D01*
X0301400Y0081726D02*
X0314700Y0081726D01*
X0314700Y0083324D02*
X0301400Y0083324D01*
X0301400Y0084923D02*
X0314700Y0084923D01*
X0314700Y0086521D02*
X0300049Y0086521D01*
X0298450Y0088120D02*
X0314700Y0088120D01*
X0312367Y0089718D02*
X0296852Y0089718D01*
X0295253Y0091317D02*
X0312247Y0091317D01*
X0312247Y0092915D02*
X0251353Y0092915D01*
X0251353Y0094514D02*
X0312247Y0094514D01*
X0312247Y0096112D02*
X0251353Y0096112D01*
X0251353Y0097711D02*
X0312247Y0097711D01*
X0312247Y0099309D02*
X0251353Y0099309D01*
X0251353Y0100908D02*
X0312247Y0100908D01*
X0312247Y0102506D02*
X0251353Y0102506D01*
X0252075Y0104105D02*
X0312590Y0104105D01*
X0312109Y0108900D02*
X0250930Y0108900D01*
X0249700Y0107670D01*
X0247749Y0105718D01*
X0247900Y0106084D01*
X0247900Y0107516D01*
X0247352Y0108839D01*
X0246491Y0109700D01*
X0311309Y0109700D01*
X0312109Y0108900D01*
X0247291Y0108900D01*
X0247900Y0107302D02*
X0249332Y0107302D01*
X0242109Y0109700D02*
X0241248Y0108839D01*
X0240700Y0107516D01*
X0240700Y0106170D01*
X0235930Y0101400D01*
X0230700Y0101400D01*
X0230700Y0101613D01*
X0230513Y0101800D01*
X0230700Y0101987D01*
X0230700Y0102730D01*
X0231400Y0103430D01*
X0237670Y0109700D01*
X0242109Y0109700D01*
X0241309Y0108900D02*
X0236870Y0108900D01*
X0235272Y0107302D02*
X0240700Y0107302D01*
X0240233Y0105703D02*
X0233673Y0105703D01*
X0232075Y0104105D02*
X0238635Y0104105D01*
X0237036Y0102506D02*
X0230700Y0102506D01*
X0230700Y0097200D02*
X0235700Y0097200D01*
X0235700Y0096400D01*
X0230700Y0096400D01*
X0230700Y0096613D01*
X0230513Y0096800D01*
X0230700Y0096987D01*
X0230700Y0097200D01*
X0230700Y0092200D02*
X0237670Y0092200D01*
X0238670Y0093200D01*
X0240016Y0093200D01*
X0241339Y0093748D01*
X0242247Y0094656D01*
X0242247Y0089838D01*
X0243184Y0088901D01*
X0246729Y0088901D01*
X0246730Y0088900D01*
X0230700Y0088900D01*
X0230700Y0091613D01*
X0230513Y0091800D01*
X0230700Y0091987D01*
X0230700Y0092200D01*
X0230700Y0091317D02*
X0242247Y0091317D01*
X0242247Y0092915D02*
X0238385Y0092915D01*
X0242105Y0094514D02*
X0242247Y0094514D01*
X0242367Y0089718D02*
X0230700Y0089718D01*
X0227080Y0086050D02*
X0228430Y0084700D01*
X0290700Y0084700D01*
X0290700Y0083584D01*
X0291248Y0082261D01*
X0292109Y0081400D01*
X0288430Y0081400D01*
X0285930Y0078900D01*
X0284700Y0077670D01*
X0284700Y0077440D01*
X0284179Y0077961D01*
X0282635Y0078600D01*
X0280965Y0078600D01*
X0279421Y0077961D01*
X0279015Y0077555D01*
X0275170Y0081400D01*
X0217670Y0081400D01*
X0208900Y0090170D01*
X0208900Y0098809D01*
X0209852Y0099761D01*
X0210400Y0101084D01*
X0210400Y0102516D01*
X0209852Y0103839D01*
X0208839Y0104852D01*
X0207516Y0105400D01*
X0206084Y0105400D01*
X0204761Y0104852D01*
X0203748Y0103839D01*
X0203236Y0102602D01*
X0202516Y0102900D01*
X0201084Y0102900D01*
X0199916Y0102416D01*
X0200400Y0103584D01*
X0200400Y0105016D01*
X0199852Y0106339D01*
X0198839Y0107352D01*
X0197516Y0107900D01*
X0196084Y0107900D01*
X0195718Y0107749D01*
X0196400Y0108430D01*
X0203670Y0115700D01*
X0205016Y0115700D01*
X0206339Y0116248D01*
X0207352Y0117261D01*
X0207900Y0118584D01*
X0207900Y0120016D01*
X0207352Y0121339D01*
X0206339Y0122352D01*
X0205016Y0122900D01*
X0203584Y0122900D01*
X0202261Y0122352D01*
X0201248Y0121339D01*
X0200700Y0120016D01*
X0200700Y0118670D01*
X0195100Y0113070D01*
X0195100Y0116613D01*
X0194913Y0116800D01*
X0195100Y0116987D01*
X0195100Y0121613D01*
X0194913Y0121800D01*
X0195100Y0121987D01*
X0195100Y0126613D01*
X0194513Y0127200D01*
X0218430Y0127200D01*
X0218759Y0126871D01*
X0218500Y0126613D01*
X0218500Y0121987D01*
X0218687Y0121800D01*
X0218500Y0121613D01*
X0218500Y0116987D01*
X0218687Y0116800D01*
X0218500Y0116613D01*
X0218500Y0111987D01*
X0218687Y0111800D01*
X0218500Y0111613D01*
X0218500Y0106987D01*
X0218687Y0106800D01*
X0218500Y0106613D01*
X0218500Y0101987D01*
X0218687Y0101800D01*
X0218500Y0101613D01*
X0218500Y0096987D01*
X0218687Y0096800D01*
X0218500Y0096613D01*
X0218500Y0091987D01*
X0218687Y0091800D01*
X0218500Y0091613D01*
X0218500Y0086987D01*
X0219437Y0086050D01*
X0227080Y0086050D01*
X0228208Y0084923D02*
X0214147Y0084923D01*
X0212549Y0086521D02*
X0218966Y0086521D01*
X0218500Y0088120D02*
X0210950Y0088120D01*
X0209352Y0089718D02*
X0218500Y0089718D01*
X0218500Y0091317D02*
X0208900Y0091317D01*
X0208900Y0092915D02*
X0218500Y0092915D01*
X0218500Y0094514D02*
X0208900Y0094514D01*
X0208900Y0096112D02*
X0218500Y0096112D01*
X0218500Y0097711D02*
X0208900Y0097711D01*
X0209400Y0099309D02*
X0218500Y0099309D01*
X0218500Y0100908D02*
X0210327Y0100908D01*
X0210400Y0102506D02*
X0218500Y0102506D01*
X0218500Y0104105D02*
X0209586Y0104105D01*
X0204014Y0104105D02*
X0200400Y0104105D01*
X0200133Y0102506D02*
X0199954Y0102506D01*
X0200115Y0105703D02*
X0218500Y0105703D01*
X0218500Y0107302D02*
X0198889Y0107302D01*
X0196870Y0108900D02*
X0218500Y0108900D01*
X0218500Y0110499D02*
X0198469Y0110499D01*
X0200067Y0112097D02*
X0218500Y0112097D01*
X0218500Y0113696D02*
X0201666Y0113696D01*
X0203264Y0115294D02*
X0218500Y0115294D01*
X0218594Y0116893D02*
X0206984Y0116893D01*
X0207862Y0118491D02*
X0218500Y0118491D01*
X0218500Y0120090D02*
X0207869Y0120090D01*
X0207003Y0121688D02*
X0218576Y0121688D01*
X0218500Y0123287D02*
X0195100Y0123287D01*
X0195100Y0124885D02*
X0218500Y0124885D01*
X0218500Y0126484D02*
X0195100Y0126484D01*
X0195024Y0121688D02*
X0201597Y0121688D01*
X0200731Y0120090D02*
X0195100Y0120090D01*
X0195100Y0118491D02*
X0200521Y0118491D01*
X0198923Y0116893D02*
X0195006Y0116893D01*
X0195100Y0115294D02*
X0197324Y0115294D01*
X0195726Y0113696D02*
X0195100Y0113696D01*
X0183087Y0111800D02*
X0182900Y0111613D01*
X0182900Y0106987D01*
X0183087Y0106800D01*
X0182900Y0106613D01*
X0182900Y0101987D01*
X0183087Y0101800D01*
X0182900Y0101613D01*
X0182900Y0096987D01*
X0183087Y0096800D01*
X0182900Y0096613D01*
X0182900Y0091987D01*
X0183087Y0091800D01*
X0182900Y0091613D01*
X0182900Y0088370D01*
X0182749Y0088218D01*
X0182900Y0088584D01*
X0182900Y0090016D01*
X0182352Y0091339D01*
X0181339Y0092352D01*
X0180016Y0092900D01*
X0178584Y0092900D01*
X0177261Y0092352D01*
X0176309Y0091400D01*
X0135700Y0091400D01*
X0135700Y0091613D01*
X0135513Y0091800D01*
X0135700Y0091987D01*
X0135700Y0096613D01*
X0135513Y0096800D01*
X0135700Y0096987D01*
X0135700Y0097200D01*
X0176309Y0097200D01*
X0177261Y0096248D01*
X0178584Y0095700D01*
X0180016Y0095700D01*
X0181339Y0096248D01*
X0182352Y0097261D01*
X0182900Y0098584D01*
X0182900Y0100016D01*
X0182352Y0101339D01*
X0181891Y0101800D01*
X0182352Y0102261D01*
X0182900Y0103584D01*
X0182900Y0105016D01*
X0182352Y0106339D01*
X0181891Y0106800D01*
X0182352Y0107261D01*
X0182900Y0108584D01*
X0182900Y0110016D01*
X0182352Y0111339D01*
X0181891Y0111800D01*
X0182291Y0112200D01*
X0182900Y0112200D01*
X0182900Y0111987D01*
X0183087Y0111800D01*
X0182900Y0112097D02*
X0182188Y0112097D01*
X0182700Y0110499D02*
X0182900Y0110499D01*
X0182900Y0108900D02*
X0182900Y0108900D01*
X0182900Y0107302D02*
X0182369Y0107302D01*
X0182615Y0105703D02*
X0182900Y0105703D01*
X0182900Y0104105D02*
X0182900Y0104105D01*
X0182900Y0102506D02*
X0182454Y0102506D01*
X0182531Y0100908D02*
X0182900Y0100908D01*
X0182900Y0099309D02*
X0182900Y0099309D01*
X0182900Y0097711D02*
X0182538Y0097711D01*
X0182900Y0096112D02*
X0181011Y0096112D01*
X0182900Y0094514D02*
X0135700Y0094514D01*
X0135700Y0096112D02*
X0177589Y0096112D01*
X0176309Y0101400D02*
X0176709Y0101800D01*
X0176309Y0102200D01*
X0135700Y0102200D01*
X0135700Y0101987D01*
X0135513Y0101800D01*
X0135700Y0101613D01*
X0135700Y0101400D01*
X0176309Y0101400D01*
X0176309Y0106400D02*
X0135700Y0106400D01*
X0135700Y0106613D01*
X0135513Y0106800D01*
X0135700Y0106987D01*
X0135700Y0111613D01*
X0135513Y0111800D01*
X0135700Y0111987D01*
X0135700Y0116613D01*
X0135513Y0116800D01*
X0135700Y0116987D01*
X0135700Y0121613D01*
X0135513Y0121800D01*
X0135700Y0121987D01*
X0135700Y0125230D01*
X0137670Y0127200D01*
X0145700Y0127200D01*
X0145700Y0126084D01*
X0146248Y0124761D01*
X0147261Y0123748D01*
X0148584Y0123200D01*
X0150016Y0123200D01*
X0151339Y0123748D01*
X0152352Y0124761D01*
X0152900Y0126084D01*
X0152900Y0127200D01*
X0159609Y0127200D01*
X0158748Y0126339D01*
X0158200Y0125016D01*
X0158200Y0123584D01*
X0158748Y0122261D01*
X0159761Y0121248D01*
X0161084Y0120700D01*
X0162516Y0120700D01*
X0163839Y0121248D01*
X0164791Y0122200D01*
X0182900Y0122200D01*
X0182900Y0121987D01*
X0183087Y0121800D01*
X0182900Y0121613D01*
X0182900Y0121400D01*
X0173430Y0121400D01*
X0172200Y0120170D01*
X0172200Y0113430D01*
X0173430Y0112200D01*
X0175700Y0109930D01*
X0175700Y0108584D01*
X0176248Y0107261D01*
X0176709Y0106800D01*
X0176309Y0106400D01*
X0176231Y0107302D02*
X0135700Y0107302D01*
X0135700Y0108900D02*
X0175700Y0108900D01*
X0175131Y0110499D02*
X0135700Y0110499D01*
X0135700Y0112097D02*
X0173533Y0112097D01*
X0172200Y0113696D02*
X0135700Y0113696D01*
X0135700Y0115294D02*
X0172200Y0115294D01*
X0172200Y0116893D02*
X0135606Y0116893D01*
X0135700Y0118491D02*
X0172200Y0118491D01*
X0172200Y0120090D02*
X0135700Y0120090D01*
X0135624Y0121688D02*
X0159320Y0121688D01*
X0158323Y0123287D02*
X0150226Y0123287D01*
X0148374Y0123287D02*
X0135700Y0123287D01*
X0135700Y0124885D02*
X0146196Y0124885D01*
X0145700Y0126484D02*
X0136954Y0126484D01*
X0134211Y0129681D02*
X0116889Y0129681D01*
X0116870Y0129700D02*
X0134230Y0129700D01*
X0132080Y0127550D01*
X0124437Y0127550D01*
X0123500Y0126613D01*
X0123500Y0123070D01*
X0116870Y0129700D01*
X0118487Y0128082D02*
X0132613Y0128082D01*
X0123500Y0126484D02*
X0120086Y0126484D01*
X0121684Y0124885D02*
X0123500Y0124885D01*
X0123500Y0123287D02*
X0123283Y0123287D01*
X0117139Y0118491D02*
X0100100Y0118491D01*
X0100100Y0116987D02*
X0100100Y0121613D01*
X0099913Y0121800D01*
X0100100Y0121987D01*
X0100100Y0126613D01*
X0099163Y0127550D01*
X0090386Y0127550D01*
X0089852Y0128839D01*
X0088991Y0129700D01*
X0110930Y0129700D01*
X0112980Y0127650D01*
X0112261Y0127352D01*
X0111248Y0126339D01*
X0110700Y0125016D01*
X0110700Y0123584D01*
X0111248Y0122261D01*
X0112261Y0121248D01*
X0113584Y0120700D01*
X0114930Y0120700D01*
X0123430Y0112200D01*
X0123500Y0112200D01*
X0123500Y0111987D01*
X0123687Y0111800D01*
X0123500Y0111613D01*
X0123500Y0106987D01*
X0123687Y0106800D01*
X0123500Y0106613D01*
X0123500Y0101987D01*
X0123687Y0101800D01*
X0123500Y0101613D01*
X0123500Y0097492D01*
X0122516Y0097900D01*
X0121084Y0097900D01*
X0119916Y0097416D01*
X0120400Y0098584D01*
X0120400Y0100016D01*
X0119852Y0101339D01*
X0118839Y0102352D01*
X0117516Y0102900D01*
X0116084Y0102900D01*
X0114761Y0102352D01*
X0113809Y0101400D01*
X0100100Y0101400D01*
X0100100Y0101613D01*
X0099913Y0101800D01*
X0100100Y0101987D01*
X0100100Y0106613D01*
X0099913Y0106800D01*
X0100100Y0106987D01*
X0100100Y0111613D01*
X0099913Y0111800D01*
X0100100Y0111987D01*
X0100100Y0116613D01*
X0099913Y0116800D01*
X0100100Y0116987D01*
X0100006Y0116893D02*
X0118737Y0116893D01*
X0120336Y0115294D02*
X0100100Y0115294D01*
X0100100Y0113696D02*
X0121934Y0113696D01*
X0123500Y0112097D02*
X0100100Y0112097D01*
X0100100Y0110499D02*
X0123500Y0110499D01*
X0123500Y0108900D02*
X0100100Y0108900D01*
X0100100Y0107302D02*
X0123500Y0107302D01*
X0123500Y0105703D02*
X0100100Y0105703D01*
X0100100Y0104105D02*
X0123500Y0104105D01*
X0123500Y0102506D02*
X0118467Y0102506D01*
X0120031Y0100908D02*
X0123500Y0100908D01*
X0123500Y0099309D02*
X0120400Y0099309D01*
X0120627Y0097711D02*
X0120038Y0097711D01*
X0122973Y0097711D02*
X0123500Y0097711D01*
X0123500Y0091108D02*
X0123500Y0086987D01*
X0124087Y0086400D01*
X0100170Y0086400D01*
X0099841Y0086729D01*
X0100100Y0086987D01*
X0100100Y0091613D01*
X0099913Y0091800D01*
X0100100Y0091987D01*
X0100100Y0092200D01*
X0113809Y0092200D01*
X0114761Y0091248D01*
X0116084Y0090700D01*
X0117516Y0090700D01*
X0118839Y0091248D01*
X0119300Y0091709D01*
X0119761Y0091248D01*
X0121084Y0090700D01*
X0122516Y0090700D01*
X0123500Y0091108D01*
X0123500Y0089718D02*
X0100100Y0089718D01*
X0100100Y0088120D02*
X0123500Y0088120D01*
X0123966Y0086521D02*
X0100049Y0086521D01*
X0097200Y0083430D02*
X0098430Y0082200D01*
X0182670Y0082200D01*
X0186520Y0086050D01*
X0194163Y0086050D01*
X0195100Y0086987D01*
X0195100Y0087200D01*
X0205930Y0087200D01*
X0214700Y0078430D01*
X0215930Y0077200D01*
X0258660Y0077200D01*
X0258239Y0076779D01*
X0257600Y0075235D01*
X0257600Y0068365D01*
X0258239Y0066821D01*
X0259421Y0065639D01*
X0260965Y0065000D01*
X0262635Y0065000D01*
X0264179Y0065639D01*
X0264585Y0066045D01*
X0266730Y0063900D01*
X0045170Y0063900D01*
X0018900Y0090170D01*
X0018900Y0092205D01*
X0019605Y0091500D01*
X0023995Y0091500D01*
X0024700Y0092205D01*
X0024700Y0090930D01*
X0025930Y0089700D01*
X0083809Y0089700D01*
X0084761Y0088748D01*
X0086084Y0088200D01*
X0087516Y0088200D01*
X0087900Y0088359D01*
X0087900Y0086987D01*
X0088837Y0086050D01*
X0094580Y0086050D01*
X0097200Y0083430D01*
X0097306Y0083324D02*
X0025746Y0083324D01*
X0027344Y0081726D02*
X0211405Y0081726D01*
X0209806Y0083324D02*
X0183794Y0083324D01*
X0185392Y0084923D02*
X0208208Y0084923D01*
X0206609Y0086521D02*
X0194634Y0086521D01*
X0195100Y0091400D02*
X0195100Y0091613D01*
X0194913Y0091800D01*
X0195100Y0091987D01*
X0195100Y0092200D01*
X0197670Y0092200D01*
X0198900Y0093430D01*
X0201170Y0095700D01*
X0202516Y0095700D01*
X0203839Y0096248D01*
X0204700Y0097109D01*
X0204700Y0091400D01*
X0195100Y0091400D01*
X0198385Y0092915D02*
X0204700Y0092915D01*
X0204700Y0094514D02*
X0199983Y0094514D01*
X0203511Y0096112D02*
X0204700Y0096112D01*
X0215746Y0083324D02*
X0290808Y0083324D01*
X0291783Y0081726D02*
X0217344Y0081726D01*
X0214602Y0078529D02*
X0030541Y0078529D01*
X0028943Y0080127D02*
X0213003Y0080127D01*
X0240620Y0100150D02*
X0242247Y0101777D01*
X0242247Y0098944D01*
X0241339Y0099852D01*
X0240620Y0100150D01*
X0241378Y0100908D02*
X0242247Y0100908D01*
X0242247Y0099309D02*
X0241882Y0099309D01*
X0230930Y0108900D02*
X0230700Y0108900D01*
X0230700Y0108670D02*
X0230700Y0111613D01*
X0230513Y0111800D01*
X0230700Y0111987D01*
X0230700Y0112200D01*
X0234230Y0112200D01*
X0230700Y0108670D01*
X0230700Y0110499D02*
X0232529Y0110499D01*
X0234127Y0112097D02*
X0230700Y0112097D01*
X0230700Y0116400D02*
X0245930Y0116400D01*
X0250480Y0120950D01*
X0249761Y0121248D01*
X0248809Y0122200D01*
X0233900Y0122200D01*
X0233900Y0120930D01*
X0230700Y0117730D01*
X0230700Y0116987D01*
X0230513Y0116800D01*
X0230700Y0116613D01*
X0230700Y0116400D01*
X0230606Y0116893D02*
X0246423Y0116893D01*
X0248021Y0118491D02*
X0231461Y0118491D01*
X0233060Y0120090D02*
X0249620Y0120090D01*
X0249320Y0121688D02*
X0233900Y0121688D01*
X0229700Y0127550D02*
X0224020Y0127550D01*
X0221870Y0129700D01*
X0229700Y0129700D01*
X0229700Y0127550D01*
X0229700Y0128082D02*
X0223487Y0128082D01*
X0221889Y0129681D02*
X0229700Y0129681D01*
X0253991Y0127200D02*
X0254700Y0127200D01*
X0254700Y0126491D01*
X0253991Y0127200D01*
X0275024Y0126484D02*
X0278576Y0126484D01*
X0278239Y0126821D02*
X0279421Y0125639D01*
X0280965Y0125000D01*
X0282635Y0125000D01*
X0284179Y0125639D01*
X0285361Y0126821D01*
X0286000Y0128365D01*
X0286000Y0135235D01*
X0285361Y0136779D01*
X0284179Y0137961D01*
X0282635Y0138600D01*
X0280965Y0138600D01*
X0279421Y0137961D01*
X0278239Y0136779D01*
X0277600Y0135235D01*
X0277600Y0128365D01*
X0278239Y0126821D01*
X0277717Y0128082D02*
X0275883Y0128082D01*
X0276000Y0129681D02*
X0277600Y0129681D01*
X0277600Y0131279D02*
X0276000Y0131279D01*
X0276000Y0132878D02*
X0277600Y0132878D01*
X0277600Y0134476D02*
X0276000Y0134476D01*
X0275652Y0136075D02*
X0277948Y0136075D01*
X0279134Y0137673D02*
X0274466Y0137673D01*
X0284466Y0137673D02*
X0289134Y0137673D01*
X0289421Y0137961D02*
X0288239Y0136779D01*
X0287600Y0135235D01*
X0287600Y0128365D01*
X0288239Y0126821D01*
X0289421Y0125639D01*
X0290965Y0125000D01*
X0292635Y0125000D01*
X0294179Y0125639D01*
X0295361Y0126821D01*
X0296000Y0128365D01*
X0296000Y0135235D01*
X0295361Y0136779D01*
X0294179Y0137961D01*
X0292635Y0138600D01*
X0290965Y0138600D01*
X0289421Y0137961D01*
X0287948Y0136075D02*
X0285652Y0136075D01*
X0286000Y0134476D02*
X0287600Y0134476D01*
X0287600Y0132878D02*
X0286000Y0132878D01*
X0286000Y0131279D02*
X0287600Y0131279D01*
X0287600Y0129681D02*
X0286000Y0129681D01*
X0285883Y0128082D02*
X0287717Y0128082D01*
X0288576Y0126484D02*
X0285024Y0126484D01*
X0295024Y0126484D02*
X0298576Y0126484D01*
X0298239Y0126821D02*
X0299421Y0125639D01*
X0300965Y0125000D01*
X0302635Y0125000D01*
X0304179Y0125639D01*
X0305361Y0126821D01*
X0306000Y0128365D01*
X0306000Y0135235D01*
X0305361Y0136779D01*
X0304179Y0137961D01*
X0302635Y0138600D01*
X0300965Y0138600D01*
X0299421Y0137961D01*
X0298239Y0136779D01*
X0297600Y0135235D01*
X0297600Y0128365D01*
X0298239Y0126821D01*
X0297717Y0128082D02*
X0295883Y0128082D01*
X0296000Y0129681D02*
X0297600Y0129681D01*
X0297600Y0131279D02*
X0296000Y0131279D01*
X0296000Y0132878D02*
X0297600Y0132878D01*
X0297600Y0134476D02*
X0296000Y0134476D01*
X0295652Y0136075D02*
X0297948Y0136075D01*
X0299134Y0137673D02*
X0294466Y0137673D01*
X0304466Y0137673D02*
X0317200Y0137673D01*
X0317200Y0136075D02*
X0305652Y0136075D01*
X0306000Y0134476D02*
X0317200Y0134476D01*
X0317200Y0132878D02*
X0306000Y0132878D01*
X0306000Y0131279D02*
X0317200Y0131279D01*
X0317200Y0129681D02*
X0306000Y0129681D01*
X0305883Y0128082D02*
X0317200Y0128082D01*
X0317200Y0126484D02*
X0305024Y0126484D01*
X0321400Y0126484D02*
X0361700Y0126484D01*
X0361700Y0128082D02*
X0321400Y0128082D01*
X0321400Y0129681D02*
X0362468Y0129681D01*
X0364067Y0131279D02*
X0321400Y0131279D01*
X0321400Y0132878D02*
X0363510Y0132878D01*
X0361911Y0134476D02*
X0321400Y0134476D01*
X0321400Y0136075D02*
X0361700Y0136075D01*
X0361700Y0137673D02*
X0321400Y0137673D01*
X0321400Y0139272D02*
X0362060Y0139272D01*
X0369012Y0131800D02*
X0371800Y0129012D01*
X0374588Y0131800D01*
X0371800Y0134588D01*
X0369012Y0131800D01*
X0369533Y0131279D02*
X0374067Y0131279D01*
X0373510Y0132878D02*
X0370090Y0132878D01*
X0371689Y0134476D02*
X0371911Y0134476D01*
X0371800Y0139012D02*
X0372488Y0139700D01*
X0371112Y0139700D01*
X0371800Y0139012D01*
X0371540Y0139272D02*
X0372060Y0139272D01*
X0372488Y0143900D02*
X0371112Y0143900D01*
X0371800Y0144588D01*
X0372488Y0143900D01*
X0372320Y0144068D02*
X0371280Y0144068D01*
X0380641Y0140171D02*
X0382200Y0141730D01*
X0382200Y0128900D01*
X0381900Y0128900D01*
X0381900Y0128912D01*
X0379012Y0131800D01*
X0381900Y0134688D01*
X0381900Y0138912D01*
X0380641Y0140171D01*
X0381340Y0140870D02*
X0382200Y0140870D01*
X0382200Y0139272D02*
X0381540Y0139272D01*
X0381900Y0137673D02*
X0382200Y0137673D01*
X0382200Y0136075D02*
X0381900Y0136075D01*
X0381689Y0134476D02*
X0382200Y0134476D01*
X0382200Y0132878D02*
X0380090Y0132878D01*
X0379533Y0131279D02*
X0382200Y0131279D01*
X0382200Y0129681D02*
X0381132Y0129681D01*
X0381900Y0124700D02*
X0384700Y0124700D01*
X0384700Y0026400D01*
X0375605Y0026400D01*
X0375206Y0026800D01*
X0373515Y0027500D01*
X0369070Y0027500D01*
X0366870Y0029700D01*
X0380170Y0029700D01*
X0381400Y0030930D01*
X0381400Y0032670D01*
X0381400Y0042670D01*
X0380170Y0043900D01*
X0375170Y0048900D01*
X0368900Y0048900D01*
X0368900Y0111700D01*
X0368912Y0111700D01*
X0371800Y0114588D01*
X0374688Y0111700D01*
X0378912Y0111700D01*
X0381900Y0114688D01*
X0381900Y0118912D01*
X0379012Y0121800D01*
X0381900Y0124688D01*
X0381900Y0124700D01*
X0380499Y0123287D02*
X0384700Y0123287D01*
X0384700Y0121688D02*
X0379124Y0121688D01*
X0380723Y0120090D02*
X0384700Y0120090D01*
X0384700Y0118491D02*
X0381900Y0118491D01*
X0381900Y0116893D02*
X0384700Y0116893D01*
X0384700Y0115294D02*
X0381900Y0115294D01*
X0380908Y0113696D02*
X0384700Y0113696D01*
X0384700Y0112097D02*
X0379310Y0112097D01*
X0384700Y0110499D02*
X0368900Y0110499D01*
X0368900Y0108900D02*
X0384700Y0108900D01*
X0384700Y0107302D02*
X0368900Y0107302D01*
X0368900Y0105703D02*
X0384700Y0105703D01*
X0384700Y0104105D02*
X0368900Y0104105D01*
X0368900Y0102506D02*
X0384700Y0102506D01*
X0384700Y0100908D02*
X0368900Y0100908D01*
X0368900Y0099309D02*
X0384700Y0099309D01*
X0384700Y0097711D02*
X0368900Y0097711D01*
X0368900Y0096112D02*
X0384700Y0096112D01*
X0384700Y0094514D02*
X0368900Y0094514D01*
X0368900Y0092915D02*
X0384700Y0092915D01*
X0384700Y0091317D02*
X0368900Y0091317D01*
X0368900Y0089718D02*
X0384700Y0089718D01*
X0384700Y0088120D02*
X0368900Y0088120D01*
X0368900Y0086521D02*
X0384700Y0086521D01*
X0384700Y0084923D02*
X0368900Y0084923D01*
X0368900Y0083324D02*
X0384700Y0083324D01*
X0384700Y0081726D02*
X0368900Y0081726D01*
X0368900Y0080127D02*
X0384700Y0080127D01*
X0384700Y0078529D02*
X0368900Y0078529D01*
X0368900Y0076930D02*
X0384700Y0076930D01*
X0384700Y0075332D02*
X0368900Y0075332D01*
X0368900Y0073733D02*
X0384700Y0073733D01*
X0384700Y0072134D02*
X0368900Y0072134D01*
X0368900Y0070536D02*
X0384700Y0070536D01*
X0384700Y0068937D02*
X0368900Y0068937D01*
X0368900Y0067339D02*
X0384700Y0067339D01*
X0384700Y0065740D02*
X0368900Y0065740D01*
X0368900Y0064142D02*
X0384700Y0064142D01*
X0384700Y0062543D02*
X0368900Y0062543D01*
X0368900Y0060945D02*
X0384700Y0060945D01*
X0384700Y0059346D02*
X0368900Y0059346D01*
X0368900Y0057748D02*
X0384700Y0057748D01*
X0384700Y0056149D02*
X0368900Y0056149D01*
X0368900Y0054551D02*
X0384700Y0054551D01*
X0384700Y0052952D02*
X0368900Y0052952D01*
X0368900Y0051354D02*
X0384700Y0051354D01*
X0384700Y0049755D02*
X0368900Y0049755D01*
X0364700Y0049755D02*
X0236814Y0049755D01*
X0237670Y0048900D02*
X0232900Y0053670D01*
X0232900Y0055016D01*
X0232352Y0056339D01*
X0231491Y0057200D01*
X0325170Y0057200D01*
X0326400Y0058430D01*
X0326400Y0060170D01*
X0326400Y0080930D01*
X0361700Y0116230D01*
X0361700Y0114688D01*
X0364688Y0111700D01*
X0364700Y0111700D01*
X0364700Y0046870D01*
X0362670Y0048900D01*
X0237670Y0048900D01*
X0235216Y0051354D02*
X0364700Y0051354D01*
X0364700Y0052952D02*
X0233617Y0052952D01*
X0232900Y0054551D02*
X0364700Y0054551D01*
X0364700Y0056149D02*
X0232431Y0056149D01*
X0228584Y0050700D02*
X0227261Y0051248D01*
X0226800Y0051709D01*
X0226400Y0051309D01*
X0226400Y0036400D01*
X0229961Y0036400D01*
X0228994Y0036800D01*
X0227700Y0038094D01*
X0227000Y0039785D01*
X0227000Y0041615D01*
X0227700Y0043306D01*
X0228994Y0044600D01*
X0230685Y0045300D01*
X0235330Y0045300D01*
X0234700Y0045930D01*
X0229930Y0050700D01*
X0228584Y0050700D01*
X0227155Y0051354D02*
X0226445Y0051354D01*
X0226400Y0049755D02*
X0230875Y0049755D01*
X0232473Y0048157D02*
X0226400Y0048157D01*
X0226400Y0046558D02*
X0234072Y0046558D01*
X0229864Y0044960D02*
X0226400Y0044960D01*
X0226400Y0043361D02*
X0227756Y0043361D01*
X0227061Y0041763D02*
X0226400Y0041763D01*
X0226400Y0040164D02*
X0227000Y0040164D01*
X0227505Y0038566D02*
X0226400Y0038566D01*
X0226400Y0036967D02*
X0228827Y0036967D01*
X0222200Y0036967D02*
X0214773Y0036967D01*
X0214606Y0036800D02*
X0215900Y0038094D01*
X0216600Y0039785D01*
X0216600Y0041615D01*
X0215900Y0043306D01*
X0214606Y0044600D01*
X0212915Y0045300D01*
X0205085Y0045300D01*
X0203394Y0044600D01*
X0202100Y0043306D01*
X0201400Y0041615D01*
X0201400Y0039785D01*
X0202100Y0038094D01*
X0203394Y0036800D01*
X0205085Y0036100D01*
X0212915Y0036100D01*
X0214606Y0036800D01*
X0216095Y0038566D02*
X0222200Y0038566D01*
X0222200Y0040164D02*
X0216600Y0040164D01*
X0216539Y0041763D02*
X0222200Y0041763D01*
X0222200Y0043361D02*
X0215844Y0043361D01*
X0213736Y0044960D02*
X0222200Y0044960D01*
X0222200Y0046558D02*
X0082512Y0046558D01*
X0084110Y0044960D02*
X0094864Y0044960D01*
X0095685Y0045300D02*
X0093994Y0044600D01*
X0092700Y0043306D01*
X0092000Y0041615D01*
X0092000Y0039785D01*
X0092700Y0038094D01*
X0093994Y0036800D01*
X0095685Y0036100D01*
X0103515Y0036100D01*
X0105206Y0036800D01*
X0106500Y0038094D01*
X0107200Y0039785D01*
X0107200Y0041615D01*
X0106500Y0043306D01*
X0105206Y0044600D01*
X0103515Y0045300D01*
X0095685Y0045300D01*
X0092756Y0043361D02*
X0085709Y0043361D01*
X0087307Y0041763D02*
X0092061Y0041763D01*
X0092000Y0040164D02*
X0088906Y0040164D01*
X0090504Y0038566D02*
X0092505Y0038566D01*
X0092103Y0036967D02*
X0093827Y0036967D01*
X0093701Y0035369D02*
X0222200Y0035369D01*
X0222200Y0033900D02*
X0095170Y0033900D01*
X0071870Y0057200D01*
X0222109Y0057200D01*
X0221248Y0056339D01*
X0220700Y0055016D01*
X0220700Y0053584D01*
X0221248Y0052261D01*
X0222200Y0051309D01*
X0222200Y0033900D01*
X0227972Y0025778D02*
X0215628Y0025778D01*
X0216449Y0024179D02*
X0227151Y0024179D01*
X0227000Y0022581D02*
X0216600Y0022581D01*
X0216185Y0020982D02*
X0227415Y0020982D01*
X0228611Y0019384D02*
X0214989Y0019384D01*
X0203011Y0019384D02*
X0195589Y0019384D01*
X0196785Y0020982D02*
X0201815Y0020982D01*
X0201400Y0022581D02*
X0197200Y0022581D01*
X0197049Y0024179D02*
X0201551Y0024179D01*
X0202372Y0025778D02*
X0196228Y0025778D01*
X0193515Y0036100D02*
X0185685Y0036100D01*
X0183994Y0036800D01*
X0182700Y0038094D01*
X0182000Y0039785D01*
X0182000Y0041615D01*
X0182700Y0043306D01*
X0183994Y0044600D01*
X0185685Y0045300D01*
X0193515Y0045300D01*
X0195206Y0044600D01*
X0196500Y0043306D01*
X0197200Y0041615D01*
X0197200Y0039785D01*
X0196500Y0038094D01*
X0195206Y0036800D01*
X0193515Y0036100D01*
X0195373Y0036967D02*
X0203227Y0036967D01*
X0201905Y0038566D02*
X0196695Y0038566D01*
X0197200Y0040164D02*
X0201400Y0040164D01*
X0201461Y0041763D02*
X0197139Y0041763D01*
X0196444Y0043361D02*
X0202156Y0043361D01*
X0204264Y0044960D02*
X0194336Y0044960D01*
X0184864Y0044960D02*
X0168736Y0044960D01*
X0167915Y0045300D02*
X0160085Y0045300D01*
X0158394Y0044600D01*
X0157100Y0043306D01*
X0156400Y0041615D01*
X0156400Y0039785D01*
X0157100Y0038094D01*
X0158394Y0036800D01*
X0160085Y0036100D01*
X0167915Y0036100D01*
X0169606Y0036800D01*
X0170900Y0038094D01*
X0171600Y0039785D01*
X0171600Y0041615D01*
X0170900Y0043306D01*
X0169606Y0044600D01*
X0167915Y0045300D01*
X0170844Y0043361D02*
X0182756Y0043361D01*
X0182061Y0041763D02*
X0171539Y0041763D01*
X0171600Y0040164D02*
X0182000Y0040164D01*
X0182505Y0038566D02*
X0171095Y0038566D01*
X0169773Y0036967D02*
X0183827Y0036967D01*
X0182972Y0025778D02*
X0170628Y0025778D01*
X0171449Y0024179D02*
X0182151Y0024179D01*
X0182000Y0022581D02*
X0171600Y0022581D01*
X0171185Y0020982D02*
X0182415Y0020982D01*
X0183611Y0019384D02*
X0169989Y0019384D01*
X0158011Y0019384D02*
X0150589Y0019384D01*
X0151785Y0020982D02*
X0156815Y0020982D01*
X0156400Y0022581D02*
X0152200Y0022581D01*
X0152049Y0024179D02*
X0156551Y0024179D01*
X0157372Y0025778D02*
X0151228Y0025778D01*
X0148515Y0036100D02*
X0140685Y0036100D01*
X0138994Y0036800D01*
X0137700Y0038094D01*
X0137000Y0039785D01*
X0137000Y0041615D01*
X0137700Y0043306D01*
X0138994Y0044600D01*
X0140685Y0045300D01*
X0148515Y0045300D01*
X0150206Y0044600D01*
X0151500Y0043306D01*
X0152200Y0041615D01*
X0152200Y0039785D01*
X0151500Y0038094D01*
X0150206Y0036800D01*
X0148515Y0036100D01*
X0150373Y0036967D02*
X0158227Y0036967D01*
X0156905Y0038566D02*
X0151695Y0038566D01*
X0152200Y0040164D02*
X0156400Y0040164D01*
X0156461Y0041763D02*
X0152139Y0041763D01*
X0151444Y0043361D02*
X0157156Y0043361D01*
X0159264Y0044960D02*
X0149336Y0044960D01*
X0139864Y0044960D02*
X0123736Y0044960D01*
X0122915Y0045300D02*
X0124606Y0044600D01*
X0125900Y0043306D01*
X0126600Y0041615D01*
X0126600Y0039785D01*
X0125900Y0038094D01*
X0124606Y0036800D01*
X0122915Y0036100D01*
X0115085Y0036100D01*
X0113394Y0036800D01*
X0112100Y0038094D01*
X0111400Y0039785D01*
X0111400Y0041615D01*
X0112100Y0043306D01*
X0113394Y0044600D01*
X0115085Y0045300D01*
X0122915Y0045300D01*
X0125844Y0043361D02*
X0137756Y0043361D01*
X0137061Y0041763D02*
X0126539Y0041763D01*
X0126600Y0040164D02*
X0137000Y0040164D01*
X0137505Y0038566D02*
X0126095Y0038566D01*
X0124773Y0036967D02*
X0138827Y0036967D01*
X0137972Y0025778D02*
X0125628Y0025778D01*
X0126449Y0024179D02*
X0137151Y0024179D01*
X0137000Y0022581D02*
X0126600Y0022581D01*
X0126185Y0020982D02*
X0137415Y0020982D01*
X0138611Y0019384D02*
X0124989Y0019384D01*
X0113011Y0019384D02*
X0105589Y0019384D01*
X0106785Y0020982D02*
X0111815Y0020982D01*
X0111400Y0022581D02*
X0107200Y0022581D01*
X0107049Y0024179D02*
X0111551Y0024179D01*
X0112372Y0025778D02*
X0106228Y0025778D01*
X0105373Y0036967D02*
X0113227Y0036967D01*
X0111905Y0038566D02*
X0106695Y0038566D01*
X0107200Y0040164D02*
X0111400Y0040164D01*
X0111461Y0041763D02*
X0107139Y0041763D01*
X0106444Y0043361D02*
X0112156Y0043361D01*
X0114264Y0044960D02*
X0104336Y0044960D01*
X0090958Y0032172D02*
X0006600Y0032172D01*
X0006600Y0033770D02*
X0089360Y0033770D01*
X0087761Y0035369D02*
X0006600Y0035369D01*
X0006600Y0036967D02*
X0023227Y0036967D01*
X0023394Y0036800D02*
X0025085Y0036100D01*
X0032915Y0036100D01*
X0034606Y0036800D01*
X0035900Y0038094D01*
X0036600Y0039785D01*
X0036600Y0041615D01*
X0035900Y0043306D01*
X0034606Y0044600D01*
X0032915Y0045300D01*
X0025085Y0045300D01*
X0023394Y0044600D01*
X0022100Y0043306D01*
X0021400Y0041615D01*
X0021400Y0039785D01*
X0022100Y0038094D01*
X0023394Y0036800D01*
X0021905Y0038566D02*
X0006600Y0038566D01*
X0006600Y0040164D02*
X0021400Y0040164D01*
X0021461Y0041763D02*
X0006600Y0041763D01*
X0006600Y0043361D02*
X0022156Y0043361D01*
X0024264Y0044960D02*
X0006600Y0044960D01*
X0006600Y0046558D02*
X0076572Y0046558D01*
X0074973Y0048157D02*
X0006600Y0048157D01*
X0006600Y0049755D02*
X0073375Y0049755D01*
X0071776Y0051354D02*
X0006600Y0051354D01*
X0006600Y0052952D02*
X0070178Y0052952D01*
X0068579Y0054551D02*
X0006600Y0054551D01*
X0006600Y0056149D02*
X0036981Y0056149D01*
X0035382Y0057748D02*
X0006600Y0057748D01*
X0006600Y0059346D02*
X0033784Y0059346D01*
X0032185Y0060945D02*
X0006600Y0060945D01*
X0006600Y0062543D02*
X0030587Y0062543D01*
X0028988Y0064142D02*
X0006600Y0064142D01*
X0006600Y0065740D02*
X0027390Y0065740D01*
X0025791Y0067339D02*
X0006600Y0067339D01*
X0006600Y0068937D02*
X0024193Y0068937D01*
X0022594Y0070536D02*
X0006600Y0070536D01*
X0006600Y0072134D02*
X0020996Y0072134D01*
X0019397Y0073733D02*
X0006600Y0073733D01*
X0006600Y0075332D02*
X0017799Y0075332D01*
X0016200Y0076930D02*
X0006600Y0076930D01*
X0006600Y0078529D02*
X0014602Y0078529D01*
X0013003Y0080127D02*
X0006600Y0080127D01*
X0006600Y0081726D02*
X0011405Y0081726D01*
X0009806Y0083324D02*
X0006600Y0083324D01*
X0006600Y0084923D02*
X0009700Y0084923D01*
X0009700Y0086521D02*
X0006600Y0086521D01*
X0006600Y0088120D02*
X0009700Y0088120D01*
X0009700Y0089718D02*
X0006600Y0089718D01*
X0006600Y0091317D02*
X0009700Y0091317D01*
X0009700Y0092915D02*
X0006600Y0092915D01*
X0006600Y0094514D02*
X0009700Y0094514D01*
X0009700Y0096112D02*
X0006600Y0096112D01*
X0006600Y0097711D02*
X0009700Y0097711D01*
X0009700Y0099309D02*
X0006600Y0099309D01*
X0006600Y0100908D02*
X0009700Y0100908D01*
X0009700Y0102506D02*
X0006600Y0102506D01*
X0006600Y0104105D02*
X0009700Y0104105D01*
X0009700Y0105703D02*
X0006600Y0105703D01*
X0006600Y0107302D02*
X0009700Y0107302D01*
X0009700Y0108900D02*
X0006600Y0108900D01*
X0006600Y0110499D02*
X0009700Y0110499D01*
X0009700Y0112097D02*
X0006600Y0112097D01*
X0006600Y0113696D02*
X0009700Y0113696D01*
X0009700Y0115294D02*
X0006600Y0115294D01*
X0006600Y0116893D02*
X0009700Y0116893D01*
X0009700Y0118491D02*
X0006600Y0118491D01*
X0006600Y0120090D02*
X0009700Y0120090D01*
X0009700Y0121688D02*
X0006600Y0121688D01*
X0006600Y0123287D02*
X0009700Y0123287D01*
X0009700Y0124885D02*
X0006600Y0124885D01*
X0006600Y0126484D02*
X0009700Y0126484D01*
X0009700Y0128082D02*
X0006600Y0128082D01*
X0006600Y0129681D02*
X0009700Y0129681D01*
X0009700Y0131279D02*
X0006600Y0131279D01*
X0006600Y0132878D02*
X0009700Y0132878D01*
X0009700Y0134476D02*
X0006600Y0134476D01*
X0006600Y0136075D02*
X0009700Y0136075D01*
X0009700Y0137673D02*
X0006600Y0137673D01*
X0006600Y0139272D02*
X0009700Y0139272D01*
X0009700Y0140870D02*
X0006600Y0140870D01*
X0006600Y0142469D02*
X0009700Y0142469D01*
X0009700Y0144068D02*
X0006600Y0144068D01*
X0006600Y0145666D02*
X0009700Y0145666D01*
X0009700Y0147265D02*
X0006600Y0147265D01*
X0006600Y0148863D02*
X0009700Y0148863D01*
X0009700Y0150462D02*
X0006600Y0150462D01*
X0006600Y0152060D02*
X0009700Y0152060D01*
X0009700Y0153659D02*
X0006600Y0153659D01*
X0006600Y0155257D02*
X0009700Y0155257D01*
X0009700Y0156856D02*
X0006600Y0156856D01*
X0006600Y0158454D02*
X0009700Y0158454D01*
X0009700Y0160053D02*
X0006600Y0160053D01*
X0006600Y0161651D02*
X0009700Y0161651D01*
X0009700Y0163250D02*
X0006600Y0163250D01*
X0006600Y0164848D02*
X0009700Y0164848D01*
X0009700Y0166447D02*
X0006600Y0166447D01*
X0006600Y0168045D02*
X0009700Y0168045D01*
X0009700Y0169644D02*
X0006600Y0169644D01*
X0006600Y0171242D02*
X0009700Y0171242D01*
X0009700Y0172841D02*
X0006600Y0172841D01*
X0006600Y0174439D02*
X0009700Y0174439D01*
X0009700Y0176038D02*
X0006600Y0176038D01*
X0006600Y0177636D02*
X0009700Y0177636D01*
X0009700Y0179235D02*
X0006600Y0179235D01*
X0006600Y0180833D02*
X0009700Y0180833D01*
X0009700Y0182432D02*
X0006600Y0182432D01*
X0006600Y0184030D02*
X0009700Y0184030D01*
X0009700Y0185629D02*
X0006600Y0185629D01*
X0006600Y0187227D02*
X0009700Y0187227D01*
X0009700Y0188826D02*
X0006600Y0188826D01*
X0006600Y0190424D02*
X0009700Y0190424D01*
X0009700Y0192023D02*
X0006600Y0192023D01*
X0006600Y0193621D02*
X0009700Y0193621D01*
X0009700Y0195220D02*
X0006600Y0195220D01*
X0006600Y0196818D02*
X0009700Y0196818D01*
X0009700Y0198417D02*
X0006600Y0198417D01*
X0006600Y0200015D02*
X0009700Y0200015D01*
X0009700Y0201614D02*
X0006600Y0201614D01*
X0006600Y0203212D02*
X0009700Y0203212D01*
X0009700Y0204811D02*
X0006600Y0204811D01*
X0006600Y0206409D02*
X0009700Y0206409D01*
X0009700Y0208008D02*
X0006600Y0208008D01*
X0006600Y0209606D02*
X0009700Y0209606D01*
X0009700Y0211205D02*
X0006600Y0211205D01*
X0006600Y0212803D02*
X0009700Y0212803D01*
X0009700Y0214402D02*
X0006600Y0214402D01*
X0006600Y0216001D02*
X0009700Y0216001D01*
X0009700Y0217599D02*
X0006600Y0217599D01*
X0006600Y0219198D02*
X0009700Y0219198D01*
X0009700Y0220796D02*
X0006600Y0220796D01*
X0006600Y0222395D02*
X0009700Y0222395D01*
X0009700Y0223993D02*
X0006600Y0223993D01*
X0006600Y0225592D02*
X0009700Y0225592D01*
X0009700Y0227190D02*
X0006600Y0227190D01*
X0006600Y0228789D02*
X0009700Y0228789D01*
X0009700Y0230387D02*
X0006600Y0230387D01*
X0006600Y0231986D02*
X0009700Y0231986D01*
X0010614Y0233584D02*
X0006600Y0233584D01*
X0006600Y0235183D02*
X0016500Y0235183D01*
X0016500Y0236781D02*
X0006600Y0236781D01*
X0006600Y0238380D02*
X0016500Y0238380D01*
X0017483Y0239978D02*
X0006600Y0239978D01*
X0006600Y0241577D02*
X0019081Y0241577D01*
X0017929Y0243175D02*
X0006600Y0243175D01*
X0006600Y0244774D02*
X0016500Y0244774D01*
X0016500Y0246372D02*
X0006600Y0246372D01*
X0006600Y0247971D02*
X0016500Y0247971D01*
X0017074Y0249569D02*
X0006600Y0249569D01*
X0006600Y0251168D02*
X0018672Y0251168D01*
X0018338Y0252766D02*
X0006600Y0252766D01*
X0006600Y0254365D02*
X0016740Y0254365D01*
X0016500Y0255963D02*
X0006600Y0255963D01*
X0006600Y0257562D02*
X0016500Y0257562D01*
X0016665Y0259160D02*
X0006600Y0259160D01*
X0006600Y0260759D02*
X0012371Y0260759D01*
X0012200Y0262357D02*
X0006600Y0262357D01*
X0006600Y0263956D02*
X0012200Y0263956D01*
X0012200Y0265554D02*
X0006600Y0265554D01*
X0006600Y0267153D02*
X0012200Y0267153D01*
X0012200Y0268751D02*
X0006600Y0268751D01*
X0006600Y0270350D02*
X0012200Y0270350D01*
X0012200Y0271948D02*
X0006600Y0271948D01*
X0006600Y0273547D02*
X0012200Y0273547D01*
X0012200Y0275145D02*
X0006600Y0275145D01*
X0006600Y0276744D02*
X0012200Y0276744D01*
X0012200Y0278342D02*
X0006600Y0278342D01*
X0006600Y0279941D02*
X0012200Y0279941D01*
X0012200Y0281539D02*
X0006600Y0281539D01*
X0006600Y0283138D02*
X0012200Y0283138D01*
X0012200Y0284737D02*
X0006600Y0284737D01*
X0006600Y0286335D02*
X0012200Y0286335D01*
X0012464Y0287934D02*
X0006600Y0287934D01*
X0006600Y0289532D02*
X0014062Y0289532D01*
X0015661Y0291131D02*
X0006600Y0291131D01*
X0006600Y0292729D02*
X0017259Y0292729D01*
X0018858Y0294328D02*
X0006600Y0294328D01*
X0006600Y0295926D02*
X0020456Y0295926D01*
X0022055Y0297525D02*
X0006600Y0297525D01*
X0006600Y0299123D02*
X0023653Y0299123D01*
X0025252Y0300722D02*
X0006600Y0300722D01*
X0006600Y0302320D02*
X0026850Y0302320D01*
X0028449Y0303919D02*
X0006600Y0303919D01*
X0006600Y0305517D02*
X0030047Y0305517D01*
X0031646Y0307116D02*
X0006600Y0307116D01*
X0006600Y0308714D02*
X0033244Y0308714D01*
X0034843Y0310313D02*
X0006600Y0310313D01*
X0006600Y0311911D02*
X0390701Y0311911D01*
X0390701Y0311961D02*
X0390701Y0006600D01*
X0006600Y0006600D01*
X0006600Y0311961D01*
X0390701Y0311961D01*
X0373448Y0249569D02*
X0360152Y0249569D01*
X0360895Y0243175D02*
X0372838Y0243175D01*
X0378900Y0233704D02*
X0379700Y0233704D01*
X0379700Y0224699D01*
X0378900Y0224699D01*
X0378900Y0233704D01*
X0378900Y0233584D02*
X0379700Y0233584D01*
X0379700Y0231986D02*
X0378900Y0231986D01*
X0378900Y0230387D02*
X0379700Y0230387D01*
X0379700Y0228789D02*
X0378900Y0228789D01*
X0378900Y0227190D02*
X0379700Y0227190D01*
X0379700Y0225592D02*
X0378900Y0225592D01*
X0378900Y0208901D02*
X0378900Y0204791D01*
X0379700Y0203991D01*
X0379700Y0208901D01*
X0378900Y0208901D01*
X0378900Y0208008D02*
X0379700Y0208008D01*
X0379700Y0206409D02*
X0378900Y0206409D01*
X0378900Y0204811D02*
X0379700Y0204811D01*
X0383900Y0196818D02*
X0390701Y0196818D01*
X0390701Y0195220D02*
X0383900Y0195220D01*
X0383900Y0193621D02*
X0390701Y0193621D01*
X0390701Y0192023D02*
X0383900Y0192023D01*
X0383900Y0190424D02*
X0390701Y0190424D01*
X0390701Y0188826D02*
X0383900Y0188826D01*
X0383900Y0187227D02*
X0390701Y0187227D01*
X0390701Y0185629D02*
X0383900Y0185629D01*
X0383900Y0184030D02*
X0390701Y0184030D01*
X0390701Y0182432D02*
X0383900Y0182432D01*
X0383900Y0180833D02*
X0390701Y0180833D01*
X0390701Y0179235D02*
X0383900Y0179235D01*
X0383900Y0177636D02*
X0390701Y0177636D01*
X0390701Y0176038D02*
X0383900Y0176038D01*
X0383900Y0174439D02*
X0390701Y0174439D01*
X0390701Y0172841D02*
X0383900Y0172841D01*
X0383900Y0171242D02*
X0390701Y0171242D01*
X0390701Y0169644D02*
X0382614Y0169644D01*
X0383525Y0168045D02*
X0390701Y0168045D01*
X0390701Y0166447D02*
X0385123Y0166447D01*
X0386722Y0164848D02*
X0390701Y0164848D01*
X0390701Y0163250D02*
X0388320Y0163250D01*
X0388900Y0161651D02*
X0390701Y0161651D01*
X0390701Y0160053D02*
X0388900Y0160053D01*
X0388900Y0158454D02*
X0390701Y0158454D01*
X0390701Y0156856D02*
X0388900Y0156856D01*
X0388900Y0155257D02*
X0390701Y0155257D01*
X0390701Y0153659D02*
X0388900Y0153659D01*
X0388900Y0152060D02*
X0390701Y0152060D01*
X0390701Y0150462D02*
X0388900Y0150462D01*
X0388900Y0148863D02*
X0390701Y0148863D01*
X0390701Y0147265D02*
X0388900Y0147265D01*
X0388900Y0145666D02*
X0390701Y0145666D01*
X0390701Y0144068D02*
X0388900Y0144068D01*
X0388900Y0142469D02*
X0390701Y0142469D01*
X0390701Y0140870D02*
X0388900Y0140870D01*
X0388900Y0139272D02*
X0390701Y0139272D01*
X0390701Y0137673D02*
X0388900Y0137673D01*
X0388900Y0136075D02*
X0390701Y0136075D01*
X0390701Y0134476D02*
X0388900Y0134476D01*
X0388900Y0132878D02*
X0390701Y0132878D01*
X0390701Y0131279D02*
X0388900Y0131279D01*
X0388900Y0129681D02*
X0390701Y0129681D01*
X0390701Y0128082D02*
X0388900Y0128082D01*
X0388900Y0126484D02*
X0390701Y0126484D01*
X0390701Y0124885D02*
X0388900Y0124885D01*
X0388900Y0123287D02*
X0390701Y0123287D01*
X0390701Y0121688D02*
X0388900Y0121688D01*
X0388900Y0120090D02*
X0390701Y0120090D01*
X0390701Y0118491D02*
X0388900Y0118491D01*
X0388900Y0116893D02*
X0390701Y0116893D01*
X0390701Y0115294D02*
X0388900Y0115294D01*
X0388900Y0113696D02*
X0390701Y0113696D01*
X0390701Y0112097D02*
X0388900Y0112097D01*
X0388900Y0110499D02*
X0390701Y0110499D01*
X0390701Y0108900D02*
X0388900Y0108900D01*
X0388900Y0107302D02*
X0390701Y0107302D01*
X0390701Y0105703D02*
X0388900Y0105703D01*
X0388900Y0104105D02*
X0390701Y0104105D01*
X0390701Y0102506D02*
X0388900Y0102506D01*
X0388900Y0100908D02*
X0390701Y0100908D01*
X0390701Y0099309D02*
X0388900Y0099309D01*
X0388900Y0097711D02*
X0390701Y0097711D01*
X0390701Y0096112D02*
X0388900Y0096112D01*
X0388900Y0094514D02*
X0390701Y0094514D01*
X0390701Y0092915D02*
X0388900Y0092915D01*
X0388900Y0091317D02*
X0390701Y0091317D01*
X0390701Y0089718D02*
X0388900Y0089718D01*
X0388900Y0088120D02*
X0390701Y0088120D01*
X0390701Y0086521D02*
X0388900Y0086521D01*
X0388900Y0084923D02*
X0390701Y0084923D01*
X0390701Y0083324D02*
X0388900Y0083324D01*
X0388900Y0081726D02*
X0390701Y0081726D01*
X0390701Y0080127D02*
X0388900Y0080127D01*
X0388900Y0078529D02*
X0390701Y0078529D01*
X0390701Y0076930D02*
X0388900Y0076930D01*
X0388900Y0075332D02*
X0390701Y0075332D01*
X0390701Y0073733D02*
X0388900Y0073733D01*
X0388900Y0072134D02*
X0390701Y0072134D01*
X0390701Y0070536D02*
X0388900Y0070536D01*
X0388900Y0068937D02*
X0390701Y0068937D01*
X0390701Y0067339D02*
X0388900Y0067339D01*
X0388900Y0065740D02*
X0390701Y0065740D01*
X0390701Y0064142D02*
X0388900Y0064142D01*
X0388900Y0062543D02*
X0390701Y0062543D01*
X0390701Y0060945D02*
X0388900Y0060945D01*
X0388900Y0059346D02*
X0390701Y0059346D01*
X0390701Y0057748D02*
X0388900Y0057748D01*
X0388900Y0056149D02*
X0390701Y0056149D01*
X0390701Y0054551D02*
X0388900Y0054551D01*
X0388900Y0052952D02*
X0390701Y0052952D01*
X0390701Y0051354D02*
X0388900Y0051354D01*
X0388900Y0049755D02*
X0390701Y0049755D01*
X0390701Y0048157D02*
X0388900Y0048157D01*
X0388900Y0046558D02*
X0390701Y0046558D01*
X0390701Y0044960D02*
X0388900Y0044960D01*
X0388900Y0043361D02*
X0390701Y0043361D01*
X0390701Y0041763D02*
X0388900Y0041763D01*
X0388900Y0040164D02*
X0390701Y0040164D01*
X0390701Y0038566D02*
X0388900Y0038566D01*
X0388900Y0036967D02*
X0390701Y0036967D01*
X0390701Y0035369D02*
X0388900Y0035369D01*
X0388900Y0033770D02*
X0390701Y0033770D01*
X0390701Y0032172D02*
X0388900Y0032172D01*
X0388900Y0030573D02*
X0390701Y0030573D01*
X0390701Y0028975D02*
X0388900Y0028975D01*
X0388900Y0027376D02*
X0390701Y0027376D01*
X0390701Y0025778D02*
X0388900Y0025778D01*
X0388900Y0024179D02*
X0390701Y0024179D01*
X0390701Y0022581D02*
X0388050Y0022581D01*
X0390701Y0020982D02*
X0376785Y0020982D01*
X0375589Y0019384D02*
X0390701Y0019384D01*
X0390701Y0017785D02*
X0006600Y0017785D01*
X0006600Y0016187D02*
X0390701Y0016187D01*
X0390701Y0014588D02*
X0006600Y0014588D01*
X0006600Y0012990D02*
X0390701Y0012990D01*
X0390701Y0011391D02*
X0006600Y0011391D01*
X0006600Y0009793D02*
X0390701Y0009793D01*
X0390701Y0008194D02*
X0006600Y0008194D01*
X0006600Y0019384D02*
X0023011Y0019384D01*
X0023394Y0019000D02*
X0022100Y0020294D01*
X0021400Y0021985D01*
X0021400Y0023815D01*
X0022100Y0025506D01*
X0023394Y0026800D01*
X0025085Y0027500D01*
X0032915Y0027500D01*
X0034606Y0026800D01*
X0035900Y0025506D01*
X0036600Y0023815D01*
X0036600Y0021985D01*
X0035900Y0020294D01*
X0034606Y0019000D01*
X0032915Y0018300D01*
X0025085Y0018300D01*
X0023394Y0019000D01*
X0021815Y0020982D02*
X0006600Y0020982D01*
X0006600Y0022581D02*
X0021400Y0022581D01*
X0021551Y0024179D02*
X0006600Y0024179D01*
X0006600Y0025778D02*
X0022372Y0025778D01*
X0024786Y0027376D02*
X0006600Y0027376D01*
X0006600Y0028975D02*
X0058505Y0028975D01*
X0060103Y0030573D02*
X0006600Y0030573D01*
X0033214Y0027376D02*
X0050386Y0027376D01*
X0047972Y0025778D02*
X0035628Y0025778D01*
X0036449Y0024179D02*
X0047151Y0024179D01*
X0047000Y0022581D02*
X0036600Y0022581D01*
X0036185Y0020982D02*
X0047415Y0020982D01*
X0048611Y0019384D02*
X0034989Y0019384D01*
X0034773Y0036967D02*
X0048827Y0036967D01*
X0048994Y0036800D02*
X0050685Y0036100D01*
X0058515Y0036100D01*
X0060206Y0036800D01*
X0061500Y0038094D01*
X0062200Y0039785D01*
X0062200Y0041615D01*
X0061500Y0043306D01*
X0060206Y0044600D01*
X0058515Y0045300D01*
X0050685Y0045300D01*
X0048994Y0044600D01*
X0047700Y0043306D01*
X0047000Y0041615D01*
X0047000Y0039785D01*
X0047700Y0038094D01*
X0048994Y0036800D01*
X0047505Y0038566D02*
X0036095Y0038566D01*
X0036600Y0040164D02*
X0047000Y0040164D01*
X0047061Y0041763D02*
X0036539Y0041763D01*
X0035844Y0043361D02*
X0047756Y0043361D01*
X0049864Y0044960D02*
X0033736Y0044960D01*
X0044928Y0064142D02*
X0266488Y0064142D01*
X0264890Y0065740D02*
X0264280Y0065740D01*
X0267600Y0068970D02*
X0266000Y0070570D01*
X0266000Y0075235D01*
X0265361Y0076779D01*
X0264940Y0077200D01*
X0268660Y0077200D01*
X0268239Y0076779D01*
X0267600Y0075235D01*
X0267600Y0068970D01*
X0267600Y0070536D02*
X0266034Y0070536D01*
X0266000Y0072134D02*
X0267600Y0072134D01*
X0267600Y0073733D02*
X0266000Y0073733D01*
X0265960Y0075332D02*
X0267640Y0075332D01*
X0268390Y0076930D02*
X0265210Y0076930D01*
X0258390Y0076930D02*
X0032140Y0076930D01*
X0033738Y0075332D02*
X0257640Y0075332D01*
X0257600Y0073733D02*
X0035337Y0073733D01*
X0036935Y0072134D02*
X0257600Y0072134D01*
X0257600Y0070536D02*
X0038534Y0070536D01*
X0040132Y0068937D02*
X0257600Y0068937D01*
X0258025Y0067339D02*
X0041731Y0067339D01*
X0043329Y0065740D02*
X0259320Y0065740D01*
X0274940Y0066400D02*
X0275361Y0066821D01*
X0276000Y0068365D01*
X0276000Y0074630D01*
X0277600Y0073030D01*
X0277600Y0068365D01*
X0278239Y0066821D01*
X0278660Y0066400D01*
X0274940Y0066400D01*
X0275575Y0067339D02*
X0278025Y0067339D01*
X0277600Y0068937D02*
X0276000Y0068937D01*
X0276000Y0070536D02*
X0277600Y0070536D01*
X0277600Y0072134D02*
X0276000Y0072134D01*
X0276000Y0073733D02*
X0276897Y0073733D01*
X0278041Y0078529D02*
X0280792Y0078529D01*
X0282808Y0078529D02*
X0285559Y0078529D01*
X0287157Y0080127D02*
X0276443Y0080127D01*
X0288900Y0065740D02*
X0289320Y0065740D01*
X0288900Y0064142D02*
X0319700Y0064142D01*
X0326400Y0064142D02*
X0364700Y0064142D01*
X0364700Y0065740D02*
X0326400Y0065740D01*
X0326400Y0067339D02*
X0364700Y0067339D01*
X0364700Y0068937D02*
X0326400Y0068937D01*
X0326400Y0070536D02*
X0364700Y0070536D01*
X0364700Y0072134D02*
X0326400Y0072134D01*
X0326400Y0073733D02*
X0364700Y0073733D01*
X0364700Y0075332D02*
X0326400Y0075332D01*
X0326400Y0076930D02*
X0364700Y0076930D01*
X0364700Y0078529D02*
X0326400Y0078529D01*
X0326400Y0080127D02*
X0364700Y0080127D01*
X0364700Y0081726D02*
X0327195Y0081726D01*
X0328794Y0083324D02*
X0364700Y0083324D01*
X0364700Y0084923D02*
X0330392Y0084923D01*
X0331991Y0086521D02*
X0364700Y0086521D01*
X0364700Y0088120D02*
X0333589Y0088120D01*
X0335188Y0089718D02*
X0364700Y0089718D01*
X0364700Y0091317D02*
X0336786Y0091317D01*
X0338385Y0092915D02*
X0364700Y0092915D01*
X0364700Y0094514D02*
X0339983Y0094514D01*
X0341582Y0096112D02*
X0364700Y0096112D01*
X0364700Y0097711D02*
X0343181Y0097711D01*
X0344779Y0099309D02*
X0364700Y0099309D01*
X0364700Y0100908D02*
X0346378Y0100908D01*
X0347976Y0102506D02*
X0364700Y0102506D01*
X0364700Y0104105D02*
X0349575Y0104105D01*
X0351173Y0105703D02*
X0364700Y0105703D01*
X0364700Y0107302D02*
X0352772Y0107302D01*
X0354370Y0108900D02*
X0364700Y0108900D01*
X0364700Y0110499D02*
X0355969Y0110499D01*
X0357567Y0112097D02*
X0364290Y0112097D01*
X0362692Y0113696D02*
X0359166Y0113696D01*
X0360764Y0115294D02*
X0361700Y0115294D01*
X0358021Y0118491D02*
X0321400Y0118491D01*
X0321400Y0116893D02*
X0356423Y0116893D01*
X0359620Y0120090D02*
X0321400Y0120090D01*
X0321400Y0121688D02*
X0361219Y0121688D01*
X0362817Y0123287D02*
X0321400Y0123287D01*
X0321400Y0124885D02*
X0361700Y0124885D01*
X0371112Y0123900D02*
X0371800Y0124588D01*
X0372488Y0123900D01*
X0371112Y0123900D01*
X0371132Y0129681D02*
X0372468Y0129681D01*
X0372692Y0113696D02*
X0370908Y0113696D01*
X0369310Y0112097D02*
X0374290Y0112097D01*
X0337200Y0146400D02*
X0336400Y0146400D01*
X0336400Y0147900D01*
X0336613Y0147900D01*
X0336800Y0148087D01*
X0336987Y0147900D01*
X0337200Y0147900D01*
X0337200Y0146400D01*
X0337200Y0147265D02*
X0336400Y0147265D01*
X0332200Y0147265D02*
X0326400Y0147265D01*
X0326400Y0147900D02*
X0326400Y0143900D01*
X0332200Y0143900D01*
X0332200Y0147900D01*
X0331987Y0147900D01*
X0331800Y0148087D01*
X0331613Y0147900D01*
X0326987Y0147900D01*
X0326800Y0148087D01*
X0326613Y0147900D01*
X0326400Y0147900D01*
X0326400Y0145666D02*
X0332200Y0145666D01*
X0332200Y0144068D02*
X0326400Y0144068D01*
X0322200Y0144068D02*
X0321400Y0144068D01*
X0321400Y0145666D02*
X0322200Y0145666D01*
X0322200Y0147265D02*
X0321400Y0147265D01*
X0321400Y0142469D02*
X0322200Y0142469D01*
X0322260Y0140870D02*
X0321400Y0140870D01*
X0321660Y0160053D02*
X0321940Y0160053D01*
X0319919Y0161651D02*
X0327200Y0161651D01*
X0326940Y0160053D02*
X0326660Y0160053D01*
X0327780Y0163250D02*
X0318320Y0163250D01*
X0316722Y0164848D02*
X0337257Y0164848D01*
X0346400Y0164700D02*
X0346400Y0163991D01*
X0347109Y0164700D01*
X0346400Y0164700D01*
X0347550Y0158628D02*
X0347550Y0148900D01*
X0358430Y0148900D01*
X0362200Y0152670D01*
X0362959Y0153429D01*
X0361700Y0154688D01*
X0361700Y0158912D01*
X0362488Y0159700D01*
X0352291Y0159700D01*
X0351339Y0158748D01*
X0350016Y0158200D01*
X0348584Y0158200D01*
X0347550Y0158628D01*
X0347550Y0158454D02*
X0347970Y0158454D01*
X0347550Y0156856D02*
X0361700Y0156856D01*
X0361700Y0158454D02*
X0350630Y0158454D01*
X0347550Y0155257D02*
X0361700Y0155257D01*
X0362729Y0153659D02*
X0347550Y0153659D01*
X0347550Y0152060D02*
X0361590Y0152060D01*
X0359992Y0150462D02*
X0347550Y0150462D01*
X0353991Y0163900D02*
X0354791Y0164700D01*
X0361700Y0164700D01*
X0361700Y0164688D01*
X0362488Y0163900D01*
X0353991Y0163900D01*
X0370641Y0173429D02*
X0371800Y0174588D01*
X0374588Y0171800D01*
X0373429Y0170641D01*
X0372670Y0171400D01*
X0370641Y0173429D01*
X0371229Y0172841D02*
X0373547Y0172841D01*
X0374030Y0171242D02*
X0372828Y0171242D01*
X0371948Y0174439D02*
X0371652Y0174439D01*
X0371578Y0179235D02*
X0372022Y0179235D01*
X0373621Y0180833D02*
X0369979Y0180833D01*
X0365400Y0182432D02*
X0379700Y0182432D01*
X0379700Y0184030D02*
X0364661Y0184030D01*
X0372567Y0193621D02*
X0347550Y0193621D01*
X0347550Y0192023D02*
X0354432Y0192023D01*
X0355978Y0208008D02*
X0359700Y0208008D01*
X0359700Y0224699D02*
X0358900Y0224699D01*
X0358900Y0233704D01*
X0359700Y0233704D01*
X0359700Y0224699D01*
X0359700Y0225592D02*
X0358900Y0225592D01*
X0358900Y0227190D02*
X0359700Y0227190D01*
X0359700Y0228789D02*
X0358900Y0228789D01*
X0358900Y0230387D02*
X0359700Y0230387D01*
X0359700Y0231986D02*
X0358900Y0231986D01*
X0358900Y0233584D02*
X0359700Y0233584D01*
X0381421Y0164209D02*
X0380641Y0163429D01*
X0384700Y0159370D01*
X0384700Y0160930D01*
X0381421Y0164209D01*
X0380820Y0163250D02*
X0382381Y0163250D01*
X0382419Y0161651D02*
X0383979Y0161651D01*
X0384017Y0160053D02*
X0384700Y0160053D01*
X0381900Y0156230D02*
X0382200Y0155930D01*
X0382200Y0153900D01*
X0381112Y0153900D01*
X0381900Y0154688D01*
X0381900Y0156230D01*
X0381900Y0155257D02*
X0382200Y0155257D01*
X0306587Y0159700D02*
X0306491Y0159700D01*
X0306539Y0159652D01*
X0306587Y0159700D01*
X0239609Y0171400D02*
X0218991Y0171400D01*
X0219791Y0172200D01*
X0237670Y0172200D01*
X0238450Y0172980D01*
X0238748Y0172261D01*
X0239609Y0171400D01*
X0238508Y0172841D02*
X0238311Y0172841D01*
X0237166Y0177636D02*
X0218153Y0177636D01*
X0164646Y0148863D02*
X0129874Y0148863D01*
X0116795Y0147265D02*
X0040234Y0147265D01*
X0037100Y0145666D02*
X0115196Y0145666D01*
X0113598Y0144068D02*
X0094624Y0144068D01*
X0095400Y0142469D02*
X0111999Y0142469D01*
X0110401Y0140870D02*
X0095312Y0140870D01*
X0094363Y0139272D02*
X0108802Y0139272D01*
X0110949Y0129681D02*
X0089010Y0129681D01*
X0090165Y0128082D02*
X0112548Y0128082D01*
X0111393Y0126484D02*
X0100100Y0126484D01*
X0100100Y0124885D02*
X0110700Y0124885D01*
X0110823Y0123287D02*
X0100100Y0123287D01*
X0100024Y0121688D02*
X0111820Y0121688D01*
X0115540Y0120090D02*
X0100100Y0120090D01*
X0087900Y0112730D02*
X0087900Y0111987D01*
X0088087Y0111800D01*
X0087900Y0111613D01*
X0087900Y0111400D01*
X0077291Y0111400D01*
X0076339Y0112352D01*
X0075016Y0112900D01*
X0073584Y0112900D01*
X0072261Y0112352D01*
X0071248Y0111339D01*
X0070700Y0110016D01*
X0070700Y0108584D01*
X0071248Y0107261D01*
X0072261Y0106248D01*
X0073584Y0105700D01*
X0075016Y0105700D01*
X0076339Y0106248D01*
X0077291Y0107200D01*
X0082109Y0107200D01*
X0081248Y0106339D01*
X0080700Y0105016D01*
X0080700Y0103584D01*
X0081248Y0102261D01*
X0082261Y0101248D01*
X0083584Y0100700D01*
X0085016Y0100700D01*
X0086339Y0101248D01*
X0087291Y0102200D01*
X0087900Y0102200D01*
X0087900Y0101987D01*
X0088087Y0101800D01*
X0087900Y0101613D01*
X0087900Y0096987D01*
X0088087Y0096800D01*
X0087900Y0096613D01*
X0087900Y0095241D01*
X0087516Y0095400D01*
X0086084Y0095400D01*
X0084761Y0094852D01*
X0083809Y0093900D01*
X0036395Y0093900D01*
X0037100Y0094605D01*
X0037100Y0098995D01*
X0034295Y0101800D01*
X0037100Y0104605D01*
X0037100Y0108995D01*
X0037033Y0109063D01*
X0057670Y0129700D01*
X0074609Y0129700D01*
X0073748Y0128839D01*
X0073200Y0127516D01*
X0073200Y0126084D01*
X0073748Y0124761D01*
X0074761Y0123748D01*
X0076084Y0123200D01*
X0077430Y0123200D01*
X0087200Y0113430D01*
X0087900Y0112730D01*
X0087900Y0112097D02*
X0076594Y0112097D01*
X0072006Y0112097D02*
X0040067Y0112097D01*
X0038469Y0110499D02*
X0070900Y0110499D01*
X0070700Y0108900D02*
X0037100Y0108900D01*
X0037100Y0107302D02*
X0071231Y0107302D01*
X0073576Y0105703D02*
X0037100Y0105703D01*
X0036600Y0104105D02*
X0080700Y0104105D01*
X0080985Y0105703D02*
X0075024Y0105703D01*
X0081146Y0102506D02*
X0035002Y0102506D01*
X0035188Y0100908D02*
X0083082Y0100908D01*
X0085518Y0100908D02*
X0087900Y0100908D01*
X0087900Y0099309D02*
X0036786Y0099309D01*
X0037100Y0097711D02*
X0087900Y0097711D01*
X0087900Y0096112D02*
X0037100Y0096112D01*
X0037009Y0094514D02*
X0084422Y0094514D01*
X0087900Y0088120D02*
X0020950Y0088120D01*
X0019352Y0089718D02*
X0025912Y0089718D01*
X0024700Y0091317D02*
X0018900Y0091317D01*
X0022549Y0086521D02*
X0088366Y0086521D01*
X0095708Y0084923D02*
X0024147Y0084923D01*
X0024700Y0101395D02*
X0024295Y0101800D01*
X0024700Y0102205D01*
X0024700Y0101395D01*
X0028900Y0101395D02*
X0028900Y0102205D01*
X0029305Y0101800D01*
X0028900Y0101395D01*
X0019305Y0101800D02*
X0018900Y0102205D01*
X0018900Y0101395D01*
X0019305Y0101800D01*
X0018900Y0111395D02*
X0018900Y0112205D01*
X0019305Y0111800D01*
X0018900Y0111395D01*
X0018900Y0112097D02*
X0019007Y0112097D01*
X0024295Y0111800D02*
X0024700Y0111395D01*
X0024700Y0112205D01*
X0024295Y0111800D01*
X0024593Y0112097D02*
X0024700Y0112097D01*
X0028900Y0112097D02*
X0029007Y0112097D01*
X0028900Y0112205D02*
X0029305Y0111800D01*
X0028900Y0111395D01*
X0028900Y0112205D01*
X0037100Y0115070D02*
X0037100Y0118995D01*
X0037033Y0119063D01*
X0050170Y0132200D01*
X0054230Y0132200D01*
X0037100Y0115070D01*
X0037100Y0115294D02*
X0037324Y0115294D01*
X0037100Y0116893D02*
X0038923Y0116893D01*
X0040521Y0118491D02*
X0037100Y0118491D01*
X0038060Y0120090D02*
X0042120Y0120090D01*
X0043719Y0121688D02*
X0039658Y0121688D01*
X0041257Y0123287D02*
X0045317Y0123287D01*
X0046916Y0124885D02*
X0042855Y0124885D01*
X0044454Y0126484D02*
X0048514Y0126484D01*
X0050113Y0128082D02*
X0046052Y0128082D01*
X0047651Y0129681D02*
X0051711Y0129681D01*
X0053310Y0131279D02*
X0049249Y0131279D01*
X0046507Y0134476D02*
X0036972Y0134476D01*
X0037100Y0134605D02*
X0037100Y0134700D01*
X0046730Y0134700D01*
X0037100Y0125070D01*
X0037100Y0128995D01*
X0034295Y0131800D01*
X0037100Y0134605D01*
X0035373Y0132878D02*
X0044908Y0132878D01*
X0043310Y0131279D02*
X0034816Y0131279D01*
X0036414Y0129681D02*
X0041711Y0129681D01*
X0040113Y0128082D02*
X0037100Y0128082D01*
X0037100Y0126484D02*
X0038514Y0126484D01*
X0029305Y0121800D02*
X0028900Y0122205D01*
X0028900Y0121395D01*
X0029305Y0121800D01*
X0029193Y0121688D02*
X0028900Y0121688D01*
X0026800Y0129295D02*
X0024295Y0131800D01*
X0026800Y0134305D01*
X0029305Y0131800D01*
X0026800Y0129295D01*
X0026414Y0129681D02*
X0027186Y0129681D01*
X0028784Y0131279D02*
X0024816Y0131279D01*
X0025373Y0132878D02*
X0028227Y0132878D01*
X0036395Y0139700D02*
X0088809Y0139700D01*
X0089609Y0138900D01*
X0037100Y0138900D01*
X0037100Y0138995D01*
X0036395Y0139700D01*
X0036823Y0139272D02*
X0089237Y0139272D01*
X0088976Y0144068D02*
X0036563Y0144068D01*
X0027205Y0143900D02*
X0026395Y0143900D01*
X0026800Y0144305D01*
X0027205Y0143900D01*
X0027037Y0144068D02*
X0026563Y0144068D01*
X0019305Y0141800D02*
X0018900Y0142205D01*
X0018900Y0141395D01*
X0019305Y0141800D01*
X0018900Y0132205D02*
X0019305Y0131800D01*
X0018900Y0131395D01*
X0018900Y0132205D01*
X0018900Y0122205D02*
X0019305Y0121800D01*
X0018900Y0121395D01*
X0018900Y0122205D01*
X0018900Y0121688D02*
X0019193Y0121688D01*
X0041666Y0113696D02*
X0086934Y0113696D01*
X0085336Y0115294D02*
X0043264Y0115294D01*
X0044863Y0116893D02*
X0083737Y0116893D01*
X0082139Y0118491D02*
X0046461Y0118491D01*
X0048060Y0120090D02*
X0080540Y0120090D01*
X0078942Y0121688D02*
X0049658Y0121688D01*
X0051257Y0123287D02*
X0075874Y0123287D01*
X0073696Y0124885D02*
X0052855Y0124885D01*
X0054454Y0126484D02*
X0073200Y0126484D01*
X0073435Y0128082D02*
X0056052Y0128082D01*
X0057651Y0129681D02*
X0074590Y0129681D01*
X0078991Y0129700D02*
X0079300Y0129391D01*
X0079609Y0129700D01*
X0078991Y0129700D01*
X0079010Y0129681D02*
X0079590Y0129681D01*
X0083991Y0129700D02*
X0084300Y0129391D01*
X0084609Y0129700D01*
X0083991Y0129700D01*
X0084010Y0129681D02*
X0084590Y0129681D01*
X0086491Y0107200D02*
X0087900Y0107200D01*
X0087900Y0106987D01*
X0088087Y0106800D01*
X0087900Y0106613D01*
X0087900Y0106400D01*
X0087291Y0106400D01*
X0086491Y0107200D01*
X0100100Y0102506D02*
X0115133Y0102506D01*
X0113809Y0097200D02*
X0114209Y0096800D01*
X0113809Y0096400D01*
X0100100Y0096400D01*
X0100100Y0096613D01*
X0099913Y0096800D01*
X0100100Y0096987D01*
X0100100Y0097200D01*
X0113809Y0097200D01*
X0114692Y0091317D02*
X0100100Y0091317D01*
X0118908Y0091317D02*
X0119692Y0091317D01*
X0135113Y0086400D02*
X0177109Y0086400D01*
X0176309Y0087200D01*
X0135700Y0087200D01*
X0135700Y0086987D01*
X0135113Y0086400D01*
X0135234Y0086521D02*
X0176988Y0086521D01*
X0182900Y0089718D02*
X0182900Y0089718D01*
X0182900Y0091317D02*
X0182361Y0091317D01*
X0182900Y0092915D02*
X0135700Y0092915D01*
X0164280Y0121688D02*
X0182976Y0121688D01*
X0182900Y0126400D02*
X0164791Y0126400D01*
X0163991Y0127200D01*
X0183487Y0127200D01*
X0182900Y0126613D01*
X0182900Y0126400D01*
X0182900Y0126484D02*
X0164707Y0126484D01*
X0158893Y0126484D02*
X0152900Y0126484D01*
X0152404Y0124885D02*
X0158200Y0124885D01*
X0176400Y0117200D02*
X0177109Y0117200D01*
X0176400Y0116491D01*
X0176400Y0117200D01*
X0176400Y0116893D02*
X0176802Y0116893D01*
X0181491Y0117200D02*
X0182900Y0117200D01*
X0182900Y0116987D01*
X0183087Y0116800D01*
X0182900Y0116613D01*
X0182900Y0116400D01*
X0182291Y0116400D01*
X0181491Y0117200D01*
X0181798Y0116893D02*
X0182994Y0116893D01*
X0221169Y0056149D02*
X0072920Y0056149D01*
X0074519Y0054551D02*
X0220700Y0054551D01*
X0220962Y0052952D02*
X0076117Y0052952D01*
X0077716Y0051354D02*
X0222155Y0051354D01*
X0222200Y0049755D02*
X0079314Y0049755D01*
X0080913Y0048157D02*
X0222200Y0048157D01*
X0226800Y0056891D02*
X0227109Y0057200D01*
X0226491Y0057200D01*
X0226800Y0056891D01*
X0239963Y0044700D02*
X0240206Y0044600D01*
X0241500Y0043306D01*
X0242200Y0041615D01*
X0242200Y0039785D01*
X0241500Y0038094D01*
X0240206Y0036800D01*
X0239239Y0036400D01*
X0249361Y0036400D01*
X0248394Y0036800D01*
X0247100Y0038094D01*
X0246400Y0039785D01*
X0246400Y0041615D01*
X0247100Y0043306D01*
X0248394Y0044600D01*
X0248637Y0044700D01*
X0239963Y0044700D01*
X0241444Y0043361D02*
X0247156Y0043361D01*
X0246461Y0041763D02*
X0242139Y0041763D01*
X0242200Y0040164D02*
X0246400Y0040164D01*
X0246905Y0038566D02*
X0241695Y0038566D01*
X0240373Y0036967D02*
X0248227Y0036967D01*
X0258639Y0036400D02*
X0259606Y0036800D01*
X0260900Y0038094D01*
X0261600Y0039785D01*
X0261600Y0041615D01*
X0260900Y0043306D01*
X0259606Y0044600D01*
X0259363Y0044700D01*
X0274237Y0044700D01*
X0273994Y0044600D01*
X0272700Y0043306D01*
X0272000Y0041615D01*
X0272000Y0039785D01*
X0272700Y0038094D01*
X0273994Y0036800D01*
X0274961Y0036400D01*
X0258639Y0036400D01*
X0259773Y0036967D02*
X0273827Y0036967D01*
X0272505Y0038566D02*
X0261095Y0038566D01*
X0261600Y0040164D02*
X0272000Y0040164D01*
X0272061Y0041763D02*
X0261539Y0041763D01*
X0260844Y0043361D02*
X0272756Y0043361D01*
X0284963Y0044700D02*
X0285206Y0044600D01*
X0286500Y0043306D01*
X0287200Y0041615D01*
X0287200Y0039785D01*
X0286500Y0038094D01*
X0285206Y0036800D01*
X0284239Y0036400D01*
X0294361Y0036400D01*
X0293394Y0036800D01*
X0292100Y0038094D01*
X0291400Y0039785D01*
X0291400Y0041615D01*
X0292100Y0043306D01*
X0293394Y0044600D01*
X0293637Y0044700D01*
X0284963Y0044700D01*
X0286444Y0043361D02*
X0292156Y0043361D01*
X0291461Y0041763D02*
X0287139Y0041763D01*
X0287200Y0040164D02*
X0291400Y0040164D01*
X0291905Y0038566D02*
X0286695Y0038566D01*
X0285373Y0036967D02*
X0293227Y0036967D01*
X0303639Y0036400D02*
X0304606Y0036800D01*
X0305900Y0038094D01*
X0306600Y0039785D01*
X0306600Y0041615D01*
X0305900Y0043306D01*
X0304606Y0044600D01*
X0304363Y0044700D01*
X0319237Y0044700D01*
X0318994Y0044600D01*
X0317700Y0043306D01*
X0317000Y0041615D01*
X0317000Y0039785D01*
X0317700Y0038094D01*
X0318912Y0036882D01*
X0318430Y0036400D01*
X0303639Y0036400D01*
X0304773Y0036967D02*
X0318827Y0036967D01*
X0317505Y0038566D02*
X0306095Y0038566D01*
X0306600Y0040164D02*
X0317000Y0040164D01*
X0317061Y0041763D02*
X0306539Y0041763D01*
X0305844Y0043361D02*
X0317756Y0043361D01*
X0324070Y0036100D02*
X0328515Y0036100D01*
X0330206Y0036800D01*
X0331500Y0038094D01*
X0332200Y0039785D01*
X0332200Y0041615D01*
X0331500Y0043306D01*
X0330206Y0044600D01*
X0329963Y0044700D01*
X0338637Y0044700D01*
X0338394Y0044600D01*
X0337100Y0043306D01*
X0336400Y0041615D01*
X0336400Y0039785D01*
X0337100Y0038094D01*
X0338394Y0036800D01*
X0340085Y0036100D01*
X0347915Y0036100D01*
X0349606Y0036800D01*
X0350900Y0038094D01*
X0351600Y0039785D01*
X0351600Y0041615D01*
X0350900Y0043306D01*
X0349606Y0044600D01*
X0349363Y0044700D01*
X0360930Y0044700D01*
X0362590Y0043040D01*
X0362000Y0041615D01*
X0362000Y0039785D01*
X0362700Y0038094D01*
X0363994Y0036800D01*
X0365685Y0036100D01*
X0373515Y0036100D01*
X0375206Y0036800D01*
X0376500Y0038094D01*
X0377200Y0039785D01*
X0377200Y0040930D01*
X0377200Y0033900D01*
X0321870Y0033900D01*
X0324070Y0036100D01*
X0323339Y0035369D02*
X0377200Y0035369D01*
X0377200Y0036967D02*
X0375373Y0036967D01*
X0376695Y0038566D02*
X0377200Y0038566D01*
X0377200Y0040164D02*
X0377200Y0040164D01*
X0377200Y0040930D02*
X0377200Y0040930D01*
X0380709Y0043361D02*
X0384700Y0043361D01*
X0384700Y0041763D02*
X0381400Y0041763D01*
X0381400Y0040164D02*
X0384700Y0040164D01*
X0384700Y0038566D02*
X0381400Y0038566D01*
X0381400Y0036967D02*
X0384700Y0036967D01*
X0384700Y0035369D02*
X0381400Y0035369D01*
X0381400Y0033770D02*
X0384700Y0033770D01*
X0384700Y0032172D02*
X0381400Y0032172D01*
X0381043Y0030573D02*
X0384700Y0030573D01*
X0384700Y0028975D02*
X0367595Y0028975D01*
X0362972Y0025778D02*
X0350628Y0025778D01*
X0351449Y0024179D02*
X0362151Y0024179D01*
X0362000Y0022581D02*
X0351600Y0022581D01*
X0351185Y0020982D02*
X0362415Y0020982D01*
X0363611Y0019384D02*
X0349989Y0019384D01*
X0338011Y0019384D02*
X0330589Y0019384D01*
X0331785Y0020982D02*
X0336815Y0020982D01*
X0336400Y0022581D02*
X0332200Y0022581D01*
X0332049Y0024179D02*
X0336551Y0024179D01*
X0337372Y0025778D02*
X0331228Y0025778D01*
X0330373Y0036967D02*
X0338227Y0036967D01*
X0336905Y0038566D02*
X0331695Y0038566D01*
X0332200Y0040164D02*
X0336400Y0040164D01*
X0336461Y0041763D02*
X0332139Y0041763D01*
X0331444Y0043361D02*
X0337156Y0043361D01*
X0349773Y0036967D02*
X0363827Y0036967D01*
X0362505Y0038566D02*
X0351095Y0038566D01*
X0351600Y0040164D02*
X0362000Y0040164D01*
X0362061Y0041763D02*
X0351539Y0041763D01*
X0350844Y0043361D02*
X0362269Y0043361D01*
X0363413Y0048157D02*
X0364700Y0048157D01*
X0364700Y0057748D02*
X0325718Y0057748D01*
X0326400Y0059346D02*
X0364700Y0059346D01*
X0364700Y0060945D02*
X0326400Y0060945D01*
X0326400Y0062543D02*
X0364700Y0062543D01*
X0375913Y0048157D02*
X0384700Y0048157D01*
X0384700Y0046558D02*
X0377512Y0046558D01*
X0379110Y0044960D02*
X0384700Y0044960D01*
X0384700Y0027376D02*
X0373814Y0027376D01*
X0318611Y0019384D02*
X0304989Y0019384D01*
X0306185Y0020982D02*
X0317415Y0020982D01*
X0317000Y0022581D02*
X0306600Y0022581D01*
X0306449Y0024179D02*
X0317151Y0024179D01*
X0317972Y0025778D02*
X0305628Y0025778D01*
X0292372Y0025778D02*
X0286248Y0025778D01*
X0287049Y0024179D02*
X0291551Y0024179D01*
X0291400Y0022581D02*
X0287200Y0022581D01*
X0286785Y0020982D02*
X0291815Y0020982D01*
X0293011Y0019384D02*
X0285589Y0019384D01*
X0273611Y0019384D02*
X0259989Y0019384D01*
X0261185Y0020982D02*
X0272415Y0020982D01*
X0272000Y0022581D02*
X0261600Y0022581D01*
X0261449Y0024179D02*
X0272151Y0024179D01*
X0272972Y0025778D02*
X0260628Y0025778D01*
X0247372Y0025778D02*
X0241248Y0025778D01*
X0242049Y0024179D02*
X0246551Y0024179D01*
X0246400Y0022581D02*
X0242200Y0022581D01*
X0241785Y0020982D02*
X0246815Y0020982D01*
X0248011Y0019384D02*
X0240589Y0019384D01*
X0237030Y0027500D02*
X0234070Y0027500D01*
X0231870Y0029700D01*
X0239230Y0029700D01*
X0237030Y0027500D01*
X0238505Y0028975D02*
X0232595Y0028975D01*
X0296491Y0081400D02*
X0297200Y0082109D01*
X0297200Y0081400D01*
X0296491Y0081400D01*
X0296817Y0081726D02*
X0297200Y0081726D01*
X0121282Y0187227D02*
X0091400Y0187227D01*
X0091400Y0188826D02*
X0120700Y0188826D01*
X0120206Y0190424D02*
X0091400Y0190424D01*
X0091400Y0192023D02*
X0118607Y0192023D01*
X0087200Y0192023D02*
X0034518Y0192023D01*
X0034295Y0191800D02*
X0037100Y0194605D01*
X0037100Y0198995D01*
X0035783Y0200313D01*
X0036400Y0200930D01*
X0037670Y0202200D01*
X0084230Y0202200D01*
X0083383Y0201353D01*
X0079838Y0201353D01*
X0078901Y0200415D01*
X0078901Y0193184D01*
X0079838Y0192247D01*
X0086282Y0192247D01*
X0086800Y0192766D01*
X0087200Y0192366D01*
X0087200Y0188900D01*
X0038430Y0188900D01*
X0037100Y0187570D01*
X0037100Y0188995D01*
X0034295Y0191800D01*
X0035671Y0190424D02*
X0087200Y0190424D01*
X0078901Y0193621D02*
X0036117Y0193621D01*
X0037100Y0195220D02*
X0078901Y0195220D01*
X0078901Y0196818D02*
X0037100Y0196818D01*
X0037100Y0198417D02*
X0078901Y0198417D01*
X0078901Y0200015D02*
X0036080Y0200015D01*
X0037084Y0201614D02*
X0083644Y0201614D01*
X0044230Y0184700D02*
X0037100Y0177570D01*
X0037100Y0178995D01*
X0035783Y0180313D01*
X0036400Y0180930D01*
X0040170Y0184700D01*
X0044230Y0184700D01*
X0043560Y0184030D02*
X0039500Y0184030D01*
X0037902Y0182432D02*
X0041962Y0182432D01*
X0040363Y0180833D02*
X0036303Y0180833D01*
X0036861Y0179235D02*
X0038765Y0179235D01*
X0037166Y0177636D02*
X0037100Y0177636D01*
X0027817Y0183287D02*
X0025930Y0181400D01*
X0025313Y0180783D01*
X0024295Y0181800D01*
X0026800Y0184305D01*
X0027817Y0183287D01*
X0027074Y0184030D02*
X0026526Y0184030D01*
X0026962Y0182432D02*
X0024927Y0182432D01*
X0025262Y0180833D02*
X0025363Y0180833D01*
X0019305Y0181800D02*
X0018900Y0181395D01*
X0018900Y0182205D01*
X0019305Y0181800D01*
X0026800Y0189295D02*
X0024295Y0191800D01*
X0026800Y0194305D01*
X0029305Y0191800D01*
X0026800Y0189295D01*
X0025671Y0190424D02*
X0027929Y0190424D01*
X0029082Y0192023D02*
X0024518Y0192023D01*
X0026117Y0193621D02*
X0027483Y0193621D01*
X0019305Y0191800D02*
X0018900Y0192205D01*
X0018900Y0191395D01*
X0019305Y0191800D01*
X0019082Y0192023D02*
X0018900Y0192023D01*
X0018900Y0201395D02*
X0018900Y0202205D01*
X0019305Y0201800D01*
X0018900Y0201395D01*
X0018900Y0201614D02*
X0019119Y0201614D01*
X0026395Y0203900D02*
X0026800Y0204305D01*
X0027205Y0203900D01*
X0026395Y0203900D01*
X0026800Y0209295D02*
X0027205Y0209700D01*
X0026395Y0209700D01*
X0026800Y0209295D01*
X0026489Y0209606D02*
X0027111Y0209606D01*
X0027205Y0213900D02*
X0026395Y0213900D01*
X0026800Y0214305D01*
X0027205Y0213900D01*
X0026800Y0219295D02*
X0027205Y0219700D01*
X0026395Y0219700D01*
X0026800Y0219295D01*
X0026395Y0223900D02*
X0026800Y0224305D01*
X0027205Y0223900D01*
X0026395Y0223900D01*
X0026488Y0223993D02*
X0027112Y0223993D01*
X0026800Y0229295D02*
X0027205Y0229700D01*
X0026395Y0229700D01*
X0026800Y0229295D01*
X0034295Y0231800D02*
X0034700Y0231395D01*
X0034700Y0232205D01*
X0034295Y0231800D01*
X0034481Y0231986D02*
X0034700Y0231986D01*
X0034700Y0241395D02*
X0034295Y0241800D01*
X0034695Y0242200D01*
X0034700Y0242200D01*
X0034700Y0241395D01*
X0034700Y0241577D02*
X0034519Y0241577D01*
X0029305Y0241800D02*
X0026800Y0244305D01*
X0024295Y0241800D01*
X0026800Y0239295D01*
X0029305Y0241800D01*
X0029081Y0241577D02*
X0024519Y0241577D01*
X0025671Y0243175D02*
X0027929Y0243175D01*
X0027483Y0239978D02*
X0026117Y0239978D01*
X0017205Y0229700D02*
X0013900Y0229700D01*
X0013900Y0223900D01*
X0017205Y0223900D01*
X0016500Y0224605D01*
X0016500Y0228995D01*
X0017205Y0229700D01*
X0016500Y0228789D02*
X0013900Y0228789D01*
X0013900Y0227190D02*
X0016500Y0227190D01*
X0016500Y0225592D02*
X0013900Y0225592D01*
X0013900Y0223993D02*
X0017112Y0223993D01*
X0017205Y0219700D02*
X0016500Y0218995D01*
X0016500Y0214605D01*
X0017817Y0213287D01*
X0016400Y0211870D01*
X0016400Y0219700D01*
X0017205Y0219700D01*
X0016702Y0219198D02*
X0016400Y0219198D01*
X0016400Y0217599D02*
X0016500Y0217599D01*
X0016500Y0216001D02*
X0016400Y0216001D01*
X0016400Y0214402D02*
X0016703Y0214402D01*
X0016400Y0212803D02*
X0017334Y0212803D01*
X0037100Y0188826D02*
X0038356Y0188826D01*
X0017817Y0173287D02*
X0016400Y0171870D01*
X0016400Y0174700D01*
X0016500Y0174700D01*
X0016500Y0174605D01*
X0017817Y0173287D01*
X0017371Y0172841D02*
X0016400Y0172841D01*
X0016400Y0174439D02*
X0016665Y0174439D01*
X0026800Y0164305D02*
X0026395Y0163900D01*
X0027205Y0163900D01*
X0026800Y0164305D01*
X0027205Y0159700D02*
X0026800Y0159295D01*
X0026395Y0159700D01*
X0027205Y0159700D01*
X0017205Y0159700D02*
X0016500Y0158995D01*
X0016500Y0154605D01*
X0017205Y0153900D01*
X0016400Y0153900D01*
X0016400Y0159700D01*
X0017205Y0159700D01*
X0016500Y0158454D02*
X0016400Y0158454D01*
X0016400Y0156856D02*
X0016500Y0156856D01*
X0016500Y0155257D02*
X0016400Y0155257D01*
X0026395Y0253900D02*
X0026800Y0254305D01*
X0027205Y0253900D01*
X0026395Y0253900D01*
X0017205Y0263900D02*
X0016400Y0263900D01*
X0016400Y0264700D01*
X0016500Y0264700D01*
X0016500Y0264605D01*
X0017205Y0263900D01*
X0017149Y0263956D02*
X0016400Y0263956D01*
X0018900Y0271395D02*
X0018900Y0272205D01*
X0019305Y0271800D01*
X0018900Y0271395D01*
X0018900Y0271948D02*
X0019156Y0271948D01*
X0024295Y0271800D02*
X0024700Y0271395D01*
X0024700Y0272205D01*
X0024295Y0271800D01*
X0024444Y0271948D02*
X0024700Y0271948D01*
X0028900Y0271948D02*
X0029156Y0271948D01*
X0029305Y0271800D02*
X0028900Y0272205D01*
X0028900Y0271395D01*
X0029305Y0271800D01*
X0036042Y0273547D02*
X0039583Y0273547D01*
X0037985Y0275145D02*
X0037100Y0275145D01*
X0042530Y0281539D02*
X0060700Y0281539D01*
X0060700Y0281084D02*
X0061248Y0279761D01*
X0062109Y0278900D01*
X0045170Y0278900D01*
X0039370Y0284700D01*
X0062109Y0284700D01*
X0061248Y0283839D01*
X0060700Y0282516D01*
X0060700Y0281084D01*
X0061173Y0279941D02*
X0044129Y0279941D01*
X0040932Y0283138D02*
X0060958Y0283138D01*
X0066491Y0284700D02*
X0077670Y0284700D01*
X0078900Y0285930D01*
X0089870Y0296900D01*
X0095763Y0296900D01*
X0096700Y0297837D01*
X0096700Y0304700D01*
X0097770Y0304700D01*
X0097646Y0304576D01*
X0096900Y0302775D01*
X0096900Y0300825D01*
X0097646Y0299024D01*
X0099024Y0297646D01*
X0100825Y0296900D01*
X0102775Y0296900D01*
X0104576Y0297646D01*
X0105954Y0299024D01*
X0106700Y0300825D01*
X0106700Y0302775D01*
X0105954Y0304576D01*
X0105830Y0304700D01*
X0107770Y0304700D01*
X0107646Y0304576D01*
X0106900Y0302775D01*
X0106900Y0300825D01*
X0107646Y0299024D01*
X0109024Y0297646D01*
X0110825Y0296900D01*
X0112775Y0296900D01*
X0114576Y0297646D01*
X0115954Y0299024D01*
X0116700Y0300825D01*
X0116700Y0302775D01*
X0115954Y0304576D01*
X0115830Y0304700D01*
X0148430Y0304700D01*
X0156730Y0296400D01*
X0154895Y0296400D01*
X0152200Y0293705D01*
X0152200Y0290170D01*
X0145930Y0283900D01*
X0067291Y0283900D01*
X0066491Y0284700D01*
X0067291Y0279700D02*
X0147670Y0279700D01*
X0148900Y0280930D01*
X0155170Y0287200D01*
X0158705Y0287200D01*
X0159700Y0288195D01*
X0159700Y0285405D01*
X0158705Y0286400D01*
X0154895Y0286400D01*
X0152200Y0283705D01*
X0152200Y0279895D01*
X0153195Y0278900D01*
X0066491Y0278900D01*
X0067291Y0279700D01*
X0077706Y0284737D02*
X0146767Y0284737D01*
X0148365Y0286335D02*
X0079305Y0286335D01*
X0080903Y0287934D02*
X0149964Y0287934D01*
X0151562Y0289532D02*
X0082502Y0289532D01*
X0084100Y0291131D02*
X0152200Y0291131D01*
X0152200Y0292729D02*
X0085699Y0292729D01*
X0087297Y0294328D02*
X0152822Y0294328D01*
X0154421Y0295926D02*
X0088896Y0295926D01*
X0086153Y0299123D02*
X0085995Y0299123D01*
X0085954Y0299024D02*
X0086700Y0300825D01*
X0086700Y0302775D01*
X0086420Y0303450D01*
X0086900Y0303930D01*
X0086900Y0299870D01*
X0075930Y0288900D01*
X0037100Y0288900D01*
X0037100Y0288995D01*
X0033995Y0292100D01*
X0029605Y0292100D01*
X0026800Y0289295D01*
X0023995Y0292100D01*
X0022570Y0292100D01*
X0037670Y0307200D01*
X0084230Y0307200D01*
X0083450Y0306420D01*
X0082775Y0306700D01*
X0080825Y0306700D01*
X0079024Y0305954D01*
X0077646Y0304576D01*
X0076900Y0302775D01*
X0076900Y0300825D01*
X0077646Y0299024D01*
X0079024Y0297646D01*
X0080825Y0296900D01*
X0082775Y0296900D01*
X0084576Y0297646D01*
X0085954Y0299024D01*
X0086657Y0300722D02*
X0086900Y0300722D01*
X0086900Y0302320D02*
X0086700Y0302320D01*
X0086888Y0303919D02*
X0086900Y0303919D01*
X0084146Y0307116D02*
X0037585Y0307116D01*
X0035987Y0305517D02*
X0078588Y0305517D01*
X0077374Y0303919D02*
X0034388Y0303919D01*
X0032790Y0302320D02*
X0076900Y0302320D01*
X0076943Y0300722D02*
X0031191Y0300722D01*
X0029593Y0299123D02*
X0077605Y0299123D01*
X0079317Y0297525D02*
X0027994Y0297525D01*
X0026396Y0295926D02*
X0082956Y0295926D01*
X0084283Y0297525D02*
X0084555Y0297525D01*
X0081358Y0294328D02*
X0024797Y0294328D01*
X0023199Y0292729D02*
X0079759Y0292729D01*
X0078161Y0291131D02*
X0034965Y0291131D01*
X0036563Y0289532D02*
X0076562Y0289532D01*
X0096387Y0297525D02*
X0099317Y0297525D01*
X0097605Y0299123D02*
X0096700Y0299123D01*
X0096700Y0300722D02*
X0096943Y0300722D01*
X0096900Y0302320D02*
X0096700Y0302320D01*
X0096700Y0303919D02*
X0097374Y0303919D01*
X0106226Y0303919D02*
X0107374Y0303919D01*
X0106900Y0302320D02*
X0106700Y0302320D01*
X0106657Y0300722D02*
X0106943Y0300722D01*
X0107605Y0299123D02*
X0105995Y0299123D01*
X0104283Y0297525D02*
X0109317Y0297525D01*
X0114283Y0297525D02*
X0155606Y0297525D01*
X0154007Y0299123D02*
X0115995Y0299123D01*
X0116657Y0300722D02*
X0152409Y0300722D01*
X0150810Y0302320D02*
X0116700Y0302320D01*
X0116226Y0303919D02*
X0149212Y0303919D01*
X0159439Y0287934D02*
X0159700Y0287934D01*
X0159700Y0286335D02*
X0158770Y0286335D01*
X0154830Y0286335D02*
X0154305Y0286335D01*
X0153231Y0284737D02*
X0152706Y0284737D01*
X0152200Y0283138D02*
X0151108Y0283138D01*
X0152200Y0281539D02*
X0149509Y0281539D01*
X0147911Y0279941D02*
X0152200Y0279941D01*
X0160405Y0278900D02*
X0161205Y0279700D01*
X0161730Y0279700D01*
X0160930Y0278900D01*
X0160405Y0278900D01*
X0163900Y0285405D02*
X0163900Y0288195D01*
X0164700Y0287395D01*
X0164700Y0286205D01*
X0163900Y0285405D01*
X0163900Y0286335D02*
X0164700Y0286335D01*
X0164161Y0287934D02*
X0163900Y0287934D01*
X0178770Y0286335D02*
X0184830Y0286335D01*
X0184161Y0287934D02*
X0179439Y0287934D01*
X0181037Y0289532D02*
X0182563Y0289532D01*
X0182200Y0291131D02*
X0181400Y0291131D01*
X0181400Y0292729D02*
X0182200Y0292729D01*
X0182822Y0294328D02*
X0180778Y0294328D01*
X0179179Y0295926D02*
X0184421Y0295926D01*
X0183231Y0284737D02*
X0180369Y0284737D01*
X0181400Y0283138D02*
X0182200Y0283138D01*
X0182200Y0281539D02*
X0181400Y0281539D01*
X0181400Y0279941D02*
X0182200Y0279941D01*
X0183752Y0278342D02*
X0179848Y0278342D01*
X0028635Y0291131D02*
X0024965Y0291131D01*
X0026563Y0289532D02*
X0027037Y0289532D01*
X0026800Y0284305D02*
X0026395Y0283900D01*
X0027205Y0283900D01*
X0026800Y0284305D01*
X0027205Y0279700D02*
X0026800Y0279295D01*
X0026395Y0279700D01*
X0027205Y0279700D01*
X0017817Y0283287D02*
X0016500Y0284605D01*
X0016500Y0286030D01*
X0016400Y0285930D01*
X0016400Y0281870D01*
X0017817Y0283287D01*
X0017668Y0283138D02*
X0016400Y0283138D01*
X0016400Y0284737D02*
X0016500Y0284737D01*
X0059336Y0044960D02*
X0069264Y0044960D01*
X0067156Y0043361D02*
X0061444Y0043361D01*
X0062139Y0041763D02*
X0066461Y0041763D01*
X0066400Y0040164D02*
X0062200Y0040164D01*
X0061695Y0038566D02*
X0066905Y0038566D01*
X0068227Y0036967D02*
X0060373Y0036967D01*
X0061248Y0025778D02*
X0067372Y0025778D01*
X0066551Y0024179D02*
X0062049Y0024179D01*
X0062200Y0022581D02*
X0066400Y0022581D01*
X0066815Y0020982D02*
X0061785Y0020982D01*
X0060589Y0019384D02*
X0068011Y0019384D01*
X0079989Y0019384D02*
X0093611Y0019384D01*
X0092415Y0020982D02*
X0081185Y0020982D01*
X0081600Y0022581D02*
X0092000Y0022581D01*
X0092151Y0024179D02*
X0081449Y0024179D01*
X0080628Y0025778D02*
X0092972Y0025778D01*
X0086163Y0036967D02*
X0079773Y0036967D01*
X0081095Y0038566D02*
X0084564Y0038566D01*
X0082966Y0040164D02*
X0081600Y0040164D01*
M02*
