%
M48
M72
T01C0.02400
T02C0.03150
T03C0.03200
T04C0.03543
T05C0.04000
%
T01
X156800Y251800
X176800Y261800
X254300Y196800
X251800Y124300
X114300Y124300
X114300Y136800
X196800Y226800
X231800Y151800
X234300Y201800
X124300Y189300
X166800Y151800
X351800Y166800
X206800Y101800
X64300Y281800
X264300Y189300
X311800Y181800
X149300Y126800
X216800Y191800
X74300Y109300
X84300Y104300
X116800Y99300
X116800Y94300
X179300Y89300
X121800Y94300
X179300Y99300
X224300Y54300
X179300Y104300
X229300Y54300
X261800Y231800
X264300Y221800
X271800Y231800
X269300Y221800
X291800Y231800
X289300Y221800
X229300Y211800
X204300Y119300
X244300Y211800
X241800Y179300
X216800Y174300
X196800Y104300
X284300Y211800
X281800Y189300
X216800Y184300
X196800Y99300
X234300Y206800
X201800Y99300
X316800Y204300
X294300Y84300
X239300Y226800
X239300Y96800
X344300Y209300
X316800Y181800
X241800Y174300
X244300Y106800
X376800Y201800
X314300Y111800
X76800Y126800
X81800Y126800
X86800Y126800
X179300Y114300
X179300Y109300
X161800Y124300
X276800Y166800
X281800Y159300
X304300Y156800
X339300Y161800
X349300Y161800
X356800Y189300
X361800Y181800
X374300Y196800
X86800Y91800
X91800Y141800
X171800Y216800
X154300Y199300
X189300Y239300
X211800Y221800
X284300Y251800
X284300Y279300
X299300Y269300
X244300Y256800
X154300Y194300
X121800Y251800
X259300Y159300
X64300Y176800
X61800Y161800
T02
X198300Y215613
X204300Y207987
X210300Y215613
X215300Y207987
T03
X261800Y71800
X271800Y71800
X281800Y71800
X291800Y71800
X301800Y71800
X301800Y131800
X291800Y131800
X281800Y131800
X271800Y131800
X261800Y131800
T04
X111800Y301800
X101800Y301800
X91800Y301800
X81800Y301800
T05
X366800Y176800
X366800Y166800
X366800Y156800
X366800Y146800
X366800Y136800
X366800Y126800
X376800Y176800
X376800Y166800
X376800Y156800
X376800Y146800
X376800Y136800
X376800Y126800
X366800Y116800
X376800Y116800
X31800Y96800
X21800Y96800
X31800Y106800
X21800Y106800
X31800Y116800
X21800Y116800
X31800Y126800
X21800Y126800
X31800Y136800
X21800Y136800
X31800Y146800
X21800Y146800
X31800Y156800
X21800Y156800
X31800Y166800
X21800Y166800
X31800Y176800
X21800Y176800
X31800Y186800
X21800Y186800
X31800Y196800
X21800Y196800
X31800Y206800
X21800Y206800
X31800Y216800
X21800Y216800
X31800Y226800
X21800Y226800
X31800Y236800
X21800Y236800
X31800Y246800
X21800Y246800
X31800Y256800
X21800Y256800
X31800Y266800
X21800Y266800
X31800Y276800
X21800Y276800
X31800Y286800
X21800Y286800
X54600Y22900
X29000Y22900
X54600Y40700
X29000Y40700
X124600Y152900
X99000Y152900
X124600Y170700
X99000Y170700
X99600Y22900
X74000Y22900
X99600Y40700
X74000Y40700
X144600Y22900
X119000Y22900
X144600Y40700
X119000Y40700
X189600Y22900
X164000Y22900
X189600Y40700
X164000Y40700
X234600Y22900
X209000Y22900
X234600Y40700
X209000Y40700
X279600Y22900
X254000Y22900
X279600Y40700
X254000Y40700
X324600Y22900
X299000Y22900
X324600Y40700
X299000Y40700
X369600Y22900
X344000Y22900
X369600Y40700
X344000Y40700
X156800Y281800
X166800Y281800
X176800Y281800
X186800Y281800
X156800Y291800
X166800Y291800
X176800Y291800
X186800Y291800
M30
