G75*
%MOIN*%
%OFA0B0*%
%FSLAX25Y25*%
%IPPOS*%
%LPD*%
%AMOC8*
5,1,8,0,0,1.08239X$1,22.5*
%
%ADD10C,0.00000*%
%ADD11C,0.00400*%
D10*
X0001800Y0001800D02*
X0001800Y0316761D01*
X0395501Y0316761D01*
X0395501Y0001800D01*
X0001800Y0001800D01*
D11*
X0062000Y0069500D02*
X0066604Y0069500D01*
X0066604Y0071802D01*
X0065837Y0072569D01*
X0064302Y0072569D01*
X0063535Y0071802D01*
X0063535Y0069500D01*
X0063535Y0071035D02*
X0062000Y0072569D01*
X0062000Y0074104D02*
X0062000Y0077173D01*
X0062000Y0075639D02*
X0066604Y0075639D01*
X0065069Y0074104D01*
X0077000Y0074104D02*
X0080069Y0077173D01*
X0080837Y0077173D01*
X0081604Y0076406D01*
X0081604Y0074871D01*
X0080837Y0074104D01*
X0080837Y0072569D02*
X0079302Y0072569D01*
X0078535Y0071802D01*
X0078535Y0069500D01*
X0078535Y0071035D02*
X0077000Y0072569D01*
X0077000Y0074104D02*
X0077000Y0077173D01*
X0080837Y0072569D02*
X0081604Y0071802D01*
X0081604Y0069500D01*
X0077000Y0069500D01*
X0108927Y0117000D02*
X0111996Y0117000D01*
X0110461Y0117000D02*
X0110461Y0121604D01*
X0111996Y0120069D01*
X0113531Y0120837D02*
X0114298Y0121604D01*
X0115833Y0121604D01*
X0116600Y0120837D01*
X0116600Y0117767D01*
X0115833Y0117000D01*
X0114298Y0117000D01*
X0113531Y0117767D01*
X0082912Y0132000D02*
X0082912Y0136604D01*
X0080610Y0136604D01*
X0079843Y0135837D01*
X0079843Y0134302D01*
X0080610Y0133535D01*
X0082912Y0133535D01*
X0081377Y0133535D02*
X0079843Y0132000D01*
X0078308Y0132000D02*
X0075239Y0135069D01*
X0075239Y0135837D01*
X0076006Y0136604D01*
X0077541Y0136604D01*
X0078308Y0135837D01*
X0078308Y0132000D02*
X0075239Y0132000D01*
X0073704Y0132000D02*
X0070635Y0132000D01*
X0072169Y0132000D02*
X0072169Y0136604D01*
X0073704Y0135069D01*
X0073704Y0152000D02*
X0070635Y0152000D01*
X0073704Y0152000D02*
X0070635Y0155069D01*
X0070635Y0155837D01*
X0071402Y0156604D01*
X0072937Y0156604D01*
X0073704Y0155837D01*
X0075239Y0155837D02*
X0076006Y0156604D01*
X0077541Y0156604D01*
X0078308Y0155837D01*
X0079843Y0155837D02*
X0080610Y0156604D01*
X0082912Y0156604D01*
X0082912Y0152000D01*
X0082912Y0153535D02*
X0080610Y0153535D01*
X0079843Y0154302D01*
X0079843Y0155837D01*
X0081377Y0153535D02*
X0079843Y0152000D01*
X0078308Y0152000D02*
X0075239Y0155069D01*
X0075239Y0155837D01*
X0075239Y0152000D02*
X0078308Y0152000D01*
X0078308Y0177000D02*
X0075239Y0177000D01*
X0073704Y0177767D02*
X0072937Y0177000D01*
X0071402Y0177000D01*
X0070635Y0177767D01*
X0070635Y0178535D01*
X0071402Y0179302D01*
X0072169Y0179302D01*
X0071402Y0179302D02*
X0070635Y0180069D01*
X0070635Y0180837D01*
X0071402Y0181604D01*
X0072937Y0181604D01*
X0073704Y0180837D01*
X0075239Y0180837D02*
X0076006Y0181604D01*
X0077541Y0181604D01*
X0078308Y0180837D01*
X0079843Y0180837D02*
X0080610Y0181604D01*
X0082912Y0181604D01*
X0082912Y0177000D01*
X0082912Y0178535D02*
X0080610Y0178535D01*
X0079843Y0179302D01*
X0079843Y0180837D01*
X0081377Y0178535D02*
X0079843Y0177000D01*
X0078308Y0177000D02*
X0075239Y0180069D01*
X0075239Y0180837D01*
X0145635Y0165837D02*
X0145635Y0162767D01*
X0146402Y0162000D01*
X0147937Y0162000D01*
X0148704Y0162767D01*
X0145635Y0165837D01*
X0146402Y0166604D01*
X0147937Y0166604D01*
X0148704Y0165837D01*
X0148704Y0162767D01*
X0150239Y0162000D02*
X0153308Y0162000D01*
X0154843Y0162000D02*
X0156377Y0163535D01*
X0155610Y0163535D02*
X0157912Y0163535D01*
X0157912Y0162000D02*
X0157912Y0166604D01*
X0155610Y0166604D01*
X0154843Y0165837D01*
X0154843Y0164302D01*
X0155610Y0163535D01*
X0153308Y0165069D02*
X0151773Y0166604D01*
X0151773Y0162000D01*
X0175635Y0156604D02*
X0178704Y0156604D01*
X0178704Y0154302D01*
X0177169Y0155069D01*
X0176402Y0155069D01*
X0175635Y0154302D01*
X0175635Y0152767D01*
X0176402Y0152000D01*
X0177937Y0152000D01*
X0178704Y0152767D01*
X0180239Y0152000D02*
X0183308Y0152000D01*
X0180239Y0155069D01*
X0180239Y0155837D01*
X0181006Y0156604D01*
X0182541Y0156604D01*
X0183308Y0155837D01*
X0184843Y0155837D02*
X0185610Y0156604D01*
X0187912Y0156604D01*
X0187912Y0152000D01*
X0187912Y0153535D02*
X0185610Y0153535D01*
X0184843Y0154302D01*
X0184843Y0155837D01*
X0186377Y0153535D02*
X0184843Y0152000D01*
X0185610Y0136604D02*
X0184843Y0135837D01*
X0184843Y0134302D01*
X0185610Y0133535D01*
X0187912Y0133535D01*
X0186377Y0133535D02*
X0184843Y0132000D01*
X0183308Y0132000D02*
X0180239Y0135069D01*
X0180239Y0135837D01*
X0181006Y0136604D01*
X0182541Y0136604D01*
X0183308Y0135837D01*
X0185610Y0136604D02*
X0187912Y0136604D01*
X0187912Y0132000D01*
X0183308Y0132000D02*
X0180239Y0132000D01*
X0178704Y0134302D02*
X0175635Y0134302D01*
X0176402Y0136604D02*
X0178704Y0134302D01*
X0176402Y0132000D02*
X0176402Y0136604D01*
X0203927Y0120837D02*
X0204694Y0121604D01*
X0206229Y0121604D01*
X0206996Y0120837D01*
X0208531Y0120837D02*
X0209298Y0121604D01*
X0210833Y0121604D01*
X0211600Y0120837D01*
X0211600Y0117767D01*
X0210833Y0117000D01*
X0209298Y0117000D01*
X0208531Y0117767D01*
X0206996Y0117000D02*
X0203927Y0120069D01*
X0203927Y0120837D01*
X0203927Y0117000D02*
X0206996Y0117000D01*
X0179302Y0077173D02*
X0179302Y0074104D01*
X0181604Y0076406D01*
X0177000Y0076406D01*
X0177000Y0072569D02*
X0178535Y0071035D01*
X0178535Y0071802D02*
X0178535Y0069500D01*
X0177000Y0069500D02*
X0181604Y0069500D01*
X0181604Y0071802D01*
X0180837Y0072569D01*
X0179302Y0072569D01*
X0178535Y0071802D01*
X0161604Y0071802D02*
X0161604Y0069500D01*
X0157000Y0069500D01*
X0158535Y0069500D02*
X0158535Y0071802D01*
X0159302Y0072569D01*
X0160837Y0072569D01*
X0161604Y0071802D01*
X0160837Y0074104D02*
X0161604Y0074871D01*
X0161604Y0076406D01*
X0160837Y0077173D01*
X0160069Y0077173D01*
X0159302Y0076406D01*
X0158535Y0077173D01*
X0157767Y0077173D01*
X0157000Y0076406D01*
X0157000Y0074871D01*
X0157767Y0074104D01*
X0157000Y0072569D02*
X0158535Y0071035D01*
X0159302Y0075639D02*
X0159302Y0076406D01*
X0247000Y0061406D02*
X0247000Y0059871D01*
X0247767Y0059104D01*
X0249302Y0059104D02*
X0250069Y0060639D01*
X0250069Y0061406D01*
X0249302Y0062173D01*
X0247767Y0062173D01*
X0247000Y0061406D01*
X0249302Y0059104D02*
X0251604Y0059104D01*
X0251604Y0062173D01*
X0250837Y0057569D02*
X0249302Y0057569D01*
X0248535Y0056802D01*
X0248535Y0054500D01*
X0248535Y0056035D02*
X0247000Y0057569D01*
X0247000Y0054500D02*
X0251604Y0054500D01*
X0251604Y0056802D01*
X0250837Y0057569D01*
X0287000Y0057569D02*
X0288535Y0056035D01*
X0288535Y0056802D02*
X0288535Y0054500D01*
X0287000Y0054500D02*
X0291604Y0054500D01*
X0291604Y0056802D01*
X0290837Y0057569D01*
X0289302Y0057569D01*
X0288535Y0056802D01*
X0289302Y0059104D02*
X0289302Y0061406D01*
X0288535Y0062173D01*
X0287767Y0062173D01*
X0287000Y0061406D01*
X0287000Y0059871D01*
X0287767Y0059104D01*
X0289302Y0059104D01*
X0290837Y0060639D01*
X0291604Y0062173D01*
X0327000Y0069500D02*
X0331604Y0069500D01*
X0331604Y0071802D01*
X0330837Y0072569D01*
X0329302Y0072569D01*
X0328535Y0071802D01*
X0328535Y0069500D01*
X0328535Y0071035D02*
X0327000Y0072569D01*
X0327000Y0074104D02*
X0327767Y0074104D01*
X0330837Y0077173D01*
X0331604Y0077173D01*
X0331604Y0074104D01*
X0342000Y0072198D02*
X0342000Y0070663D01*
X0342767Y0069896D01*
X0343535Y0069896D01*
X0344302Y0070663D01*
X0344302Y0072198D01*
X0343535Y0072965D01*
X0342767Y0072965D01*
X0342000Y0072198D01*
X0344302Y0072198D02*
X0345069Y0072965D01*
X0345837Y0072965D01*
X0346604Y0072198D01*
X0346604Y0070663D01*
X0345837Y0069896D01*
X0345069Y0069896D01*
X0344302Y0070663D01*
X0344302Y0068361D02*
X0343535Y0067594D01*
X0343535Y0065292D01*
X0343535Y0066827D02*
X0342000Y0068361D01*
X0344302Y0068361D02*
X0345837Y0068361D01*
X0346604Y0067594D01*
X0346604Y0065292D01*
X0342000Y0065292D01*
X0289100Y0102000D02*
X0289100Y0106604D01*
X0286798Y0106604D01*
X0286031Y0105837D01*
X0286031Y0104302D01*
X0286798Y0103535D01*
X0289100Y0103535D01*
X0287565Y0103535D02*
X0286031Y0102000D01*
X0284496Y0102767D02*
X0283729Y0102000D01*
X0282194Y0102000D01*
X0281427Y0102767D01*
X0281427Y0103535D01*
X0282194Y0104302D01*
X0282961Y0104302D01*
X0282194Y0104302D02*
X0281427Y0105069D01*
X0281427Y0105837D01*
X0282194Y0106604D01*
X0283729Y0106604D01*
X0284496Y0105837D01*
X0279892Y0106604D02*
X0276823Y0106604D01*
X0276823Y0105837D01*
X0279892Y0102767D01*
X0279892Y0102000D01*
X0269100Y0102000D02*
X0269100Y0106604D01*
X0266798Y0106604D01*
X0266031Y0105837D01*
X0266031Y0104302D01*
X0266798Y0103535D01*
X0269100Y0103535D01*
X0267565Y0103535D02*
X0266031Y0102000D01*
X0264496Y0102767D02*
X0263729Y0102000D01*
X0262194Y0102000D01*
X0261427Y0102767D01*
X0261427Y0103535D01*
X0262194Y0104302D01*
X0262961Y0104302D01*
X0262194Y0104302D02*
X0261427Y0105069D01*
X0261427Y0105837D01*
X0262194Y0106604D01*
X0263729Y0106604D01*
X0264496Y0105837D01*
X0259892Y0105837D02*
X0259892Y0105069D01*
X0259125Y0104302D01*
X0257590Y0104302D01*
X0256823Y0103535D01*
X0256823Y0102767D01*
X0257590Y0102000D01*
X0259125Y0102000D01*
X0259892Y0102767D01*
X0259892Y0103535D01*
X0259125Y0104302D01*
X0257590Y0104302D02*
X0256823Y0105069D01*
X0256823Y0105837D01*
X0257590Y0106604D01*
X0259125Y0106604D01*
X0259892Y0105837D01*
X0286823Y0122767D02*
X0286823Y0123535D01*
X0287590Y0124302D01*
X0289892Y0124302D01*
X0289892Y0122767D01*
X0289125Y0122000D01*
X0287590Y0122000D01*
X0286823Y0122767D01*
X0289892Y0124302D02*
X0288358Y0125837D01*
X0286823Y0126604D01*
X0291427Y0125837D02*
X0291427Y0125069D01*
X0292194Y0124302D01*
X0291427Y0123535D01*
X0291427Y0122767D01*
X0292194Y0122000D01*
X0293729Y0122000D01*
X0294496Y0122767D01*
X0296031Y0122000D02*
X0297565Y0123535D01*
X0296798Y0123535D02*
X0299100Y0123535D01*
X0299100Y0122000D02*
X0299100Y0126604D01*
X0296798Y0126604D01*
X0296031Y0125837D01*
X0296031Y0124302D01*
X0296798Y0123535D01*
X0294496Y0125837D02*
X0293729Y0126604D01*
X0292194Y0126604D01*
X0291427Y0125837D01*
X0292194Y0124302D02*
X0292961Y0124302D01*
X0289100Y0157000D02*
X0289100Y0161604D01*
X0286798Y0161604D01*
X0286031Y0160837D01*
X0286031Y0159302D01*
X0286798Y0158535D01*
X0289100Y0158535D01*
X0287565Y0158535D02*
X0286031Y0157000D01*
X0284496Y0157767D02*
X0283729Y0157000D01*
X0282194Y0157000D01*
X0281427Y0157767D01*
X0281427Y0158535D01*
X0282194Y0159302D01*
X0282961Y0159302D01*
X0282194Y0159302D02*
X0281427Y0160069D01*
X0281427Y0160837D01*
X0282194Y0161604D01*
X0283729Y0161604D01*
X0284496Y0160837D01*
X0279892Y0161604D02*
X0279892Y0159302D01*
X0278358Y0160069D01*
X0277590Y0160069D01*
X0276823Y0159302D01*
X0276823Y0157767D01*
X0277590Y0157000D01*
X0279125Y0157000D01*
X0279892Y0157767D01*
X0277912Y0157000D02*
X0277912Y0161604D01*
X0275610Y0161604D01*
X0274843Y0160837D01*
X0274843Y0159302D01*
X0275610Y0158535D01*
X0277912Y0158535D01*
X0276377Y0158535D02*
X0274843Y0157000D01*
X0273308Y0157000D02*
X0270239Y0160069D01*
X0270239Y0160837D01*
X0271006Y0161604D01*
X0272541Y0161604D01*
X0273308Y0160837D01*
X0276823Y0161604D02*
X0279892Y0161604D01*
X0273308Y0157000D02*
X0270239Y0157000D01*
X0269100Y0157000D02*
X0269100Y0161604D01*
X0266798Y0161604D01*
X0266031Y0160837D01*
X0266031Y0159302D01*
X0266798Y0158535D01*
X0269100Y0158535D01*
X0268704Y0157767D02*
X0268704Y0157000D01*
X0268704Y0157767D02*
X0265635Y0160837D01*
X0265635Y0161604D01*
X0268704Y0161604D01*
X0267565Y0158535D02*
X0266031Y0157000D01*
X0264496Y0159302D02*
X0261427Y0159302D01*
X0259892Y0160837D02*
X0259125Y0161604D01*
X0257590Y0161604D01*
X0256823Y0160837D01*
X0259892Y0157767D01*
X0259125Y0157000D01*
X0257590Y0157000D01*
X0256823Y0157767D01*
X0256823Y0160837D01*
X0259892Y0160837D02*
X0259892Y0157767D01*
X0262194Y0157000D02*
X0262194Y0161604D01*
X0264496Y0159302D01*
X0266402Y0172000D02*
X0267937Y0172000D01*
X0268704Y0172767D01*
X0268704Y0173535D01*
X0267937Y0174302D01*
X0266402Y0174302D01*
X0265635Y0173535D01*
X0265635Y0172767D01*
X0266402Y0172000D01*
X0266402Y0174302D02*
X0265635Y0175069D01*
X0265635Y0175837D01*
X0266402Y0176604D01*
X0267937Y0176604D01*
X0268704Y0175837D01*
X0268704Y0175069D01*
X0267937Y0174302D01*
X0270239Y0175069D02*
X0270239Y0175837D01*
X0271006Y0176604D01*
X0272541Y0176604D01*
X0273308Y0175837D01*
X0274843Y0175837D02*
X0274843Y0174302D01*
X0275610Y0173535D01*
X0277912Y0173535D01*
X0276377Y0173535D02*
X0274843Y0172000D01*
X0273308Y0172000D02*
X0270239Y0175069D01*
X0270239Y0172000D02*
X0273308Y0172000D01*
X0277912Y0172000D02*
X0277912Y0176604D01*
X0275610Y0176604D01*
X0274843Y0175837D01*
X0274843Y0187000D02*
X0276377Y0188535D01*
X0275610Y0188535D02*
X0277912Y0188535D01*
X0277912Y0187000D02*
X0277912Y0191604D01*
X0275610Y0191604D01*
X0274843Y0190837D01*
X0274843Y0189302D01*
X0275610Y0188535D01*
X0273308Y0187000D02*
X0270239Y0190069D01*
X0270239Y0190837D01*
X0271006Y0191604D01*
X0272541Y0191604D01*
X0273308Y0190837D01*
X0273308Y0187000D02*
X0270239Y0187000D01*
X0268704Y0187767D02*
X0267937Y0187000D01*
X0266402Y0187000D01*
X0265635Y0187767D01*
X0265635Y0190837D01*
X0266402Y0191604D01*
X0267937Y0191604D01*
X0268704Y0190837D01*
X0268704Y0190069D01*
X0267937Y0189302D01*
X0265635Y0189302D01*
X0317000Y0174698D02*
X0317000Y0173163D01*
X0317767Y0172396D01*
X0317767Y0170861D02*
X0317000Y0170094D01*
X0317000Y0168559D01*
X0317767Y0167792D01*
X0320837Y0167792D01*
X0321604Y0168559D01*
X0321604Y0170094D01*
X0320837Y0170861D01*
X0320837Y0172396D02*
X0321604Y0173163D01*
X0321604Y0174698D01*
X0320837Y0175465D01*
X0320069Y0175465D01*
X0319302Y0174698D01*
X0318535Y0175465D01*
X0317767Y0175465D01*
X0317000Y0174698D01*
X0319302Y0174698D02*
X0319302Y0173931D01*
X0211604Y0230688D02*
X0211604Y0232990D01*
X0210837Y0233757D01*
X0209302Y0233757D01*
X0208535Y0232990D01*
X0208535Y0230688D01*
X0208535Y0232223D02*
X0207000Y0233757D01*
X0207767Y0235292D02*
X0207000Y0236059D01*
X0207000Y0237594D01*
X0207767Y0238361D01*
X0208535Y0238361D01*
X0209302Y0237594D01*
X0209302Y0236827D01*
X0209302Y0237594D02*
X0210069Y0238361D01*
X0210837Y0238361D01*
X0211604Y0237594D01*
X0211604Y0236059D01*
X0210837Y0235292D01*
X0211604Y0230688D02*
X0207000Y0230688D01*
X0209302Y0239896D02*
X0209302Y0242965D01*
X0211604Y0242198D02*
X0209302Y0239896D01*
X0207000Y0242198D02*
X0211604Y0242198D01*
X0191604Y0242198D02*
X0191604Y0240663D01*
X0190837Y0239896D01*
X0190837Y0238361D02*
X0190069Y0238361D01*
X0189302Y0237594D01*
X0188535Y0238361D01*
X0187767Y0238361D01*
X0187000Y0237594D01*
X0187000Y0236059D01*
X0187767Y0235292D01*
X0187000Y0233757D02*
X0188535Y0232223D01*
X0188535Y0232990D02*
X0188535Y0230688D01*
X0187000Y0230688D02*
X0191604Y0230688D01*
X0191604Y0232990D01*
X0190837Y0233757D01*
X0189302Y0233757D01*
X0188535Y0232990D01*
X0190837Y0235292D02*
X0191604Y0236059D01*
X0191604Y0237594D01*
X0190837Y0238361D01*
X0189302Y0237594D02*
X0189302Y0236827D01*
X0187767Y0239896D02*
X0187000Y0240663D01*
X0187000Y0242198D01*
X0187767Y0242965D01*
X0188535Y0242965D01*
X0189302Y0242198D01*
X0189302Y0241431D01*
X0189302Y0242198D02*
X0190069Y0242965D01*
X0190837Y0242965D01*
X0191604Y0242198D01*
X0171604Y0242198D02*
X0171604Y0240663D01*
X0170837Y0239896D01*
X0171604Y0242198D02*
X0170837Y0242965D01*
X0170069Y0242965D01*
X0167000Y0239896D01*
X0167000Y0242965D01*
X0167000Y0238361D02*
X0167000Y0235292D01*
X0167000Y0233757D02*
X0168535Y0232223D01*
X0168535Y0232990D02*
X0168535Y0230688D01*
X0167000Y0230688D02*
X0171604Y0230688D01*
X0171604Y0232990D01*
X0170837Y0233757D01*
X0169302Y0233757D01*
X0168535Y0232990D01*
X0170069Y0235292D02*
X0171604Y0236827D01*
X0167000Y0236827D01*
X0151604Y0236827D02*
X0147000Y0236827D01*
X0147000Y0238361D02*
X0147000Y0235292D01*
X0147000Y0233757D02*
X0148535Y0232223D01*
X0148535Y0232990D02*
X0148535Y0230688D01*
X0147000Y0230688D02*
X0151604Y0230688D01*
X0151604Y0232990D01*
X0150837Y0233757D01*
X0149302Y0233757D01*
X0148535Y0232990D01*
X0150069Y0235292D02*
X0151604Y0236827D01*
X0150069Y0239896D02*
X0151604Y0241431D01*
X0147000Y0241431D01*
X0147000Y0242965D02*
X0147000Y0239896D01*
X0156402Y0211604D02*
X0157937Y0211604D01*
X0158704Y0210837D01*
X0160239Y0210837D02*
X0160239Y0210069D01*
X0161006Y0209302D01*
X0160239Y0208535D01*
X0160239Y0207767D01*
X0161006Y0207000D01*
X0162541Y0207000D01*
X0163308Y0207767D01*
X0164843Y0207000D02*
X0166377Y0208535D01*
X0165610Y0208535D02*
X0167912Y0208535D01*
X0167912Y0207000D02*
X0167912Y0211604D01*
X0165610Y0211604D01*
X0164843Y0210837D01*
X0164843Y0209302D01*
X0165610Y0208535D01*
X0163308Y0210837D02*
X0162541Y0211604D01*
X0161006Y0211604D01*
X0160239Y0210837D01*
X0161006Y0209302D02*
X0161773Y0209302D01*
X0158704Y0207000D02*
X0155635Y0210069D01*
X0155635Y0210837D01*
X0156402Y0211604D01*
X0155635Y0207000D02*
X0158704Y0207000D01*
X0175635Y0176604D02*
X0177169Y0175837D01*
X0178704Y0174302D01*
X0176402Y0174302D01*
X0175635Y0173535D01*
X0175635Y0172767D01*
X0176402Y0172000D01*
X0177937Y0172000D01*
X0178704Y0172767D01*
X0178704Y0174302D01*
X0180239Y0175069D02*
X0183308Y0172000D01*
X0180239Y0172000D01*
X0180239Y0175069D02*
X0180239Y0175837D01*
X0181006Y0176604D01*
X0182541Y0176604D01*
X0183308Y0175837D01*
X0184843Y0175837D02*
X0184843Y0174302D01*
X0185610Y0173535D01*
X0187912Y0173535D01*
X0186377Y0173535D02*
X0184843Y0172000D01*
X0187912Y0172000D02*
X0187912Y0176604D01*
X0185610Y0176604D01*
X0184843Y0175837D01*
X0111604Y0255688D02*
X0107000Y0255688D01*
X0108535Y0255688D02*
X0108535Y0257990D01*
X0109302Y0258757D01*
X0110837Y0258757D01*
X0111604Y0257990D01*
X0111604Y0255688D01*
X0108535Y0257223D02*
X0107000Y0258757D01*
X0107767Y0260292D02*
X0107000Y0261059D01*
X0107000Y0262594D01*
X0107767Y0263361D01*
X0108535Y0263361D01*
X0109302Y0262594D01*
X0109302Y0261827D01*
X0109302Y0262594D02*
X0110069Y0263361D01*
X0110837Y0263361D01*
X0111604Y0262594D01*
X0111604Y0261059D01*
X0110837Y0260292D01*
X0110069Y0264896D02*
X0111604Y0266431D01*
X0107000Y0266431D01*
X0107000Y0267965D02*
X0107000Y0264896D01*
X0096604Y0265663D02*
X0096604Y0267198D01*
X0095837Y0267965D01*
X0092767Y0264896D01*
X0092000Y0265663D01*
X0092000Y0267198D01*
X0092767Y0267965D01*
X0095837Y0267965D01*
X0096604Y0265663D02*
X0095837Y0264896D01*
X0092767Y0264896D01*
X0092767Y0263361D02*
X0092000Y0262594D01*
X0092000Y0261059D01*
X0092767Y0260292D01*
X0092000Y0258757D02*
X0093535Y0257223D01*
X0093535Y0257990D02*
X0093535Y0255688D01*
X0092000Y0255688D02*
X0096604Y0255688D01*
X0096604Y0257990D01*
X0095837Y0258757D01*
X0094302Y0258757D01*
X0093535Y0257990D01*
X0095837Y0260292D02*
X0096604Y0261059D01*
X0096604Y0262594D01*
X0095837Y0263361D01*
X0095069Y0263361D01*
X0094302Y0262594D01*
X0093535Y0263361D01*
X0092767Y0263361D01*
X0094302Y0262594D02*
X0094302Y0261827D01*
X0090833Y0287000D02*
X0089298Y0287000D01*
X0088531Y0287767D01*
X0086996Y0289302D02*
X0084694Y0291604D01*
X0084694Y0287000D01*
X0083927Y0289302D02*
X0086996Y0289302D01*
X0088531Y0290837D02*
X0089298Y0291604D01*
X0090833Y0291604D01*
X0091600Y0290837D01*
X0091600Y0287767D01*
X0090833Y0287000D01*
M02*
